<mxfile host="app.diagrams.net" modified="2023-05-07T12:12:01.793Z" agent="Mozilla/5.0 (Macintosh; Intel Mac OS X 10_15_7) AppleWebKit/605.1.15 (KHTML, like Gecko) Version/16.4 Safari/605.1.15" etag="2uJ4k_RrKF2PsEq_Ek4I" version="21.2.7" type="device">
  <diagram name="Page-1" id="ga7oqP3CUiPtDXBq09ly">
    <mxGraphModel dx="1583" dy="935" grid="1" gridSize="10" guides="1" tooltips="1" connect="1" arrows="1" fold="1" page="1" pageScale="1" pageWidth="827" pageHeight="1169" math="0" shadow="0">
      <root>
        <mxCell id="0" />
        <mxCell id="1" parent="0" />
        <mxCell id="fTztNK8zsogFQmW7qKG--1" value="" style="shape=image;verticalLabelPosition=bottom;labelBackgroundColor=default;verticalAlign=top;aspect=fixed;imageAspect=0;image=data:image/png,iVBORw0KGgoAAAANSUhEUgAABQgAAAIwCAYAAADK7oYgAAAAAXNSR0IArs4c6QAAAIRlWElmTU0AKgAAAAgABQESAAMAAAABAAEAAAEaAAUAAAABAAAASgEbAAUAAAABAAAAUgEoAAMAAAABAAIAAIdpAAQAAAABAAAAWgAAAAAAAACQAAAAAQAAAJAAAAABAAOgAQADAAAAAQABAACgAgAEAAAAAQAABQigAwAEAAAAAQAAAjAAAAAAv9+pbAAAAAlwSFlzAAAWJQAAFiUBSVIk8AAAQABJREFUeAHsfQeAJEd5dfXMbN7L+RRO4ZQTykiApCMLIYQByWRskzE52QYDwgT/GAwmGYRINllkhIkGSYBAAp0CWEJC6e500p0up71NM9P/e9VV1dU93TOzextmZ7+6e9NVX736qup1T+hvq7sDJUkUEAVEAVFAFBAFRAFRQBQQBUQBUUAUEAVEAVGgZRS49KqweNe8h7vnVcLe/ZWwp6RKXUF1dGmh2HlIpTxycBAEK0JVWREEHYtVpbJIFYuLVRjODyujPZhEhwqCclAoDKmguEdVq9tVoLaFqro9qIabYdusOkoPhkP71wdB5+ZCV8/+0YFdw51d/QMdcxcPXrsmKLeMEDKQKVMgmLKepCNRQBQQBUQBUUAUEAVEAVFAFBAFRAFRQBQQBUSBWgXCMHjUD7Yh6De6OgyKx6lq+TBVCFZVq9VDEfhbgYDfImznBoWijuOEYahQhh+CG7ONSqlXNNGtuA34HylAkypeg32hCneqSvXhoFhaj4oNqlhYF1Srf6kEhbsqK5dtXHtGMJpyKMU2VEAfFm04L5mSKCAKiAKigCggCogCooAoIAqIAqKAKCAKiAKtq0AYFs79yfbTK8ODT0Xg73FhtXoE4n09Kqz2IoBXQtSvMOWDDwLEC0OsICwMYwXifhVUNyP0eE2x0PGjLcWl193zlGB4ysckHU6JAhIgnBKZpRNRQBQQBUQBUUAUEAVEAVFAFBAFRAFRQBSYtQpgheDZX7lnTmVO74qOMDgeKwMvRgDusbjslysEuZyvdaXRqw4LiF2G24Og8Ktqofi9YiW8pVLtfej3f/zwTnX55dXWHbyMrFkFJEDYrFLCEwVEAVFAFBAFRAFRQBQQBUQBUUAUEAVEAVFgjAqc+d2NjygUi4/HZbvnIg54KlYGHgoXiLjNwLgar08mQrUF21sR2fxDISj8bPfqFTfcfkIwMkZphN5CCkiAsIV2hgxFFBAFRAFRQBQQBUQBUUAUEAVEAVFAFBAFZr4CfMjIA12bLgnC8M0IA56MB4V0I6pWnPkzS88gqOKBKcNBULw3LAZX7t+pPvfHFy4fSLOk3PoKSICw9feRjFAUEAVEAVFAFBAFRAFRQBQQBUQBUUAUEAVaXIGT/3tzX/eCYLUql5+Eof6dCitH68uHUUAQrcVHPwHD06sLi5vw5JOvFsLwO2qkeufvLj14JybfwtdPT8C828TFLDhC22RPyTREAVFAFBAFRAFRQBQQBUQBUUAUEAVEAVGg5RRY/aO7uxYO912oVOUyhAIfjUuHD8m9pyCiMHhycMvNYUIHVCgorJzciacx/xYz/V5xccc3rn/0kr0T2oc4m3AF2vyonHC9xKEoIAqIAqKAKCAKiAKigCggCogCooAoIAqIAlqBR/7PtrOrI8OfCCvl0/jU4bGsFBwLd8bKjdWDeBjLQ3iwyVt/f/Hyr87YecyCgUuAcBbsZJmiKCAKiAKigCggCogCooAoIAqIAqKAKCAKTIwCj/r+1jnl6ug5ePbwK8Jq+ek1TyFGpCUKtjQXcpkNgUIECVVQCH6HVYUfDav7r73xkiMenpi9IV4mSoHmjtaJ6k38iAKigCggCogCooAoIAqIAqKAKCAKiAKigCgwExUIw+Cs765fg9VwrylUqueFYbiwmWmMJQA4Fm4zfbcUJ7oP4yDuSXhjQRWu7Jq34qpr1wTllhrjLB6MBAhn8c6XqYsCooAoIAqIAqKAKCAKiAKigCggCogCokATCoRh4czvbfoUVgy+VFUriQWCTd1TEC0SjRp02daBQsw9KHWqUIW/KQfh89ZevHJDAzmkegoUkADhFIgsXYgCooAoIAqIAqKAKCAKiAKigCggCogCosDMU+D0qx9aXKxWL6pWqu9AROtIBAdrJzHm4B9dNBeOaetAIVYUBkFhS1AofTCs7P/WDU8/bL088bj28JoqS3NH5FSNRvoRBUQBUUAUEAVEAVFAFBAFRAFRQBQQBUQBUaAFFDjtqntOLxRL7w1DdR6eTNwbBVAahFFMdbPcpnhGi7YNFuJBJggM/l4VCh+88Wkrv90Cu35WDqHBkT0rNZFJiwKigCggCogCooAoIAqIAqKAKCAKiAKiwCxV4NKrwuL9nQ+/NlDVD+MJxVAhjJRABCUOosS5TJkctwGPjcfMbcJn5qBa21jAZcdVFXzm0KGlr/nmZcFIa4+2/UbXnkdV++0nmZEoIAqIAqKAKCAKiAKigCggCogCooAoIApMsgKnff+Bk4PR8ttVGDwDqwZLNd2ZKEocTIlzNVwaUB0xGvBM47GsEhwLN3NsLWgMilryG6uhetfvn77ypy04xLYdUnNHaNtOXyYmCogCooAoIAqIAqKAKCAKiAKigCggCogCs12B06+4qUMtXvkiVR1+Gx6ecZjCE4ubCuyBFAdW4lymnqZ6wh9qosfQoO/MAbWoUV9yXHi4UCh+sWvOsnfjScdDLTrSthpWGx1BbbVfZDKigCggCogCooAoIAqIAqKAKCAKiAKigCgwBQqcflPYoe5f/84wrP4jAoPRqkEvWhJn41zNsEzVhAf/0FHTKwUxhqb6rxl8axr0asJA/aijs+Mlv37ykk2tOcr2GVWdo7t9JikzEQVEAVFAFBAFRAFRQBQQBUQBUUAUEAVEAVEgrcAZ39lwYlitvieshk/HJcXp6qisA29+VZ1QSoJbh0d3prqpoJ7z28CndWvWP/qjnpF5ziMIblDFzrfcePHS38zIOcyQQTc+smbIRGSYooAoIAqIAqKAKCAKiAKigCggCogCooAoIAo0q8Cp399wnhqufEyp6ikBHlUcp5xQiWeOs3Eubm9ypira1OGRjuqmeNZ1swFA7bdB38Zn6244icKWsBi8s7Lpoc+vffkZo6071pk7spl+lMxc5WXkooAoIAqIAqKAKCAKiAKigCggCogCooAoMOUK8CnF93Y/eKYaHPlJGIbz/KcUczBxoCTO1QzSVMWMOJfFjWvjXA2PBlRHjAa8MXKjeGITPjMH1SrGYKhQLL2la+6dn752zZpyq4yqXcYx04+OdtkPMg9RQBQQBUQBUUAUEAVEAVFAFBAFRAFRQBSYZAVOv/qh3urI6IuDauXDYSX/KcUcRhwwiXM1wzNV0aYOzziMGXGuxmeC24A3Lm4TPjMH1QLGoDAaFAufqPb2v+/3j5+7vQVG1DZDKLTNTGQiooAoIAqIAqKAKCAKiAKigCggCogCooAoIArUUSAcGHpDWB59X7VSwcNIeFmxhWlki9jyquOo6BnTvk1VxMXzj50/VqQSTJrHrfkX9ZDisei4lpnhzzZLcXN9Or/wiYEQMy6F1Y6wXHldMLD346dfvWfxjBt/Cw94BoeNW1hVGZooIAqIAqKAKCAKiAKigCggCogCooAoIAq0jALnXPVAz5Aq4ynF1XfioST+8sDGKwW9yEmcjXM1kzRV0aYOjw1RHTPiXI3PBLcBb1zcJnxmDmqajLhmOih0fLl7buGV165Zum+aRtFW3c6wI6CttJfJiAKigCggCogCooAoIAqIAqKAKCAKiAKiwCQrcPpV986rBsE7sCrvTWGlUtubFxnxsuAlS66hMce1cc5xbAZVydpkSdNo4mI+XcVnGruC9VKz5T0FI1aGvzQblIjVBJfDaPYBKOl+prpcKGBewdWlYvDq31y8csNUd99u/cklxu22R2U+ooAoIAqIAqKAKCAKiAKigCggCogCooAo4BSoBIV/qJbLrwkrfK4Fw2qElzyTlwUhxbNNjDnmxjlLcVtURZcfW2+msSMgY03aDS8pZtIFnct60VcHgxKxoxZZPG0jr1kuGujLj92gcr1OfwVWgoZh5anlavjxx/xo05LpH9DMHkFz4eOZPUcZvSggCogCooAoIAqIAqKAKCAKiAKigCggCswyBS74wv3du3rDN4bVyvuigFskQDIQkixphmfysqhKlnxusiZZinqNmydrk6U0l2WuKWyYQIlYzXKb4JlOW35FIVc8Fktf6Bkqvvbay+Ry44bHSg6h+SMix4GYRQFRQBQQBUQBUUAUEAVEAVFAFBAFRAFRQBRoJQV0cLBfvRYPtPhX3HcwefWkFwnxshh+sqTn45nibJxLzNkzx9k4l+CyYKqiTR2e4caMOFfjM8FtwBsXtwmfmYOaZGOhEAaF4n+NDu1//drLjtw9yb21pfvkm6QtpyiTEgVEAVFAFBAFRAFRQBQQBUQBUUAUEAVEgdmkwO6+wlPDyijuO1hB3IOX4HqX4XpFm41qkyWtlzUZD7k8klNc3d43Rob4NXJmGLaxMcYs58ZeqpzoKM1jGS6avqQ4wc1y5tk0t0WfflytBqpcfkGps/ufV3/s7i5v1JJtUgEJEDYplNBEAVFAFBAFRAFRQBQQBUQBUUAUEAVEAVGg9RU48Wv3nFupDF8RVsP+ZLiNJc+SUYxn5/Fo9LheNllhGxuCDehFnpKtLNX5RXXMiFo4jp8hz3D9Fj7F5R2X/og6SXN5R8MmuHDD+xQ29Fmnu8mowtiLWC3694sPn/MCDLBFlzpOxswnxqcINjE6ihdRQBQQBUQBUUAUEAVEAVFAFBAFRAFRQBSYZgVOueq+s8JK9VuqWj3EBbC8yIeXNSNNWbyilx0jt7alvZyYjuLaOGc6iDaeOc7GuQSXBVM1rfcqxBia6r9m8BNvwKXGO8Jix8tvvHjptybee/t6rHOEte+kZWaigCggCogCooAoIAqIAqKAKCAKiAKigCjQXgqccNXty4vVzm+oSuW8aGZeyMPL2lknTcmSDbqRm6xJlrQvz+Rla1pqLl8MKebGOcexGVQla5MlS9PbBLcOj2THbcBz3CZ4kVv4bo5L15OWisVtJRVceP0lK2+atD7azLFcYtxmO1SmIwqIAqKAKCAKiAKigCggCogCooAoIArMNgUuuOaaUlDt/kesHjTBQSrgXQZrs9ya5GVhsQSv0hCSNcmSZnsmL2t8Gn/+hiSkmBvnohrvFVW2ltuo5NX7WXINP27lE7y849IrUSdprr38uA4PVdpbK1x+XKksrqjw/ad+f8PK+iOWWquABAitErIVBUQBUUAUEAVEAVFAFBAFRAFRQBQQBUSBGanAti2HvC4IK69giMqGvOw2DpbRghRXuKyp8SpTXBRts6gmWUr4TXB9XtSyhuv4PlezohfPHAUAbbDOVnhcZunPIjXqFNPj+j5rWJFB+wQPzvkvUiSbG/VvuCxMQ0Kw+HFdQcfbp6HrGdllC6z7nJG6yaBFAVFAFBAFRAFRQBQQBUQBUUAUEAVEAVGgBRQ46aq7z1fl6o9x38Eed0FuKtqRKmLUKUvdYn5lsiZZ0tJ4pjgb5xLyeeY4G+cSXBZMVbSpwzPcmBHnanwmuA144+I24TNzUOM0Foq44jl42Q2XrLxynB5mTbMp3jOzRleZqCggCogCooAoIAqIAqKAKCAKiAKigCggCkyyAsd8bcPKjnD4y0G1vCbZlQl3pKIeqaJp4lmzs7U8WnK5XoVpeeDcDJ/eGOLaOGe7dltTFW3q8GwDUJrlRrcdbMKn8Y2gne1l8reF0qZCMXj67y5e/gfMaHqWM07+LA+4B7nE+IAlFAeigCggCogCooAoIAqIAqKAKCAKiAKigCgwHQp0qOFXq7DyGHvBaxz9MRZ9rStGZipqeRy1Z7XZpNU0t5XcJgnJmmSpOa5mRS9e8zgb5zymG3p0SS+LOTw2MlXu8l9r0NuE16gAfi03g0fXmmsuKXZ+s7m06suU0Sgabz5vQmqqlWXVMPyns3+0Y86E+GtTJxIgbNMdK9MSBUQBUUAUEAVEAVFAFBAFRAFRQBQQBdpZgZOuWndOgMCPqoYlf542RBbbbGQMFmZNquWxIsVN8W1bx7MGz5mXjf1ZHrceIc7aHLdesmaY4myc85hRFlVxbZyr4dFQw81kRUZyNb+BT+vXcev4dNzJDhSGhUAFT68ODTyzwWhmdfUUrumc1TrL5EUBUUAUEAVEAVFAFBAFRAFRQBQQBUQBUWCCFDj5y3cfHBbCn4eV8rGRSxPeSEU5UkXTezaXlUm+V/KytbyUpS43VVm3aQbX48e1cY7ViYSquDbOJTi2MC5uA5/07fw25o71UmU79Ka2hdJuFRTPu/GSZX9sij/LSLKCcJbtcJmuKCAKiAKigCggCogCooAoIAqIAqKAKDCTFTjhqrCzWlSvDKvl1VzPFiWzsi261jVaRocKu97Nbmu5hhRVJPiJ1tHyOWey/riNkmfxsv4qvYjrV9Zv6jrTo7L9YGtcWE/OkOaxCUjx0O1KPbbMSClu5DeDR5Plwnl0mXCOz0xujk+61X7h0fnN5465plqZF6jyh87+0fa5Y247CxpIgHAW7GSZoiggCogCooAoIAqIAqKAKCAKiAKigCjQPgpsWB2WKy9FDElfWszQVG14ipGm2opMno52ZXOTfK+UynpF48izMGuKXraWB4s/5ma5Oqjmuki2okudrBlbZhMd6bL3YriRX6+hR0lk6ZPwB58geAXNbSKoyCaGG43V8zHuLPqtVh8dlocuxYAbL2ccdz8zs6EECGfmfpNRiwKigCggCogCooAoIAqIAqKAKCAKiAKzToFLw7CoRof/BQ+jXZKePOJJJvhla4zFRtCM2fK4jZPlwmIJpjKTxzrLMwRbNM0MIS45vtc0qq1tWZ/r+bRZbwy5Pj1u3GOcs9WJLapj+ZrlNuCxA+eX3PpJ988XLUp9bsPaMOwJquoV53734Zrjp2HbNidIgLDNd7BMTxQQBUQBUUAUEAVEAVFAFBAFRAFRQBRoFwVu/8Z9z1Zh+RJVrZrIlYs0uSnaUFIy9GR53DqqH4czRlYa2GxssTUpi1f0slFz68RukwRr5db1mzVAEGJunMuajA3oRSyfqzuJXow55vo85lMJpihQxx59borHouM2sVJQc8GD89hvhk+69bi6k2xaY2tYPb1SCF/RmDi7GLKkcnbtb5mtKCAKiAKigCggCogCooAoIAqIAqKAKDAjFTj6q3ct7gjD34aVylGcQGZAI3rKRc38Mrnx0zMS/FqusaQqUsXaEXkEL1vLY+8ewcsmK8hj8ghxNs5FJPNqzMnaZMnxPXOU9QyO5GVQHTPinMeIs47bgMcWmtsEb6zceDQqKJQqI0Hp2JsvWXqPZ57VWVlBOKt3v0xeFBAFRAFRQBQQBUQBUUAUEAVEAVFAFJgBClwVFoth8Dzce/BQO1q7js2W9dYuc0sY89ab2aVuSXKtX2NJVaSKcJKysGhSssaWsgm2NmqaLGmbZ4qzcc726XOTtSxlJI8UMTxDBl2vFIQ95maRjA0kvWvSGmU10dwGfdt2hhutPrTGxtswrBQ7VfXyE24POxuzZwdDAoSzYz/LLEUBUUAUEAVEAVFAFBAFRAFRQBQQBUSBGavAyUP3LipUK89HmKlLR5pMWIoTsqEkbl2ygUK7RYXPS3BZY3lehc+P/BpLFOmKHKb8Jnjab5Lg+4y68i353OToo178CVkvmTzSDSEeun9JbzQS4zXJRVXEjHtwvLRfOI8CdTlc8KuoKuPq8DIuEa9yMHpgCY+uoMdKnwm/rjqZgSvNc9xkdU2JvGr58XP+svncmrpZatBP/Jmlc5dpiwKigCggCogCooAoIAqIAqKAKCAKiAKiwAxQoFKqXBhW1BluqIwtMbikr0SNL0fVZtTEFtMCASGVuvyY3BoefeqKZA1NTLHVWOzDcE1FLs+21L4jX3xNFlOtvaKXNa3YOh6NdsQazxRYo89jM88Zs1GTOEdKIpmqaMNXJq+jyBC9otqOIeo/0MzuUqCW95bUEw7uU2ct6dac/904oH7ywIDaPVI13nJ80jP9YhME+jXqK+9Vc8kjv45PFS5VQfXS028Kr197RjCa52622OspNVs0kHmKAqKAKCAKiAKigCggCogCooAoIAqIAqJAiyrwiO/eP394YPhmVSkfziHmBjIygkHZXFoRQErxa7nGkqpIFY1qHjcVw0ryWTIEL0snSV7KkqpMFpMltvSdJWuTpTQ3bprB0+TId1wb52w1t1wpWMQ1q0fN71SnLupWZyztVicv7FIdBYQNOX2T1m4bUu/4wzY1UomM0S7J9mnb6C0oEasxlz5DsDOZhWBbIeg653dyL0IlKwgTR5gURAFRQBQQBUQBUUAUEAVEAVFAFBAFRAFRoJUUGBkYebGqVg63Y/LiS8mgj4086UhQFA7K5hpralVhLdfybM/wif8+jzWJnnSlIUUVjp/g0epz4ceuvKvxSYNfmSrGKwXjlq7TXK4ZHJv4E3JDTxnJs8kbOhvHngIXGHz0ih71jMPnqMPndKj+jqIqGhIDh346HasJL17Vr755716F2KEJHoKEfNTENPQbMW/HwIzm5vBI1X1GFz/XcMNgsSpV3wzarH+qcb6CFFySKCAKiAKigCggCogCooAoIAqIAqKAKCAKiALTpMDqq+5e0jE0ei0ChMfrIegoRm0oo9YCdmqFoJ1CJjeOSFla3F2WJeUkVTQtjDVVmSqC61m8LJ2kirUWj+Bla3kpZzE3zpHikmeOs3HO8ZiBua+joBZ2FdVjVvSqSw6bo5b1FJVZFJigpgv0+MBAWb3wlw8hiJjhH6bImlGX4axZbmKlYqEYqmLHMTdevPTutMvZVJYVhLNpb8tcRQFRQBQQBUQBUUAUEAVEAVFAFBAFRIEZo0AYlEbufAKeJuGeXBytdtNLwkzkKAoJGYuemQsl2RWFtGpjHW68JA1c5yHqzjbX3k1PrkNw8d8VNcd0Z6260vhMcSOr19rnwpe/cLCGm+o4yfV8mhCbHQ6HGHOTKwDN8BMTstx4pWJ0mTCeNaIO6iupRy7vUacv6VEn4hLiBZ0FHRhsJjiox4GXFb1FfelxenWhHgumEc0ErxAg0iB61fX+i8dNBAB9jsnbVYUsBiFmGFZfhewbTPWs3EiAcFbudpm0KCAKiAKigCggCogCooAoIAqIAqKAKNDaCpx+xdqe/WHfU/F02n470kRoSEeOosCRDR2Rp83YZnJJqBsApAPPg3FiLbo5X1xCTRxB863J/u2oUtxsv7R6HXtZ20Fksq09gpclN5PHCq9pnLW5uCVzlsuhk1HBE4hPxH0Fn3fUPPWIxd2qC9cGl3h9MOt8F9rS+KWMNqPQvOioZhKubDLgafd4UEnEyOGB7gKAoOTcfdB5D6sVcp545g8fPuIPT112n6uYZRkJEM6yHS7TFQVEAVFAFBAFRAFRQBQQBUQBUUAUEAVmggK7581bURodeUIUFoqCQX78yYWHtBEvzpDkOrOdNKNH2hjXWL+xhWRYWeEFFI2Vm7i7KGwVcWk1TqzPbK4heR3qrrRnvtjWINis56hZrm0adZMs6a48U63PuFU3biK4tKekA4JPwSXEx87rTAxL+xrHC3vYsHdUVbF8sECd9f/kSGrcoloPu4lAIYn67oPaL3vLTqGqripUK48C+34MQrvPZravVQKE7btvZWaigCggCogCooAoIAqIAqKAKCAKiAKiwIxVoGN09LlhVS2OokGI2bj4TpSxURxntgY2cMb4wlgK4cya6xqgIukzyfV4UQRLa5qyapsOXekK05PZWK7rP5qUjXRFbVFpecYZevMtHsHLkhv5bZab4tGBMelN5EyVsVJwUXdJnbO8V525tEedgEuIlyFI6NF1/kBeuPDwD1uHsHrQdIoBREPBK0zGii7inOsvk5vBYwPNjTzHfj1utdqHY+AirFr9+tqXq1HXxyzKSIBwFu1smaooIAqIAqKAKCAKiAKigCggCogCooAoMBMUWP2jsKu67c5XB9VyPFwT34kXeEUBHmsm0YV8rNEtBktyHc96n+GrCt107Xx0mM3MMlWZLCZLbD6C64RX9nWoFxw7Xz12Za/qKRWyHyDi+hp/hgHC6zcP2vhs0hGGpkcHThwordlzURvHbXz5cRQsRDO9AtHzVw0vmr9k+VzUbE8OZHaUJEA4O/azzFIUEAVEAVFAFBAFRAFRQBQQBUQBUUAUmDEKlLbf+VRcGrq0NnyFKTijy7h50eKFfFLcuKa2pfWLGk1rxDUeMi4/jlvaYYGr6ajxKo0Hz2QsOfcpjJumWrJoKpM1yZLTjcMC39ayiIcQ60uIj5jXpS5c1a/OxENHOsx9BVk/WWn3SFWt3zsC994k0p2hKpakDo/tHLfZQCF4Wju8FAr9A0HwInj5cHoIs6EsAcLZsJdljqKAKCAKiAKigCggCogCooAoIAqIAqLATFHg8rCgqnc8T3mrB224x05Bx3QYK9IJGW1gIV5rFtWZKs01DXK4zlzDjWpMa+025vpWdp/Tv24FrqPDg3HiTGxuedzqCkPCJpfXkFvbks741OCuUoCnEPfqy4j5FOJD+zv1GPwWekiT9LJxX1kN4SklUX/RazRjM2/brxmQ46E6ZsQ5Tc/lpnjGt32gSVgpI0ZYeu0JV4WfuP2ygFHLWZUkQDirdrdMVhQQBUQBUUAUEAVEAVFAFBAFRAFRQBRobQVOPPaew0eHwpNdREzHdRj1iQM8yRKqTFAoffkxZ1qfm/RJfmwxjelBG+Ma1x0b+ElfqhzzWFXTv+bDqp2A69Fr/RpLvITOttZbr2ncU8pJshiqEUQGuTrw0qPnqxcevUDN7yxEQ9EeYylNcdI2HPtdu4YxfQQIvUEyG4dZkzN0gwEpliRq4erSGce1YeY8nyAWCqu6iw/iYSXqmrSbdi9LgLDd97DMTxQQBUQBUUAUEAVEAVFAFBAFRAFRQBSYQQqMjIyeGVSry9yQGf9hyrmfoK7SBLw04CZCQ5qLF22Ma5wL65Nbx415zoxMwupHu0yF9ck2CS4dx5EuVutEfg2PNSmu9RtzPYuX5WW0fArx4XO71Pkr+9TjD+7HvQUDhdsNOsl0x1P4whWMG7CCkFuXTF5vMOa6gcIE1wb/6ClWI9uv5dbyquVRhautn4Z217i2syQjAcJZsqNlmqKAKCAKiAKigCggCogCooAoIAqIAqJAqytwwTXXlB7aEJ6JOFifH7nSoRwTENIhrURsJyOMlMmNedTBudBc00AboxrnIsH1rI24OvhnFPfuVWg9uP7tRF1Fbf/xeA1Jb4wHbGxTn6cDb6g7YWGPeuIh/eqkRd3qEFxC3FOMdGBw8EASm5fLFVxVHahSEWG1MabBSlVt2s8HBtOTmYvvA2Y9RF1lg3okNMvN4LG59csMKBHLcPHYbFUsnX3WdzYu+v0zDp5VDyuRACEPDkmigCggCogCooAoIAqIAqKAKCAKiAKigCgw7Qps3bq0W1Urj1Jh1YvuxIE9Z2TkKFHg0GNeVOIrko4yYZuzAtG5cdwocMSi7cS5iIzRqzaSm/AQd5fgeh4M3VpIS3jQKxCNxasg3yuiZDykVhWW0Z7BwTVYJfj6U5bgvoIdahgGu7DR75d9jycNjZTVpu371OBIRfV0FtXBS+eqjjEGCXeNVtVD+8tmFnUCgHaaHCgEiPdyUg09jwS3jk87afB1E/1EY9NBtXpIpRisRkkChFYn2YoCooAoIAqIAqKAKCAKiAKigCggCogCooAoMFUKlIeKS5SqnJzsjyGcKBhk4j9RyRZI1tXWEHMTISRX7TK6G1tybpixRh1UjL04s25pXmzkTdMacOmYThoGFU1PegOfxq2x6o79njiE+V0ldeS8TnX28j615qA+dVBfhw4UDh3oUkFvriOjFbV7YFjt3DeMgCPuZVgqqAVzulWpMPYVhAN4gvGOwYrRw23Qm51lPEM3BFTF8dA6PDao4Wb4s47JZV4HCqtLS6rjeJRutNWzYdtOKwi5pwkelYuAFQDvWbAQmAt0APuBPcAWg03Y7gWYeCzo40GXxv5yJJq8EeC16hzDRmAdcCdwK3A78AAwBDAdSF+RB3kVBUQBUUAUEAVEAVFAFBAFRAFRQBQQBdpIgTAcfpwKij2qiks9bdJxneQpdM3aMFud4vo8uktWo5E2uBp3ou7M2q9xro1Rje0ubomcz9UV9bgpD6bDlJVekGDVFYbkcasI0q3CfQUvXDVHnbakV68WnIMVfUwTGBfU/nYhKLhr35AaRpCQqYhLlZcv6Fd93R3peKeur/fCKWwaGFW7sQJRT8dM3J8mJ22mCnaci7TwJcnhcQC+XxbgJvYU50jVCRT876xWKmci90WwjQdT38abmR4g5FFPMBD4SGANcAZwJLAAyNjbsEaJj6x+GLgD+C1wLfAngAFDHu1jOQgOB/9KgP3btBKZs2wB22Hgz8AvgR8BtwAMVo61LzSRJAqIAqKAKCAKiAKigCggCogCooAoIAq0nwJBoeuZ1VGePkdJn9T7Z+fuLJ/GqGCrs7mJWn2i71ywC1ftMrpjW2LB8bURL84QZSzXmbUHvHBZnzbGNdlcWFkxhlWFIbjHLOxWrzhhkXokVgxyNV/iYR92DBOwLeNegQ9u26f2D5cVHn6sE+85eNDiftXdOb6wEqd6526uQqxi2qnVh55IWhbdo2f052TMdlUhhYyGGGvu06mz5UaXKmfwoCX+PTraJ4nWbV3IUGJGzJerAecB5wHPBp4AzAcONN0FB98FvgUwzxWH3p8tUMpOr4X5g0BndnWm9S+wfsNgPbYDgD3ikZUkCogCooAoIAqIAqKAKCAKiAKigCggCsweBVZ/+e65QXlos6qUe6JZRyGLmsBFA0OiOr8Qx/l8iR3fZXRtsmQaaGNtTa0F/DFxaz0wANjXUVRHzu9Uj1jcqy44eI46dn6XHshkBRIqiDjqy4n3DikGCW3qwjiWLehTPbikebypC6sPX/mrTeq2bYPefqidt/ZvzHFtnKvpf9zcpM8gKA6V+oODfvfkQ3bU9NGmhvHvzekRhKsFDwIuBl4KnAJMZDoGzv4ReBPwPYCrAtcC9Q4IhrpXAWMJDoKujgbeAfCy5G8DnwW4gnEXIEkUEAVEAVFAFBAFRAFRQBQQBUQBUUAUmFUKFMuVk0JV6IkDXlEueo0DODUXfSYM8SMsKF6iimtyYjcoxQWXc5373KRP7ZcvmmsaOAdJrjPXcKMa05re4tFw5aFJDMst7C6pJx46Rz1mZb9aNadTl1kdswx5Ajf7BkfV9j379eXE3nD05cQMDvLegweSeF/Ev+zCSlFMIrmiz3p1yrmJ6vlqs7/nyK/PjRkej0YjYLTBK6odoxB0Dw8GjwfrKlJnQ5pJAULcqFQ9EWBA7bRJ3jlcoXgp8Ezga8DHAQbvuKIwnfh+PZCgXh/avxB4HvBfwKeBOwCuKJQkCogCooAoIAqIAqKAKCAKiAKigCggCswKBcKgcn5Yxl24TOAmjtZw+rExzhlZaHCRnWRtsmTcJLhRoYZH187oMrTqRItzQ4ujJGucWbcyL9qIF+0g9mK5DL3xmR9LejvVc45eoJ52+DzVjRV3E31PQX9INs+Vitt2D6kdewetyW17EahcsahPFcfxQBLnBBnO+L49o4oPKdGXLJuJ20AhuXGYNdaHdquz5Ua1dJDieVxWRQyrcAbX8K1fFVbwcInCRTBLgJDatEjie4P3FXwd8BwgZ0+iZuIT+2bg7knAh4EvAw8A6fQrGG4HTkhXjKHM1ZF/Bzwd+BjwRWA9IEkUEAVEAVFAFBAFRAFRQBQQBUQBUUAUaHsFEJw6MURghkmf+GfGc2JjnEODRIEekgaWXDAhUWULbBOHpaISX5EsxS1HjDw5c8SKXrURL66zZrgB7h8Y6icBH4XLhk9e0qMetbxfnbWsVwfQGBic7OAg+983OKJ27IkfQuJPa25fp1o6r/eAg4P0yaDgDQ8P4N6DFMsJZaN4utu4hjkmj8eiMbuAHgwxI86R6rjMoyreyymez8Xl1UExWIObJAZmoKxt65ShRkvNtxej4Sq+fwZ4Se50px9iAO8Fsh51zVWArwIOA3i/BIIrEcebfo2GHwD+F8C6W0migCggCogCooAoIAqIAqKAKCAKiAKiQHsqwPsPqpH9P1PVytnRDONwRZxDTaJgtYiNcS6Lm6hNukpUJQpJXk2XzXKTPLqhhZfvckHe+YfMURcfNl+tntel5ncVESys5duuJ3rL+ws+vHNAP4SkmnrSCR8msnBOt1o0twdxsokZUwl+Xvnrh9SfEvcf5Kwy/HumOBvnEloYc1wb5xI8r6uYEecsN+jsUqPFroNvu3jxg9bWzttWvsR4MYRnwO0fAAYKx5L2gLwN2AnsA/jEYl4KzPl2A3OARQD7iO7qiUwT6ang2HsH8r6B0Z82oob/jc1NAC9/pl9eEn2wwXKznYtts+kxIPKeiFy5yPsTbgckiQKigCggCogCooAoIAqIAqKAKCAKiAJtp0BxuLKiUggWxBOzK8e4ACwK3uhXa07Ec2JjnIOnRIGekwaWnBtbRZpbKagLrlVU4iuS5Ttu5MmZI1b0qo140ZSI1417+M3rLKonrJqr/ua4RWpuZ0GVGbWYwsRg4J79I+rhHbjDmRMiHkAUHOwxwcHYfqC5/Zjouj0M03gyZpScyYyNMkbZTJWdszGtKjS+M1cV4unKHeXBo9CtBAj1zpielxXo9nLgZWPofhO4vMyX+DOwAdgMMEjIi+cZzOsEeM8/Bgf5sJMjgBMBXhp8HNBMIJIBwk8ADAJ+BigDNvHegYRNvGyYwcEjAfZxOnAqcDzAQGWjtBQErljkOLma8D5AkiggCogCooAoIAqIAqKAKCAKiAKigCjQVgqEhcrSsFKemxGnwjyj0FAiLJQoWCliY5wzzUlxzuNam8uprmlMvnPDRtZBg0AhVwryMt5D5naqM3Dp8Dm4hPjUJb1qAVYL8vLhqQ4O7h8aVTv3DeGy4tHUhDgphUuJA7V4Xo+a399M6CJq0+jV6rZ+34gaGkU01BPTyaidJEtOY9TZ4F/kK8WzA/DMzDbDjf16jcvQJtSxnGut63betuIKQgbe/h3g/QabSXeB9HPgGuCPAINojeLud4NjUz8yxwJnAE8A1gDeXy1Qqk1cHfgegPp9EvBXEqLoEu2MNBO/AnjZMQOF5wBPBNgXA5b1EvtgoHQZ8HaAAVBJooAoIAqIAqKAKCAKiAKigCggCogCokDbKBAWC0uCaqEvrFaTAbgouoN52sCNzUUVLi5HJTK5zpheGJjwyeaJlYqRga9Rch3Fa81cFTNueMi4Lg0X5VMQDHzeMQvVMQu61Xw87KMLATg2mex7C9ox2m0Fqwa37d6v9mLlIPNZqVQsKD6puL+nI6t6TDYnBVuhwPK9u0cwd/YN2MicqfdHlFTaeDIEvTGmTB79ZXBpNM1AiHO1XDSuVlRQKjFeNCtSqwUIGSz7N6CZ4CBXDH4VuBr4A7AfGE/ah0a8NJj4AXAe8GzgqQBXAOalhah4B8DViVfmkVJ2cv2+zkf5MuCiFC+reAmM1Of1gAQJsxQSmyggCogCooAoIAqIAqKAKCAKiAKiwAxUIAzC0T+twANK9FV9NoSjwzcM8nhxnHhyUQVfmRzXFbQZLzEjziXMlmiMOeEm19hm2CwaGC3+ELlasAtBtvndRTxopF8966iF6riFXVhByDZR8rLWNKlbrl4cHimrzTv3q+FRBL5yeuPKweUL+1Rf94EFB51/l4k04rw37BtFYNQqwK0hWVNmMVXJ8ZumyZpkiTSdDJf5OFuHq3lYe1apHHz6FWHH2pcHo9pPG7+0WoDwXdD6BU3o/VNwPg5cCwwAE5UegqOvA78GrgXeABwK5CWuduSqPgYrf5hHyrGvh/2/geuAnwCvAY4G6qXHo/KjwMuBe+sRpU4UEAVEAVFAFBAFRAFRQBQQBUQBUUAUmBEKXI4IUVg5CKvJsEiHQZsocBO9IlqEjIkZRdNxhYhBo+Mi7xb7sSKTiwfTmja13NgnG9tSjRttsLW8jDF6EvESrLo7a3mfOhOXEJ+5tFet6OvQgUE/OMhhTWViQHDn3iF9v0E8KTqWJDWIHtwTkSsHuzrHFypyGtGvKSRsMA/hWuoNe0cSwdJYZTOgsawqjHdBajGiV2EH45l01g3O18QZ9UEFvRZ09N3Dq0ElQGh2z1RsXoZOXgzUOxKHUP8p4BPAfcBkJV4SzD5uBv4FOB/IS6tQ8TbgfmA8K/vWo92ngd8AbwKeD9RLj0Mlg4QvAuTBJfWUkjpRQBQQBUQBUUAUEAVEAVFAFBAFRIHWV+B4xPT2Bov0I31rRhtqiw3h6PANTV4cJ24SVUQtDCVRsMzoAteaAKDlkuY6igq2ynVrDNxwNRzvLfi8Yxap8w6ag6cQl1RnMWJO9SXEHK2fGBjcvmcw93Jiy+1BUHDFoj7VUUKMdozJaeIy2buH1QPlUG0ZxKMcKJzh12hbpzLJTZb8aG6yJlly0/PMzEbD8YzaVugf6uyeg+we165NM/WCcVM55TPRGVfQ8bLdvLQXFQzWMUA4kasG8/rjw0d438AXAv8OPAvIS7ynIMf/ZmBfHqmOnX3dCrwRuAV4P9AF5CVeksyHlrwUsEdvHlfsooAoIAqIAqKAKCAKiAKigCggCogCokDLKnD6zrWFXR2dS7CKMBqjF2iKBx2d+rpAoT0TruHGFXEOXhIF65XGOCyUcBVXJRpbNx24FHch7iV4zKJu9YwjF6qzsWqwiMf+2nrbw3RsOQZeTrxt96AawMNI6iXOuRvBwZWL+xXvPTiW5PRyGatm0ktUHb3uw2rGTbjEWCcrlmmfLCZLTliPa7JwRW5cclzWeOZ473hGDsR0ZblRbeQzVNX+YimcCxYXkrV1aoUAIe8xwEt5T6yjNINuvJT3kwAuAp/StAG9vQTg6sV6q/t4aTQ5PwP4JON1wFjTVjRgAJSrI68EFgN56e9QwX4+nEcQuyggCogCooAoIAqIAqKAKCAKiAKigCjQ6grsHp5XUKV9y6I4DV4RqXEhHJexs3AsGFCJoqO4DLkRL8rFFfUuKY5a5HDhqIJwRHepoM5ZMUc9ckW/Om1Jnzp8XpdCXFAvfox7ZK/Tk8qVqn468Z6BEcV8vcRxz+3tUksX9KoCC02kBMsUEjbjI7IlCSw9NFBWu0dS90C0kTm2BcnXMQ7q1Vb6zdjK9EYikil5ziy/xmfUwHWsm+jmyIXVvkK1wABh26dWCBBeCpWfVEfpEdR9COA9B6cr7UbHdoXjU3IGwUAn7w3IFYdc4cgg36+Bq4EbgWYTH2TyQ+C5wBeBlUBW4uH6buAG4LdZBLGJAqKAKCAKiAKigCggCogCooAoIAqIAq2uQHlOKShWwgUuQoNgjw33uICeifck5xJFf2q4JCX4NkoUh4Z0dWz23MZGm8ODlVVXKVAvPG4JHjiyACsHO1QJKwhtF+55G56X6cgODpfVph0DarRsVmLWGQRDhwv7utSS+c0FB+1c3aTR3tm8fiKbqUluNP/uXcP6kmyutozbW6Vh8bJ0mywmS66SxJqm5MY9kGL5NlBIU+qIoClKrqugqxKWeA/Ctk/THSA8FAo/G8i7tJjH7NeAdwPTnXZhAFy190vg+JzBdMNO4INNHQQ8EmBgcS3AFYHfAkaBRomXHP8CYH9fBJYDWakfxk8DZwFDWQSxiQKigCggCogCooAoIAqIAqKAKCAKiAKtrEC5DwHCfcV5ipE4l6IITfSKYJIL2DiCl7HcKCCkXzP5sTHOwU2iYN1GxuV9neqiIxao5x+7WM3pLCQermGZ071lQHDn3mG9crCZsRQQ3FzU360Wz2sc90qE2EwhYTMdRrYkIc3D4kt105b9qmACd7WyexYvyy6SxWRJD4Em02Fca3NkeKNJcaMay/V4bBaGnYVCuYvZdk/THSDkysEL6ojMS2hfV6d+qqu2oEM+SOVXQEeDznlUdRpcgO25AIOF7wP+B2iU+Mn4M4Dz/wwwD8hKvDT7X4C3ZlWKTRQQBUQBUUAUEAVmoQKXX1NSg3NWqtGRo3Dd08G4Q0sVv6ztL99ZKEidKesFDIUCTgA2qo7Ou1XP3ofU5Wv4x1pJooAoIAqIAlOlwMbfqbD/yD79TZWKz0RDsF9iqDTfZo7mMmRGldFrVOECi6x23Pgr0a4+1NWxWXs6ckG3eucjD1bHLezRTafzScQcXzpx5eLugSG1a9+w4pOKm0lFBAcXz+tV8/vzY15OJpfxpEt14tYBGq7XxDGtjVc8371zONoN1NpUeLIbk2dJLvezu1/7jlf/sQhnXjNakk39yiRX19hBwonL6lxQUoVCo/gPu5vxaToDhPixqviwDa64y0pcafdagJf3tkricXMz8G7gvWMYFI8vvvv4MJNvAl8FLgc2AvUS+/sucATAwGIBSCf6fgXwFeC2dKWURQFRQBQQBUQBUWAWKrC9p1d1jD4JwcEn4+fxCfiti4BX4hRpFoqSM+UQpw9BWIJWt6vR0Z+o/T3fALPtn1SYo4aYRQFRQBSYFgUKR5/dHW7a3mFv5KcDNPolPZw4yMMwjqbQVIdrwz2OS5cJftKnreZDSD7z+CPU3M6xP9WXPiY7jZar6qHte9UQ7ufXbKoionjQwn7V38O1TLUpIYtX8LK6UVQ21uSmxqlty1sc3rNnRO3Cw1NK9n6HWvqkA7s3bLs46gdLqjJZtCUOwbSmycvGNZYb96J9e9woy6MnxAFQyBaMDtsoTWeA8BToeEEdLb+Mumvq1E9X1Qg6/hxwGXDyOAbBNbxchcjLghkA/RXgr6NGMZEYKOUKQq4UfF6iJi70Ifse4GmxSXKigCggCogCooAoMGsV6Biep4KOV+EH7SNwsoXfEt4P4FkrSt7EoY0+gQiOUUH1CNUx8hMwJUCYJ5fYRQFRQBSYBAWKle5OfFUhPhEFbnTwLyOGk+w6vk8hm+lvusyvu9gn22sKTbncaF3aaqwaXNrToYYaPOgjOabJL/HBI/sGR9S2PUOqMoaxdZSKasXCXtXTVbsYLiGFKSRsZlqRrZaQz411RrxVXb9pwF1eHCtldka0m9x+SRVB9yxeln5YTI7Bs2Rw2Sbi51faGngvVEdHpzN2xuFOSZquSTKgdT6Qd9ksn1rMgFerpq0Y2D8DXwTmA0w8vpLHpDbnvpyEGt6T8NUAVwkOA3lpByo+CrBNVlCSKwvPA54I8LJkSaKAKCAKiAKigCgwmxWoYrlDIVypevEzZWh37ZnAbNYmb+7d+Fm6f8dKRe0kiQKigCggCkypAqPDI6XOEN9crld7STEM5jpRfbJdc8btt4i4juIy1mnEjV5RiUyC4goRY/3uIXXHjkF11PwuPFTD+pjeLQODvNfg/mGuI2o+dXUU1fKFfaq7Mw4BuenSjVfwsq6DyIZXU5nPMU08gs3yKcm34P6DXDzoyxnVexadNa0acg0P3fqXE3MUycuPU4Qav17/nKRXxJGIWzZyFWH7p/jomNq5HoTu1tTp8suou79O/XRXcQ0vn058EfB3wGHAImAZwOAnVwnmX9CPSpPY5r8AXmb9daDeg0b+YLjvxrYfSKc5MPBSYwkQppWRsiggCogCooAoMNsUKOIuSWEwqCq48KHa/KVHs02mxHyplVKDitpJEgVEAVFAFJhSBar7hr3gYLrr6GN5rKsK3Y01grQ/lmOfLGkKTR53P+7p9/wf360+tuZw9aiV/WoUXw/T+Q2xGU8n5r0G7dW5HHczqYTb7B66dC5uoxdPzuVcJjF17TauQi4u+FnXvat2mUQTzds/WlV37kDII6VztCfSfENKVaaK8OtZvCw7TBWNxQzQVpIIky1GtckSKbgym4uy2j5NV4DwcCj7iBx1uTeuyKlrNfMNGBDBxGNpJcB5PQF4LHAIYFcYIpuZeC375wH+CYD3vKl3U+wvoP4pwOOAdOIB+0jgfOC6dKWUaz7H7LtepBEFRIGZqUD0/R1/n8/MWcioRQFRQBQQBUQBUUAUEAVUcdG8SrB5twvUZEtiVxXy1rGGYX8RJhpEle7eg+Ph0h98j+IS3lf94l71iCV9as0h89QxuOz4kDmdajEuPeYJuHWd6H4CCyEiU/sGR3E58aAaQcByLMFBcvtwOfHyRf06OJiQyhQSNm/c6QePsCqL62wuk89bv3dEDeO+iVo1LRwaee2slrHJszAbVzjdY5NH8LIct+elpsR6TTCOkk29Eh5lprlt/jIdAUKurGMQLa/v36Hu/2ag7jxgHjTgU4p5+fSlwIuAUwCu8MtLPBw/C2wHeN+bvLQTFQwmUj+uPkynxTA8E7guXTFLy1wGfBSwCkgfb9tg41Oy9wKSRAFRYOYowPcyb7WwwgyZS6P4gKZNpiwbUUAUEAVEAVFAFBAFRIEZpkBxOKziEtEQr2bkJkQVR4C8GdlAIUxNXH4ceYQjZJw7l7FuI5bjwmyDkLTdvGVAY14X7uPX16mOxtONz1k5V52zYo6a31nQlyBHba2/A98OjZbVtt2DanC4rKpOl+b9zu3tUkvm9aiSXTnozdnLaodxGbm44Gddx1614yZshulsyDC/DpdGlxHwpE5RHXJONMPGxpl8Hn3qCsNjuYbrtRwLN+UoeakywswYcrWqI5vsta1TOmgyFZPl5bEMcOWl76PC27N5tJa378YIGfT7JsBLf18CrAbyUjcquHLyQoCBq7xEfy8G1gDeu0PTeY+hc4HDgfu1pTVeeNk1A6YMkvYCDBLzMmy7TJeXVvMejIPAfoDaEQd6TdSJ8PElgNu0Vlthuxz4T0DSzFeAweC5BvYY4/uB4OcJV+ZylS6PM3uM8Qb0/BOWpJmlwGEY7pXAad6wP4j8W72yZEUBUUAUEAVEAVFAFBAFZpACIz3lcueukOd//P2OxEASTuHwS16fyKXP5iKS5kXsyV1VaLvfM1xRe4YHcansoPrWX7arIi7fPR8rC//2+MXq1KU47cV4J+IEY/fAsHp4535ETHkqM7bEFgv7u3HPwV5eGuvOhO0c0t4mY7Wg68N0ymHcu3tEjZhApzcsQ6UFidE5b6DG6pk8S8qJVxP54s7QCQ69LE3JphmVJNmxB4VqsdBR70pPstsiTUeAkCfvx9dR79eom4j3VJ0uprSKga4PANcDlwO89Ng75FGK06HIfgT4K4BBjKzEIMdXgLMBBt7SaRUM5wH3pyumuLwA/R0JHAUwQMct58f7NDJQyCChDRByTpzvNuAh4D7gz8DtwL3ABsC+a5FtOj0OTPabpfcS2M8HPgWMxzeajTsxkHUMQC0Y2GIaBDYCdwPUQ1JjBagdj6kjgOMAanoYsBxYCPD9weOM+5c3luLDj3YBm4D7gTsBHmf2GENW0gxQgH9s4HvITwf5BcmLAqKAKCAKiAKigCggCswsBUbuuG+4a15XOXliFpX4GthlXVlndnqqdlUhCGigaZnc2CdZWB0WpbrcqFK/6sFE/ruK0ensrx/Yra57YJda1tuJVYVz1GkIFK6e360OndOl+rG6sNkYH4OBgyNltQNPJx4YGt8pIR8EsnBut1o0t6dhcNDNypu7lzXCGC1tyRDq8rxKmx3Ent24dxRL8eDIGK30dG15eufpCmNJcRM8NhwLl73YTr1s3L9X6XwjwwWipWB8O4R+ZlCajgAhT+54Up+VbHDI7pkszky1/QYDfxnwfoCXHtvgGLKJ9ESU/h74YMKaLHwLxbcAxybNusTLjB8J/FdG3VSYeKJ+DsB5cDUjAzd5c0WVSzwuVgAnOYtSDyN/E/Bz4FrgNmAsiZ8f9VYhso5Bpqn8awCDVv8A8FJwamUDhFxFyWDVJ4GvApLyFeB+5eqxxxqcji0Dvo3SsgzCZth+D/AY+yVwByCptRXgz4r0+5oBYEmigCgwXgUK+Coq8CdhO/78oij42qjiq14e1jLeI0TaiQKigCgw6Qp0zu/mDfaG8Fndn9WZDf/Vv6SYLaPvMv2KoCJPHHRyGWvg1npFJRo4istYrufTBJl8Cq/gLcC+HfcKvPreHeon9+9Ui7o71Ir+TnXykl71hIzAS64AAEAASURBVFXz1NEIGBZBzAsWMji4ddeg2oOnFFdw38PxJI5pGVYNzkGg0l5VnPbjKeIm7M/F8p3NZRzdUvTWq3aEhM2oOliuqAf38Sc7tIzkBD9mOpPzbix6A56hWh5pNa0bcr3WNuBsHHk18JssqUq1UglHZsX5xlQHCLkPGcCaz/2Qke6GbTDD3i6m+zARXgbHoNCz6kzq1aj7LnBPDoeXRjKgwdVxNsDkU7lCcxWw3jdOcr4T/p8MPB94ApC3j1HVdGJA5yKDG7Fl4OzrwBagmdTok5XvfP/d34zPA+VcAgdvAriyzU89KDCg2g3cDHB1m6RaBVbC9Fzg2QADgwealsPB04CLgeuALwEMwPM9xs+rqT4+0KUkUUAUEAWmUgF81FUrwwD/UMXPvXZM/CzH92uA7175WG/HHSxzEgVEgZmvQGfnItzmbSefUrJYfxnlfiNFn+P61QYA63AjNgjI5Pv1fII1rlWF3AXogH2UcRntw/tHNG5+eJ+64o8Pq4OxmvBZRy1UTztigQ4eMjZmg3j7h0fVxi17D+gbik8oPmhxn+rv5ml5bdJztwM01ZEtyU3YTCFhy2pbw4tb2NwAbuH3AB5Skkg2WpoRKCTPttU7T++iZEfRXvN5bAVrU1yvtZc1Hrgx/aOyUBgtFTtSg9eUtnuZ6gAhV5Lx0tO8tA4V6ZUhedzpsnMF2LEAAzy7Aa5y2wY0mzaA+C6Awa/H5DQ6GPbXAa/Jqaf528BLgawA4SrYOcb1wFQkzoVj/RuAq+ImI50NpycD5wL/CjSzmjD+TEGDFklrMI6sfWaHR/04TwkQWkXiLQOCbwMYzOuIzROS47FyAcCVieznAwDfq7TbrwxkJYkCooAo0EYK6LMT/BSsjPwJs/ot0IGVGa343Tl+0QN99jEKB+eqYscZeiWhPSEZv1dpKQqIAqKAKDDBCpSWlcPRB6o4vzar+hoG/zgAchsF9CJe9Nocd1xPP7bdpL5FGQTsKWJ1IQKGn7x1s/rUbQ+rExb1qDOX9+PJyL3qmN6S2oX7DR7ICUdHqaCWLWBwsPYUKRoOXr1xeVmOWqeEzRQStjo8VsXcjBxMm/ePql0jWCSa4Bqn+nsZNXFTXUFNkiajElf/eRVWO8+ElqZ1qjJVNDx2h9apSuMB9hCP0BnlH1LbPk11gJD7jJeS5iUG2xqt+sprOxX2M9EJL+1dDVC7AWA7wJV+/GH9C1PGpm7iZYz/BhwGHAKkEwOpXDn3CeCudKUp34DtRoBjSSeuijoK+Gm6YhLKh8Hne4C/Bmo/kWCcwMRVduzncIABVGow09JcDJj7Ny91o2JOXuUstj8Kc/8YwABevbQZlQ8CDNrz/TkIUO9egJ89KwG+53gsZSXun1cBS4F/ALjqV5IoIAqIAm2qAH6W8dLi8ij+6Db6WXyN96igWu87aubpEBbwu3IU3wUdfZgrAoQVzMGeAcy86ciIRQFRQBRoVwW69o2EI7jKlgGDKNlAIUvmwti40nC4sZcJ6yxemuVGzvRrjd/oe8J9W9hgJbury0UlGiUoXqGk86H68/b9wKD6Ku5h+LEzl6m5uE/heFNXRxErB/sVtzZFXZqOkxtL0VtTFdnq8Ehw3ExeZHScRIPoZOyWrftVFYHAIv4O6XSNeja+YU1UwBv+J0xuHD7X9JriRlavtc42yzU89MdYJAYyWOgo7GOu3RODXFOZKG/eiTnHQdFbNUDIoNungawABQ+3ywCuavsSwEthG6UfgnA+wJV36ctN2Zb90SeDb1lpGMabgKwAIf0dAfBTgr+EJysx2PJ+4DmT1UGO37Ng5754IfDHHE6rmht9+vM90ojTqnObrHEdCcefAk7K6YAB+p8DNwL3A3wQCYODI0AZYOoEbPCVx+2pwIXA2UBWehaMbPsGgEHHsSb2xf3IzwacmEoSBUQBUaBFFeD9B1W4Tn3kfK4ibN/0huvXKT3X9p2izEwUEAVEgZmswJIlx1f37bllixrNOn21wcJ6wT87+2hVIX+FR7Eda09v+TOdP9bHtqqwvt/YJ33r/mnSGVr8FKohzPX23UPqXKwkjFr69Y3zPZ0lddCSftVhHpYSdYNXrz8vm3Do7Cbjyh4rYfMKcTYjF5vcMDi8W7bsj05yuVowdbFCtkSwplYKcmi1XFpYgY69vo3VN5EEgJSqTBUNDxvLDYJ9lXJhDy3tnqY6QMhLPBjYykt23+TVT6edAYOs4CDHxENxhQEvT3wM8HZgB1AvMcj1JCAr8MFA6mOBDwF5AYYbUPdsICsdBOMCYCyXP2f5ybNxRdbrgb/OI0yy/RT4/wTwNIABoZmSGLSqd5zzG5HvE0mxAv+BbNZ7ZCvsnwR+AKwDdgLNpv8F8UvA44A3AccA6XQpDOuAy4F6n1uodomrFLkC8ckA/9jBz9jPAl8BbLASWUmigCggCrSQAkHdW1+00EAPYCizYY4HII80FQVEAVFguhW4dus3w1WVw3HuylPrvNMlL1DoBYNqxx6115cKI5uKR6XodgVio0ChHVO0Am5M9ym0TdmzN24Gzm7dMaTOXtzr7keYGlxusb+nQy2b36uDg5FL4zi5SbT3unbjSNg8trO7jGsCVmT0qqzJn57zNloJ1Z2Yp+PbW314OyZbIlh1BVq6xvHR4ZnQV7Nc2xNaM+s58WrM2K1FDXSXSrMiQIhDctLTfPRwBMAT/DOB44C8NIQKtxfySNNkP77JfpeA9xKAqwh5mWK9dC8qrwY476x0OIx5K5zIvyWrkbEtw3ZhnfoDrXoqHHCe4zmGuI/3Agzs7QbGGxA7B23fBcyktBGDzfqzmJ3DPmS22IJs9UNvnpihw+2wcQXpBwC+D8YSHARd7QfuA74AXAJ8B0gnLqvhMX5xuqJOmasTeXuA84ALgEcDHD99SRIFRAFRoAUV0D+7vJ/HLTjECRkSf67ouU6IN3EiCogCooAoMMEKXHopHu0RbEG4jqmBc80iM3oqcC6dFTFXfw3U4YIZ/Yua5XxtGJ+aCQqKeriZflNczioy6fnxy/fBgVG1O3PVpKZkvszv71IHLeJlxSXEt+CFgbZ448e8XD/sS1cwE9ETPGOOKJbj8aK1m1GF5dbzZ7vjt+9du4bV9qGyP3VWx+Kl9rcnUcRjSyu0x7U8buPkcxPWVP+mtfYLnnXmZa1f3M54z5YFowOxt/bNlSZhaifD56MAXsK3GmDAbA7Avnh88CEfeWm8gaI8fxNpZzCh2cS5MijwZYDBh7wVgKjST+V9EbYHsZBKi1A+E7g2ZbfFdcgw0MHVfOnE4CCDs5ORVsHp3wJcodhsug3EnwE3AxsABgirABNXS3L+JwCPBS4AmgmoUOfLgG8CvwVmQvoaBvkCgCtOs9IfYeTKUEnRMfA6CNGZEmMdyq8Ffpmyj6fIVX13AS8F+F56PuCnxSiwbi1wv1+Rk+cxmT52aZMkCogCosA0KBAWomUT/CmfkfRf7vnTjGjzFEILzpNzjm4oVDthrQd5kkQBUUAUEAWmXIEAa/I+vXYjgk58Ykd3FCREWCrnKyweH4N6SPhsb8SNmPweiL4OYh/pnPGJwTSzUpARN46hMTe+/57lbh2qqM2DZbWgM30KkR4Te8EJfn83HkjCFYcoedp4Wd0wUTaFhM1z7+wu47uOjS5nMq7s+WLWtwf4VuX9B/0vV72/Urwoykpj3Nry0j7rcePWbAUP2gmsXoX1G5ushU1SXI6nWNy8bs3heYu62FHbpIk6cT0UijBQw2AYL9VjwIon9fQf645Cg8QTdG/vNGBPbfVX0d0bgbzATno0nPfjgA8Cr05XeuU/IU/Qr/++IaUfOJGZnLQNdq7CywoQzoOd7ScjnQunT2zSMef2HuBagKvjGATmCrr0fr4Ftp8CnwZOAd4MPAVolLhS8lXAbxsRW6T+VoyD75WXAAymM8jKINUW4FfAZ4EdgCSl1kCEo1JC8C83nwEmIjjou6bmrwMYqGa/fuKxzkuGrwBsUNuv9/Pp45p1WTa/jeRFAVFAFJh4BSp4bmIh7FSFDvwSw8+L9K8xfjIFOBkpoX5Y/16b+DG0lMewpEqd+MYdjrTI0oNaqaBTVbyzk5aagwxGFBAFRIH2ViAMwi1BNcA5Y9gdzRSBOu+XdFD349nnRuvdar77tNPIIf3yq0Dfg5D29PeC4bruGYDUtiyu8anrwTK+bdE2808LohaB2jdaVev2jqrj53U1PGmogLFgTrcq8NHISG48cQdJm0fwso6tbaYiWZ9TyuRG7lwLl4nGxwDHDZv2RYEOK7oZpdMWHNcsucPdWMl1HGu1XO+4yPRJZV0FvBhHzpTwbbmGBK2DQuEe22W7bw80QHgkBHo98EyAKwXxS9PKjdzYE4NH/n4au4fJa/EQXF8CfBQ4C+BcGyW+H/4G+C7wCyAv/QYVFwDmgzBBOxglrgbMChoxoLoT4GWN6cR9e6D7N+2T5aUAdeDcGqVvgfBqgMGvRvuVQUOCkflrAK44fAPwFqALyEvcD+cApwE355FazM5g5k0Ax05QG86dgUK+ByRFCjwBG64u9dMDKDBQNxmJ77HXAtcCiwA/PR+FnwOz5svBn7zkRQFRYAYqUKricYGFH6r9Oy7A1ww+0wKcV9j1CpxPtaQqlSE1sH0dvtL5x7z2ToXCWjWwA78vqsdCix5owe/cKAU46wvDIrTajrprFbWTJAqIAqKAKDDlChSq4VacGHFRyeKszid6VSFPwngq5u5VyGJNFIpGprGtKtQ+0cp982b6jUZw684hdcmqOWoE9+qrl3YPjqjbNmxVJx+6WPXiASV+cu5NxpV9EvLO7jKeLa6Nc5m82KlX7Rz5toFyVd2DS4xd0lPEiybFTDvz2IIWqQCg5Vhfjmt5rMgIFjqebggv2hGsXoX1HZsiS1Dgz6WRO2yf7b5NHlXNz7YfVK7wYvAnfSLdvJdaJgNk8T6prZ9uC4M65wNHAFz5xUtinwfQlhcw60Xd24B6AcLfo56BoawA4VzYqTGDF1mJbTmOdLofho1p4wSUl8PHmib8cIXXc4HxBrw43/cC1IQrN/P0RZV+4vNF2N7MwgxIXIU2K5YoH+C+OAnt/c8onsz9Dsh7Lxxgd7r5X/D6HuA/Us4egTJXq0qAMCWMFEUBUaBFFegf2aN29/4X4oLr8dPqJPwYxmeo9ws6xJUeQbhLhaVrVFi9sUVnMXHDKgz9VlW6RhAYvBi/KBZCihHnXJ/FBfy++ZMKC9eq/qE9rk4yooAoIAqIAlOmQNDdu0kND+4Ow3oX7cQrBfWavrrRA8s1q/9yuVEwiK/8m5FOdbgRGwRkNC2TG/skq16g8C94kvFQpYqvp0xHTv9Ktap27xtRv7t7kzr5kEVqUX+PKprVhH7TLC/O5jJm7KnJetWOkLCZ0Tibyzi6Gy8zD+4bVftGuPYxVa8NkUZ+TQ2PTvjzRffjdUZz2qflcpsRKNRmvuiE1nRghTOutSm2aj/FYnCXbjILXvyT72an+1gQefLMk/eJTgwm2X0y0b4nwh/HxjHaA+QG5L8EvBx4J5D1lw4ealzddj5wHZCV7oUx/kt2knEcilxF96/A/ckqXXo/XrnS6mCvjj9svwJMdKSbq92437mKsF7CX+D1JbTjDQ5a3/xTw0eAUwDOMS8xCEudDjQlP3GyvbXy8emPeDLn0oxvjuVAtOLKQQaj/cAw3yO3AJOZeML4LeAFwOmmo83Y8jicKSts/P1zIPvATP+ANq00lgOaiDQWBWacApdfMKwuv/YPaqj0f7jMuFPxBg1+6hwMVGleRe3ePYhv9fb/o9W6rVvVCUf8Um3ff6PqrhTVSE/y87EP4lRHR1T38KCidpJEAVFAFBAFplyBdeu3bFu1Yi6v3OP5X8Ok1/SZT/OGlx/Tm+YiWOf/Qk31on1qbkTSr5n8qGP9Wvfy46jjiA1HyCTcoTBYDtX1Dw+q85b11j2BwlNcdNthPNRk7bqtatWiOWr18nmqs1RM+jRzSvdDc8JmSs7mMmle5NCrdoSELaPfexD8HEbwkynSwDWNDbZGO4vv02jcRaPUja0H1NTj6s58bjxKa62x6ApYTYXlqfLo0I5Sz312LO2+HUuAkFK9FeDqmo5JEGYXfK4F8gJlk9DlhLhkQOHjALW8HJgLpBODHRcD16UrTJkrovggE65KTCf+ZH0pwBVy7wK+AewFbLoHmTUAA5Rc5cQP1CuBbwMTnbiar5kP68+Dd/8Edc75cM4M1izM8UntNubUNTJz3ywCVgGHAlwlxsvluUp2DlAFdgPbgPXAnQADugzCVgD32YF8s4lBL4LvKT/R11h90gcDt/TH9yWD1AysrQQ4F86NujGIyvmQz8DtbwEGwuqtxrPj5JY60S8D0QcB1Ih+ebzz2Od2P0CtHga4/6nVBoD2sc6Lxz3hJ+6LTb5hkvIMCP4L8Hbgx8BnAB6HfqKO6f3H8THZbVSKytQwq43l2G26rbVnbemT+57g/uD+4T7hfmbift4JbAU4J4YHuB+IiU52LPYYtMce9yHnzT55rPF9xLHwM4xzHetxgSZTkvx9xffleN7nUzJQ6UQUyFcAaxUu14G/oXxO3Rq+D2bqsV879m9eVsEjzfh9REgSBUQBUUAUaEUFLl9TVp+55U5E8C70F703M1T75OP6gUJ6GvuqQj64gl8sNb/+adPJhhXBwjdnPjf6Wo1ejU8UuAjwuxt2qzXLexVihbmpwgihSVXk79+2R23bN6TOOmKpvuTY1ur+LdEUYltGLjZlTtGrdhokbKavhA0FLtB/YM+ICxDaxnacbJZowwr8fIlSXFNrAUMb8ZKK9mZzjdXjWh77SvSkK4yFOyYIbth42SGD0Zja/5Un9s0knvx/CGCgaiyJwT6CJ4E8GbT7wZ5M8sSW6vMvte8E/gzM1PSfGPj5wCUZE+iE7bQMuzXxRJ6BxnqJAZ8rAfbxz8B6wKZ7kHmhLUzitgu+j2nC/5ea4IyF8kOQeeyd7TXiMcWTni3AN4EPAGNNa9CAgbIjgHQwqp4vav8z4GvAWmAPMJb0eJAfDTDo5ifO5UfA7b4xJ89gbT9wNHAucBZwInAIQHujxOOF78nPpoh8P3JcfM8zGEzf1P04YAXAAFCzifvoDuAHwDcAHqfNfrjyPUOkEz8zJjtx3BwzkZWWwkg90mMpw7YaSAf6qdtjAL7PqW9eYt3dwEaA+yYvsd/5wBnARcCjAB7DtGUljush4Bbgx8BPAQZa+bl7oInfIQsBHiMXAjxeDgPmAVmJ82KA8E/AzwGO5T5gP9AqaSUGQj35eWe/s25FngFOSaLAbFIgVG/4bY8qDPfhuR0FNVqs9/k1/bp04MZN4UhVVbsG1EfObfa7ZvrHLSMQBUQBUUAUSCiAZ8n/ToXFN6gKf8KOPY0pUEj3DP41/IZjABA8+8swlx8RmuXqO1xgCPS7AQ8q4dOMF3fz53V2quIS40RCu724L+Gv7nxInXjwQrVifl90ybE3Pi+LpnHJ5UzGlb0OErY6PDZxXJ2Jgp8jWDm4HgFCLiCMzLUC1lisgT/DjS87JFvl+mKFvXtKaieSm+A5Lqypilpu1FPAh7mFIc+fZk3KP/piCZYh+1Hgr2NT3dwIarlShSek/2dwL7bbAJ6Q8uSWJ4+HAqsBHuU8Eb/W5LGZ1sTACwMTHCfHxvkwEGWPR2QzE+fGg+d8IH2izkOQJ51c5bMVSCfqxeDQYemKjPLzYTseeDnAE34GM6YqUZdDGnR2P+rvbMAZa/XDaPA9YBXQC3D10Q0Aj5v/AbYD40kr0IgYa+I4GLAkGJx8D8BAWDP7gsf8VwCu9MtKa2C8FOAxkZUYtDgWeDZwCcBA1XgSj8klAIP1PM6ZeOyfCrwAeArAeR5I4nvoJIPXYXsFwM+SjUAI1EuDqCT8RH8M3Ex34hyof7PpAhCJZhKDZs8Dsj4n2J7BuCcB1PNsoJnEz3l+3hI8ZjYDnwA+D2wCxpuWoeHTgFcDJzfphMcbPwsJzuNfAL4fOJ4/A6PAdCZ+tn4MeFxqEC9D+cqUTYqiQPsrUCidiRMnfG6ES1Qp7MCPZPt90VpzD4ICxjmKh15uVYXi9zG4X7XWAGU0ooAoIAqIAs0qUKp03lgOD/xvxzZQyH7rryq0Kwo1Mx2T8oZtVwnCpM9kzApAnlXVJJ8bEfRrDTc6JeIrfyTzYSVPWNGfe6KU9yU8igjcHx/YobbvG1bHrpyvujt42mST1z9N3hi8rCX71Y7bLI8NfO5+PKH53t0Mk5jkzgCRccQo46pAdVXa2CzX82CChZ5FD8D15FfU4+JnTyEoMt4waxJPHOslBjE+Avx1PZKp455fD1wLfBe4HmAgZ6akBRjoMcCjAJ4kzgP4yXQ3wLncDjBQVS/9EZV7gHSAkG26AJ7c553482SdwR57eSCyuek01FDjvwV+AfiHOIqTlni8LGrg/R7UT8ZJ/r/D731AD8Af/vcDrZAuxSB4zLwS4IdHoyDhoeDUSzx2lgADGSR+b7wEeD/AFX4Hmvgd4x87b0T5XQADwROduKrxTcAa4O8BBnjrJX528L3kJx5/p/uGacqvmsR+D4HvPP35ufTPwHMOsP/laP9e4MnAa4FbgLGmR6DBvwL0cSCpF41fCjDQ+A7g6wD3/XQkft+9FUgHB/8Ptp9Ox4CkT1Fg+hXQSxXm4pviyVjegN8n4b7oFGb6RxaPgF9lWDkf6s8OBAfTyytipuREAVFAFBAFWl+B+152/AOrPnfbX7Ao/Ojkqcr4x26DhfUDhfRvAnsNLym23IlbVVjCmd4du4ZwmXG/ylqzzzlUgCjIVasFH2CyYftetW3voDrryKVqXk+XPtFL8L2Cl9XOEmVTSNi8Lp3dy7is4bE8hCcYb9zL9VbxnnQ8dxaKjDNGGVvlzNbAGWmjq9FzpP/Yws5MgwNcVYjI8oO3lVZP9OInDrdlE0+48xJP3P4JaCY4yKDQ1cBnAa6kmmmJJ7sMWnBVUNblmQz6/AD4D4DBwrwg0A7UlYGsxOBOPb2vQP0K4DnAQUAfUC8djMovAc8DflmPOIF1/FNERwN/2xvUj7eaQcerxtt4kttxNdRXgMuAHzfoK+/Ysc3SQTtr55YBbK5e8/8kRPtEJAad3wnkBacmog/6YD8MAj0TWAvkJb6PNgJnAHa+3LL9EcB9wHSlRvvwQMZF3+4r0HN0KvKfBM7xbH52Dwq7gUGA7xUm6tUNMJjMwDM/g/z0aBS+BvwV8Ge/okGeY/gigB9tmSlrLOybfyTh5xrHwryflqHwGYDB8Y8AnMdUJn42vwh4fqrTrSi/AtiQsktRFJglClQewEfHzZjsGhWUluDP6N144nFrzZ0PH+aJQFh+EAPDWDlmSaKAKCAKiAIzVoEgCMPP3PxtVSj8k6pO7M/uKFCIoF4impSlVBQo1E80rsu1KwVBwldRfb8xN+9S5QcHRtWO4bJaknGZcdUGvbKG69n2j5TxlOOH1QkH8ZLjXlUq4me4mUPeVJzdZVwT59mrcpXJ9YKOartTDw6MqG1Do+YkJPJgT3QS/mjUhmRtsmT8a25tjTbHQ4hyVjNvx9iWJMRjgNVW+NxQ3aQuCyb2IEyPscXKeQErnsy9CHgZwHxeGkbF/wIfBK7LI7W4/bEYH4MuJ9YZJ0+0eRL9KOANwFeBrLQZRgbIjsiopL3Rj9bLwfk28Czg6QBXFNYLyHEl0BeBS4EbgVZIXHU5GxMDy/8JrAHWAZORzoZTHosTleLPxOhyVfuxOFH+8/ysQsWngCcDDKrnpRtQ8VTAnzODsa8B+D6crsSTZY6D4/I1Y54B1sWAHwDjatBtgM9FMZG4L/he/wMwlKiJPk9scJA+7H5jfj2wFmC7/wN4gmxX4HG17VLgGIDHDgN76aAe63jcXgQ08949CrwvAGk/MOmx3IQtP4vuAB4COBZGE6jHQoCfjacAHM/JwFzAT+9DgVoxWDiV6Uno7C2Af6yNoPw24HpAkigwOxWY8/MH1Pbzr1YdPcM4SXup6u5/pBrBR4U+YbMfRdMlDT4CC3jLdnTjU3Mfvi8KV6rRwZ+pRdfxs0eSKCAKiAKiwAxWoBKEPyiG4T9NzhQQqOOvaJPqrSrUIT3HNeGwzK+/iBT7rc91Lu1KRY4FfrcNVdTWobwAIU4m0NCLX9kp1GyHyxV164ZtasveXlxyvFD1d9WGfdw0TMaVU96c3cu4rMd1NpPh5uat+7GuP8TfF1FyUVE2Sj6pWDdxorCeE+WWqR7XNNLcJC9qqR1EwpmsL6Dt0nVFjt2JQaEaFIuz7jyg9kiJhGMg7I1Af1TMfN0F65XAvwE8oZuJ6QQM+gpgdZODXwreJwCe8H8/o81u2D4PrALItWkLMp8DuLKmUfoTCARXy70MuBRYAeSlQ1Dxn8BfARvySGKfEgUOQy/vAF48Sb31TrBfHo/2c5EBnKlMZ6KzNwFvr9Ppj1H3VmCJx+E4XwBwqfcXgWFgqtN70eGPgA7A6scxcNUjA2AMYDK4bxODZlwVx/q8xO8l4lZgp0fiPr8cOAdgX/b7ax/yVwNfBK4BRoG89EtUMCD7aOD1wNMAjt2mC5B5KfBRa8jZ8vviQ8AxqfpBlH8IfBZoNJbrwfkSwADrc4CXAMcCfvoACr8HqMVUpBPRybuBZYCvMfX4b0CSKDB7Fdhz4Umqs3I8Vg3eosLCl9TQ3ip+WJ+rg3Kjw3i/4MxmWhLOMjq6A1XGV8DQ3t9ibF9RAcbY2fUYtefCO/Cxedu0DEs6FQVEAVFAFJgQBbqq4Z8rheD+sKIOnxCHdZyMdVXhWB5qwl+W9QN6yVWFA7hn3124Z9+JC7qV98BiPXq9gnAM37qc168e2K3evna7+uyTj1CHzenCJcrxyYQ7q4D3LLfOZjKNVgvqQTpuJPjazQNYbWaM/JXNpIuJgjuhMsyIR0oON8EjW7vDi66Ia5O9RG7jAGAtjwzPuicsFBmXmVWJJ3zptBiGvwdWpyu8Mk9g3wP8B2B196pnRJZz5xzqzTNrIgtgfDfAVTKbMwgMmlITnoQzsMHg6feALwBjSbeD/AaA/bwZOBXIS6eh4v8BLwLqBQry2k+kPX5PTaTXyfXFAAf3025gAODKISbOZQ6wFFgBNJP+CqQPAgxgTXRq9rou8rYDfJ/uBTg/HpP+vvkzytcBNjXrm0Eu65tBKq52o+8CMA9YDvAzpJnEQN8VQF5gm++Ba4DLAD8tQuF9AIPjDKSTVwGmKm1FRz/N6exI2J+bquP8vp+yNVu8GETqxGT3H/fpxwAeZzxmm02/AZHHJT8jLgWKgE0MEDLAx+M/L/EzjePxE48t7kN+lu7wKxrkucLn3wF+6TLoeBJg03xk3gXwvTTZaSE6eDtwuunIavwDlD8C2M8CUy0bUWC2KVA9CydCz8CTJD+PxyLejI96fOZXFyEwdwzOePCnen78T0Ni3wwOqvAujOlz+HS8Q1Uqq1Wx9EKM7zuouG0aRiVdigKigCggCkyQAtXOvcNqdA5Wh09+gDAacryqsN6KwiS33ipBMqPvSL3qz/6Mt780I0feaxQopMdbtw+pvz58vhpJfccyQJjb3PPELIOLd+wZVd98YL8awVneU799l3rzWSvU049cqOZ2xacAaX+Jsitkhwa9ate7s8HCJxiv3TKgA6RUwtXZnw7akCgYxepxIy+2FTt2flnQHdnauKbWQq6xpiK42oV2FWwsDQ3jd8bsSgyS+YlHyxMBnjzmJQYE3gl8Io8wQ+znYpxPzxjrFth+CqwDVgBPBg4G/MQVNPgRqldP+nbmGai4AvghsAygv43AeBLezvpy5vuxZUBkTR0nPJm+DmDfkppT4EHQ/ge4BWB+F8DgyzDAxE+VucBBwKnARcAjgHqJ/GcDl9cjTVIdA9Y8BnASp4NuftDT/1zkMboJ2AM0m3gc/wRYCzC4sx1gext8ZICQwRa+V04DngIcD9RLS1D5TICBmLzEwPfjgEUpAssM7PDz6pfA74E/AnyvTGWwEN0lUg9K6c/VTti6AHtcJRo0KLwuVc+A1ecAfh5Q+7EmHhNvA04BjvMar0KeOv/As6Wzr0wZqDP5/D7g+2Y86Wdo9H7gYwCPB5uehMzZAP9AMpnptXDO96ufeBy9F+B7RJIoMMsVCPG5Fa7AfaA+pKrlz+KH91UIwv0bTj1erLr6z1UjA/yBje+XqVpJiJWDPHPr7MMnKlYOMjhYKV+Pb+vLMMaXYFw78dU9ns/aWb6fZfqigCggCrSWAuv+5oLhVZ+9FZ/vlWfie4a/pacsRSsK2R0CYzwbzE1m9Z8+y6rPtesE7ddlvt9Q3bNnGPchrKj+Dp5exanZexAyOHjzzmH1o01DahQFTmEUtwb59z88pH6/aZ961zkHq2W9HS4Yxx7cNL2My8ZDiHleoyweq+/fM6J2436KJTPZdHgzecWxFtH0lLxUWPt31cgkOmzAdeOMGjk3sDs3NlDocTnWQiH4c8e+fRvNoGbNJn0iyxO0VwPJozEpx7+i+J9J04ws8aTQHRdmBgwS8cTw6wCDRfgFqi4APg4cDtjUjcwTAa6AyQtG0BcxEel3cPIG4KPA+TkOOaZXAb8A7snhiDmpAIMPbwK4Eq5R+g4IVwNvAZ5Zh8z3zhrg8jqcyapisIVBs8n4IMOJmF7JurWJwX8THGr1j8CFdfj8sn8sUC9AeAvq+Z7M45yJOuIh4C/AncCfgQcA2h4GdgN7gTIw0xKDn6uAlWbgv8aWK+7GExw0LnQQ9dso/APQYYx2X+QFCI8Dj0Fy/zOTn2/vB6jtgSR+3vI4eS5QMo74efZC4EZTnozNpXDK97OftqDAOf3BN0peFJi9ChSqCLp1Iih4qKqMXqoKYRknNz/HJ8F/I0CHTwRebtwVqCm53BinEuyLKwd1cBBjCIM/Yi30M7C9VBU7DkUQcwA/YTFmSaKAKCAKiAIzWgE+qOSKm27DF80O/BFq+fTMZXpWFTKo92tcmnvRoXMSlxk3s4KQJ6J37htV39lYe6rAFX0/X7dL/Xz9LvW1i45SZ+FpyQwm6uR+4TdYLUiy4bomkYea15s27wPVZ7GzuJwoJcaRKLhApmuZqP7/7H0HoBxl1faZ2XJrGiGF9IROgFACoUNoUkVUIk1AaZ8UIYCgfpYrn7+KVEURQUSwB1QUBAEhgXQIJAESCKRX0nOTW7fM/M8zs7N3drPt9r33npM8d2be98xbnpmdnXn2vPOmlLK7L1vluKTs5LR195QmXyOARxLTfPmd68dHHece9Md7GGOXAwAjSI7lRhbjQyVFqu5w80VRwW8UD/4JPOpLxI2mE2E2FkuKFN7DNF0YKTUSWM6NDjBcIJ0H+t9geXCW+g5A+nXAnVnyNTmVAR7fQsRB7sVrCMWK7wMDgJOATMZrF8+LQcDGTA7tmMb6GCHWHoYvZydqsJCy+Vl6EyC/5Go8kMn4HbY3QJ9cwiM/k72B7wL+axY2k0YBjTgFYL2McEQkiRPlyGPMdaaRI2ItsAJYDez+DYrEIrF70Y6pAK/N7N9TQFv88PAcyvk64F3TuDwQyGYnIqPcl8kfRniMGW3XFvY7FHIOsGeiMH6OTk2st8eCkcAUWv194nnwMPB3QE0ZUAYcBvhRx+x9ViyKCUoOkcYafEbjq8QOvIOXjeOmuQOHG6cPK6Y4KPH90L6b0ba9pBFTPzo/2rLNasqAMqAMKANdnYGyYOXChmjNStu2OkkgbGKwPd5TmBxUbCfqSShgASz/vXannD28V1MDsMbJPnJZHJFw87ZH5B8QBxkUlyjOtwLNK5F47SvL5dpDB8kVB+0pvcIBPOimSnlePZnKSKZ5TlmWsxCtaDKPzU7u5O9DU/TfbtlOgufr5qZuJcpl+azAcUmWklplwsVxdXyb/PxZyVQUh3MuIoHwv919etZf55glulyG5bU5uv8p8n4AVOfw6SpZYTR0j7TGMmLwrbQ0b/MlrKTfcZYgjcJGR9pcVPZ/AMWOTMZ+nQXw4VctPwMBuGQTnLLtvQgZzwJ12RyQXgGMzJHfXlkUeZrbn0LbwnI9ManQfd6BI7miYJfN+M2Xj6sG+NwP8Pr0EZDPyP8IYBxwInA2wOi0mwBGWHpR0H/B+t+AnwKfA/oDxWa83r4G/BC4C5gGtIXxPPaLsvxO5M0Xj0cmOxiJ/nMrgu2XMzm2MG0a9lvq25fnDK+77WF9UegvAJ4jfqMwSIGwx/1S6CdB15WBrAzE+LE3BkEYvE+M6BnO0F7b/Cnuomc5Q34N3lKmDBjKWlTzMlAmy+awYtbFOp1hxWgD28I2OW1rXqnqrQwoA8qAMlDcDCy5+oBdlmG8gEiuImkoIwqb4KhQWVvW5OeMYIXolNkoEyb+0ZF+wMb6mKyu5fduk1EAzGbUDmdvaZQX1tcjKtAtxC2VX53Yy0OigLpoXB5ZsEGuf3W5fLStIWX4KB8KPHgr3jaXhVhDzJKVmGyF5lTt1e8tm3IcDy+ZS8dSElI2kl1J+nIHxyW7X6ovtjKQ4u3N8w13Hn9bNGk09a8eZ96njcd6LHByDgYeQN6HOfK7WlbKeYLGkwv/A7C/PxSSMn0eLL9TB61PQT0Eo7QyGX5NdyZIyZSnabszkH4e7O6xewqF5BW7JydTeB7tldzq2SvT0f11OSigqF0IVxSMfg98CagCFgPNNX6G+UMIo9RGAxTSKR4yko6C0b+B/wccAhSbUZDeCLTkfM3UF4qu69PKq8R2NpF0GPJ4HfSMItoCb6MNluzX/wEUbX8InAf8CGgP43fZ8WkF8zP9A6A7/ACW1jXdVAbagAEM9cJMxrgTwl1zqAzXbA7pdYb2MoqYw41nOZcnDgFuU5EQ9Tpl4hKRPqyYbWBb2CanbfBVUwaUAWVAGehWDJhm8E+ZH8M7v5uOAJdDtGtqoScANqVkW/NEPT5MfgDhjg8vnuUKIJyPyEGKg42cpjjFuM1SEw8RyRX8Ig5fDgO+/MWP5c217i1wsj6u8BvdXeBv82xNTUS2NfBxoalCriUtZYOpqX4p2U1ZKX6pe3EL5vnmEgBdzzRfL5FLRDYGy+71p/Skdb9A+PkcHV+CvOeAbKJUjl2LMotyPB+2/dYPGyf4E3zrFCX4OfUbH7A3+RM6cJ0P0muy1MfIRvZjaJZ8TW49A+Q+17HntbS89dV0ixJWoBfbcvQkgLzeOfL9WYzi5cMoL9gXAF8EHgeWAa0xfmb4eZkATAb+DtwDDAS6s6UfFx6Lsiwd7oN0nteetcf17xUU/nWA3E8DtgBtbbehwElphfK74FvAJ2npuqkMKAMeA3ZiEhIKcdFGxJOXHY5Lws3OEF8ON+ZkIZxRmO8HzD/9o1dq/uVuw4pZV2JYMdvAtrBNNK+N7pb+VQaUAWVAGegGDKy6dtwKDH79hxNJXqT9caMKC2kchDoKVxSxcporE36ECLxGnyqYaZISvq/wjU31MmU1Zgv2xLGMZbuZyap9vtUNcbnhteXys/kbZGNdFF/jbgH+G/+MReZIXImJVhpjydrg6a77qnWTUhJYYFNC01qiopSElA3fXglfryhnc3dfn5e7mioovh3pE21JMMpuxXbFBE8g5APyuTk6wKiOtTnyu2LWm2mN5mfgc8D3Af9D8jXYJvjw7BnPshXAKi+hg5eMyPodQMEkkx2MxCMzZWhamzDAaDYKJNmMn6uKbJk9LH0n+lufo8/83HnXoRxuKVmMplsK8EeL24GJwOnAncDTACJZHAE91zGCS0bjZ38f4FaA173DgO5q5NFvvMZlE7ZDfkesRxNIS27VJn+A2gzUtKqU7DufgSyeL/7PJtQFqQJeB9SUAWWgIAZwC9Tuw43xmFPQsGLejqkpA8qAMqAMdGcGjHD4Z1C/sj33FknXXfHPG4Kcq1GO/AdBKiksZvkqW4shxtswC7Bj8HHERV/B1A7f3Nwg//2UkYauqOiWDSeWmbFcnx9d4MOHscaoLb98d4NMnrZS3t9SlxIVgOxmGatdA4GwHsOMU9vgNYptaGoi11MSuO1L8PumZaX4pe7lePqL8fmmJjv1ezuLGbcN459L3/ojn3V6pAUTvd4by7FZGGC8KR+ecj3kZ9m1aJOHo2VnZWhdX6R9E/gcsAwYBhwE9AL8xgdrDkfsTHsUlX8NGJyhEXshbTzwrwx5mtQ2DCRCFjIWxutsuqCS0bEHJPKam4ur1lDAG4VdCazDcjpA3il0lQL9gT2BQQA/J/w8jwZ4vaMIyKi4bBZGBoXHB4AbgI+A7mbJ70NfxwoVa3mOE8Vimfrib9sobPwIGOJL5D6PA7yWqikDykBzGPCGGwfDe0m0HsON8XFqs9mNIQ5mm63YG1ZMgdKLHGxOu9VXGVAGlAFloOsxYMQXGkZgni0xjvbpEuaKeYh9zHu37IplBgP103w31sWcdxEOLgtBLnP9vM5THJwOcfDlDfUZIi08X9Tv3SGnle2W42ZyghIafd9av0su/fcn8uvTx8jRe1VK0JvVxN2hoL8cuvzJjgZhdKPzYJGxDamJ3Eo2MTULOU0JTWuJpqQkpGz49kr39fyY7tbqpWDrUztuvy5VVe31/JpoTPEuPIHwiBxNfAt5q3Pkd7UsimfPAYdmaTiFBU5uwHyeMclzFeuefYyV33obnbTchHo5JO+KLPVT2BwI0E+t7RnIdF60fS3do8SO4IoXcTwxOiBrjFzkue99hrnkd5S3pHjIz/lngPOB0UAmm4jEm4FvASyz2I39867r5CTXr63ed2Gx96m17WOEPMXB9O+5mUhjRKGaMqAMtIQB/3DjaD1+hGmj2Y13G1bsm62Y7xzksOLkbX9LGq77KAPKgDKgDHQlBlZWHLZrVHTBP8WIHwHhrQsFYUCoS9xt53v7hiPpOb6J2YRxRx/Dzgu21sv4Pcvddwsinzf6uxCZN21jPYYWNyAqAilMzGgs1c1sjlBYF4nLxS98LFcfOlCuPWSQDKlk3ETh1hC3ZDUiCN2oxqbGJdvAopLJ3uNI04zGyeymrETlTHB3zJiVZcf8vsnGoPjg/H6l5QsSFfbIhfcgeViO3s9HXncRmYagL88CeHdO02mJ9XTjWeI7U1Kyd2DrFqAYIirZl2wC4WjkMWKquxw7dEVNGWg2A/xO8L4X/GIZIw6JF4H/BS4AvgMcAKTbpUhgxDB9i8EYITkCOBLgDxmMiGSEZG+AQ6S9b3H2l9HOHBK/DeC1YAOwHmBE5ACguxiPH95NttuPqBRJGQFOvvzRkauwfSFAUVlNGVAGWswALq/+4cYSfRg/S/xdAsGfInj8aimpPE4iuAQ5oRSJ9xhmrQuPDnyC4mzFzoQkeK8hZyvmZCjO+w692Yq9S3rWgjRDGVAGlAFloDsxMMmIy2PzX8LQzxvxfTK0K3ataXhwvqjCRPSf81VnyNT1NVISMGRsv1KprovIspqovL+9UdZjlmPe2LrCoitbZI5WdL8zk9+c+CpOihzJFY/RpJeEEDn4p8VbZN6GWrn3lJFywB7+N7B5/pmXHFq8FBGErjWVmRQrmeElJ9vgJTCzSSx0slOy/BssJlmAu+bPTlMkU7L8bWBjUIwRhPZsyxOzJw0vBp2HLewU8wTCTA/FXoOWYIUPmV3dGDn4e+AYoOlMKrxXPKf4fqyvAtML361dPWej9O1Avwy1UBzk0Eo1ZUAZyM0A33n3R4Ai4K+AiwG/9cXG54A5AIW2zjJ+zr8EXAbwFQKMdlZzGdgDC6JQo4jKyNDfAqsK3Un9lAFlIAMDeYcbB46TcKmBoci48fbfnvvK4lNNqAw+iA7MNluxDiv2EaaryoAyoAz0LAZWXnf4gpGPvTvdtqMXZ/0u6RKUQNJLfBXmiyqkWlUfw69uK6rlmeU7HAHDhHDn/8Xb7bJbIMt15L+cSkdCgKSn95Wc0R8DujFEePHWOvnMs4vlnpNGygX77CFlwd1rT6d9JSZX2Vwbk8Burol2+qSYzG1oapi3xjqcZnoJyTYzwd3ImJVlx918nTKMDwYNW//Ch9ynB5t32BhdkckYLceIk65ujBx8DDgVSJ5OaZ3iecJoEo5dYeQNI0+4jAIUSJ8DJgIUEYrFOMsnI4EyGcWEgZkyNE0ZUAYyMsDr3dXASxlyz0Da8AzpHZFEMeszwAzgV8AJgIqDIKEVxh+MvgfMBCa1ohzdVRlQBsiAf7ixN7tx3H4XOU/gVuoDRBHGnSciTjziALdiFAW9bT7V0Ie+3MfZN8tsxaxPTRlQBpQBZaDHMWCEjHvw3eGFpnX5/rvB9fm7wXi6IL4yA/je9MSbbHtR/nMESCobngqW0dnxpLfrl9XfrfsHs9YIsaGW0khue/bjrXDwlbube1NlXHOsKclLwTI1MelLj902mnyb1hJFpSSkbCRrQGockumd0yZOjCX26rELL4JwUBYGqpHO6JqubBQHHwTOy9OJNcjnw/dOYALQB6AwuAT4DzAXKEZj+47N0DDEyDoTNOBykvoRyuCrScqAMuAywM98FTAR8Itwo7C9P/AewG+WjjJeo78E4CE748Q3bAt/2OCXGR6ud5sQhp9/3kt4CPjW891jwLXLGHlg/7MZeWDf043DVBhFWJlYpufrtjKgDBTMAD6G/uHGhvxS7NCfxYytxtPKVVADL5FgGNcdfBy9CUYoEPKSGm3Ej7L2X/Dg9zuxgsvFiFyC0IYb4TvILZMfcTVlQBlQBpSBnszAyq8cvmDE4/P/gC+Na8RiLE/Xt6RAl+hK7qjChPjn+CaGCvMOdzdzSnVT8fWZ8HS+fndzRYLrnSjI8UdiWrkRvFeQwt/MdTvl/504Uk4c1jvdxSl64aY6+eeybYJAx6YHJq9MeqSU6363u3/T6ndK8/xdDyalDCluSna9nSK8xKZhysxMyXISPD8v15huVMemc6unGx8+aRTDMhleHCNdWaWnOPgTIF+ECN/JVQU8CdAecRdd4u+KHK3kcaVQSAGhLYyfJP+nKVOZeHlQuxn7Qsv/04Xrp3+VgZYwsAw78UcBDiv224HY4As4KCJ2lPE9g78BvHPfq5efAf48xx8IFiSWn2LJH3X4GfW+fvl55Dv4+gKcmGVPwBuOexTWBwDdwVaiE7OAdBHQ46IcefwhjN8J5MD/IhVydDewEngdUFMGlIGWMuAfbhxp+DxuP3CHbr6DSME/4rL0JoYZ743ZjvfCFYrvTOXVaieEwA1iBHDdNddgG9e6yKUQCi+UUOlejjjoiYktbZPupwwoA8qAMtBtGDAk+ACGGV+IDvG+ttsZowodQc+7k8/aw4QIyHcK5vH1BMDMw3m9Cpoe8Z0WeJu+stm29TURuem15XLDYYPl/L33kL4lAbwj0XQmVFmO9w5+c/oqaLfezt6ySdjL3gbP1xX2ktUyObnBtqb6MSWZneLr+bke3laKb2Jn8FdnB4JPL7pxf2pfPd48gTD94dMjxotK8ba70nIvNLYK+HKeRm9M+D2Zx69Ys3O9E40PxTzGbSUQMkInX1ntJTjwYYJRoHyYnwesA9h3nqNqykBbMsCo6ZlAukA4Amkc7ttRAiFDa36YqBOLpO3C2j8ARjzPSaY2f+WP2OUSIPld2fwiimaP/6Il1+VpDfs5FrgUuBKgWOgZIwknAxRbc11TPX9dKgPKQDYGvOHGwdAREo+OQbTgM7ih/zPuRv4skfgwCYRGQDR07xVMazMmIlktYXstvs3H43KEyEHjIvj01dmKsxGs6cqAMqAM9FwGjGDlCttufAaKFO77bN4rdztzBD1P0ULvOj6qMCE+8hEB7Ug+KCRWajHL8U/mrpM/Lt4shw4olz3LwrILaW9/WiMbICA6ltzJOzxuh5IRgBnKdT09P24lCvH7JpNdP24my+QeTcnMShThJWaOKrRNc3EwFn8pw95uGT3srycQ1qPf/ogKjwY+DGcTDz2fYlwyUuRbwLV5GrcZ+f8HPJ7Hr5izG3M0jse3LS+cFOP48DwKyGb7IKMEyNWubPvmSv8fZP4YYH943F4DXgXeAtYAjJxS634M8FwaDFC0Y8RcRxi/2VZlqIgRud41M0N2mycdghJPTyuVv2w9BNwNtFYc974t06rokpuFHBf29wPg28Bs4DGA55ZnJ2KFv0g/4SXoUhlQBlrKAD5uFi5RNkaoGMbFKOUsiRlrxDTn4wZ8PYYc874Tq8YIMUPn42p2OJyHI6Ev9ql09uVTiZoyoAwoA8qAMuBjYOVXRjeMfOLdp+24dRG+S7plFKGvu86q865CrOUWCunaPlGF7rcxIhW9r2XodphY2YkmZERhqiED5vdNzfcKaRL28vsWGlXoK9OrlNW5TcKKV7eb4GQFghjEEHpw0ZX7cSSWGhjwxKNsERO94ZNJOCxm8vZE4ygO3pynkRQbqoBf5vEr9my+OyubUaSLZ8tsQTqHNa7Ksx9u8OXQPD7NzWbk1mWAd74y8oAPHHyQZyQVj/doQK34GOAV2L0KN69tHBJ7InAb8ChAIb+jrkX8vtgJeN8iWG2VtbScszPU+hrS7gNaKw6yaO/zxPXmGvvU0n41t65C/Jt7jj2PQikU+o0C8AXAXv5EXVcGlIEWMsC3pHO6xWC4l4TKh+PJ5jiUdA4e6C7Ak4MLrjONefShL/dx3rDewnp1N2VAGVAGlIFuzcCqq4+YLYHws926kxk6R6GwsK9H+uE7OO+dOgVF/oMV5Jtwy+nLTLfMZLlZ/d0Md49EGzL6uh5JP6+9WX3ddiazvR3TE9yx2VMHD103hUWquQx4URcbsDk0Ayn9kEZ0FaOoQLHoljwNpiD6faArvWswW5cYLZnNGHVFUa+trAEFfVRAYVfB5+0C/Ap1YVTPqCzO+yD9LoCRZpOz+Ghy5zHQC1WX5qiel+pMbxn+GtIp8vvFmrnYfgroCGOb00UninLJr5YsjcjUn5YKcUek1VGN7ZcBipcdben9Tuemo9vTFvX9HoVcCpzuK+xkrJ8KcPi1mjKgDLSWAQ43diYuQUG8ETeDo7Ec3XR5xaXFeYiJ427FDSpsbZW6vzKgDCgDykD3ZyBg9P6+FYieacfj+E7pSQbxzXdXniuq0JHpkr653lXoFwnh59GZXPES3MKcv86fAn1ZIvyTxSVXWK5bZtNafl93D7eQZPQhC0iWm6FML9vLoq9hbDVs8xs6czHJazLvwXV5U1LKGiN2GL3l+aVkFtkGhYjvAYw4ymU7kPkdoKtHDnp9pECWzdjXtog08sqnQLjQ28ixvAR5R+fIb07W/nC+GGA0ay4bmStT8zqNgeGomcJ9NsNT4W4zpfOSzeg5vzjIy/mNQC6xEdltYnytQqYfTDYhPZ/gzvz0WHtem5JfWVgv1NLbsB07cohsZ1hjWqUU5Pn90JbGHzt47TgfGNOWBWcpi+feg2l5vM58Dsj1w0vaLrqpDCgDBTHAJxoLHzsOPbZwqXTAdaT5n3YKKkydlAFlQBlQBnoyAyuuHbPRDhh3YRKsnkyDEylY2FcohUV8D/OJKqdRLPQLhrmc03yzls2MRJkszt3MUrBbSNIluZLu7mZ42VxmL9fJTcs2bPz7fcXBB7yXXnJP3/Y+UYtyEHEQ8vrkyC+GLD6o3g3kiyBjBA7FwV8B3cV4fDIZJ1KgoNGWhlAA+RBgxGku64fM+4GRuZwKyON7Jb4J5BMb6+HzfgHlqUvHM3AUqkwXuvytoKCW/s4HXsVnABSkPaPANg643ktoxyWvJ+nRe6xuBeBvE9PSjfk8H/02EBstEQjL/YVgnSIdo587w7aiUn7+PeP7aYd7G220vBnl/AJ4FOA1+k6A9bSX8TybBbySVsFZ2D4mLU03lQFloE0YwMfOeUDxLZ1b9jYpXAtRBpQBZUAZ6EEMWBJ5TczA87jL5j1dDzaIb/hudQTAPCw4kl5zhEIym5ddV/xz3HL6O7U3CXVZfZsykmvJlfShqflAAABAAElEQVQOMsO15FpG36ZEZ800l5kB84l3xht8FlXzMeAJhO/60tJX+YA/ID2xiLb5APkjgA+XuYzDbb8P/DqXUxfL2xftHZ2lzVuQ3tYCIataB7zOlTx2AvIfAXj+tMQYGXkPwIgi7zzNVg4nLXkhW6amtwkDvJY21wZjh/OBXNGftchfnaFgDv/cmJbOz/oNwOGJ9JaIbmlFZtwcgtSz03IQ5iKLgfTowDQ3YX/ShwBTIE0X+9L3K2Sbx4BRb51hq1Cpv25GWU5ow4bsgbIuArgk/2cCFAi53Z7GY/VYWgV8r+skoEe8+Dqt77qpDCgDyoAyoAwoA8pAl2Bg7TXHbcdsGT/Do+KuLtHgDmhkUijM8+TmCYX5owoTop4jQLq/8WXuBiv0BEAs3c0s4qLf19nN9dutzU2FJNeSK/5WNCW6LUhU25Tsc0aiCWnBNO//8IqDOmtklq89xbfqCS8L0DQKaJnsMCQenCmjCNL4kPoT4GtAIEd7/OIgH/S7izHSpTRLZ/hAny/SL8uuOZMZSfQ8UAiP58DvceC7AKO/CjEKnjcBvwOuADiUMZdRtGC0WVu+8zBXfT01j9FrRKHWC47fBibm2IGX7Wzn6YfI+xfgF6VY1H7AjwGKbtzfANrarkOBFKn8thAbK/wJWdZ5g5IuzFMoHZPFP1dyQ1omBdJcw7XT3Nt0kz8i+T/zbAs/321lF6MgP+feuZHOZVvV55XDqMhZwGteQmJ5IZaeEJ2WpZvKgDKgDCgDyoAyoAwoA0XAgL36miNeM0LhJ3r6UOP0Y+EIZc2KKkQJvPvOaXSg+Ielu5rD25XqnCJz+jb55fZtKiS5llxJb4ab4WVzmWwvhqSbgcDzn1wx9tH0vXTbZSCYIIIPYbOBMxLb/gUfwC8AGDW2w5/RyetsO8XB64FcIlId8n8IcMha+gM3krq08aE6m32MjDXZMluZTkHuJYDRYfmMwuC+wJcAtolRWIwYo9BI4ZbHrh9AwedA4CBgNMC0QoxDLn9eiKP6tIqBI7D35QCFopUAP1eZrAyJJwHXAOcCuT6bEeTPBLLZ/cjgtWdEmsPp2H4AuA1Yl5bX2s2vogD+4JBuLyKhkM8T+0TRk2JaEPDsPKw0V8Te4O2cWFJ03QeYnZbeEZvTUUk1UJ6ojD8uHQl8FqCQy+8J5/sXy+YaP/tXAozc89ufsUEBr71tIyr4PXCaryKex18G5gL6q7SPGF1VBpQBZUAZUAaUAWWgmBgIDan4VmRt7GiJ28e7oWvF1LrObwsFvVyTmbgtpFAHc/7kmtDE7w0/+vMpIKslyoVTckKRjP5Oxajezczu6/qxusJ93THoTsmGsSwaN27P2lzNSD7A8mH270AmgZA0fQGgwDaHG0VgAbThhwAjfbwH1kzNqkciRUQKSFzvTsaH2WxReYz0WghwuGN7GEWZ3wITgIEFVMBjNDaBz2DJYxEFeN5RaAgBjISsSGxjUbD9Dp58iFdrXwZ4rlGw2wlsAtYAFLA2AzyWFHf2AvYHKGINAvg5zWUUiHndyWarkMHP+WNpDiyX1ySKyN8HZgOtNZb5DeBOgOei3yhsUyAs9BqyDL7kaAjg2TVYYT+aI2jyM3yhVwCWewIUX3/vS2vNanp0Zq6yeKynApcA3tc62/NN4D1gJdASYyTid4Ej0nZej+2n0tLaa5Mi5ExgOnCir5JJWP81wPOr6W7E56CryoAyoAwoA8qAMqAMKAOdy8DSc/ZtHPnY/Dttw/orBMJhndua4qzdifrzNS23YAhRL3nnm0ss9IuKfEDAI4L3lOCry131hEJs2Y6nm7ybv1ux+xeZWEm6JFe8wj1fNyMpKjI7xTfhZxj1qPv+IysPXL7cK0KXuzFAcYbGB6SXAT6wZzIKNzcD6Q/OmXzbO41t/h5wA5AeceKvO4KNB4F7gUIf7P37F/s6lW8Kb5mMAsW8TBltmPZvlPU4wHOnOcY29wcGA7yAU0QZADA6yjsfsVqQ8YH+/wryVKfWMkARl2Iwxb/jgC8CXwO+BVDguQO4CjgJ4DENALmMV+r/AO/nckLeE8DTGXxY/unAnwH+CDAaaImxXxQbXwH+F6Do6Lc4Nn4DvOVPzLNOYW95mg85eRKgcFqovZrmyK+6cwBy3xbGz1xzjNdTivp+m4CNR4F9/YkFrveG30+BLwPBtH3uwTbF546yZajombTK+H3Hc5wippoyoAwoA8qAMqAMKAPKQJEysOraw2bbweCvIQzx3l0tDwPpgmF2d4qFfsEwp6crLPIpz9XksjhTLOS/hF9WX7cg928uX8/PLdMpLrmTrwmB4IylXz3kV89MMvQc8dGSvuoXZD5F5l/SHXzbl2KdD6edaRQFGOEzGcj1cMuIpoeBKqAB6G7GB+rjgBRt3NfJd7He3gIhOb4f+KOv3o5c/QiVXQns6shKta4kA/wslgAU6flZLAcothVqW+H4/QKcKUB/HUgXy7grz/+RwK3ANIDnIs+Jg4BM7+pj+/oDBwNfAniNeBugADgRYF/SjeIk85sjhK+A/wwgXUw7FWlTgduAfYB8xsjYd9KcKDTyR4//AZrDt78Y7sdryPGA/xpiY5uf62zGa8ov0zL5HXIm8BxwA5CJdyTvZucihfvcCPDc8Rt/rGLkXkca+/4GwPPBb5dgYyzg58mfr+vKQDdnAC/rcX7wMQJ4aQ9+xitiCNrotpVtVlMGlAFlQBnoSQwYhl1ulP/MMMOZnhl6EhMF99UV/iCq8S44r9EPjnl9KdLxH6wg34RbTl9mJsr0ys3q72Yks50VRCwGQ+/Fyiuv4O5quRnwR21QSHsS+ArAm6xM9nMk8gFqTabMdk5jW/kw+R2gIkddVIQfA+4CuqM6PAb9okjaB8hkG5H4IpDrQT/Tfi1J246dKNZSPKHg0FE35YzQughYAah1TQZuRrOXFdj0avhdBvwe+EyGfShUjgAo+n0e4Lm/DdgBeCIdBZ4ygJ8bCoEUyXhNySWy/RX53wZ4njfX/oAdzgMO9u3I6+qBwI8AXsd4/q4CNgEUuhuBZ4H3AH6meP36HsBoXb+NwsbPgGuBl4DZwFKAfY4ALIefRfLC/lG0o7C4P3AUcCwwCiAffmN95CyX/S8yDwdO9jmRW/brIWAy8CYwB+Dx3QnYQCkwDDgCOAUgL0xLv2YsQdo1APvR0fY+KvwXQI484zG7DbgCYD/UlIGexYCNa6jh/NBaL7Eorhk2rxPFZ5bFz2o90IBPqnfdL752aouUAWVAGVAG2o2BJVcfsGv4E+9ebdrmixCzxhWofLVbe7pOwRDfEne5uYceJ2S65B1xocOPCxxS7JSb2zdZNX+7xwYfQhxLrnDL9fJ8DcNcB+H4xpWTRn/qOuvfXAzwAdkzcrgYeBr4ipeYthyKbT74ngXwRqyjjA+RFAh+DKQ/1PrbwIfqJwGKD9454c/v6uuMtLkHOChHR+Yjjw+5HWWMBKNQ8TFA8SA9GghJbWoUUG4CNrZpqW1fWHc8/9qCJfJCof8vzSxsM/wpAPIa8LUs+/IBkaDw1AsYAfgt5avDn5G2ToGNYtcPgWyvXUjbZbfNRUj5KUAhr19aLoU7gsLdYYk88sK27wuwfxT7aK8AFBS/zQ2fhbFOoW4cwH2jgPtw7C55zSwDWA/5oFBIYzp5SOeCZTAqdyWQy+qQeTHwV+AknyPLYx37AGOATIKaV6/XBril2EJs8RivS0ntuA1y8CowCTjEV+0lWP8J8IEvTVeVgZ7BgAGR38Z1wX2xD68lxSkQis3rJ8VBtNX5YaJnHB/tpTKgDCgDykAKA2uuPmL9yCfe/ZpEYy9A9dojJVM38jLgRAnCy5Hp0p8WdtvbFRbz+3rRf/Dk3XbOcunrOuT2ZUF8CPL5MiG9bMOISsC8/+Mv7zfTeTqhj1pOBvwCIR13AI8B5wN7ApmMD4VTAD5EdYRIyIdOvnOLD+x84M1lv0fmtbkcsuTxVHLPsiwORZDMB30KBZ8F+ICdyTYh8bdAbabMdkyjOMG2vQZUAWcC2dqIrBbZJ9jrx8AfgUiBJbBduY6rhfyWPOwwOiFXhALLzBZ1xv3ytSlb2fn6zf3Yp2K1ZWjYLcC/W9jAaux3KzAVqAIOAnJZ+ldELl/mkbvpwA8A1tFa4/WI1y+KSwMyFMb2pbexD9L4oOsZj+ndAI/9twEKg55xX8+X1/J810dvv/Ql+z0N4LEpxD6FE69D7Nc1AOv2Gz/7zfn8s/4/AXcCG4CWWDqPLSmD+8wFKBL6BUL25ZvA5YCaMtCzGDADi8SK/xbfWr1xtcJn3S7S7xgMhXajHXdiGDR/oFFTBpQBZUAZ6KEMrIpZ80YEgj8QO3YfvrZ4L67WTAYcSc95YoWol+cu2/V1ZMLdn2xS6k0Ihd4kJVnLdR+VHfEPq45bIb6oK0VUNEwbQ4ufitkVv0In3EJT2qMbmRhIf7CjD6M4+G6uH3Aji52H9L8AVwIUFdvLKIoxWuVRoDRPJRSOrsrj42XzoZq/KHCo3aEAxVCKD7ypnAOsBYrpJrg32vNd4AYg20WOotRrwDNAZxkfrs8GzgCuASYC/QB+pPmQnfWjjTzP+OH10ID1xcAfgKcAHqPm2H/gzHN0LJAuWHyKNPLVEqvFThQRjgL6pxVAQYeRRm+mpXubC7DyLnAikP75Y7lvAOuATMb2fgSMBvxccp39mQHUAe1hPBb8TFCg8o6lvw3pdfIY0p8+awEeQ4r8jARsjVEo4zn+MnAZwOPrDVdlXR6wmtW888tbboEnuXsC4DnTlvZbFPYO8L/AWQBFvEL4g1vSGNF4NzANoIh2AlABeH3lshDz+ustee3m9e53wD+A5lzz+Fnk9ehvwO0A28S+5WuTVzeX7NdbwIPAiwA/O4UY270NoL/X5tWF7Figzx/hNwHg59szXtPUlIGex8B9E1ag04SaMqAMKAPKgDLQNRi4fnzUmjLrcXN72TCxIt9Ijp/tGq0vslZC1ONdOyx3pKAn/jXXN5ew6Fbs/HX+FOoLP0fVNJ+VYMntKy8fzedYtQIZyPZgORr7Pwqcmaec2cj/GvAekDh18uxRWDbbVQncAXyvgF3+Ap/LgXgBvhSsbgKuB4Zm8OfD5+8AiqTLgc62UWjAD4Ar8jRkGfJ5vIqhzV5T98LKycBJACNyyDcjpEJA+rlnIa0GoIC0FJgLUBCbD7Tm3OJ5xPO5FPCMda0HWhqt5JXD/gwGKPh4RpGPxyDXhSiM/H0AijyesU3sez6hgyIM9/X3h+f9GoD7t9S+jh3vAfzl+sv6KzYo5IwHjgUYvTcEKAf8x5Jt4XEkvwuBV4GXgeaKu9ilIGPd44CJAEWdfQGKtr2AIOC1jecQ28bjw884+XofmAXMBCgStrftjwrOBk4AxgB7Amwnf7Cg8dg+AnwX2AlkM/bxdMDr7wCs80eEEsArC6uOsd8U4nYB7Pda4ENgbgI8Tm1hh6KQc4DjgL0BHgP2x88/PxNbgZUA66coOA9oyeebnzuef+wvy/0IiAJtZbxOjQC8z8OnWF/TVoVrOcqAMqAMKAPKgDKgDCgD7c/AyMfn/8GORS6FyuXdk7Z/pd2+BgpwhXQyl6CXvn+hvm7Fzt9cbTCDc6OG9XkOOU+vSbdzM5CL1lOx62MAH/Zy2UZkVgHPAHwA5UN4a4yiCR82fwiwDfmM9V4B8CExnx0Ih0eBk/I5Ip/ixo0ABYSWPMBitxYbj0tfgELC3cBhQC4j79cDU3I5FUEexRCKIhRpeZy9848P9tuBbQCFGoplah3LwNdR3T2AJ4ik1/4kEq4GvM8Cj90ggCINRViadxx5DInOMp5fvQG2i2I02+yJgxTKeK619jqFIlptjGLm55yfhSDANi0DKGI2x7g/+1sG8DPmGftNcZCCLdFeIi2KTrEwtigQsm8ULWlsB+vnZ7yQazXc1JQBZaBVDFw3LyRlDWPwTUsMFNuw8HOWdw3HNzCmJLbwqhjDXCJW3Sp5aCLvJbqvXTQlIMOG9REzPlridqmYpu97gJdgyxTT3ilGaIusPGqzPGP48rsvLdozZUAZUAa6MwP7PD5nWNQOPWbHY2cnQ+G6c4c7sG/5JjRJbUo7ioqsyFMVqFwa5tKAGb78k6+OnZvaBt0qhAHeEWWz15HxI+AnACNUshlFgl8BFyWWc7BklEg9UKjxIZ4PtvsAlwHXAnzYzWW8yaUgdh1QyAPnaPj9FjgGKMQYlfQb4BJgQSE7tIEPH6wpbhwEkINJACNkchl5fhAodnGQfaA4Q6zghlqXYoDnIc9PCj00fv4YVUUUm1EAJIrdKJYRrTUKis0VFVtbZ679I8jckEAuP81TBpSB9mSgfFeFGOHzcKd8Gm6cR+PFPBC8/O/gsUNIh3Aff1OCpc+iKd37Rnro8OEQAY8RK3A0+t0b32K+qGP+LomJTuLGVgnE3pexi/+Fn735w4qaMqAMKAPKQBdmYOm1E9aNfPy9G/E6uhftePyApliHLtypImm6N6GJ25x8AqA3VDlfpKB/qHKBvlQH8WTqCJaGudY0zS9BHJxfJDR1uWbkEgjZGQpqFKy+BTAiJJcx2o+YDTyfWK7DkoIQRSzeiPHXWBOg2FAKMPKFEWWHAmcBZwP+CBhsZrU/IedmINdQPG9n1vdtYIKXUMCSAgguIs5wv69hScHB06ax2mojDxRGyQP7TBF2PEAezgQoxuQzijWPA3fnc9R8ZUAZUAaUAWVAGehBDJgVvfCC9iskEDgUE43gHiztFoZ3OW7ikXiJ+2asd2+BUOxz0d3v4gmiFP0NYElV0GcOPxWIqnxPdm6ZjgwVCH3s6KoyoAwoA12TAcNeda2sGDBl01Hl21fPta3YgRCT0r4Qu2bPiqvVrgDoSHo52W0SAAv3zS8Ukgsc1g2YsfjSpV8Z925xcdO1WpNPIGRv7gcosN0GDALy2bFwIBjVtySB1VhyeBmFQopiFMRYFiMGGS1HcaxQo8j4DHAnUGiU0KnwpeiWfrqyPYuB9YAXucdhfzTP9/NY5zvxKHZ6aVhtlfG2nEPvOARvKLA/cCDQByjU6uD4a+COQndQP2VAGVAGlAFlQBnoIQxY8QB+kh0kpbi1aKjmvdfuZuD2rhS3ZDVbmnP/sXs5XSHFtAZJWb9BEmvEU0SaNsj2886srDd+1t48DHe9hdwfd4VeaxuVAWVAGVAGwMDmSQNrRj/xwaXxWP1vJG4hKMf9lUzJaVsGHPkP1OYX/3gE4FiQrycq5hAKTXOrZcuNqyqWzGrbHvW80gq9AfopqKHAR5FwvwJpYmTcuAQK3CWvG4fRPQ38ANiY17vJ4TSsYmhJilHA/DlAkW0NsCdwKcA+UrTzG8XIYjL2/WHgJ0CGu9xiaqq2RRlQBpQBZUAZUAY6nIEAbpVto0HiGPVv8bfVDMYRxzHcDhn+4bYZ/LpFEiIGyUMMfGQSCNnHKLkw6sQO6r1Vtzjm2gllQBlQBpoYWLHm2fdHjvnCFXZ95FWJR9Of95scda3VDHjiHwvK965Cv68jLWYNyfKEQqdUN3KLvoax2ZbgZ1etP/Qtue5I/f4mPa0wsxn7Uki7GXi9Gfu0pesyFFYF3AU0RxxklB4j9NJPtReQ9k1gBRADPgUeANjPYj6xGDJ7O/D/gCx3/MhRUwaUAWVAGVAGlAFloCAGTCiFasqAMqAMKAPKQDdmoKrKWnXFIR8G+/UdK4HgO1AH9Fm6Aw4331XovK+woDsN+qJReX0pFuKfEVgJTFp57bg5UpX+6pAO6Fw3rKI5AiG7/wrwP8A9wAqgI4zDgP8G3ADcD/Cdhs0xCoSZhs48laWQ6UhnRGGx2TY0iJOmXA/8sdgap+1RBpQBZUAZUAaUga7IgPP7KX8o7eZm4j2MasqAMqAMKAM9nYHlk/aujhvBS41A6BUxAz2djg7rvyPoeWJhzloT4l/C1xEM0/0NyFhm8BPbsK9eue6wN9OzdbvlDBQ6xNhfwyfY+A4wFfgScA4wCGhro6LPOjiz3r+BtUBLjCJoJiG0JkthvIHEC2qKxjis+r8A37tIHnYAasqAMqAMKAPKgDKgDLSeAd552/FKp6A7FlZIY333eloqKYvLfeNqnT5mfMpoPYVagjKgDCgDykDXYmDddYd9MvSpD78cjDU+bkflwqyv4uha3eoyrfVmQC7kXYUMJ+TXd9LXEQfN2XbpHl9Y9eWRGAXK96WotRUDLREIWTd/aX4ZeBuggPcZ4HSAE4601jajAKrALwGM5vsYaI0x4jCTGPhZpE/LUPBYpI3IkN7RSYxi5HBu8jwD4LaaMqAMKAPKgDKgDCgDbcQA7qkt3tKZh8htM68Sq7ZEQnamH1XbqL5OKMaqtdC3RoxDOsTtqz5HdMJR0CqVAWVAGSg2Bux1Vx64FY36/MjH5mGUonmtbVm9iq2R3b09jBXkf0f+S38hXFrnHV8xcZNivmBYJTct//KoDWkuutkGDLRUIPSq5rDXF4GZwNPAocAxwJHAvkBvIJ/xznQ1sBCYC8wB+L7BtUBbGAXHlRkKugpp7wJ/8OWdgXUOZS71pXXUKqMWVwLzgdnAW8AKoDnvW4S7mjKgDCgDyoAyoAwoAwUwwJ/k47gNMzGpnG3glSw2oge7lz7ovlbaiKNbI52+ahRhASeGuigDyoAy0HMYaCgNfa+0wYL+ELsXk1iVuy/B6zn9L46eulGCbEsyUjC9YabZYBvBB83SXg8tu2KfTenZut02DLRWIPRawRmO3wEouP0L6A8MBIYDQ4ABQAUQAjh0mGLYNoCqLyPjEBoqVPC3AMxra6OAOQlgOzzrh5V7gc8CHDY9GDgFGAOkG0VQnoR5dO303XJucygzoxvZ7/XAKoBiIHkhD8xXUwaUAWVAGVAGlAFloP0YsHFbZgaGOWi/Wjq/ZPYz22zOnd86bYEyoAwoA8pAJzGw8Qq8hqLKfnTUXu+/bhmRf+O7YoyKhJ10MFBtxqhCM7DDMM0bVl1z2F8xa3ExTyjbecS1Uc1tJRB6zWGAKAUvgkOD+TN0GKAwiF+lkwIbDyoFsAjACML2Nr6773LgnLSKKAp+EWgA2MZMfDCibzLAPrWlQEgOKJZ2JA+oTk0ZUAaUAWVAGVAGlAEfAxZuSbr7/bYzhMnXZ11VBpQBZUAZUAY8BjAD7kqRj0Y/svCceMC+147Hz8aDfyZtwNtDl+3OgCMVxjHj9OJgODR5+ZWHvg5xUL/N25n39j7pKYJRfCM603ai8p8ABwMj0hpC0a8sLc3brMPK/wKfAHoyeqzosjsyQAE/l7WlOJ6rHs1TBpQBZUAZ6HAGcIujdzkdzrpWqAwoA8qAMlBcDKy4YdySoU/N/YrZELrCsOPfxGQaAzWasJOOkWHWiWn+xg6Y9yy/atx6uaqT2tHDqu1uL5rJdfimI/MWoNDx6rXwvQl4HdDbZpCg1q0ZWIHe5frBgBG07TH8v1uTqp1TBpQBZUAZUAaUAWVAGVAGlIGuw8C6KydsXXPdEQ9JMHyWEQh+hKi1rtP47tBS8h0M2UY4eMXqDUdOXnP1EXwdm1oHMZBLEOigJnRoNc+httXAT4HTctT8DvK+BUwFOmIIdI6maJYy0CEMPI9aKKBPALxvQS6JpcDTgJoyoAwoA8qAMqAMKAPKgDKgDCgD3ZsBDGVdhclDD3hq7Qm1kc0/MGLRLyBmaBCiCb3npO7d/87qnWHsFCP4n9KSyts+vnL/dZ3VjJ5cb08TCHmsOZHKmcDJwAXAEQAnVNkBvAe8AEwDOCxZTRnoKQzwfZi/Ah7N0mG+LkBNGVAGlAFlQBlQBpQBZUAZUAaUgR7BwEdXDtsqU+xbRla/93exYt/AW/HOkrjGD7X5wTf5tivjAztg/LCkrPdLH1++r2oxbU5yYQX2RIGQzFDsYHQgoaYMKAMuAzYWhJoyoAwoA8pAt2DANsXA22R0eFRhR5NcCThTUwaUAWVAGVAGPAYmGXFEE/K1Y6+PeHzhFVj+SiyrXGyNn/AoatXSDMQxpPj+1dccdlerytGd24SBnioQtgl5WogyoAwoA8qAMqAMKANFyUDcNMS0SyQQFjFDRdnEomsUuRKjROKqqBbdsdEGKQPKgDJQBAysvnbc06OfeHtuPG7ejpCjsyEUDiuCZnXNJpjGNtyfTA+Y8sCKaw57s2t2ovu1WgXC7ndMtUfKgDKgDCgDyoAy0NMZiEdrxQz8TWq3jAMVQcSH24gk1CjxTOcF3ynFf7VbMG7MXojhY5yoTk0ZUAaUAWVAGdiNgRVXH7Vk7JRFN9VWNxxhmcGrxI5/WeKIKNSBWLtxlTGBw4kN83kzEHykPizTN14xTr9zMxLVOYn6ks3O4V1rVQaUAWVAGVAGlAFloP0YuPnFEintNxbPK/tIPI53LRsWJDAVCDMxDunUGVocCGzC2lJp2L5IHj6nMZOrpikDyoAyoAwoA34GRv3qw1F2qOG3djQ2EWKhP0vX/QwgON8IhBZLIHjNqqsPne3P0vXiYUAFwuI5FtoSZUAZUAaUAWVAGVAG2ogBRMVVLQ5JTSwkOzcFpaSXioO5mG3cZUjvgTGpDEal6qAoBFXlKxdfmqcMKAPKgDLQxECVbY4Y9d5EicS+YsRjJ+ALZITOeEx6IAoaxmbbNN8yAoE/ReODnlt//ZC6JuJ0rdgYUIGw2I6ItkcZUAaUAWVAGVAGlAFlQBlQBpQBZUAZUAa6FAPDHphVFqws29+y42eh4ddgIpO98Z7CLtWHNmksJv0yTBNR+cYfIQ7+LRiPf7D8+vHVbVK2FtKuDKhA2K70auHKgDKgDCgDyoAyoAwoA8qAMqAMKAPKgDLQ0xgY9dsFX7KisbsQTXiQWHFnJqxuy4HzGhMzJhAGjWDwwXiv/o+snTS8vtv2t5t2TAXCbnpgtVvKgDKgDCgDyoAyoAwoA8qAMqAMKAPKgDLQiQzMs0Mj580aL4Hy8zAJ1rG2bY1DZN0eEA3x+tsu/jYLRgoasgt/FuMFg29h+Z/o4EHT1p+vw4g78YxrVdUqELaKPt1ZGVAGlAFlQBlQBpQBZUAZUAaUAWVAGVAGlIEcDEyZEti7Yf/+sVp7qB2wTsCEJhdAIDwJ04eFMBQ5x45FlgVFEHN7xcxgcKFt2c/bprxuSXTFYGvCxneuN/AOX7WuzIAKhF356GnblQFlQBlQBpQBZUAZUAaUAWVAGVAGlAFloMsxMGzKmj3M6m3nGWJ9SeLx8bZtl0M4LEEkXhDiYedrNQYm7LIxNbNpNkIVbDBC4aV4p+IUOxh8bvVXD13e5QjXBudloPNPurxNVAdlQBlQBpQBZUAZUAaUAWVAGVAGlAFlQBlQBronA6OenN83HjMPMW3rENuO7Su2uY8h8eGY7WOIbVn9IRqaGJPsDktuy6HJiAhE2SAVYCSjYe6ACLhBzMBaMWWZIeYnhhlYbMejC1ddP35D92Rfe+UxoAKhx4QulQFlQBlQBpQBZUAZ6FgGeB+W9gIiRgzgF3s1ZUAZUAaUAWVAGeiZDEyxA6NqF/SKxszKsCkVlthDJBodA/EOMPYDKfvifYZ74WahF3S90oTCVxhXrrjYiP1qjEBoi1ixpRIIfmzFY8tMI7DcMgNrgg01uyISrOk7sHLXokljI4UVrF7dgQEVCLvDUdQ+KAPKgDKgDCgDykDXZOC658ulbEAviTeWSxy/2v/qxO1dsyOtaPVFUwIyeESFBK1eEgiEMcwqIKYdlWDJDinbVStVE2OtKF13VQaUAWVAGVAGuiUD+//zo1524569G7Yt7WOU9e9jxRt7S6S+1KqvDtnRSMAIBC2zrE/UDoUjZknvnVb99upwvzHVIturl8uYGplkxLslMdqpFjMQbPGeuqMyoAwoA8qAMqAMKAM9ioF2iO6r7H+sSPwrYoZOkbA8BDrv61GUUhwcNWoAIiG+gGDKi8WK74cAyv5iGyskEr1fIiXPg4917cBJhujNdqhFi1QGlAFlQBlQBtqJgSUXHLALRRPt8T3ZTq3WYouZARUIi/noaNuUAWVAGVAGlAFloIgYwNDfG6ZWSkn4PAznwRAfKwYha44E5QO57/hNGRt6kR2Q0TMHScw8HvmHY7+IWPKqPHTsTMffwE29HXhdjDiW8l7GMrpz4ugh5RKNnYv3HJ2L/g+ESPhPdBcRg3Y9Xor+gUStfnLrzBESCvSCkLpM7j1+WYvomDzrZHB/vBjWakQpzpV7j/mkReXoTsqAMqAMKAPKgDKgDHRTBlQg7KYHVrulDCgDyoAyoAwoA+3AgBnqjff2fBXDX8+QeBQ6VvwPEPh+jZoyC4T93ikRK3gUxMSbpKL/SRJtFInUcEiPKxDef9xHWCcS1g5Ril7Rxbi0jDLweT5mSTwIzZsj0eqb5eFzQFLCKOwZ9hckboXB89+R2kyBEHzeObMSkuMX8cL1m8Sy34euew/KUYHQ41iXyoAyoAwoA8qAMqAMgAHMhKOmDCgDyoAyoAwoA8qAMlAQA0GLE4g0SrShBrP9UciCgGXtn3XfPepLICKehvxhUrPNlkgtREWBsqjmMBA3GC04CtF9O/Hy9bkp4iAdTHsE+BqPl7JDVLV2OPsk/1BMzWN3vMJ3O4J/YwxmZYSzgWMVHJ5nr9ZmZ26XXUB7nZoL9WttM3V/ZUAZUAaUAWVAGVAGmhjQCMImLnRNGVAGlAFlQBlQBpSB/AzYiHkTYzlAoe9IDBk+WO5YWCH3HVqHtNQZiBvMkfg59iSIXEFkzYP/wfBp+oH29pkjsY2hx+YBELBmy4PGGykNcPKDyLcORhn9IKaFkd+AJWYelJel73Hvyc7ZxyBvEKLwIhJCNGIscDBEyxMgqpUjba5YYQxpHr9BquaVy67GsRgWfTT8hzn5rIzDnC1rgcSq30gR6ChoTX5nsAQaTkX79kNZqN9E/+xa9Gk9losxYnqx3DvxU7fN8P/G2xhOHTsWZSMi0B7spBv2Ruy3GBF8s+Teo13f69CWytgEcHIh2jIK4EQk58ttMw8U23xXAtYatHMoIv4+65Rl272RP1hun7UMaRAT7f/KAxjenc9iA0Ni1p+Ftoexz5uo5wj0dz+Z/MYh0mfjEqma1DQ7421vDBcjxOOJdmFmSNtGm3CoTYmgLfCzQmjLbAmXIvozauEdiSeLhX7a8hrCQj+UhyZ6AqbtcL2z4RSRwEi8V3En3i/5L+y7S+6c0UtiwQswXLoeI6lxDoVQrHUkhlMfhnIiODWeR7+mOt36+hv7SjB8PNYPgBMiVw2I0sYKCM5vS2zQ+/Lwvk2Rlvl40HxlQBlQBpQBZUAZUAbyMKACYR6CNFsZUAaUAWVAGVAGlIEkAzHTkBAEPsNYCwGMYtdBWN9bYnVHSdW0OVJF8S5ht8/bE0LSWAhaEONkJYSnd7HcF0JVwHPBsNkxKOdiCEBfwvJHSG8SCG+dtxcEuPMhIJ2NPIiEUgpAUaJwJdskYK+V9e8skkrzZDGt4yEe2RK3X0VZ45H/WQhcZViWIODxPZk8a4fsajgCPpPQholo817IR1koz5aNEKZmSGk/zBg8b75UjYfQCfvmO8MlGDsNIthX4bs/fCBOQh800BPLWI16/ipGGTkg4D9nJCSuU9C/i+EDIVIo6nGXavx9H7MT95bbZ06V+49fJYysjGLotW2fj7wK+Aew37Fo3zEQ5AaLBZHQtiHmGYdBWOwDka0c66ORVgtfiJPBldhvDpDbzAjeaygQS+VjHIepEjDBhz0SQuBnpH4M+oAWe2YF+6MNR6GeS5A0CMt67Geh/b0kVBKWULlI3bbfSjS6EKkQCwOXSTD4eYlFcTyCEEHFEwhFahoroSx+Hu09DeWskqgxDfm7JGqCk/h1SEO5gdkQcqNoE46dUAiE4BxfieVU+cZb4CB2DtIvRhk4ZxyxN9F3c4yEt5bimL4jDx4HoVFNGVAGlAFlQBlQBpSB1jOgAmHrOdQSlAFlQBlQBpQBZaAnMWBANkIYF/5WQ8ChkIXoLvsMaei/EDQ0CYRGdG8IXuMQdLcEPh9jn20QjSg4Yf+EGWYceh8jwWoROdckVt3xxmixGiEOGndBiNuM/X+BfZ9HWTuBEfA9Afssl4oI7uWMRtTTB0OeIeIZo8Q0Xob4hPf2RSBiBndIaawEw2whQplfwz6nov5/wffvErbnS8xA5KFxIdqGdypCoNwZQT3yDADpLIJ0uc0RuMT4Hib3eA6CpSlxA0N2bQqAMyQUXOf4MiIw0ngZyvof+O9C3s9Q5++dvID1RSwvRz/uRvqvIWw9IMvW7kTa/TJ82Awsn3b4tORZCYaeQQTiarEbLYmXWRK0vwdx8H/Qx/+gzc9iOR0TloC/GEXH3HbLnEEQ3MjTGNQ7B+2ahiXSnPafgai9p1IKiFd/KFb/ByRkPY7jGQTPUfC/C3xeJrGG6yRaj31lkdw3YYXcOhs8Q9CLR6MoFxPPBDl+ucka47aEQziuNqNK6yXiDE3HZsyCsMi+HwnBdRSWW3A2QGi1b8Hx3VPqA+/LzXN6o9y7kXc08tZARPyemFG8O7EMEZXWLUi7EEu811KuAZYCasqAMqAMKAPKgDKgDLSaAdxUqikDyoAyoAwoA8qAMqAMNIsBGxFvpokhn/FpEHomQAQ6ViLbETUm25PlWHIgFKETsb0IItJqCEp9sG5ApPIZgsYc0RCCo2n7RKbw3hCNGBWIyTlkLsS1vyBaDENSYba9Wu6as0XM+KcQr4KYIZn79UEdrP8lOLwqa1ZOk2cm4b19sG9DKIvFjkM9+6H6TSj3H9K770tSNZaC5GqZPMNGX4Ko51rse5bc9sYceeBkCFMQ0wLhERJvfBvteCs5PPhr01+QUuNDiYRWyIPjq6VqUVh2bj8UAiSG5hr9UMYjCIb7q/zsZEbVCaLh/oZoOJRvfgd55OMdGTtgmlRNbJBvTkc5gQbsByIQlXnv0Qucfbw/t83cjPQY2rxVJLxEHjjKFSSdfL6rL21It7cfl2aM/T0Rxwdior1Mojs+luAeb2KXY5A+TurrD5Hr5k2Xx8bzIEhieDXFWtSVsBvn9peS2FBshbHPU4hCfN3JCZTgKDba4IxCccoRdfLD5ciL8LjgGOC4BktdnxCW8SiPC2ZlRp+N+N8hpP5DHjzeFfqumxeSsgacT+aZ2G852vqo3HfCq06ZjNSc/OYTzrBlMY7C+XQU+NsqPzmx6ZxLOOpCGVAGlAFlQBlQBpSB5jJgNncH9VcGlAFlQBlQBpQBZaDHM2ByaK7dAJHmdeg/G7G+twQMRPZBLvKMM/PaHFJszYMYtAqiD4aXcnhyBkHJ28db8r18zrvnbIiL5ivy4ImuOMh8A6LYT4/90BGGItEAtimUcegs3g0YeEpWr/1vUhykf7Qe+ebhXIXgNA3vtZuaEAedJHnwhHkSs5+BCAjhiu9DDENMhNkYyhuPQig0oxAv9xYOmf7me/1ky4adzj6/nOAKafXryyD+YSIRGQoeIGo1Pu4IjCgQhRiOsBiqfBp1v4fyR8DvMxhsSzFTpL4MQhnEVttAPzCE+q55FFF95gikYAxLI0Jfn+UQB+ll8F2MBoZb2x9gY5ErAPJYIPJS7Aocu5OkPLqPr8DU1cmz9pBw9FrUfQb2x+wymLH6oeMXyEVT0NZoy+6how3gBDXbiDQ1EFkar3gEwm9TFGAFhkQHzHHw2Qv1InLUWCZ3zB2NodkjZfLbY/CmRgimsgFclaEPh0ksNDy10bqlDCgDyoAyoAwoA8pAyxjQCMKW8aZ7KQPKgDKgDCgDykBPZgAxYRBpIPJUIroP7x80MZtxPHiq3Dlnk1y0ermM3OtERxy07fWIEnsZUWIDIFadAgHNGaCclzpLBqL8YRCB3oc45wpxmXYq6YXpPRgAhwlKbGM7gu1WpYiD3CdeATEztjfKo1+T0MhNz0LBLXhHIIZAO/0aiGHAZWj3K2IEMQRZrkT6qWJHF+H9e7NlxNDnsP22tysm3cBEIM4w3hDK3yBmReL+0ifgGfUm3tu3FKIY3gloj5Z4AL7tZFW2Kdvngm+8w9CW0Yi+/IeESyASwh48bhvEtulIPxzC53EI3nwfqR86eel/bAzlNs1LwVsNBMKnJQ5uaWMHOCnp7oVt4z2G0kiReBP4WC5lkUDKfrY9AHXhHYkYlmzKJIjPiCTEcGUePCOC91+C2mBpXwx5Bo2MQoxDGFZTBpQBZUAZUAaUAWWg9QyoQNh6DrUEZUAZUAaUAWVAGehpDFDmYyTgfeNqIaZ9jO5TPDpZorF5MnbxMqkeegbyMdxW5ks89CnENkQPNuO2y0REoDPJiFmHYa0cCpzd3KhF/MWQ1ZjvHYjeHox2s40KKEyIgsOw6LLY7kNiY40QO4OsB+KVXYphyyHp/8pSqT5zCtLwnjxMFiL2ELQJkYLGPnLb7MUQuJ6Xh459VzictiGO8iHMUTR1o+S82puWhk2hje2skDAme2kvq55dIkHzULQHk3mUV0ik7mxpjIyS22Yh0hMM2faRqHofLCHO4Z2GVYueT4moZLtum4VISvtyrDG68U34Pi8PnlItDzETZgQgeFpuH2wbA86BFNsFn5I4OHKPTkoeNmy8v9AUvJuwLpUH2yqBKMnoSgp/70HEfNVtJwuAK6NH45EYVraijIUStHxDrumjpgwoA8qAMqAMKAPKQMsYaMadassq0L2UAWVAGVAGlAFlQBnodgzw7XNUbBhpF7A/gTb2FlIQbWYeLHWnL0TOSchvhNgzTVatjsuwYSXUdwo2y26Efz2i38pRBt5/l8UadxniZHPEKwQ6K5wakcbdYhSwKA5yyK9VKfUlu7ckFCjHhCWoB8OmbczsWx40pKrKEqlihN37eC/hcDGDp2PSDrwfT86F3/nQ+oJyxxvbpQYRjiED4h/kMIG4yPfsZTIb70h0ZFUMhfYm7cjk50/z5DWKsVYwc7l+f67bZRDXGk9Ad/tDgAOH9igcl1FYMuoThklF+F7DUElfiJkHSk3dfhg2/DEiL10htmpqUKrtcyHGXQC/VxCl9xyGVK+TB7kv7KBTMOXJ2/DFeyMdTk1O3LI7pxaHAXPW6QzmyssYqpw+atrEcXdEYZ4vr8n9x96RYW9NUgaUAWVAGVAGlAFloM0ZaNn7U9q8GVqgMqAMKAPKgDKgDCgDXYwBvvsvZAWl8lVG001F60sh6pwEsegLEJYQpWZ/Ko31rzrCk21kFoqyddnEEFRD1qKcYRDl+je5UeRLtzy3c4aFMcj2CuwFWcoYk763UBCLmaMh+O2JPEycgffc2Q0Q+3y2ZuN6kcopGD58OzSxu5EzD2WdLXboGOlfj5l6MXTZpmBmDBGrFhFuNLY10V4bMxKbiNpD6B2wQgJxjosu0FgMJ/qwUtuUbe9gHSZ2sc5GNt5baP4CkZunSyQ+DnrekXhH4xHo4ngIpldKpGEDfPbFLMlHy+ARpU5xnI25uuw69O18bNfhWD4qD5wwx8nz/kzCuxp7r9wInjAbMSaJwfTCEEhTj28DoioNg5xiyDCFU1BUiMUDGOqNY2XgOIgx1JktuZD91EcZUAaUAWVAGVAGlIFWMpDnjrKVpevuyoAyoAwoA8qAMqAMdGcGjFLTibQzzCVQsZahq4dA0LsE6zsgTr0nD0+EyAczEGXWHDNkJdw/wo5jnffQTZ6eEPYS7/W79c0j5Iapg6XvQMzwi+i6XBYPI3qQkXBSC6HtNGlsOE1ufpFDWF2rCR8FIQvRcpDwOCTatmfKT0/Y5UyOMXnuiXLnjF7Oew05nJoQCGM2xDfbroT0VY7ZiDFsV95EH8GBDMHo2GvktrcweQbbCnzjrcESrbkCWiGH/a6G78uyq6YwxYx9M23O5Lw3IiHTwu0yiKV3vdoHbeL7H8kXIjutP8sDExbKL05Y70z0ct+EFc4EKjFrDgS8N9E+DP22Toeva70aMYTaugztRISg8Rv52TGYWCWDVSHa0JIdTo7Bflnod8LIV0kcUZY4F8ToC8SzRlV6+3jL/hMgxBoLsLkOQ5jHoi2Xy23TMWmJr693zhmGyNWTMYMxh7BnEIy9wnSpDCgDyoAyoAwoA8pA4QzgV081ZUAZUAaUAWVAGVAGlIGCGOAcEzG+aw+zEVuWKY0BV6Cx43hPnz0D6ZdhKO6xYsVeQD6FHtdMRBvazjv6AhAQKcQljIFnMb67Ly09sgwjYmci8wSUOwH60MVyx5wX8C69DVIaGCpx+byEA6/Lyk2zpL8T/MbIPFOCjbsLRozwqy55GWVhYg75gpiIjjN7xzBj8AKJNXISkvOQjjrshSjjZbn/+FVO42zrcIhzZ2CClf4yecYnGILcIMF4f4huRyEfQ2CNd7GfK4A+eNz7cvvsaShrLPLAQSwut8x52iknHmNE5cUQ0TDc15wOsesNeex8zLIBY3ttRzx1288h037jTMoCsdTAxCa2jIfYuECicXS4YYc8ZLgCnd8/UnEYRLXPol0cBP4OJiWZ789Orjc2RqS09D/Y3hd+J2KY+FDMEowIyuhpSDsO7X0N6Yvltrn7YTRyozN0O8hJQgI1Eu613XlnoWF+gj5BxJX98J7IE+G7QaJ1dTicx2L/c9BPvL8QQ7YNRE1672WMYRbjcKK/PIfS30FYZVgQ/z7E/v9FH45BGRAaA2GZPGeAhOagrpglcesc5B2Id1uuRxshRCd7pSvKgDKgDCgDyoAyoAy0mAEVCFtMne6oDCgDyoAyoAwoAz2OgSgn17Axwy+GE5sYVhqqceWZPuEGqYm9DlHweKRjSLD9DkSjVUl+bIsCGKL27AoIWHjXX8Kypd938gq5dd4zEoxYYplnQyC7CWXfIUHM/ht3JiJZh+Gy8yFWYVhvFLMU25AuMdzVyjD5ByP8BDMIT571GMSqdfA9FULdIxKNIHoO+9iC4bLGDAy7fVQqQk2CGiMExT4BPpdAewzibXooJ8i2b0TaDLyb75eoD6JiwiLRv6F9G7B1HQTNWyRgfcfNsavh/z7q/LWYkTfkvpMhFCYsjvYaiELENMtoA9RSBNylGkQ8E5GI6Lsh38ZMwncgzhFDdkur4PbzVFdsGfZB+EOBbxV247DqzLZ5c70MHwQRMHSuBENHSLyRUZ9RtPtYCeD22AichpmCJ6CPiI5EFKQBETeOYx6PPyuN2x+Vi+zZUjr339KI6EDbvg47TIbvXRJyDu0KpEHkkz8g/XCs9wHNrigcQn+dyWcM9rlEShICs7+Va9dWy+gBd0u87Bwc84vQ71uBuyAMIgLUxHsLEcFpyCzkcT139Ki/XF1XBpQBZUAZUAaUAWUgBwMqEOYgR7OUAWVAGVAGlAFlQBlIYSBk7UQk3WMQdyisfSylMVfsWnRko4ye/7bEGx5A9OAoCEwvS0lsfXJfI74cYtFfIHYtQATe7LzpdHho/Aa5febzKGstBLKDUV8/CEIQGTF5iWGsFol8KEMmxGXnTAzvDexCm0wJh7cny9595X2ISrXwhXCGGX7FhhoH8c10hrMukIbqeXLvOY3J3eKxBYiG/DVENwwXNkshbPG9ehS41kIEXSC9ogswvLgh6f/wSZvl1qlviMlJUGy01xjk5BkUFBGNZwZmyb0ncb3JSkLbIVT+BNwgMi6+QHbsaCqPXg8cux4zJr+MftP2QbkQLSHKmeYHTkr6H9N8F+37BSTEzRAz56VnJ7efmRTHxCTrZfiQJzEr8CL4YpIZvOPQkDXYfgP9xIQqECw50zF6jeYBEEktG+Ubn8rYaQb6vhHDr1+VqIn3Ntr7gaN+KB/RoPYa7LMEbV0HTBcjVCHBGN5XCOP5E5HH0X6Is/FVUlla46T7/7BtgsjM22e+jOJ2oCwMh7Yo5kIMZOQqo1WDi6TEQB/VlAFlQBlQBpQBZUAZUAaUAWVAGVAGlAFlQBlQBjqQAd974FJqzZaedHLlreQmV5x9sqWneDZ/I297CikyQ9sK2a05Pq1tZ/r+6dtOWzqgHwX22c7YPu5cPG0ssCvqpgwoA8qAMqAMKAPKgDKgDCgDyoAyoAwoA8qAMqAMKAPKgDKgDCgDyoAyoAwoA8qAMqAMKAPKgDKgDCgDyoAyoAwoA8qAMqAMKAPKgDKgDCgDyoAyoAwoA8qAMqAMKAPKgDKgDCgDyoAyoAwoA8qAMqAMKAPKgDKgDCgDyoAyoAwoA8qAMqAMKAPKgDKgDCgDyoAyoAwoA8qAMqAMKAPKgDKgDCgDyoAy0GMYyDrpRo9hQDuqDCgDyoAyoAwoA8pAd2FAZ03rLkdS+6EMKAPKgDKgDCgDykBHM3DHyxUS699bJFoiQatOtkR2yu9OacTEvHZHN0XrUwaUAWVAGVAGlAFlQBloOQNmy3fVPZUBZUAZUAaUAWVAGVAGejQDVsVpEog8IQF7uljGj2XP0nFy89JwJ3KiP353IvlatTKgDCgDyoAyoAx0XQaCXbfp2nJlQBlQBpQBZUAZUAa6OAOTZ5WJWGPECE4Qie8lhuGKa7Y0IApvi9j2x2JEl0vvjRulalIUvS2uyDzbGIYmnSh9h1fKjrUTJBZ/XeJrF6GdiCLsFLOFnAaMCWLZY9GCQWif1dQSE/xZIfBcI5YsEDu2UB46aUNTvq4pA8qAMqAMKAPKgDLQMxlQgbBnHnfttTKgDCgDyoAyoAwUAwOmeZDYxoUQrS6TYOkoCUEvpAYYrYdeGF2LjVfECE2RrZWbiqG5u7XBMLeive9J9boRWH4ipsR28+nohEhduYQrzsIo50ulrN9wseOJFiSCCwMhkfod0F/jL4gZniJ3znhNxq/fKJMmeY4d3WKtTxlQBpQBZUAZUAaUgU5nQAXCTj8E2gBlQBlQBpQBZUAZ6HEMXDcvJJX1o8WyrhJDrhXDLBEz0BTsFiyFZhgfBnFrInxmycPndFZEXu5D09DwbykpmYFovJCEQg1SW1sjA9+oy71TO+eGy22IgxEIr3WO0MrqTNzykl9aDFRy27bOBMmjJG4eIvNH3oMciJ1qyoAyoAwoA8qAMqAM9EwGVCDsmcdde60MKAPKgDKgDCgDnclAsKwEStXRYlhHS7i8RBrrPgHmQNhagtA2E0GE/cU0+mIZE9Nc25lNzVn3IxNrkE+kmo0Zjo3mTFTCGZGb459a3e5bhgVuDUcMtGWJGA1vg9YPwSfqsYcD41DfMeD+YInURSRu/3z3MlJSGH6YfXh3s/ubUrZuKAPKgDKgDCgDyoAy0OkMqEDY6YdAG6AMKAPKgDKgDCgDPY6Bkuowou4OwpDcgRCoopCtPoCA9Zjcf8wMh4ubP0FE4cZRELEwQ7CxPoWfqqlBqe9VIbUNFVIagtAIi1mMmotKzNwlJ06olUlG03DZq6aWyh7mAAmW2GJGa2VbWY30bSiVqNkbUXYhCYRqpFdZg+zc0k/M0qDEAg1S984Weex6vvPQtaopYdm4V4WUlVTinYgm2lsvla9ukU0nl0tpRT9EOwZQVr3UB3fJr4+sT4qDbOvWMviY5WJGwtIYMCWAtsZNA2XVyobqXSmzHlehrY3lFRDsyiRiB8WImRBI4259JTVSNR5jr3MIdV57naWBkEEjAl7eEyv4iDw0YbaTfNv0/RBCeDXWD8SQ7j7gfw+Jo/20KtuUHdN6i1FSISbqD5fVSUNDjTx4HOsVuWhKQAYMKEN/0OdwQMrR508mbEF/ybchVVNLZFevSglKuTSCpyD6yWMTNmISr29AXl0KP06h+kcZUAaUAWVAGVAGlIHOZ0AFws4/BtoCZUAZUAaUAWVAGeiJDBg2ItIQ6SYUsmQvDHntm6Th4X0b5bp5y6Vkkyn9yprEPgpUO0qHidn4WQmZ50KYO9zRy0yDYt5SKYn/QebNfQnrbtQh/fcIHQZB7JeOUGUH/iWV8b9IPHAshLOvAPuIRJ6VnVGIZ6G7UN4ovJtvrvQ5+CaUsSzZnl2D95GywAVQIi+DEFgBie51zB+HIwAAQABJREFUqTn261IWPgvDoL8HMW1PdOV16WX9Xq5/YTr2q5OqKlOqS0ZJ0D5d4rEzUedY+HFfC8sSiTQ8J3uUPSlXTVsgv8OkLGxrTfAYvHwR/ZJTIJ7uJRIoh/82bM+SnQ3PYgKSV5NiXbJxzVyJh0ox63Iv8FYiDTtJ30q00RVD69/pJUYpefkc+jlUGhtfx2Qnf0ANbzq1jBjQT+LhU3DMvi0BtK/RelNGTbsFeZ9K1ZSQ1JZMEDtykUSMM8W0KrFvAP1okLhsFKtkllRE/gN+WFbnDsN2OqN/lAFlQBlQBpQBZUAZaGIg2LSqa8qAMqAMKAPKgDKgDCgDHcJAzIxJyF6JWYp3SEm5KdHafSE6XSa3zdoDQuFi6RP9ANFymMk4zUYOH493ElKkOx7xansjFzNuGCuwHAqd8SSxYhDU4v3k9ln/ktVrP5FnMPHG5OmI+kO0XAAzoMSjceRDeDMOQfTc8dJ7MN68t2Ig6kRdxr7Sb1glJhw5ChF1R8itU7fKQxMxmwcsHhiNMk6XcOlYiTbUQlSLSOOYmIS37AmF7RCp2EOkduveEMX6yBAUT6s9C+2zbkT+ydjaXyr3LJNgGJvQRYMIfNy64nCIii/JKOTe/GKJlPY9BpGD16Adn0HU4J4QFTE0GBGAYlB8PBsi50C0YThEwj9DJNyGvfKYMztJGG09VMzYDXL77InoJ4YKW4ggNDDDsb1e4pEPUNfziHx0h0nX7AhKScUg7HMg+jpAoo3LUSfExITVVwSlFPyKfbCU94cgiD7HSijwYqD10P0gZH4Va+dJILiHWFEIrBguLvZgKek1AmIk7rvtRVIS0PtvhzD9owwoA8qAMqAMKAPFxIDeoBTT0dC2KAPKgDKgDCgDykAPYWBbo9j95yNab4FEag+BeNcf4tXFEO+Ow7sH/ynV4Rcg0L0lffF+v6qJTTMD23IahLIbJRgyIW4tgnj1CkSn+RAMj4Y4+AW8U288JuYoRXqjjB6yDmTuQhQeo+O2Q6zCFMkQxgz7UIh0Efhtlm0rIWDJW4h0+0gC5gLZufEE5EHFQ3mh8CfIWwBg0xiNeg6BOMktvCsRwh6jHG+fxQjIammo6QOfGrQjIls3xeXmOb0lbiBKUa6Wsj6VUr8zIrVb1qJstgWCmhFGOz5GXxtk0eaoDBt2EMTBzyP9IgzrDYOTj7H+C0eINK1jsLwQouJn8E7BIYg+fAtlFCAQQoR1tbj9we/+zsQkbD2tEbTY5kKIhbMgak6V/hE3oo8TnAgi/gzZCSGUEZ21EF7d6ELuVx61MDyaw5arUQaES/AbRz2MfozLwdj+nFTs2Rt9RfuMZ7G9DZzsA3EQx81eg/5XS8nQpohQlqmmDCgDyoAyoAwoA8pAETCgAmERHARtgjKgDCgDyoAyoAz0MAY4K3FV1buy6/QnIfhhkozo9VLW14CQNAJC4VchLJ0hEp4u2+37wcwSCFBhGTbyUAwBHocoPIqDEOPsJ+WB45kvcue7r0E8WwzR78cQovaFoHaU1Ft/Qg6UMMdsJ3ovHkHonvCdef+AMAYBy1wjFb1XScO2CgyXfQ5RbxTFDkT6gRKzBzp73jFzoFjG/hJCRB0j/+ojH0rv0v8mSkUEo884bPrTmpgM6XcYxDeIYngbX301moQhwoZ9J14JuAL9qmAC+oD388Xr3SjHmYjok1Mx0zDEwbqZEA4fkcrwc4iirJObp74o4ZJS9A/DfmUI2n643Dljnfz0hPW+mgtftaFpBtCPeOM4iHdrEPW3BEOhWVaTEFt4aYjhjNsQOCGQCsIxWQoDPw0IhPYKCRkvy7bQOundiKhDWF2/Ohn4jPs+QydB/ygDyoAyoAwoA8qAMlAcDKhAWBzHQVuhDCgDyoAyoAwoAz2NgaoqS244eYGUlzJCbY00VB8J0e9QKancB9sHSGNNL7y/LirfmPm4rFz3PibsOABiIgUyMsUov4kYNovJQfAuvWgD3p0n3K9SyvoFpH47BLo4xUAYdS/c8gUcLY8TiPwdEYNTZNW6GY44R5fr5tlS0fAGyj8WEXyc2fdYiHT/YhbEwn3xdwRWEFtXvR1tWuIId8zjrMBOc7gBY2wchzXfOmMoIvQYUcc2rEBZM6RX4/xENOQWujrGSUFoToQihEm3sEEQ7c6VnZGD0b8dEEwRXSmMsuQQ6SDyRotl9sdeeQRCKwh/tnEJxMi34f+R215M2GLYB0EcPBVpJyONIuoHwFJpgNhXluP2uLHMlkAEMyTD27NowJB+/9khu85cibI2YWg0Jn+BkCmIiGy0R0hlw3uIMsSw8cYP5b6xCRGyrWdt9hqjS2VAGegmDOCHlKI0Rlsz0rrYDN+JfOVGTuN3LV5boaYMKAPZGMhxB5RtF01XBpQBZUAZUAaUAWVAGWgTBh6ZyHffzXXwjdlHIFLvC9JY+0WIfvtieOxQDBu+HkN1l8jYsYtlV80ADEHGJB/OMN8QRLWz8Zh2DvaFSMfJTmyKT7VSv6M3FTcRjCh2LHG7Z2LJIbFiPCe1oVlJcZA+j42P4t1+ixD1t8wZRlz2/9l7DwDJqjL9+3QOExmYITNDFEFFRAFFBUx/MK9pzSJiwgysyrfrimHBNSOKccWAWTELCigoSTKS0zBDnoFhcufwPb9z+/ZU11TVvdVd1dPd87y771TVvSf+7q3C+/T7njNvgSL/9g4f/tsuoX/wYDW3OPR3Sf5r+LvERaX/jpiShSXYbbKGxuTBsbFxtsa2SGm9DZrD/VIOb5N01q6CyVp/aY1TNG42M1k/vG1om9skYZIze8h3lzeKg+bRyNy00Ue/HuyGV2gOjRIIsx4EVT1u/sID4Y0q/43w5adfqvchfOTqeWGg/+Vq60lhzvaLwvoV/0/vv6czd4W5HUOhnyqFVpAR3D6gVOIh9Z3omnF8bdoBGbH3xOdfpz4vlFir3aK1VmJDywt0rfAHNOYLw5rWn4dT7rkwnLKkV+Wm4gN24aT93gRMYMsS+FmO7vX7OMaq/V1J6xfXK3eccq+RT8Uo6OM0rhfLC/+LpI+jxpx+L//G6BG/MQET2IzAyP9i3Oy4D5iACZiACZiACZiACUwmgWX33RB22u0B6WH/ULfHKyX4JQoUbAq9XTuG1at3kGAoOU7CUiIQKgpv+BoJVBL1Gpq1JmCDIuIUzzek840S4oYfCJ3NRMaNNZ1V/b6weunmD1Ffeka3NklRtF2PRMKBPVVx79Df+lJFEGociriL4l7DX7UG4O1jGy3zKe7SXOZc8eGGEcGsUVMcGrpN/V2tIus0v0FNWXPT/yEMDg9rg5Smm0JLi/KWc1oD4ZOjamkI/3vQOq2deI+49Y+wVB9Ni8JJN8wKXd3DoQU0I8/H9NvYVPDwPKSozgYJtdqdmM1WsP7GpPAXnnFveN8/Pxxah56jcy+TXnuwzu4Vmlp3VgTja1VvcVj70O7hHXf9MHwr5B9/7MT/mIAJbGUEXjQF58sfofjjzFQUCFmm4ugMZndlnPdpE9jqCVgg3OpvAQMwARMwARMwAROYdALs2tsyX6Jb08bQv2B53PCD1NwQVoTjr7w+tPU/LGEuSQvu39gSOob6Q8/QeulW/XGzjaFBovEUsTb0HQl27WGoXSLa4FAY0CYhLYOz43xWhxiOt2luI6LXUKpsbTqz6d2QhLPGayQQ7iZhbrEiBw+WRLaf1h5skci1Un1cGb7wzOWbypd5x+YjQ4pWHIoZtTtrIvuGRf1jI2I+dFlHGFCq8CmH3h8+9IL1WmNQjWmMw0Or1O9lilT8p+pvDE1al1AzC81DTRLrtP5ic1dYu3pVmZ5LHG6UEDi86YH22N/NDoPbLZbcmP7vYKmSstn9w9raRf1LpUSUJEywISgas8CG+pU+3LSPjmh35BGNtUWiLPa+c1vDGS9cp3e/CSdcvFztLNG8D9Zah0fomh0q4ZNNWx4N85p/qTIWCAXBZgImYAImYAImMHUIpP/DaOqMyCMxARMwARMwARMwgZlOoHk+qcIviYJf86prlN67NDQ3bwi93XMkhGmTkYYdogDVt1GClXYJbh1cHfqa7lQK8oPxeEPjHL12SLjrCrM2ai2+jVLi5rSG1QM6LnGufaAvfPGggZi+OypFjUS8NSaLGJZE3NiyTO1eoU6fL2FQwh6rCg5vFwb6SO+9PfQrBbmSNSqSkZThNUOPhqaGu9XGXvLdJdA9M6xvPTCc+DcJkNqkZHhA6/g1LpbMRh70/RI571Ha7zIJgEskDio9eagzNA6uCvOf/UBYdW5L6G1pD3PnLpBw1xzm/XFZ+JJSerNN8X9a47BhaJ7Gvkc46dI7A+sFNg4eqj6eJzFyttKBaWWtyjySbIii3Ze1VYyOaafiGM64s/p8vMZ9nfhLhG1UVGDDAWqvTWJpMoLh1iFdvw6JmXtrvciNoaVpQ+jruCN8/oDrwomXaudm9TM0+ARFgPK6bRhoSwTJpLb/NQETMAETmBwCI38lm5zO3IsJTEcCFgin41XzmE3ABEzABEzABKY3gZYh7crb9GyJT09RFCCL3mmNPYlmTc0KG9TmGuyIi3g1PKTNSRqWanMPRKu/hg9deqDW4iMibRude79EtSPCutazJMKtVMbs4xQT9waJYneGnqYfhndc8zuJdV2KzsvP6vOH3BNOuORyBc89Fhpb9pToNV+bgzSpnxs0pgsl7hFjV96GER/3a1YK8C1hYOBCjf05oX12a+hd93QJa+dIV2OuEshaENiu0lh/GYimHGq4XCLdjxQ1eFJo7TxQaxHuoGKHhbWX/zO0zFuj3YCfGQYHny0ga0LXUUp5PuX+8oNIzyiFmLTsoYFnKb33AEUhfjI0xfRhNk6ZqxRu7dy8XvLp8GWKUlSqtmyweyi0tC7XWB/TOII2ipFYO/xfGveHlFjHw6VESomzvBsaVGqyUqN7egZDc/8C7fJ8tObxVkV6StXdcGn40CWKxFS/DeEoXS+JgwOr1dYyzR4GNhMwARMwARMwAROYUgQsEE6py+HBmIAJmIAJmIAJbBUEhhoU8TesNNTwpNA+Z1FokRhFwBrZv2hsax/skgB4fmhs/G1oHk4214hgBv6iFNdZEqeOULkjw+ztnhw2PPp+vd8gsXHb0Ni6i1JaFbXW2Bdm9SUhg6zBNzw8L7QrW3b9ynkqW/l//zWHe5X6e6UErZ3D7IXtcTzrVtynNi4JYc1YgXC4UWKbIvTaldW8cdVsRQ22hAf3aNamJw+Hk674mzb0+FHo2/D80Ny+e+iYt0vcSXlIkXfsLty1qlPzXxO2fbwm/P2lYe3Rv5FIuEji4PM01d0F4+Xqm3X82NhkXwltKtf4N+3KXDl6sK9LeyfPatd458Q5h+EOCXQdEgvVpFqCb48ygXs3aOfi4T8pwu9PYU3zCp0J2lalJ6wdukwi4M46Pz+0dOwXOrdZKN4LY52+7us133vV9gsVCNmssaoPbVIya8HGsKFHaczDupYd22hDl33Uj9YilNDb2LStxN/79fk8+TlhXcvYjVpix/7HBEzABKY8Af14xl/RqThQxpZlyX8Ts0r5vAlsxQQq/w/ErRiMp24CJmACJmACJmAC9SOwQZttzPmDItt6Qs+Gp4ae9dvpuUuLv7NZR0OrXi6ScPWj8PlD/pgcizFrw+FLh98YTrnuvrC+6x6JgGvChlWKzAusOThPj21dEgf/JvHq3NAweHuYN7Idb6PEw6FwS3j0bkWzNdyiPisLVBv614WO5nPVXmfY8Ajt638vNlwbNrbdEr51mFKNC234UZ27MWx8bDuNUJubaGOR8FBSYPm9N4ddd/mGPqzU+oJHSZxcoPdE76kNRegNh4sVRXlnuPmqofCLU7Sb8cevDWuu+IZEwmU6/1z5HuIg5TTWUT/hMh37pQQ79VHBZs8fCH39KzTP20LXY4rI1PqFYx9qWb9REZcNZ4e+4V+FM54xkjatdQdPQbgNS8P7rzhHazkOh/7uN4a12iSGNOThBgm6Qz9R9OPt4jsr9G3cU23crWjNwfC5A9eEE6+4Vux/rTpPk5C5UF2Kia7nkHZwDg0XaF6/CF847O9qy2YCJmAC05FA/BPLdBy4x2wCJpCPgAXCfJxcygRMwARMwARMwARqR+BzL+gK//GXv4TejktCR2ubIu1G1qXT89egQtyGm7pDN7sQj+zuO0bg+u26MOfVvw4bN54f+rVZSXO/IiekeQ1os4xW7VDc198V5i/qCqfsnyyS92jPDWFOxyvVsMS5pt6wvvvRkGyIUno+iy7uCl3P+00Ybh1pX7v0NvetCV86SBFyo+NJ6jYNnhMGWv8qEUy7+jYmY/7mi7u1S2+IfZxy881h7drloaXxm0oRbgqDaqtJ42xqHAyNszaG+2/bGH7x6iTl9pQGiYQ33xTW9C0NrRu/p9UPldRLynVP0ldDR3eYNUvi5i+KNl8pmkbHQetD70VnKVrxZ1o3sDX2V1iEMTRK1BvcuD5sG6MTR84WzK2neVlo7P6WxvgTvSoCs3lIa0MyzvVhZVd/WNTyZl2nltDY2xsefuSx2MCc7qvDhtY7wpDSp1s114GR69LfrxTk9q4wZ31lYbZwjH5vAiawtRPg97s44q1UBF/xMf5bkieajj+GVLLidilbakyV2vA5EzCBaUYgz4/HNJuSh2sCJmACJmACJmACJjBOAqUeCss0xU6/BaLamFKVzo0pmH6oot9YpVz5csfTfvxqAiZgAtOBwDvGMUiWX/iknKjnSkYk+InyoojwSlVGz31vnPVGG6jTmzPV7rsz2v6Kzn8go4xPm4AJmIAJmIAJmIAJmIAJmIAJmIAJmIAJmMC0JnCLRk/kYSXXRkph1rSe5eaD/1rGnOGBQGgzAROoQIB1WWwmYAImYAImYAImYAImYAImYAImYALTm0Ce53sirW0mYAImsBmBPD8gm1XyARMwARMwARMwARMwARMwARMwARMwgSlFoPIu78lQ85SZUpOq0WCK13SsUbNuxgRmDgFvUjJzrqVnYgImYAImYAImYAImYAImYAImYAJbmgA6w2L5/nLt6s5OWnHHqVV6vV1+z8hnvUxLm6NR7yffQz5PTlQmG1E9LL9JvkI+2UIsa08eIN9JDm829Fouv06+Rj4VbZEGdZh8ezkb59wtv0a+Tj5em62Ke8q5/7aVd8i5Pmw0xjWCBf3cJ4fRljau25PlO8tb5WvlS+X/krMcQLWmDelie/voda68V879SHvMueJ9aYFQhGwmYAImYAImYAImYAImYAImYAImYALjIkBmIkIZotmb5C+WI3iUM4TCy+XfH3ldqVcEnPEaAlA9rUWN7yA/Qn6M/BB5uXUc2e0ZAfT38l/Kb5UjSg3La2mMCRHsJfK3yveVc6zYEMEulX915PUxvRaO5SR9RkgrZwi63yt3cuT4m/XKtS9sN63CtXlAfsbIAT4z1pPlr5UXj3m9jl0oP11+tRxRr5yl9x1C7b/JXySnbQTSLKPdO+VcJ/wOebXC5ALV4X7n3ihl8LhY/ueCk016j4jLWI+TIw5yrNgQCv8o57rdJIdLOUMUpZ13yfnu8V0sZVzL78t/KueajGejIlWzmYAJmIAJmIAJmIAJmIAJmIAJmIAJTGUCt2hwiBKVHGGknLg1nrkh0rxBfr4ccaxS36XOIVqcKkfkGa+dqYql2i48huA0HkPM+ZQcMamwvTzvu1XnAvkx8k55rWwvNfQ5+XJ5nnFQpl9+kfyVcq5ZanfrTaU2EKmy7HcqUKmNawsaoP+7MsrTFsLme+SV7PU6eZ4coatS/1nn+E78Vv4yOVF8eY179kZ5pfZP03lEUYxo2o/KEY0r1Sk8x3U7W76/vNi4jkfIz5HDq7BepfcPquzH5dvIbSZgAiZgAiZgAiZgAiZgAiZgAiZgAjOMwG2aTyVhgHMICbUSCLdVW4hDCCxZ/VY6T3rpffJXyAvFK33MZV9TqUrtc248AuELVO8eOSJNVvuVziMUwmlX+UTtWWqAiLLxiLGMkWv1BTmpqFiW8JlHIERcqzR/IgGxo+REi1Yqm55jnC+XlzLGjmi2UZ6Wr8XrarX3P/K89+DuKntDhTFwjT4txxbJz5ePR8ykHb7bO8oL7a368LB8PHNnHH+Sp/eB3tpMwARMwARMwARMwARMwARMwARMwARmAoE8kUmIKrUQCPdROxfKxyNOlKtDKu5x8lIplzpc1motECIQEZ2WV8wqN5/i41eozT3LzqLyCcZ0hJzU0OJ2q/3cqzYQwrAsgfAPSbGK/+YRCBerhX/K844VEXTvEr0u0LEfVdFO3v4KyyHq5YkkzCMQwvmJ8jzfzcIxlHq/XO3sKm+Xv18+UeGaPn4mr2V0q5qzmYAJmIAJmIAJmIAJmIAJmIAJmIAJbEkCt6jzUsJC4TEisyYqEO6iNi7O0Vdhv3nfr1e7H5I3yPPamSqY1f7peRtTudfKay0OpuNDKHpKFWNJix6tN4/I03Ym+opICOdaCIS/yRjXVTqf5xoVzukHqtMiL7b/0gEiMgvL1uP9G4o7LvE5j0CIeHpNDcf7c7X1CTmbjdRi3rA8Vo4AbTMBEzABEzABEzABEzABEzABEzABE5gBBCZDIERcvFxeK4GilMiBiPmqKq5HHvEpr0B4pPol5bnUuGp17BK1X5wuWmm6e+nkv+owJtJMs+b6h0oDGzmXJRAiRlYb7faKEv3upmO1Tisud03/ob7mlxhD4aEsgZC24VvL7wrtVcuy3BzT439XmwvloZl/bCZgAiZgAiZgAiZgAiZgAiZgAiZgAiZQgQARXSfID5I3VCjHKcQH1hV8QE40HmnDiBC7yBHHKkUsIUKeKCcllTayjL6yLGu81N9ZfpqcsWZZlwosk7MG3Do5aZrbyxGN5sor2SE6+Vb5qZUKjZyD09vk++UoSxFEv3vljGuVHM0H7jDHCzWgUhF6KlK1ZbHNk65b2Ck8zy88oPeM+2w5nCsZ98IKOffdo3KuE/NkZ18EP+6/beRZtlgFSKO/Mqtgxvnie4nxrZRzjYgIRexbIOe+4f7LYlncnqpEe0j/0iZzh9UO8r3kWfeiioSnykldZjw2EzABEzABEzABEzABEzABEzABEzCBaU6g3hGEjxOfpXJEjkqOwPMJOcLDHDmG8IFIc6j86/KsSDA2ZkAkzGNfU6FK4+HcV3I0dILK9ORo63qVeYN8iTwVvxChEOD+Xc5ag1njQdBBuMuynVQAQSmrPc7fJ3+v/PHyVEhDYEQkQpT8rDzP/Ar7yhNBSBptYZ087xHurpP/VU4KbuH9cJo+F9tzdCBPuz9XuWfLt5WnYhr3Huv2IcAdLT9XntUW43mVvJLtrpM3yLPaSs/D/lvyw+WIglwbDEH8YHlWJGbaTuErgvCZ8sPkfL8w2t1O/gr5rfLC8uXev0flbCZgAiZgAiZgAiZgAiZgAiZgAiZgAjOAQL0Fws+IUTmBIT2+TmVeJ0eUKWdEOP23PK1T7pUouFTkKdcWx2slEN6ptsqNJT1+pcoQhVbJEP5uk6d1yr1+u1IjI+c+n6Md2r9DjoBbiTvnDpdXIxLmEQirFbZguL8cUZV7ASeqj4jK9fLt5YXGuL8pL8cxPf6LwkoV3u+mc//KaA+BGrG1ku2uk3kFwn6V/Zg8FZRLtUt7N8vT+WS99qps1hhfpDJEkma19R2VsZmACZiACZiACZiACZiACZiACZiACcwAAvUUCBFwHpFnCQ2fUxkEnywjyumH8qz23pHVkM7XQiB8bY6xMP9n5RgPRXaWL5NXmt+Qzu8gL2dEhG2UV2qDc4/KiYxDSMtjb1IhhNysdjlfa4Hwj2ozjSrV2zHG+BePOZJ8IPrvBDljuUq+VI7oRfRcOod79f7J8jzG/YnwigiY1i/1iohdyaoRCJk386hkCKZflGeNKx3rz1Q2K4V4vspcJk/rlHu9SGVsJmACJmACJmACJmACJmACJmACJmACM4BAPQXCY8WnnLiQHkdAW1QFR9JA789o91Kdz4oiPDOjDcZ3urycIUzliQRDiKzGjldhRMCUT6nXt1Zo8KUZddP2vqFyWYwKu0F4/EXOtmspEC5Tn3vKx2sIaEQXHiB/nvzNcqIOSSv+tLxDnte4NkTgpQxLvX5O57k3yhkCYVYkIu12yYnuzGPHqVDWuNKxPjNPgyrzf/K0TrnXu2mrmX9sJmACJmACJmACJmACJmACJmACJmACJlCGwOvLHC88/D19WFl4IOP9YzqPAPXOCuX21rkl8ihgVCg3kVOLVflJGQ0g9P1vRpni0xfpwP3yXYtPFHx+nt5/X077xXZ48YESnwd17BNyXvPaWhX8ifzf5NUIi3nbL1futzpBpN94jTTdFSM+3jbSekRmlmKenud1VuGHCby/UnVvz1n/IZUbkFdKRaYpvg+X8CaH3ZWjTEzrJqzXZgImYAImYAImYAImYAImYAImYAImML0JNOQY/ng0ACL99srRNlFp1RjRTNfLK4lbnTqfJd7RzkQsTyTWPeqgWnGL1N87Mwa2ROfhW2xEy+1TfLDE5yt0DFGpWvu7KnTnqJTnnspTZoP6ItUVkW9LGWLoTvLD5M+WN8srGeez7q2s87SfV8ij7Gp5lnBJuV/zT05DVM2ymP6cBSSrEZ83ARMwARMwARMwARMwARMwARMwAROYuQSWaGpZ0VSsB7d0HAgeVh02zSjXfpvOkZaKCJVHjFGxqu2JOWosz1GmuAii2CPFB4s+L9Rn0rKLy5EGzLks+2tWgTLnES+vkz+rzPn0cK2YE7WYN4ou7bsWrwjMCK3M8yD5vvIlctiORyxXtarttipqkI6cRyAk9T6vrc9RMEaSWiDMQcpFTMAETMAETMAETMAETMAETMAETGCKE8gj5uQRH4qnuZsOINRVMtol0o/UTcaRRpWlr2m/6WcVibaL/iWlspwhXOws57VSuXL1s44znl2zCuk85Z4qj0LKyGe9jIo5xfOCAWmiCFSVbIFOloogZHOJ2ZUqjpy7I0eZckWu0YksgbBc3WqPc188UG2lcZTn+jxFfoT8pfKD5VyH8Rj3LNc1z/eqXPvURYzNa4MqmKe/m/M2qHKI97nMAmEuTC5kAiZgAiZgAiZgAiZgAiZgAiZgAlslAaLZsrQDUhQvrAMdBJrt5Ig89RAIET4R6bLsSBW4KqvQOM6zsUYpIZDjWaIs3bGb73jtnvFWHEc9IuMQCWtp8NlLTlTgoSOOSD1XXgtLRe2JtMU9W828EQizDAGxmuueex5ZX/Ksgfm8CZiACZiACZiACZiACZiACZiACZjAzCWAWDVZ6ZilKCL4sCZfPQyRifltKWNepQRCjmfpNQhFpGeP16qJbKvUR56IN9JcJzLWwv4RjRFs3yk/UL6LvB7XMI9Yp64rGgIhuxLX0ogIrEZ0zN131g2XuyEXNAETMAETMAETMAETMAETMAETMAETmHEE0A0QZbaUIaDVSyBE+NyS4idsS62/OBnjqkdEZrl7BIEwdyRbuUZ0nHTs0+VvqFAmzylEzax7uhYCIf3Uop3COXHd6nLtLBAWYvZ7EzABEzABEzABEzABEzABEzABEzCBQgJ5xJTC8rV+T3pxJREvS+jJGs9E62e1X+k8fZdKJUZMyxLUqDuRyLltKg2sxufYpGSitpsa+J78yHE2xBjulbNpCCnxR8krCc+1EPb47mRdRxWpyurRZhyABcKqroMLm4AJmIAJmIAJmIAJmIAJmIAJmMBWRaBfs621yFENQMTBeol4iEC1EIKqmU9x2XTjk8LjpKXCPcvyrJ9Yro0l5U7U4Tg7Ok/EmOfv5awxmNfgd6v8cvmVcjb2YLfolfJXyZ8vryQQbsl7XkObfLNAOPnM3aMJmIAJmIAJmIAJmIAJmIAJmIAJTBcCbDCRJZY8qDLHykl9LBVxyDGsWOhLyxaeT48lNUIg8mt1+qHGr6yLl0e8+r7K4cWRjOm402Gl80vnkJ7neHqMsulx3pfaiZiU3G5OZtieGecrnT6w0skan5vIOnwwP1meJQ7ClLX5EAK/K0dQfEg+Xsu658fb7mTXS+/JzH4tEGYicgETMAETMAETMAETMAETMAETMAET2GoJEHXFxgiV0lmJgrtIPhEhSNUn3YgyW5GjV0TEv+UoV6sia9RQnrTcw8fZITtTHzzOuuOplicasly7e+nEi8qdLDh+kd7/j5zXrKjQUlGbqjbGZopAOGZSlT4Uq9+VyvqcCZiACZiACZiACZiACZiACZiACZjA1CSQJ1IoT5ni2S3XgawdaNk8At8SVhiNV23/1F2Wo1JW9FqOJqoqQgQh3LPsEBXYPqtQifNH6BgiYS0szz2VJdhVGscBOrlHpQI69y/5B+QXyvP0xbqPWXoY98ZE7i1Vr5tVM67cZbOA1G02btgETMAETMAETMAETMAETMAETMAETKBmBPIINXnKFA8IoYqItkpGdiKbPlRr26gC68t1yvNEdVXbfp7yrE+XZQiE7KZcjbG+3XbyuXIEqWrYI+pcK88yuCGMVWPM43XyPHpQNWOuNIaJROMdpIbhV85ghTB4S7kCRceZE+Jo1v02kTEXdVnVx1oxr6pTCjvFuGpkrmACJmACJmACJmACJmACJmACJmACU45AHkEjT5niibEG4T/kjys+UfT5RH3+sTwr2jCthkB1tnyO/F75Uvn9ctYz5D2vWcKkilQlvFG+2P6pA6ydWEkfQVA6Tv5leV57tgp+Tv6wfNmIMyfmeI+c1OZKrP6k81+UZ9kxKvBr+VVZBUfOv0yv/y9n2TzRZ7UqU25Iu5Q7MXKce3qZPE/kIFXa5LvLswTSrPO0lceqFfzy8MzTb9VlKn0Bqm7MFUzABEzABEzABEzABEzABEzABEzABGYcgR9oRghklWw/nXyz/FuVChWcQ0A7Wp4KKAg9rFXHOoaIkvh98k/JiRCrl61Wwz+Xvz6jgw/qPELc8oxy6em3603hRiAIWMwNUZANSNbJL5b/l3yVvNjYvOTvcjhVsh108vPy18ofqlRQ514qP10+P6PcVDpNlGQlQ8hbJOc+yiOuUfbwkfJ6KWu1EgjLdjDVTmx1E55qF8DjMQETMAETMAETMAETMAETMAETMIEpToAIwjwprx9WuWfkmAsizXflqThIFfQJorvmyhG99pDvI79XXsnyiEKF/ZRq6zM6SBRhJdtVJz8uJyW6ktHXC+SvKirUpM+IXdTfWf54eYccobCUMS/6y4qMoz9ExPPlh8tZC5L0Zo6nfcISIfKXcs7X0rLYTrSvrowG6P/pcu6pLJulAtyj3FdZ1q4C9Z5b1hjKna/LuPgC2kzABEzABEzABEzABEzABEzABEzABEygEgGi1LJ2o91TZb4pf428VV7KdtfBr8p5zTIErTuzCtXg/I1q448Z7aCfvFH+FfkTy5RFkHuJ/Cw577MMVpWYXqLzf85qZOT8/nr9k/ynclKbT5Gzq+835Bz/pBzhcLrZ/TkGjChNxGYlQyTl2r27UqGCcwjVNhMwARMwARMwARMwARMwARMwARMwAROYVgRu02iJOqvkXTpPFNV4bKEqkepbqf30HCm0V8iPlxMpt6P8YPnH5cvlROulZcu9PqgyeUSaM3O0RVptlr1IBR6TlxtPepxU6Efk35e/WL6bfLEcYfAXciIC07KVXomgzGMvVKFH5ZXaKj7HGIk8xIvPVfM5SzRV8+G3OfogQnO89mpV7JVnjbtHZX4s514rtNn68AH5UjlcstpJzzOvSobAfYM8LV/qdYPOH1ipkaJz++nzWnmpttJj64vqZH3kvkzrVnqtuAhnVic+bwImYAImYAImYAImYAImYAImYAImMDUIIH5kGQLBeA1RjAisp8iz1rAjPfOQEddL1YaQ+WE5YttkGeInawwem9Fhg86zO/GbRzyjeMnTN+noe0qe2fzgBTr0E/l7Nz9V9ghjxMsZXJfLy0VCpvUmcr+kbUz09WY1cI/8cRkNkZ7+OvmL5IjliL0L5PvK8wjNKjbGdtYnGE42g8nub3TShMjaTMAETMAETMAETMAETMAETMAETMAEZj6BiYoPRJSRtkpkWr0MofN78qwIrlr3TwTax+T/qHXDRe09rM8fkRNlmcf6VOjj8p/lKZyjDP1+Xo4gWgub6D2VNQZSzP+QVajgPGIg0apHjbyORxykucXycmnynMcqibBJiXxl0rJb9NUC4RbF785NwARMwARMwARMwARMwARMwARMYNoQIDX4C/L/T14vYYiIuf+QV5tKqSoTNtKaiUC7fMItlW/gozp1bvnTJc8QDfc2+S9Lnq3u4Fkq/pmcVep1jXN2H4uxRuMn5USw1sqI4PxmRmNEiT49o8yMOm2BcEZdTk/GBEzABEzABEzABEzABEzABEzABMoSyBPxVLbyyAlEo6/IEfEeGDlWi5c1aoT1BF8sJ8U4r9VaxEKYfKP8V3KiCmthRFzeIX+F/Pvy8Yx5o+qxwcZX5dWKZURlstnHyXLW46u0MYpOjxqCcJbV4p7K6oOUaNbyu16eJ5W+XHu9OnGe/N/lZ8iz5gerSpbnOuYpU6kPnzMBEzABEzABEzABEzABEzABEzABEzCB3ARuU0nEiEpOeums3C1WLsguvURY/UCOoFep36xzV6j+q+Sd8moNUTGr/dOrbVTlt5EfI79antV+pfOkCH9d/iR5LYy01+fJz5YjZlbqm3OU+bb8GfJCMe9L+pxVl7UPs4xU8Kx28kYsZvW1vwr8Ikd/pcZzl+q9V05kYGrX6k2psoXHyq19uLvq3pBRf4POHyjPa1t0k5K8g3Q5EzABEzABEzABEzABEzABEzABEzCBqUvgJg2NSDWcCLFC5xjRUmvltRII1dSo7aN3P5ITcVcormS9R6Bhl96J2NdUmbkVzrfwPXM/fQIdNKvuK+VZYlDxXIlW+458e3m9jM1iiCr8i/w+OUItIvBK+YVyzs2Rl7Iv62DxmIs/I75m2W9UoPie43qkx3h/alYjVZ5/rsrnEcSZD/f8J+SlOJyg44yTqMTCe4b3HMdJqS9lCITcv2nZ4nuQNun7QHlee7wKPiovHkv6mT5os1Do1ceK9hKdhUPaRnpd0s+8cqyqRilvMwETMAETMAETMAETMAETMAETMAETmHoE2MU1SzhAKEC4qpfNU8NPlRMtt6ecaK3ZcpY3Q4hA3CDV9Wb5lfI75RM1BDy8kqWiSKUyec7toUJPkxPptZuc+cIdQ5hbJb9bfoOc+a2WT6bBgXsA1lmG+IeAWMk+ppOfrlRA54hozFq+DmELr6XR71PkREYS5bdIzrVg7mvk3Ftcg0vkCKelDFbp9St1nmMIfUSBFht1W+SV5s73jbq85jHaZF68VjKE+LzG+Ggzy6ppM6stnzcBEzABEzABEzABEzABEzABEzABEzCBUQJNeocA0y7PI1KMVpwGb1KBiPnhWSLlVJvSjzUghKtK/vqpNugK40GsS++zLIGtQjNb76npdgNvvVfKMzcBEzABEzABEzABEzABEzABEzCB6UWAyD18JhrCWp5IvfHOHdHxFvmtI36jXkkjv13OhiUTtcU5GiAKb7oY16Ke12O6cBj3OK2qjhudK5qACZiACZiACZiACZiACZiACZiACZhAXQgQDccGI8WBXaTqkkK7Us4u0kvlf5b/Xp43jXdHlb1L3ikvZ6Sik0LNq80ETMAETMAETMAETMAETMAETMAETMAETMAETGCSCbB2HCJgpRTg9NxfVG6bnONDcPxPOWvrpfVLvV6Xsz0XMwETMAETMAETMAETMAETMAETMAETMAETMAETqBOB36ndUuJd8TEiB4+WZ2WJcv6lciIQi9so/vxFlbFtRQSybp6tCIWnagImYAImYAImYAImYAImYAImYAImYAJThsArNJJf5RwNuyh/V36x/GE5u9Ki+bCWIanCe8mPlL9QXpy2rENjDAHx1fILxhz1BxMwARMwARMwARMwARMwARMwARMwARMwARMwgUklMFu9sTFJcXRfuc+kDW+QPyS/d8R5j+BHlGG5esXHz1fZbeU2EzABEzABEzABEzABEzABEzABEzABEzABEzCBLUiACMB3yIkOLBbx6vn5JVtwzu7aBEzABEzABEzABEzABEzABEzABEzABEzABEyggACbj5A6XE9BMG2btOSPFfTttyZgAiZgAiZgAiZgAiZgAiZgAiZgAiZgAiZgAlOAAOm+X5Nn7TycCn3jeV2n9k+SN8ltJmACJmACJmACJmACJmACJmACJmACJmACJmACU4xAo8bzfvl98n75eETAUnWIGlwmZ3djUpptJmACJmACJmACJmACJmACJmACJmACJmACJmACU5jAvhrbR+V/kj8gLyX6ZR1jw5Ll8p/Kj5Wzy7FtKydgdXgrvwE8fRMwARMwARMwARMwARMwARMwARMwgWlFgGjCufL58sXyA+UIh3vId5FvL58jJ124S75Sfq98qfxm+dVyBMJV8o1yBEWbCZiACZiACZiACZiACZiACZiACZiACZiACZiACZiACZiACZiACZiACZiACZiACZiACZiACZiACZiACZiACZiACZiACZiACZiACZiACZiACZiACZiACZiACZiACZiACZiACZiACZiACZiACZiACZiACZiACZiACZiACZiACZiACZiACZiACZiACZiACZiACZiACZiACZiACZiACZiACZiACZiACZiACZiACZiACZiACZiACZiACZiACZiACZiACZiACZiACZiACZiACZiACZiACZjAzCLQMLOm49mYgAmYgAmYwJYlMH/+/OHW1tbQ3NwaGpsaQxhOxtPQ0BCGh4dD/0B/6O/rC4ODA1t2oFOw98amptDZMSvAasOGdZFXY2NT6OjoCLz29vaE/v6+eDwdfltbW5g9e/aYY+m5Sq+Dg4Nh8eLF4Uc/+lHYddddw+tf//rwj3/8I7S0tGxWjbK77LJLuPjii3Vdm8NnP/vZcMYZZ4QmjfflL395+PKXvxx+/etfh4997GOhq6trtH5vb2948YtfHL75zW+GBx98MLzqVa8KDzzwQKxHO2effXY4+OCDw7HHHhv+9re/xXlTeePGjeFLX/pSHNMFF1wQ3vCGN4RZs2aNtst46Pf0008PS5cuDUceeWRsc7RAFW+4J7fddttw5plnxrEcf/zx4fe//31JDsyNOb7rXe8Ka9euDU94whMC/NetWxfnNTQ0FD7ykY9EFozx61//ehzn7373u/DBD35ws1HBBybM46677gpve9vbwvLlyyOHpz3taeHnP/95uPzyy8N73/vesHr16s3qc5+88pWvjNfjvPPOCyeccELo6enZrNxEDjCPAw44IM5l5513Docddli4//774/22//77x7lyH5QzzjU2NgbYwPrOO+8MML7nnntGr3dalzLwhcNXv/rVyIX+p7Mx9112WxJ22HHnsPqxVWHe/G3CkOZ0/bVXRial5jYsDrsu3j1srzrr160N2yzYNtx2y41h7ZpN9wAs29raw4LttguPrXo09Oq6cz/wg7to+53C7nvuHe6/b3l48IH7Au016P8Wbr9DWLLHXmHFQw+G5cvujl3Hdto7whMPeEpYueKhsPyeu+JvTalxVXtsYGAgfk+ScVVbu3R52mLeK1Y87Ge40oh81ARMwARMYAIEmidQ11VNwARMwARMwASKCLS3d0YRiQfPPglag4NDsQQPdohPrS0SD5uaR8Wuoupb9cfBgUE93g+HxobG+JCOYMLDMOJgn0TVYnGwlrAQYnAEDYzrh/N5n332CV/5ylfidb311lsDghfCD+N7/OMfH8s/9NBDEjU3RJGCa01blHnJS14Sz5f6BwEB23777WNfvKcu/e6+++58jAIg5TiG0SeC6bOe9az4ufgfzu+0006x3MMPPzw6n+Jy5T4Xc0jLcXzhwoXh0EMPjfO6++674zVpb29Pi4x55V7/2c9+FgXCJz/5yVFku+aaa+J4mCNzQthFmMVoD/GM9phrf39/PL5o0aJYh3lRD8e4H2CAWMs1+dSnPhXF2fR8LKR/ij+nxyf6yn2xYsWKcOqpp5btAwH0TW96U0BI/Oc//xmFV0TWxx57rGydiY5rKtXnOiIM4g9IrFu+bGl42iGHVZw713nu3Plh510Xh0dWPBxFxQXbbrfZtIaGBsMee+0TxcM5c+eF22++MTTo+8bXZL4ERUTDhx98QOIgAqu+U/q/x1Y9ErbdbmGgvWUSAtN7g3uV97093bHsZp2N80D6nR1n9ZLVaJP7ymYCJmACJmAC9SBggbAeVN2mCZiACZjAVkuAyLAkSrA3ikSFIAYUPdjc3CIRpCMKXzzsccyWEhgOQxIJm1qbQlNzU2hpaJGo2hzFoL6+nlGRLC1dy1eiCB/3uMdFEZfrgniFIIa49bKXvSwQPUYU22mnnRbFLEQ6RIULL7wwvPOd7wzPe97zwrXXXhsuvfTSWG7PPfcMr3vd68Lhhx9ecpj0gYCH0f7tt98ebrnlllGR8sorrwxPf/rTwwte8IJw/vnnx7YRzRAOEdWoU2ycp86JJ54YBcLPfOYz4brrrovCZnHZcp/33nvvsGTJkkAULGNECJs7d26MsnzFK14RDjrooDhGoiZhUM74Hlx11VXhsssuC894xjPCySefHKMUGc+aNWuiaPb2t789HHLIIVEM/Pa3vz0qZsL10UcfjU3D8eijjw7nnntujFREGESs3G+//WIUJ5GMn/70p8O9995bMuqROaRCULmxjuc4XLgfvvOd75StjmD8zGc+M871xhtvjPMnEhS29RhT2YFswRNEdN5x2y0S+rieUu/SuLdE7x4zMq4VYt3iPfaMEYFE+RFxuKnSpuIN+iPCI4+siPf5qkdXhobGpGG4Pnj/vWFA3wV+W4s583kwioYjbcU+m1UuROFteHhI9xeDS+4b+iluY9Motsw7xmgzARMwARMwgXoQsEBYD6pu0wRMwARMYCsmMBx6ujelmRaC4AGYKDgePjs7Z0exkFRjjtskA+gpfUA8FGcZ2lrbk896yCe1uN6MSI0lMicVAxAqOjs7o1DItUHY+uhHPxqFvFQYoyyi3iWXXBKFoM997nMSLR4J3d3dUVxEZPza174W6xVfXyKl/vznPwdEN6LySMdduXJljEgjlZn0Y9KIl0isI0UZMZE622yzTZgzZ04466yzwpvf/OYxzSIQvuhFL4qiGyeOOuqoGLmGWJfX3vGOd4RXv/rVoxyYI2nE8+bNi69Ev73nPe+J7cKokjFeUmaZG6nUiI+rVq2Kgi/z2HHHHWN1xEMi7BDOUiNt+eqrrw5PfepTw4c//OFwzDHHRPbMmXsB8XM7pZdyzeiDvtJrl7aBGIcIifiKoFdro79yEZT0RZRk2i/XgPsGlluLwWfN6lVR0E2uDYm+I8abEj97O+y0S5g9Z2649cYbonBcUCOtGV/huuqRlWGtRNpECNx0fUlLTu8FIg1jPxrLdot2CEQb3n3nbaPnGUKLoroRAklT3n6HncPCRUlE7zq1s3b1Y2H9+rW6juXTyMcMrOADP+vpOAoO+60JmIAJmIAJTFkC+f8X45SdggdmAiZgAiZgAlOHQFfXxszBIBz09fXqwbRZD7dNUUjIrLSVFEjWZiSVFIGlP4pt9RQHU/GMaMFCQ+Rjrbmbb745/OAHPwg33XRTvE6p4JOWJWX0/e9/fzjppJPCa17zmijgcY415lg7j2uNpf3ED/qHOSEEIm69733vi2nGCF6IivRBBN0LX/jCmNpMFOKCBQti1dtuuy0cd9xxYYcddojiV2G7CGy/+tWvojCIYHbOOeeMEd3Svku9puvoES2IFxqi50UXXRSuv/768Jvf/Cam1haeZy6Mgz6L+bBGImm2rLv3xje+cZQP9REFif6DcbHYuH79+igMwof577HHHpElfdAfadQYgtu+++4b35f6B5F3oobIk3KuVvBJufKa5z4uLD/RcU+F+qWE23Ljmj17jtYP3EFrBD6gaNE1ucQ1fiOKjWsE61lqb+HCRYpGbpGoPldRho1h6Z23h1WPPjKmSrMEQsrvsutuWtNwUfyDRAt1JCaSHo2gyPqJxff2mEZKfEBUJFqcMaa/AyWK+ZAJmIAJmIAJTBkCo3/ImzIj8kBMwARMwARMYBoTUKRVibiYzSfU0toW2rW+Xm9vd4yo2rzE1nmEB3UezIeHFImpNcGyNnNBIEJUyyO+FBNFvEAI5LXYEBlwBBuEt0riAH0TycYrYhVpr2xKwthog01HqI9YxedCI+qPupxDJON9KkZRjvHxGYGM6DuEQ6LW0rHTbvEGJpxDkKD/SuNOx8G46YfU3VJGGzgsGGPxHPiMoIcxtsLxcyzlw3FSuZkrm5FQp9IYmQc8eEUgJWU37Z/3HK9k9AubVHSrVLbSObiQKkt/3GvF8y9Xl3IIyFwL7qF0fcVy5TnOfHG44DPJ4HDwoYdpSg2bbVLC/bV49z21puB24aYbrom/iVy/7STY7b3v/uHWm28Ys0lJFhfqLtDmO7su3iO5/vpV7u7pCo8qShexL/1dYcOUxbvvpQ1RdtL3dEO4+45bR9eyXKC1DOmbqO87lSbN+bzXnvH19IxEJOs+6Infr9ptTKXfmLE/JFlAfN4ETMAETMAEchBwBGEOSC5iAiZgAiZgArUmwM6a5L6R2mbbRIAH8O6RKMxygtWm0hN7hyhRKK6NtzXGnKaaEjHH58LINVKCyxmCF46ggYBSLK6Rlsq5ZcuWjWmXsZdqFzEsFfLK9Vl8vHi8xeezPjM+hLNylvKhXLoDMGNMU7XL1WOOaRkETDhhtFOL61au3+LjjHU8/THOdPzpuIvbLv48E4XB4jmW+kxa8UKlAN9z951RIKUM/Pi/5H3ymXup0ChTfIzzHFuj9OO1a67V+8bQ2taq3boXhT20u/Fj2yyIUYGxrtYujDumPzSkjVTujSJw+h1crfTiu++4Ley7/xNjNCICYV6jbcT/Jm1I1az1VG0mYAImYAImMB0IWCCcDlfJYzQBEzABE5hxBJKH2iQVbsZNboITqrcwOMHhVayOmDQeKyVypO1wbrztpm1MhdeJzAOx0DYzCXBfLNljb0Wxdkkc7JEYpyhN/R8iW5tSdBEJEVoHBmZrZ/g+vSZpxZzvUDRqj6I0pQJGOBzD0+8T70MYDF0b++VLowC/w047hxUPPxjWrSWNWen8WsvwkZUr4rm0Ho1xz7H+IMI9/fA5aS92VfGfNLqV7y3141qIFWv4pAmYgAmYgAlseQIWCLf8NfAITMAETMAEZhABHjCzHiIpkwoe3pFyBl18T8UETKBKAtq5uLk1RqAScbfXPo8fU5/fStKAd9ltiX5Xh8J99y7TGoUPEk4YRcUF2y2UwLci3HvP3XGNQZZtmDN/fti4Yb0EwY0jQmGypumQli3o6t4YU+nZJGrtmtXxd3jBttvFSL+4G/KI0JgOgv4R+RD8sn7XC+uw2zaRiNQjRTlv3bQNv5qACZiACZjAliBggXBLUHefJmACJmACM5YAi9KzUQkPluUMcbBVaxASVTKdo+XKzc/HTcAETCAfgWTn8nuXLY1iWnGdTq0hua3WIWRjEXaH79Lak1E0lEDYrqhC0s7b9FvK9sgc71d04Z57Pi48tuqRcMfttxQ3p1Tx2VHwW7v2sVietQi3lci4cNGOWmNwfVwrsPC3e9bsuTHJmWUPEPkKz23W+MgBRMEhlW1RenGvNqNKownLlfdxEzABEzABE5gqBCwQTpUr4XGYgAmYgAnMCALN2v2yRRsSDCgappSl4iD6IZElfngsRcnHTMAEthYC/Abeu/yezaaLILdw0fZxbcJHFCW4VmsCItDhRPXdpd2Ft9FGIskOw0lqP39wWbnyobDdwu3Droo6JH14UH+IaVQq8XytPfKXJYYAAEAASURBVLhg24VKG16ndU67RsS+hrBKZebPXxD20YYkd2nNwQH9LtNHR8csHdsvbFi3NtmgZLMRlj5A9GCTdjAekPhIOrSjB0tz8lETMAETMIGpR8AC4dS7Jh6RCZiACZjANCfQ2dEZ+pr6Qh+pZXr4jSZBkFQ6djPl4ZFzfWVExGk+fQ/fBEzABEoQGFZKr4Q8/jpSZOmSC4WHEdYojxjI+eIypB4/suLhMccR9hAbqbvDTrtE79O6hvzRhrbWrF4VlpOOPDIG1iBcs+Yx1Vka05if9OSDohhIejDrH67XjuTL77krpisX91841vQ9AuXwMPNLNh2yOJiS8asJmIAJmMB0ILD5f6Gnw6g9RhMwARMwAROYogQWLNhuuL29La4/NShxcFjrXmE8j8aHY73v7e0NfX09jiyJZCb2D4Iru/n6QXxiHF3bBOpNgO8oUXzYWm0Qoi9tZpcsxTBr9pywQZuFsEZhXkPM6+ycJZGvPbRpXcI+pfr29vRq+YcNcdOQVCBM2yOKcbZ+Rzr0xx3WJyT1eKPWMCStuaeHaMPsTXKYX18fEYMhRg7Wc+3BtWvX+hkuvXh+NQETMAETqBkB/8elZijdkAmYgAmYgAmEMG/evGEePltaWqM3Nib/qeXhcXBwSOJgt9OKa3ijIBDO0jplxQ/8NezCTZmACUxjAvw2VPMHhPS3pJo64EHAZCMU6vX0JL/z1fadF7MFwrykXM4ETMAETKAaAk4xroaWy5qACZiACZhADgI8IBKxgqdpaV5rMAe4cRSBK04aos0ETMAEiglUK/RVW57+BgYGRjacaowR4unv/XjaKh6/P5uACZiACZjAZBHIjpefrJG4HxMwARMwAROYgQRSAWsGTm1KTIk1v3g4t5mACZjAliDAbxAbk7CVMqnJuM0ETMAETMAEpiMBRxBOx6vmMZuACZiACWz1BEhdIzqRtbGU1KYoOi2OP7LeYa3g0EeSbqdX+hppmLRpUukwImRSD4FovuFJTfelb9Z0bGlpGY3WHBmmX0zABEygrgRIK+7R2oZN2tSE3yLWHbSZgAmYgAmYwHQlYIFwul45j9sETMAETGCrJYBo19raHkWxZPF87Zg52K9F+Htiuu14wfCAS9vs4NnU1DwiQG4SIpN2EQ3T/QUQCSVOIhKyIcvwkMYxGIa01uLAQH9dhULGyXgxInh6NPfOzs742f+YgAmYQD0JpH+Y6O3tkzionZb1BxSiCNPU4nr27bZNwARMwARMoF4ELBDWi6zbNQETMAETMIE6EWhra5NA2CoRblDiWK+EuMbQos+hrSHuuJkKZ9V039TUKFGQjVVaFC0oUXBk184hiX4IcEMSIBHliFRMLBEOUQsb5c3NLfFwc3MSUUi9PkX2kW43nvFkjb2wTd4jECJswsVmAiZgAvUikP5BAkGQP6Q0N7VEYZA/ithMwARMwARMYDoTsEA4na+ex24CJmACJrDVEUCk46GUVN6enq4kYkXHWP8K4bC3t0eCXCriZeNBXERUY9dlUocJyiMSsEe7LbO23yZBMLutGHkoobBF3syDc2dTFBfZrIW2CkU9WiNFmrmwwUhDg6JwJFKmm7qkvVEnbgAgYXJIQmUlwbG7uyeKpc2K6IGTzQRMwARqQYDfIRxRkD9GIBI26neruYVIa/4w07/Z71st+nUbJmACJmACJjCZBCwQTiZt92UCJmACJmACNSDAeoCDhYKbHlzjGoQS9xDH+vqyBUIEtGaJgq0tbVGYIzWOtfxYUwuBkM/VimwIedTv0/iIKCQaEQGwo2NW6Fd0DUIh48YQEzs7Z+sdQl66jmESrcj51OI4iQxsaCWZOYqFiKA8oBcbDFgDbGgoeWhHbEzWaUzXUtxUIxUr88yRsoneuEl0rFQ/PUdvedrfNKpavYMnfccR1KTRyCA2lzCY7DlOZn9xrpsJzCnTfPdACj0dd6X7oHR/aQv1f03HmPZUaaxpmZn8Co/E9cuk35RBeV9f/8gfTIbi1PldadXvW7Oirvv6enTO0YMz+Z7w3EzABExgayFggXBrudKepwmYgAmYwIwhwGYkaeRdKpQlQliyHl/WRKnb1tYe184a1nqBCG4Ie4XRguMVCajHw3V/P2JjXxQCiU5sjg/TTeqrTw/TiHhsLtIdhaxEkOShPHn4Hjv+RNwjypBxJ5GOTTF6EkGy0OiXB/m29sYwNDCsB3u1p2PpXNLXRDhsilWZc6V1w6hDv6loSh9EXSZRjwnvwvppefQlFY1MC88Xjrde7xkbc6Tf9P6YSF/pnEgbJ4oTgbpREZ960RzFWcd4rZel/U8G0/TeSAT3RChiXo2NCdM0gjUZUxKpyvyTTXvGMqBMUq8hikulGNEf12tQ38PC71+9WBa3y72czFkXM252xDVN1hMtNd7i+jPlczrX5Jqx+RO/Y+xKzB82kj+apHNNryt/BOGaUcZmAiZgAiZgAjOBgAXCmXAVPQcTMAETMIGthgAPsjyQsklJe3tnFNtIzyUiL4meKyWybcKDwIY4yEMuAlu6TuCmErV6l0RaxfRgCSjNirBpbW3TmNu0kUlzTNMjYjGvIcw0NCRpfEQmMvdupVinEYlpOzywD/QPjEQvas1ECS+InxgCE4JIc3OyliKRQYMaVyoOpG0UviKetLQgFKhdCZtwa1HUpaRBfU6iitLyiEGMjbK0zdzZvGWyjTm2KW0cuSoRfic2Buas7HXNC5bJLq2JsJWkhw8OJvck86ZsPYz7G0EGHTK5zzePIK1Fv1y/xsZkN9pCYTcRp1viNYUp80TYS9beHLmfNP9N9xLrciJCJ5tXlIsw41rxvYj3y2TsgAvA+D1AcMe5txMhORE6KwvmtWBMG6kwmd4u9A07vF73UJ6xp/1zveOSCVpfsK2tKX730zHSDssy8B1I0o0n9v3KMy6XMQETMAETMIHJIGCBcDIouw8TMAETMAETqCEBovB4ymf9K4RCHmoRIBDceF/OECIQBynT3dOdKY6Va6fa4/SXClWMAVGlo709Ri4WRwFWapvIpiTqcFjzaNXOoXpwH958t2QEJATFVqlaibDUHEWHBA3p2Mkuy1HAq8ArGQtRYAhAyZqJjB8Bg/ngGEIBc0oErERcSsSELSMcsAZln8TJNo2V8cbUbgkw4zZUHEVTISgxZa5nIiaRhp5sbMP6kazPBvd6WHqfICwlEW7l7/Px9o8o1CRBCH7cI4XfJYTnxkbS8ZN1NZN7KJkrdZqb4UDEaDKuRORKOPHdLGyrcHwNDYkgxi64/Zn3YmHN6t9HUVNCK3NobEzS8BlvIpQn642WG2f1vZWuQd98T3gtFgIHdO8g+KfXunQL9T3KmJL7O1kzlU2X+J1tbu4YEYf7xC6ZA78z5YTf+o7SrZuACZiACZhAfQhYIKwPV7dqAiZgAiZgAnUjgEDSo7Tgxn6lJ0pY4CE/ETTKC1KbxEHV1SL7W+LBFlGJvltaBqNQiVgZAmPJLyox90SESsS/vr7SEWvwIDqSh3ke+lMxguN4EpFYum7hhUMboy4iYGOjooYkbNBuYSQd4lBraxI52Kt1FknD3dJGZGS/xt7W1qGxhSjGMu9xmYSrIYlmbDwDB64jhpCCKMj9R0QV1zPZkKb2KZf0ld4n9RCxuMYIhMwPAb64D9jRfyIEJ1Gp6ZjggeCViF5p6rrELkXmIXqpsbLYk36StPWyhWp0guhhnLky5uTakSI7OfcrfLhHYAxLvoMpGs4xtiYJl8PDrDGa/zehRnhiM+l155UxJL8XgxpbIranKeO6qJpDeeG3lmNyWyZgAiZgAiYwWQQsEE4WafdjAiZgAiZgArUkoAdYhKhsMaphVLwhCqqHyMFJEgRKTReBj/UJecAm+rF6kZAIn0ToSsW79KG+uL/k4b60KJYKhsV1NvusTohaa2khci1EUSUVBlLBA2EJwQPRcHgLsi0eOxGOCBqIw/BGnC3Hqrhu4WfqJJFxiKRJBF16nnNx3romiJHJ9QxRPEnL1Op1PGPP2zeiFenFcU05fU9KGTxZf5H7lrR+7mPuMcaVCF6qx02J6Vj+8SbRmUnF+vyr4URhjuunkUnwTURyxj8ZxvetVeIg35lN65Bu6jsRC4kMbo/3a09PYbr2ZIywdB/J7xVi4VC8P/guRYFT90LynShdz0dNwARMwARMYDoSYEVimwmYgAmYgAmYwBQjgLiQ+kSGlkZ20VZ395YVB9N5IFYQvdSr3T8RLBAFENmqNdrJL8JU2/pIefWBIRIiYhAhh6jCeFkHkRTmOBdtuBJFjqT4lPk3jegrXHtyPINDOEP7Yr6wKLZEICVis1FcOmK54jJT9TMp5ESIpZFt5daNhEFf3EFb6dtKcWd37kQwkuimmzEK0gWifR4RWvJz7LfebLh2UTDWGyRMduDt6NB1GokorHf/3Dct8oEBIheT71Bhn/BDaO6Tk9LL/SqohUW24Huu7WCMwmXdU+71Js2lTUsY8Ps1KaaLhoCNI7LaTMAETMAETKAeBKr/X+P1GIXbNAETMAETMAETSAjooZg0Vh4EiVIigoWHUx5KqxXDSIdEwCDSpbe3K7YzlTD3SyRErkAg5GG7pydJ/600RhgwLyLiiITkcx4hplKbWecQV6I4RISgrgdiR0dHZxQHiMhE8JiqBh92qWbNyngvaPwImppIVUNG/CKKChGtQYKaMo43s2RNxuR6Ip6tX792szJT7QB8WltJw27Vd2zspjOlxgoHrjn3Q7JRUIfeJ1GEyWvCCE4IXlkb8cASwSdhV6rH2h2LvyNDScpz+j3qaG/WdW3VHw+S34d6fZeSPwBo7U5t9MN3t5QxpgExa5U4yHesX0socGwq2QCRg/oe8HuFiIlA2DMiGtaLHfNvlChPhG6yHipMHptKWDwWEzABEzCBGUJg8z8Bz5CJeRomYAImYAImMB0JNEuomDVrTnwYTKP/Ojpmh87OWVGcyTsnHlZ5gOW1T5F6CIxT0RBRiLxL1nbL93dLxFN0A3ZzrudDObwQBOkLkXVYjpiD+IWIO9XFwfR6I1whEiKotik9lkiuai2KN0ROKXKyRQJtKe6UQSzFOd/ZORuC1XY1qeVbJKC36DuXCH+kYG9Key03EOaJ8NfVtSEyZa5s0sJ9iQibRFmSCl+uhU3H0+/oZK0JOqgIPiJAuR8Qtrg+jHf2bH5zkt3NN42uNu/gE4VlCe3Fu44X98B1SO4ZUvuJdZx6htCafvf5PeD3muteT0u+f6ztOTkRp/Wci9s2ARMwAROYugSq/1+IU3cuHpkJmIAJmIAJTGsCpPwRlYSQM6BImwG9EmHX3MwGCC1hzpx5YcOGdfF81kQRK0jVIyJnssSHrDGVOp+ILaQas7ZbWxQyE5GgVOkkzQ6BgzJEtNXbEpEnUXqSVNREROlRuvZUjhws5hIjICUUk/5LxFzCr0QYYHHFgs8IskNDRHe1xug4rl0pgwvXE/GrXWJqryLuypUtVX8yjiWiXlNoRxRTh2z6g1BdjSjF95TvI8Z3LU29RkhOIn8r358wwsdzLWKnVf7DNeA+YOdphF6uUyLOJ5uXcG/E4xI/2dm4luIut0qZ22WzWeQtt1nFSTyQ/m7xyh9yiChmfcp+Ma3HvU6bRP7yh5Rq7tFJROKuTMAETMAEZgABC4Qz4CJ6CiZgAiZgAtOfAA/mCC9E+vVqPbu4IYKmhQTDTr1EObUrxYzotY0bN0QBotysE3FGqcUS0HiorMcDa7m+x3McoYVxIlAQ0YWgVMp4MEZE5BVxI4n2Kh9lVIt5I6jE6EEirSR4ETGURg+VGuNUPka0ZppqjHg3OFidcIeQxXVK1l4jNbV0ajXcWe+SV/oZ0q7VyfUqLShOJjPuHdJCGReRc8ypp2dT1GN6z6QiTPo5a4wD/QW7FeeIfIvfUd3LSYpqsn5lVh+1OI8gyD2NMTfWBBwY6Jb3x98fmLS180eKgXiM72ZeBuXGR336HB6WiIogWiGaGe5pea5NNX1TF5E2EV7Tdjalf5cbX6Xj6X1QqgxjI5IUVqT/IjazqzzRmYy91gZDvkf8TtpMwARMwARMoB4Eyv+v6nr05jZNwARMwARMYIYTmD9/vp4bqxNCKE+aWiI+dZVdjyyJ/mKtvu74EFrq4ZW2KIeIw8Nrsv7c1IfOQ327onCaJZQigPLQXWyIg8yNdcy6u0iPLG0wgCViB694KVala489Sj3GhrAWQ810aROxo7prPLbVLfcpnQ+v4xF/EGBIp0U0TYWmcrNJhJpkHblqxZ5ybU70OPNOGdBWuXlQBqv2uxwr5fgnjkH3JX8BmMz7KZl7uqnK2AjSlAuv/IQl6fXJZkk5plSxSHovcB9UEs8qja9iBzpJXb6kvKRzADDXsJrrSFnGyPcDT9d/TdovPQqEXlK0idxGbOU3utI8S7eS7yibI61Y8VByg+ar4lImYAImYAImkIuAIwhzYXIhEzABEzABE8hHABGr2mip5OE5iXjhgbScJaJZW0XBi3TkJDpsSEIaa1ZND+NhmnToZokmPGhv3Lh+5IE/GT+MmvXwTTk2N6lk7YqAQiCdiDBYtn09ljc2zoz/+YSAOl5rakrW3ctTPxF9puay19XMI89cqy6zxe6nytcv0Udrv1tuKthnc6o8vuz6tSmRioVEdCfRgsnvcyJAbvojASIvkd8Ikvz+6ucn/nEmS0Qfzyj7+0tH7o6nLdcxARMwARMwgUIC4/9fhoWt+L0JmIAJmIAJmEAkgECYRJ3kF+fGRqZseugsRsrDKmVTL46K4XNzM2mLDXo47VOKcXmxsbjtqfB5IKY/JpsmIF6lYinzRTRsUpQOD+nlNlyhXGdnZ1wTjPc2EzABE5gIAX5HUlGTPzqQYl/uN4g/XrCWJb/grfpjRgjtdREJ09/FiczLdU3ABEzABEygFIGp+efcUiP1MRMwARMwAROYJgRYw6upiugsHiz1/yPCX+n/NCfiYJoaWHptLh5m0x1+k/XmpgmwkWGyZiKbs2Asxp8aoitROcypXPQMc581a1aMHLQ4mJLzqwmYQK0I8LtCdPLs2ewq3zmy9MDY1of1Q97b0xP6FHHYoo1r+MMG0c82EzABEzABE5gOBPxfrOlwlTxGEzABEzCBaUOAtaeIdIsRb6wxlsuGFS3XHwVChLBSxkMm4h9WLoIu3eGSCJPpGmVC5CMP4mza0qBISHgkUZkDZVO3KZ/sAF2aXSmePmYCJmAC1RLgDzX8FiMU8gcJIp03j+QuFAlb9N+CjhjVXW1fLm8CJmACJmACk03AAuFkE3d/JmACJmACM5oAa1UR6cZmG4hc+SzZlRdRDzEMcbHQ2Pmzgw089DBK+yyCX2xJerFENW0iwfnpGkXHml2stchGGK2trCXYHob0UE5UDpGWxZbOm/Q/mwmYgAlMFgH+YEM0YanfHjZ4YYOoPv23gHLt7bP0m1ybkU3X3/bazN6tmIAJmIAJ1JNA3ieXeo7BbZuACZiACZjADCIwHCPd2NWS6DfErjzRfAhd3d0bJQSSJts+GjXHUyViI4bwR5lSRlQL3tBANOLmOwCXqjMVj/Hwi8DKTp1treyWy6YkPYH1CUsZc+YB3Q/Npej4mAmYQD0J8PtDJCHG+oSFRrpxn0RCrFX/LejomK3f7w2KOCwsVf374j8gVd+Ca5iACZiACZhAaQKOICzNxUdNwARMwARMYNwEEAT7tZYeKbJJFGG+0BHEMARAHjR5H0U/CWYIfj3aIbOru6v8mAhPkQ8NIRBOr81JiieVPkDDIEbhFD14Uz4VBGHEJgI2EzABE9gSBPgtYk3CUruC8xuGSBijyhUBnkQS5vvvQam5EI1IlLnNBEzABEzABOpBwBGE9aDqNk3ABEzABLZ6AgNKBWZNQKLb8kYRAi0RxbqjAMaDZww2kWLG8UrWqLJNEstKpR9Xqje1ziVrDhIhQ0QlQme5+XAeQxxEJLSZgAmYwJYiwG8Q66B2dXVt9gea9A8dye7GrfptS3Y3Tn/D8o6ZPljPkPRlmwmYgAmYgAnUg4D/F3U9qLpNEzABEzCBrZ4AD4WIhKwJmER85I8a4cGR+ghkQ3iGOAhsxET6ylN2al6cBnFqjYv/D0sW5SFYU8plaTRhrsIuZAImYAJ1IEB0X6n1COmK32UiCfmDR7rxUjVD4DeO/44gEvb29lZT1WVNwARMwARMIDcBC4S5UbmgCZiACZiACVRHII0cJJKw/lFuOdW06qYwaaURB9PIwR6lUg/qgVqSp/qvNK/hEWG0UplJm4I7MgET2MoJ8DtWKtUYLIiE7HLPRkyIfdWkCvPfEIRF/zFkK7/BPH0TMAETqDMBC4R1BuzmTcAETMAEtl4CSYpssnB9k9afqqc1ar1DrNq0tXqOKU/bPPASdZOKg90SBwcGRjYkqaD7sbZjS0vbyMP4BFf9zzNQlzEBEzCBDAIseVAYRVgs6CUi4cjGJRIJEf7yGNGJtMXvuzcpyUPMZUzABEzABMZDoL5PK+MZkeuYgAmYgAmYwAwigNjV0jIUd7EkvYydLetjqGn49BHL2OmZh2mEvsHB/hhdEzdYGcktJmWatyPLDY5i42G5vb1DkTjDiszkoXn0lN+YgAmYwBYjgIBHFCFpwPz2l/qDTdx0SpGE/IbFP4zoN3sw/aNImZH3678d/N6xS71/78pA8mETMAETMIEJE7BAOGGEbsAETMAETMAEyhPYlGbcHNhIpF77CydrD6KUVQi7Kz/MST+TbODSHjcZGdCOz+xWHMXBgpEgphY/DCcROok42NfXqwicJj2Qt5R8EC9oym9NwARMYFIIsJwEImF/XIO29O8xu9w39iXr07Zr45Ge4c03NykcbL9+6/qGvfZgIRO/NwETMAETqD0BpxjXnqlbNAETMAETMIECAg16UOyL6WFEvtXfSj+Q1r/ffD0kKcXt2vFzVlyXsUfCIGnFxeIgrQ1vNpXh0KSUvAY9gPf364FZD82JMJqv71KlqI+XivQpLk+ZtHzxOX82ARMwAQjwO8FvfcV1Z/W3HP4owu8Yf/RobW2vXF5/+OG3M3WTNgETMAETMIF6EHAEYT2ouk0TMAETMAETKCCA+EUkXFMT60j15hKjCqrnfJvk2TY2Td2//fHA3KZoGR6eEdqSB+RkjcbCSaILNiq9OBENk3ml5zmH5xH00jrlXnkw32abbeKD+YYNG5Ti3BMfwMuVJx167ty5se+1a9duWiuxXAUfNwET2CoJ8FvH78voeqplKPT1KZJQSy2wAQmbl/CbaDMBEzABEzCBLUVg6j5FbCki7tcETMAETMAE6kBgYHAgRr4RAVILK44kGYrRbYNRWKtF+7Vsg7EiChI1yCsRld3dG+NruX54uFa8XtHphvjAjbjY3NwaH8CJJhyPIT4uXrw4/PnPfw5XXXVVOO+88zQ+UpeL+0xap/yRRx4Zrrzyylj+yU9+ck1EyvGM3XVMwASmNgF+88rtZlw4cn5viIRmKQp2NW7S76PNBEzABEzABLYUgfH9r+otNVr3awImYAImYALTkADRbqynxxqEtRAIiThhgXseKNP2hrWAPYvYI6xNJWM8jLO1tUORMg0xQqZHC/Qn0YGlRxrnoMBB5iQVbkyhoaGBKCw2KVIyRiNqd+jxRhNSj80EsN122y2cfPLJMZqwXHupeMhr+n7M4PzBBEzABEYIEEVY7rekEBJRhoiE+rELHYqwrveO94V9+70JmIAJmIAJFBKwQFhIw+9NwARMwARMoE4EEJQQ82oh4CG4kZJWaMPDyTp6iHBNTVt+BRHmyhhTIZP0OVJ4eRCu9NDMOTYwkaQaU+7GyoOJXtjX1xOFPdqs1FYhn6z3jPeVr3xleP7zn59VNNd5xjXVRUTGWIlfteNP51ypzVLwssZRqg5jq7af8dQZz9gKx0uf1XIsrO/305dAxTUIi6ZFVHWP/ljBfx/a27LWIyyq7I8mYAImYAImUCMCFghrBNLNmIAJmIAJmEAlAqmY1dAwkQg/iWcS3UjTHRjoj14okpCmJs0nEdh4swWM8fCQ29HRqQi/5EGXhfiJGuQhuHC8pYZHZGC6HtfgYOl0X6ZGW8kahv2jUZSl2qvmWGdnZ4wi3HbbbaupNqYsa4qtX78+RiKyXmFXV1fYuHHjZhGTlGMdQ8qWiqZkTcR169bF82M60AcYUo/6aQRkcZn0M8InZWgLpy8ilqifXqv0eFqH8pyHB+NnLKXGmJZnt9Z0HvPnz9e16Y91Kq2/hmjW3d0d58D9Qjom8+FYOaMOLBnvnDlzRudViQF1GD/ja29vH507/VS6FwvnxPiozzXD6C+9duXGihhOvzDEGXNWn+Xa8vHpSYDvXjU2oN80/oDCH3jYBbna+tX05bImYAImYAImUIqABcJSVHzMBEzABEzABGpMAKECR2wYr7HuXodSi4cULdgb160aHNNUIhAmO2hOpJ8xjVbxgQfaNokwrDUYowA1TnYoRiwhwjGPNTY2xwfjhNfY+eWpP9EyS5YsCf/1X/81rqgvRKV///d/D//85z/DHXfcEa655ppw7733hu985zth9913j+IU46Pcm970pnDnnXeGCy64IDzucY8bFatS0eqnP/1puOGGG8KFF14Yz6XHqb/ddtuFP/7xj+Huu+8Oxx133GhdzhUbAt973vOecO2114bLL788POlJTwpPfepTwy9+8Ytw2223hZtvvjn84Q9/CHvuuWdsB+5veMMbwi233BL+9a9/hbvuuiv8+Mc/Dvvvv38cd3H7zOW5z31uHOfSpUvjGo3Lli0Lv/rVrwLrNJYSCelj4cKF4X/+53/C1VdfHW699dZw4403xvewL2XMf4cddogsGTNs6e+iiy4Kb33rW6MgW1yPvnfaaafwox/9KM6FPmD2t7/9Lfz3f/+3BOy2kteZ+/V5z3tebJs+GB/X4lWvelUUSuHJtfvHP/5R8vvMd++EE04IN910U+z3+uuvD/fcc0/4+Mc/HjfFYf7FhgDL96cUr+Ky/jw9CFQr8HGP84cUlopoadF6hFMgEnx6kPYoTcAETMAEakXAAmGtSLodEzABEzABE6hAgIc/RLLxri9FuhpReVifIpgGJMwUG+IC4gMPpo1RiJy8KEIEwXaNr11raJHmzIMu4mC1ggfRkRj1CkWx4rnW+jNC3KmnnhqbffnLXx7+7d/+raQgVqpfmLPBCULgF77whbDHHnvEukSacd1e8pKXhHPOOSc8/vGPj9cHAYnNThYsWBAOOOCAKGKl7dIWguG+++4bdt5559jWQQcdNIYjUXoHH3xw4BXxqZIQAcN58+aFXXfdNbZHvc997nPhWc96VuwSkezQQw+NIiD9weCzn/1sjNDjGsyePTuKZf/3f/8X9ttvvzGRhET9sW7j9773vSg8Mnai7Hil/d/97nfhsMMOGzN2Ot1nn31if8cee2ycO5F2sGIdSMQ3NozZfvvtR/tiHM94xjOiYAdLIjOpw3GEy09/+tPhy1/+cozUSzkiXL72ta8Nl156aUwbR5CkD3g84QlPCO9+97vj9eJ44X1Gm6973evCWWedFdtmjoh3lKMPru+sWbPitYNXIXvKId6ee+654aSTTgqLFi2KPBgLdd71rnfFNihTaDBDUES8/O1vfztm7oXl/H7mE+Be7OvrjvcVkdSF99fMn71naAImYAImsKUJjD+MYUuP3P2bgAmYgAmYwBQkoDTGU0oNiwc9RLQmbTCSLEhfqlT5Y6TrIlZQl5TdEDZPX1MXce2+1pEHS4SJ+lqypiJrIrLWIMJXXEtLEVikQBcKL3nGQcQMghWGwJjHYEI6XrXG2BDoEAIRnIj4QzhDLCPq7DnPeU6MinvwwQcjd8rvtddeUezjPRF4Dz30UHyAZwz/8R//EV796lfHYfzlL38JCGq//OUvY+QYgiECE2LgJZdcEtNVSVmlPKmyRKNdd911kRcCFX2/8IUvjKnk3Df33XdfuOyyy+JnOuD8C17wgtj/N7/5zYppudwDz372s2PUIONEeCSq8cwzzwx///vfo/jFvBACDzzwwNguc/vhD38Yz3M92O2ZcSJ2XqSIPYxxIaT+53/+Z/xMdOL3v//9cPbZZ8eIOxiSqs1Y2SUajtTnHkHQQ6iE32mnnRZOP/30GBH52GOPhSc+8YkxUnDvvfcOP/vZzyJ76iHgMhai+aj/la98ZZQlkYqIjkTpEV2IQIkISBnSipcpovFrX/taFCXhTJoy5ZkX14FoRK4pzvVnTKQFI0Ii7P7kJz+Jgi6fmTORjIizCI7f+ta3Yn/URST+wQ9+EIVURD+iKLk+7JS9cuXKwJzol7pEHyIoMlbuDeYEY9p+4IEHYn9cL9v0JcC15R6pVuRLo0mTP5YMjwrlhSTU7icKP/u9CZiACZiACdSCgP+XRy0oug0TMAETMAETqIIAggcPgXkN4axZkXXUQSCUFlHGGsKghDnKxToSJBHqam088DY0JGsFImIwH9ZYRBxEkEIsGY/xQEy7rC1Ie9U+WI+nz7QOc0CYQSRE3CPii2g60lfXrFmTFtvslbki/CAcYaT+fvCDH4ziEmIY6btXXHHFaJQdouBXv/rVyAjR641vfGN4ylOeEsU/rhs8iTREbEK4InoQYTEVQemPaDqMKMRKa/bFQgX/MB6E0He+851xDT34Eu22zTbbRMEOgfB7igZE9KMfBI7f//73URRExCIKkbKrV6+Owtvxxx8fWyelmsg/BD/GTwQgabykJiN4cQ4mCHNcY9J3McQzxDfGQV+Id1wDhDtSoxEteT366KNjPcQWBDiEQ64PgiAMSAOmDpbeewh8pGkznt/85jcxvRqxEMbMkXk885nPjGnQtIVQiED3lre8JUYB0hYcmAPsaZd7hMhA5lJsjI3UbKIsMYTD//3f/43zYn5EUxIh+KlPfSq85jWviYz++te/xrnDE4GVTXLuv//+mA7OuG1bLwF+S/mDElGE/NGA+9ZmAiZgAiZgAvUm4BTjehN2+yZgAiZgAiYwAQKICzHVTBGDRCWlAki5JqVjqFxPFB4SwW3zSMNydfMcb1QEJNGMCDCpcIJoSTpxnvGV66OpqSU+EJOGjUDIvCfbmA8Rfl//+tdj1whmpKJWGguiEQJeurHJJz/5yShqIfBQD1GK6D+iCjEi6hCkeOC/+OKL4zHWBEwFIdJPSTHGiErEEOZIv+Xa46TtYqzfV41AyPU5//zzo+DJuIjIQ7RDnEqNNGnuG85zjRGv6AcjZRbRDjGPMRIZiZ1xxhkxQi6dA+2yZt+vf/3reB7RjDUYMcZPfYx5wA9RGVYImD//+c/DF7/4xfCNb3xjVFxDIMEYF20hnlInrUvU4mc+85mYnksbOP2TDoxIx1qKjDvtgzEg2mJETzJejIhSIhsxBE6ERURDzsOD+wNxkbUbi41rinDLGLm2CM3MkzHSL6/cA6yDiLFWJfPiHOW4b170ohfF46xdmLIs7seftw4Cg7on+hQpzh9MuO9YtsFmAiZgAiZgAvUm4D9P1puw2zcBEzABEzCBIgKIAnkNYQHBg0jA/oFkF9WsuggPOBEoTU3JbsdZdbLOIwwifuC8R9QgampwMIlYzKpf6Tw8WtVuA2sXVtjFtlIbtTrHwzjC0hFHHBHTctlMhHRQvJQh5BBBmBrRcamglR7jlZRbDKEPhtjy5cujWEfKKZF2RPchwrGuHiLRMqXGIkYRHYcYR3nKUYZdcYlIS0Wo2GDGP4hq1CkUn6jPphypEcHGPZca71etWhU/8p5rhcBGCm9qhxxySFzfMP3MKwzY+ARDeGMdROpxHJGSFOrnP//5UTAjFZdoSjZSQfAs5AcrBFbmSyo41+MIXRvEu4uU7owQyBwK69AnIh3OePn+sKYh44E1/uY3v5likUX6fUQETNcHJCqylHHPIziSqp0a82KOXBcMTi972cuikJmW4RWxEQ4YAivjxihPBCPp0zYTiAR0T/X39Ydmose1ORXf3aGhRCg3IRMwARMwAROoFwELhPUi63ZNwARMwARMoIAAIgKOERWS1yiLgEDKmRrIVY1+WKewsalD0SfJTq2k7I7HEAMRlBBqSFumbSIGGQ8CTC2sCSFTfQz0I2zWPiW62jEiFL397W+PUWSISR/5yEfirr6l2uHapNGDnGdn3kqGyIVghbHmHkIgqa5s6oEYuMsuu8T0V9YAxEgB/tCHPhQj3RDWDj/88Hic9FoEw1Tcigdz/JPegzmKli1CGwhuqb3vfe9L35Z8hSdRfxj3DDsIE51IajU8jjnmmOicJ8qOXYcRBRH9mB+iHNF1pBenqc70iSOcIDCSdoxYWGhEG5IO/PSnPz1GbRaeK/U+vS6cK8eW8ZNKXWzMjzlhjJn1DysZYmItrkWlPnxuehMgmpqo344Ofn9b43fH98z0vqYevQmYgAlMdQIWCKf6FfL4TMAETMAEZgQBHuxGH+7yBxBGsYF6abRRXhiIK416uGxVeiTeq00/RvvPaASBIxUGiUJEBKMuD6sDimIcQBjU51oY4mObREwsWV+xNu1OZGzMn9TaD3/4wzHd+ElPelJ4//vfP5oSXNw2IhVG9BvrF5a6VkSPIS4RrUdaL0YfpJwiELKRCHWJxsOIYIM569QhEDIGhLZUIGTdPdbr49psCUvnzCviHGJnoTF25gxL5ks0JO+xRx55JLztbW+LG4IwH9KPcdJ92XwFZ8dgHEO4Y2MVjj/3uc+N9ZYsWRKjKonIZLdiNpv5wAc+ENf2o29SualPxB5RkRdccEFcd5GNRhgPbZEaXmiFUYisA8l6ksV8GUuaWl1Yl2ueXnfmx4YtRKMWGnXTdRURPQsjOQvL+f3MIRBFZ+573ZPcl6kzw/T7UGm2/GGHP5rwO9zcrCjykd+aSnV8zgRMwARMwATGS8AC4XjJuZ4JmIAJmIAJTAKBBsS5kf+rpjseRInyI+qP6L9hCRis7VfOKI9g0aCIwTYJG2nk4qAeUHkoJb15SAIX5WplPDy3tSW7H7Nr8eDg1EmhQxgihZWoNTYqOUZRbkS8FRui38MPPxwPE0X22c9+Nka+FZdDPKIsogDr1fGK4EpaKWJRun4dkYREqLHrL2UQt1asWBE3K0FwQ0zkeiAsUh/RcLKNcRFhh3FvnXXWWSXTYwvnDBuud3r/IMaxizJr/bFhCKnTpC2zMQjRdccdd1wU6Ei7pj8MTmz6gnBHSi9p23BjExQ+E5nIZiBEfb7iFa+I4iCMuH4Iqul6jYyBa1AsECIcEpmJWHnUUUfFaxk7HvmHekQJ0mexkSKMY4z34x//+Gg6cWFZ7gHaoQxjsM1cAvyGsLu7LnbgDiYikJ9Prj/fjfgaDyTvIcH9gVE3ve/5XUQgbNEfUvjeUM9mAiZgAiZgAvUgsGX+7FyPmbhNEzABEzABE5jCBHjgwzGEtryGsNdUUDdvPcrxENqrDUtog41FWiT8lXq0RLjhQbajY1bo7OiMoqIeYxXt1h26Nm6Ir4N1eDBtbW2PohFC5lRILS5mixDHTru33HJLfFgvFpQoTxnWzkuNCLeEZ3sU7xDw2OSClFyiA9n4BFENoxwCGIIgx9i0Y5999gnXX3/96Lp/iGKsf0jqMeIhEXGsx8fGIVsqAo37ON3kg3kQ/Zhu5MF80zmnuyMjrCJuImwwfuYCj7QOwh0CHhuU4Ny3sCFFGL477rhjXOMQEZE5wwoGpGSTis1OyxiCIe2T8p2uf4iYePPNN8e+07EhvHCdiu3RRx+Nqc0c5zqwFiXrLyIych0YJ/dDYUo5ZWlv5cqVcX1HPnOea1l8H9A/0YdPe9rTwhOf+MQxQg/CDzs2048FIChOf+M69uu6Dg2yWQ33bVt0ln1Ifm874+9tZ+dsicVzos+dO09p9/MUaTp39Bh/ROEea9Ifb9L/hkx/Op6BCZiACZjAVCRggXAqXhWPyQRMwARMYAYSUBSJHvIQ3qqxNOqEh8Px2KDS00hrJVWtXQ+arVrLinHgRKV0SBDsnDU7Cogco1xX90alYW4oSPmtbsxZ4+QhFzESoQdxsLe3O4pCWfUm+zw87rvvvrirLqmp5eyuu+4a3Z2WNGGELeaIQIQjhrG2HtFvrImXpp7S/u233z4agXjaaafFLliXcM2aNfE91y7dMONjH/tYvG6IY4iItL0ljHGvXbs2/PnPf47dEy1HVF06X16JjmMXYwQ6hDbEQqKjYHPppZeGK6+8MqYZIxLCCud+2HvvveMcEQYRTpk/EYKsSchuy2wugoCY8kUQZJdnjLKMi0i+dJ1AxDjEyXRsiDaMl01Cio367J6MoIix0zARnp/4xCfimoJs8IJIjDBZbIyHa8x1gw/t7LzzzqP9MjcYkTIOkxe/+MWj0WKIgq973euiEE095sQcbdObAPdan6K2e3q6dE+u0b25Wr+r6yUEbww9Os49rj/jSBBOIwiLf2eTz9xPGEJ1GmEYD/gfEzABEzABE6gxAacY1xiomzMBEzABEzCBkgTiM16yA2w1D3mDij4hzTddpB5BrTpriNF5vb0No1ErROshmJBGzMMpES6ksSWRfMnGENX1kb80/RI9QyRYEpmFOFj8YJy/vXqXRMBix1w2umDdvGLj4Z3oN4TBT37yk3HTDTYWIX0WIQlxkPXxMNamoxyprNTDec/mGghZRMohMBUKUAhFtM9x2sIQ14hmQ/jaUkb/bMTB2oiMm41Frrrqqihcss4eu/iSjktU3Nlnnx2WaQ1CRDLEzmuuuSamTJ988skxqpJjtHf00UdHzsyZqMlLLrkkzpGoPdYMJPWYOgcffHCMYGT+7IRMhCL30qmnnhr7YG1HxkKUINGKiIuId7AmCpO1DhFhC3dihiMiHyLgKaecEttCrCQqMb3uRAmeccYZsS/SmQuNuZ133nlRFH3LW94SIwXpkzR10sVpK41a5Pp+97vfjd8B5srOyWy4Qpo0m7FwfTnPvWebWQRGl1HQ73jhr176ezCiBcZJ8/tMtCG//fw29yka3GYCJmACJmAC9SRggbCedN22CZiACZiACYwQiA+AEiCqEQepioDXr12DGxX9197eGUUM2kBYYG3CzSIShxGeqKmUtCZFZrELskQ5Nh2hLDWa9cCphuN6Vux2nLYXaxU+oXKgRsb8iVhkwxSiIRNxkMjGwsfkGnWWsxkEIcQsDDGrXGonQhS7ExP9hlCYRq+l3RARSLQc14T17kgjPuKII6KnZRCKEAcRrhBJU0NYQgx75zvfGQ8R/UZKM31gcGMdQpy19TCEp7ziEXOiLH0S1VfYN23RfhrRyOdioz6psRj1GRfHqEekHRuoHH/88THNGJETT4006J/+9KdxExPmiVH3pJNOioIY6/yxmQieGpF/bPABK8ZNP6wLyCYx73jHO2JZou/w1Ijy+/a3vx3OOeecOD+uw49//OMYtfj6178+pvwSoYfBkV2p0zUPuf4pa84zVyIc3/3ud4cjjzwyCowwQ9zlGpJOfuKJJ1J0M4PPpz71qbhmJNGHu2stw5e+9KWj5YhQRDxm8xSuM3PDOY4wiZhJpCrrOxaOabQBv5k5BLj2RbPhu6H/j8Y9x7IQ/GamUdact5mACZiACZhAPQkU/7epnn25bRMwARMwAROY8QSUHljyKa6pqTkKLH19pPx2Vc0BgYU1+1LhYGhIIqHEw6j4FbSWbi6i50+ZIhYpoAdLIhGpw2fG0izngbNPkSk8gLJOYT0MAYSH3ebmVkXCNGvMWpdLKZUDilhEyJmoISIh8lT78Ex5Ns7Yd999oxDFLrxEdhULaOn4GCsRfESfIagi4hWnHbOOHCLPkiVLojMuoscQvRC5WOOueN1AxoEoxZp09I1whOBVOB+uOWvqEWGGEXFIxB1ss4xxs9MvkXC8J6WZFOXCukQAMmaMaLvCc9Rh3TzKMN877rgjrpMXC+sfWCxcuDDWRxBjjIhpzHuZogZ5LZ4zdRBd6ZPytI9IRqQk14GUbcZQOA7YUpY+iLjjlc1bSAEnso8dnQvLM264wg0xkOvCWO688844LtKSFy9eHCMcETqTdM8kTRnxOq1PG/AnDZhXPhPFeMwxx0SxERGR+aTGdcMZH/PDqccuzNwHzJGoSo6lRn3Gh7BMOa5/YZtpOb9OLwLcs6S8F96XeWbQpOhqdnZPo6zZ3Z37sdDUbkPhZ783ARMwARMwgVoQ8H9cakHRbZiACZiACZjACIFyAiFRWqy7193dpei53nHxIgqwuTlZ166h4f9n7ywA47jOLXzFkh1uGB3mhtkNNszMUIfZqYMNuWFu6IWTOswNM2PD7DBzw2Sx5He/f3yl0Wh3tbvalVbSue+td3fm4jez09yjH3ARdt02n16bsM0kIkUkIiIQRhl0g+iEOIFIGKz5Wtt8lmIvXFK/kMIEG1wsYHixSca1GTGSjXOhSr4CYRg/MMl2E59tffrjFV2H9m7XKYwf3rPpN5s6ob/ke09te3ue8eJrDv0l5xH/Th3acD/yOZ82CCf0ka7Ex0iKLGG80J77ddSoUeYSjmCINSgiZBA4aY9ISexFRNGHHnrILA2T/cbnEoRA6oS5xM/HPzOPMKf4cX0emARyFQi5/txrJCXhvuF/J1KJg9CQQDgw7wnNWgREQARKnYBcjEv9Cml+IiACIiACg4JA5OKLxVX+4hgCXnNzWySI+M1kJIskxZFOoSWd2IBY0d4eCYLm9uutVSrqvEWhP97S0mpCnlkbojbmWCLxERETYbDSNrqIjk0+KH+bFyL706U41VKCOJTqXKpj2daHfeCfTZtC1Uk1Z4711H9vzzNGfM1876mEMTMJbMk+km3C92S98D2cTzVGOBfqBldfrAtxOSf25KmnnmoJaDhHvMWjjjrKxEHWSpzAVP2G/niPn0+OF6/H53C/JI/r++An0Gk1WGWW4Q3eyrzVi9S6Jwb/tdcKRUAERKCUCCR3FaU0N81FBERABERABAYcgVQWhIhmWA96CcAyWJbSpg/RghiFVWbpV+mFJFwfyWaMUOhdkid6q0IvHPoPKTarWMlF4hMWiWV+nbgus17WiDiCxaC5MPvvxSi9tSAsxpzU58AkwD2LCzHxB7fffnuLXZhqJbg1kxAlZHFOVUfHRCAbC0KelSERCcR4ZhKCoidLblkQ6v4SAREQAREoBgEJhMWgqj5FQAREQASGLIFUAiFZKOvqhpkVHZZ0pVoi6z/cgivNBTnE4/PSoLcu9IIfMQ9jBRvG8nIUwnKzZkRgIbZgm3chZoPLiyQrxSwSCItJd+j1jUCDsLPyyiu7kSNHullmmcXiNxKDkDiSxFUk+QqZmIkL2pNV4NAjqBUHAukEQp6TFuIBy23/xxleWJYT+5L3uNVp6Cv5LoEwSUTfRUAEREAECkFAAmEhKKoPERABERABEZhEIJVAWFtbZ2IC8QfZNJZ6iUSPSPwLloFkQ8a6EIvBUDAKjFyRia8WxTlkc8sGuK+KBMK+Ij20xkHcRgDEopAX9zXJRUgOQwni+dCiotXmQqC7QOhjDPpETfzBCEvr6Dk70RLgYGWdjTAYxpdAGEjoXQREQAREoJAEFIOwkDTVlwiIgAiIgAgkCCAkYJFH7L1cNoCJbvr0ayTwkfk4ylLbp4NrMBEoAQL8boMoiDAYioTBQELv2RAg7AL3TIV/J/kIomBkkd3uhUESNhGXtbhW1tnMU3VEQAREQAREAAISCHUfiIAIiIAIiEARCbBBZFOojWARIatrERABESgxAlhc13nrcaywCd8QuQ/7MAxeFCQUA0mhVERABERABESglAhIICylq6G5iIAIiIAIDCoCCIMk/8DjtsVvClVEQAREQASGBgHCMVhcVp+NuI1kTz68BN+xGIzci4cGB61SBERABERg4BCQQDhwrpVmKgIiIAIiMMAIVHhxsKKiyluL+PhS+OuqiIAIiIAIDAkCCIEhKVU8LmtvxUG5uQ+J20eLFAEREIF+IVDeL6NqUBEQAREQAREY5ARwKauprvKr9C5l3oIkvkEc5EsvyPLYBBO7UUUEREAEBioBRMKCPvu9BSJ/eFIRAREQAREQgWIQ0H95F4Oq+hQBERABERjyBBC3iD3V3EwgelkP5nJDYGFTWzvMmrS3T1AQ/1zgqa4IiMCgJUB++PJYJvlBu1AtTAREQAREoF8ISCDsF+waVAREQAREYDATIDh9VVW1F7aigPRYEapkT6C2btikzM/tlgG0mFk+01n39NYNMPvVZl+zzbup19XVucbGRkt6kH3LvqsJz2zZBfbZ1u+7VfTPSIOJR1hLTyRTXfts2qZq19NY6c7Hrfyw/C5k3+nG7M3xsrKK3jRXWxEQAREQARFIS0ACYVo0OiECIiACIiACuRNgc1ntXYvLvYtsi7ceRNRRyZbARFdVXeOqvbhKls9yL7SWl7MZLl6CF1yZUwkCTU1NrqGhwQTK6urqfnd3bvUJDpZaaim31VZbuXfeecddddVVJScSwhGeLd6lns+puMbvhMA+LtDEzw+1z4OFRy4iW/L5yD2TTftC3DOMzWuuueZyM8wwg7kCf/LJJ+6bb76x33sphjjweCwb8lD7bWi9IiACIiACfUNAAmHfcNYoIiACIiACQ4QAG9yqqhqfsbLNuxc3FTb+1CBnSEKXmupacyluamxwNTV1tlFvaSkvuJsxAgOiwLHHHuumn376bmQR5H777Tf38ccfu7vuusu9/PLLZr3Xk+jVraMCHaivr3djxoxxI0eOdL/++qt79tln3QcffGCCXIGG6FU3WH2tueaabvTo0e69995zRx11lGPO6QoC7AknnOCWWGIJd+ONN5rgWVNTk676oD8Oq7POOsvNN9987s4773SXX365v/8HHg/mPGrUKLsX+A2lK/yOJkyYYPfJl19+adUIx7Dtttu6LbbYIuN9jRUt99drr73Wowidbnzu12mmmcYdffTRbrHFFnNTTjmlPau/++4798UXX7hTTjnFIRYi2pZWKfMhK4r3B5PSWqtmIwIiIAIi0NcEJBD2NXGNJwIiIAIiMKgJhNh5LS0+c7EXoVSyI2BJXby4gHDQ0FDvN8GtXmhtM4GQTXqhWSIQIGb8+c9/drPOOmvaSVJv1113dc8995y9I2Iw174uWDHee++9JhC+++677qOPPuqXeWRaN0LrggsuaC/Ey//7v/9LO0eu5/zzz+8WX3xx9/TTTxf8+maaZymew5INdgimr7766oC1POa3Meecc9p17YkzvyXEvlBgsMACC7jlllsuHEr7PvXUU6c9l82JYcOGuWuvvdYttNBCVp3fE8+ehRde2F7BWvfTTz/NW4TMZh751OGZpCICIiACIiACxSAggbAYVNWnCIiACIjAkCWAW1pjU6O5WQ5ZCDkunI15tXctJqlLo7ccDBYybd7NuNJn7MTNuKystSjWmGGzffjhh7tXXnnFi5JRhtA//elPJnRstNFGJiL+5S9/MSEL66bPPvuszy2Lamtr3TXXXONuvvlms7zieymXQw45xD3xxBPuzTff7JFVuAalvJ6+mFvgEN77YsxijBHmf+GFF5o1ZDpBHUHw888/75gC9aaYYgr7fuihh5pQmsqCj3q047mRa2FujHvfffe52Wef3f33v/91Bx10UMc8EDfPOecct/TSS7v777/fxELq5zNWrnPLtn7gm2191RMBERABERCBbAlIIMyWlOqJgAiIgAiIQBYEsBxs8a7FSkySBaxJVSq8qIqwijAYxEFOsTGf6P8vxGYr5sYYd0LErCAQMtbDDz/sLrroIrf11lu7I4880lyScQPdeeedzX02KRpgFYflI205xztzT8YyC/Wow7lkP4EcFlYU6iCKUA9X1FSiCfUYD2ZB0OA77ajPe7oS5tPTvNO1T3f80ksvdeuss4775Zdf0s45XVuOMy/WwntgFNZMdnzdAABAAElEQVQTvof28XVzDcN3zrMuGMa5ESeRfin0xbn4eTsR+4f+gstsGLunNrHmRf/IGplfYBWuZbh3khOgXlgP1qmBF2vjRbtQ4n2HY+E6ZLqvvvrqK/tNZaoDw8ATq77hw4fbEFjs4t6frm28XZhTNu/8pjbbbDMTB7/++mvHHwZwcQ6COxaDxx9/vLvkkkvs907Mz3HjxnWcz2YM1REBERABERCBgUqg83/9B+oKNG8REAEREAERKCECxFZjQ62SHQGsA0lKArJkzMaJkwSiCl+nvLzMix/Z9ZlPLQQHRJG4MBLEwhtuuMHiESIU4AKKwMDncJ7xuO7TTjut++tf/2qWh4gdCGPELnzyySc76iLEYKW06qqrWizBBx98MKXYiIC10047mUCCZePrr79ubpu4PhKD8NZbb/VWl9UdS6Vf5kO/uEkSX+2HH35wCB4vvPCCI7ZafG2hISLRdNNNZ/MeMWKE9fn999+7F1980SwqqRcEnNCmp3fGw2175plntjiD+++/v/0m0vWT6jhCziyzzOJWWmkl6wvLMmLD4QrK3OAdxCPWjqsoVl/EtSOmIe7LK6ywgrFm7bgxwxBm9L3eeuu5RRZZxL7TL+e4VghU8d8vn7kWMMWKNMSrRPx67LHHLE5d/D4IbGhDtmnc2OPXKZwv5DvXkHHWWmstc1OGFRxY1+OPP+6YK+dDgRexDpdddllb23XXXWeuvcsvv7ybZ5553EsvveRuv/12mzd9wxles802m62f++9Tf18hqONKHncTDmPwHn5T4TrFzyU/w5l+gkDINSsGN9bDb4j758MPP3S464cxmRNjjh8/3v3vf/8zgXDeeec18TQ5X30XAREQAREQgcFIQALhYLyqWpMIiIAIiEC/EWhv79usxWy+gyVUvy06z4ERhtiQ41rc5N2yES7ipd2LBu3ezbjK3Iz9f7KUeYUQJbGPy2STTWbWhIgmm2yyiUNIue222zqScCA4IWRhZUgMtbgYg5jy6KOPur322suECNb8008/WXIURAheiFdx8Q4Rg3h09EffWCzyjqBzxBFHmEiGu3FcQEGcJLECc5t88sk7CCFSkZX173//uwmF8bnBGxHt1FNPNREuPgcStOBq+e9//7ujr2w/vP322+5f//qXu/76693aa6/ttttuO3fllVd24ZKpL9aPIMVaERrjAtzvv//uHnjgAfePf/yjwwIOMQ7Rh/qsFYHy6quvNoExjINIRkKKhx56yM6R7CXwgy1iKu0RbOOCF7+vvffe2xJvzDTTTKE7ExERPnk99dRTHX2FCvTPdUOs5HyxfqPMHVHvvPPOMzGUezUUuGAZy/V95JFHOgRV+BJ7E+s5eHL/wSusj/h+uLJzr84999xmUYcwHu+bDN+4+cKU9sECL4ydzzuiOvcu9yUCHszCO3Ph/uSa8TnfwrXFOpB7848//uhyrUOfiJVBJP722287uIXzehcBERABERCBwUpAAuFgvbJalwiIgAiIwKAmwCa5uqbWrO/q6yf4TXX6jKGlCqLKWw6y4Te3bO+anaq0+mzQGD8RixDBA5fj/iiIE1dddZUJhFiTkQEZF0gK388880yzsEKQQTzEsgqLs80339zaYBF1zDHHmEiIGIVgg7Uhoh8WhvGC6LPBBhuYeIEIg7sl4yNWIZbxCgIG7bgXyHpLwg8sx/7zn/9YQhMEl2222catuOKKdmyHHXbosGZEhEHMRMCivPXWWzZvBLZ1113XrNEQf7AUi4tLVrmHfxAhsfJDmDrssMPc7rvvbtZ577//fo/iDvNClELEQSB65plnbC3EfVx00UXdHnvsYVluOUecumCdFthgDYmwiaXhcccd54gliVCHRSGx5kg4g5h72WWXueeff97NOOOMlnkZa0dcS7mmMA8urFw/hFoKHBAn4b3lllu6JZdc0oRPRFDGCwIr5xFr55hjDjfXXHNZtl2E4kIXWGFlecstt5j16s8//2zz4X4iMy/XEUtB3OSxesUyLpTAi+y9sGDuiIRY1eFyyz2GIHj22WfbfYVQdvHFF7s33njDju+5554mMrLO/fbbzyEKh2sRxsj1HfEOgZB7kPuba0ZGZO4HrHGJF0hikbj1aK5jMEfWwouSnDP3FZalCO4U7pG4QG0H9Y8IiIAIiIAIDFICEggH6YXVskRABERABAYvAcSLGi8OIppRKirKvUA4sNaL1WBtbZ1r9cJmkxfE4oJXfCW4Gbf42IRVJpCV9ds6ERIQQShYWAUrMwTOXXbZxcRBXIERYrDQov5NN91k1oPnn3++1QkiHILDOO+ijECIZRZuqwggFDhgjbXKKqtYH1gKIt6k44OYiHUi4iB9MBcs6EIbxErGWmONNUysw5qRcwghJJGgkLBh9OjRJi4ybywlt912W3fyySeb8LjyyivnnJgFLmQxpi1WioiECKRYNGYqiD+77bab+/HHH40dIiDCMPf8495dFldgYhsioCI+xguMEJgQaQ844IAOBnfeeaeJnwiMFFy3EfoQMumbfrHym2qqqUw0RRRlPK7zP//5T2vD3K+44goTBxkHsRh+WJQirCESIs4GwQn3XgRCxC6EvGIU+kXERczCLZwEOu+8847dP6wPoRTxb7XVVjOxFFGT6x4K68C9Fks62iIwcm8gcLIOrhsCItaXG2+8sb1zXWmHizvWmDBFwIuLj6F/eGIBGpiE4+EdXtyz9EdB0EaURKBEgMSik98SL34Ta665ph3nHmed6foN/efzzjgI6QivCMKIknEX5Hz6VBsREAEREAERGCgE0kesHigr0DxFQAREQAREYMgQiLL91tUN9xv5Ktc+Mdrs97Vbc29xI0Agzkz08yehS5sXANIV1thuAguJJPr375rMG0swRJPgqstnxBVcNcnci9iByIJ4QSw4rLuIYUh9YsTxjviEZRJWTFihIaIEkQTRB3dZ3D0R/xBiwlhJRrRhTgiEfEbAQqRE5GAOwfIJoe+OO+4w6zCED0Q4RCOs2xCWTjzxRBOJwrxpx5wRziiIe7TJtdAfrsBYT8Jo/fXXN0EuUz8Ir6eddpoJi4iDrIv5sE76w8IN60zEJGI5JsU3BMjTTz/d6gYGcEQwo+AOy7oQfTjPeAi/9Im4SJ+IaIhSwYrz3nvvNbGX+ly70O+BBx5o3LBaxFoPsZHCnJk7locIiwhwhS7MEQtQrN0oCJnE00NgY34IebCBBfcZQvQIH2MyLhDSju8IcbiUwwLWtOeFOIYwiFjNfcJ57mte9M+9ScHFOdxrdmDSP1hswhuLxlQvLDzDvQ0zrinfsciFLbERDz74YDdmzBgTm1999VWz3MWqEevCeIE992i6V/I+ibcNn6mDOzxJiRBLuX7MSUUEREAEREAEhgqB/v0v7aFCWesUAREQAREQgRiB6mrvM+uwhiPjbbsJCrxzLF3BSrC6utZvxKtNMCNmX7kXK8ory3379O3S9defx1k/AidJSdjYI/5kKmzcETIQLXBHRkzozxLG5x2hAnHkvffeM+EEq7N4QYh67bXX7BDiHNaCCDa0RQAhNiDx4BCpWCMvkm1QDwEGQRJhJlWhLtZbWJAR1xABJcwt1GduiF/77ruvHQrCEaIPdRFUiIOIyBUK1wNRC9GTQjy9IH6FOtm+4xpMPMITTjjBrNhwUQ2WmKn6YGzWzNoQ9hDqYIjYGkRBhDwK7sEIhqHQljljQRiPl0df8KEwNkzinGDyqbcanHfeeW0MzjEuVoEUrAC597CICyXME2EN92RErbgIRYbccd5yk3aIioUu8WtP3/fcc083MYs5Mndcu2G1+uqrm4gY5sJ5rPhgkuoeQ2wl1iD3CGtDGOT+5npwLbCQpCCSs06uV7xw3+N6zTjJQn3cx+PMuMYk12Hcv/3tb2bVybWgPUI74m0Qj4kLSQxFxuT6reqT85BEBS6pCoI8v9FU1yJwwB3/qKOOsvHpm99Fqrmn6l/HREAEREAERGAwEJBAOBiuotYgAiIgAiIwoAiwoS0vrzCRgg1ta1uLiX585hUXL9igIqZFolokkDV5YQ2rulovHKXbEJcqkGgtWDd51+IsrdKwkGSdMEOkiIsKfblO5oAYglskIgbfR4wYYVMg1huJD5LXg2sZrKQQQBBXKNR73FuyIRAiRBE3kD4RSLAqpBCHL7S1A4l/4DD77LPbUYQexDj4JAuiSFwYYWysFrm3sFTEvTbZjnkzXwriUvJ8cox03+kHcQdBcp111jFLMFxFMwmOtIEDIhFiKWtE1ENU4j2If9RLliBmJY8HoQfhL1MJffIeBDCEI6wJQx+hPRyDsIpIGz8Pr0zXLvSR7zvz416EBe7MCGXJ8ZgPlnBYcFLgyJzj8+Seo20qgZAxqI9LNu7GuBNz/4b7KVjXBWbJtdx9990WMzDdvcP9G+4D6hBrE1d45oRbM8/JUPiMYIfbNG7ruHaPHTvW5s48cAtGAE31bGC9WLLi4h//HYS++e1gKUnMTNZy0kknWbKaOKdQV+8iIAIiIAIiMJgJSCAczFdXaxMBERABEShJAogYw4YNt80om9AabxlIYXOLGIaIEdyGI2EkytzZ0FDvzzX7c5FVTUkuLsOkEPiInYilJNaDkdVkhgaTTiFSwIPNPX2kEgF67qV3NZgDbpoU4uNhWUXBnZeCgIHQgLiRLFxj6mGlFp87IgjiHMlMEF7oEytDRDFirFE/nbgSxuD+oDC/bKwxQ7sgJjEfRKTkOAglCC9YgLEu5s+xXEUT6iNA4U7Kuuaee26zJgwWjWE+4Z354DaLizOWgowJF5hjeck8sNrMteQ6b8YN15ZrCqNkHzBHyIQR4hUCZl+WMF6w9Ew1Ns+SIMKFax6vx5qS6+I868di8txzzzVBju/0BQeS7GCRSYKdTIVxuXbJeytdG+pi/UlJ1YZ5InZiEYkgD3usTRnn5Zdftvss/vsK49COuIapxEHaIl7jtsx5ErEQtzFc+9CH3kVABERABERgKBDo2/+SGQpEtUYREAEREAER6IFAa2uLCWRY0+EyizVguRcXKrz4xTFebMj9//uNcpmJY01NzVa3s2u/sXfdrcU6z5fKp8i9kHWw6a6srDDLwSBahFlGloU1XmBrsPWG4+GdjT9aGKII/ODTl4XxsaSi4CaL6yYiBq6kFBJ97L///iZY2IHEP4hJzD3EceM0Qgsx2hAIiWF35ZVXmvhF5l0SfKQSO+LdMj4iIwWBEQsxvifFFVgxPoVzCCYIWpSXXnrJ4hEGa0E7OOkf2oS+gltv/Hy2nxFePv74Y4uTh+C00UYbWWbi5PrCNSVeIuNieUgMPdqGgqXeOO+6u9xyy4VDRXmHEdcYEQrxiHnHLdrCoIFRuLbheLHfmR/uzYiXCy20UEqRjzkg8gUrR+4N2mVTWBciLtZ6uKgTp5CYhIwX7qEdd9zRsndn0182dbCG5IXoh1iYqvDcCDEdw/XgO9coeT/F21M3iOnhOGtE9Kctv8vLfSbwsd4qsTf3euhb7yIgAiIgAiIwEAkMhJ3FQOSqOYuACIiACIhAWgIIIVhVYUGHsEAijuamBr/5nuA3xhNMPDQLwrKJJgoimiEkxgv7fF70xf8Vu9g4jOVfiAy8EAqiFy6sxFojuUGVbcTZkGMtyAthsKamztbKBp/1xAt94ELNBj5s+uPn+czmH17U7cvCerGgQ9Rab7317LoROw2rLRhgzUTB6o24gYgLyReWWwgfWOQlrZhefPFFSwBBcgQKbrgwYgwEjEyFvojBh2iDwDfvvPN2a0MfjEu/iJDUgyHulqyNRCUjRowwgTE+b+aL6EjbVOJhpnmlOkc/ZHX+97//bXxI4sG48cK6EaTgioUaCT4QYMO86AMRFM7FLrAl4QuFZCAIk2Ee4T1c08ApPie48xvv6RrG2+TyGUawwaKPwv3HePHC2AicxOajcK/xvMmmICqybgrJd5599ln7beLWzPr5nfZkQZjNOPE6COW46ZPFOpXYx/0KawRRCtaEcODFb4z7I90ruW7YkFwFARo3ezKNE3+QtamIgAiIgAiIwFAl0Lf/lT1UKWvdIiACIiACIpAgwAYYQQQhgs2r3/t6MSFy4yMBCe7EDfUTvLVdY8rNMt2VlfkEJYiDRdQH2Xwj+tXW1vnNN4LRcG9tM8y/wnu0Ka+bdG6YHR/u65ORtM7VeHGw2ouECAqsETErXug/xFfkfFSv+4IQTHFxRISkTaEL1wLXb0QWXswTYZAxyRJ8/PHH25AIJXfddZeJmcwDkeb11183EWbUqFHWjr4QM7jGCDjER8Majsys8bkj1JFYBJERMYZkJQh5jz76qFmv9bRG+mKOt99+u3FDZERAY+6Mz9yxriKhw1lnnWXZYBE2EVPuvPNOO4+1IutjzmHetIPFAQccYILNHnvs0e269TS3VOcRb5gHQtViiy3WIVwl6zJ3Cr+NILAxJ46v7uPMkayi2IXfJG7OFIThZZZZxphEQnWU3IW5XXTRRSZ6Mi/4hYLlHlmbERbDesK5nt4ZI9yH6d5h8+abb1rcSfojCQxCfLj2zIX5kT0al2wEV6xFaZdrQbgPa6BP7jnuV0TzTIVrlm7+4Xi8XzIlI2jut99+dm9gRRjOh+flrrvuautEQE8+SzLNJX6OvhjnvPPOMzbEHiT5CWzCvOLv8ba5fi7r4z9o5Do/1RcBERABERCBOIHs/owYb6HPIiACIiACIiACBSAQWQcieCGktbR0xh2kczbGYXOcbjB0soltPddL1z6b40EcjAtbNm5Mw0M0mOgFvHY/Z3v5737yHd1j+Ucdqxc7TgXWT2bmKKPzRBMj+Y4bcbLQnsKciGFYyLL88subpVywNEJAQIgiaQKiGyIJWVAPPvhgEyaC0IKIgfXRpZdeapZPWCCRcATrM6ywsIJDIKQ+WYkR3oKrI0wROR5++GFzmSX+GQURkkQoYS6Z1okodMopp5iIhWUVc7nqqqvM5ZkkGwhEJNnA8uraa6+18WhDTL8TTzzRjfUulXvuuacJJswP92kEJRKEbLnlljZX4geGOWeaS0/nWG99fb2JWddcc003ay3GICYjBf64fvIiGy6CFGvZeeedjWGqeHo9jZ/LecRbrDOxetxqq63MxZjrw7X68ssv3UorrWSWdQiHCFvEwAv3BOvEMo1kLA8++KAJs4hq2RbiNCK+pVsjvwP6RQTE9ZnYjiS2wTqT+HncP7jObrjhhm6XXXaxYbkP4wJmT3PB/Z37Has+EoNwryBcc09uuummdt9wL6dKbhL6JrNzquQunIcRIhxiMWz4Pn78ePuO2IqAjZUpY3LP0Nc+++zjNt98c7Pe5T7PRyDkmcqcua5YECLQ43qNdW2qwhyZQ7i2qeqkO8Y9VOV5BXE7XT0dFwEREAEREIFSISCBsFSuhOYhAiIgAiIw5Aiw0SfpCHH5sLTDYjDX4vfVfvNa7vvJ7I6aa7+hPsIdYhxWftFn3Cbb7DSWOIzvt/uhek7vzJt1YwKJpSRiIeJfpReKcKlGNIgXRMP29mqzliuUQBjGGDNmTHyojs+skReCAuIgQkFSLEBAOOOMM0zA2HrrrR2veEHIQFxCwEGoixcsJhFDDjroIDfzzDO7zz//3L3wwgvd1k4b5hpeoQ++E4sO4QxrNoQiXghr8YK1FCIm4iCFca+44gpLirL77rtbe/qIF9aNxRYJU5JrjtfL9TMi5AUXXOAOO+wwaxquAe+IWFhaInwhzvIKBaGIdsQfRKBLltBP8ng231O1ZS5YluGCOnLkSHf00UfbK/SH2ISQiwCLoBYXdHH5pZBMI1txNcxhrbXWcrwylRlmmMHupccee8wdfvjhlnkXMY9XvLAG7ouHHnooftg+h/G6nZh0AEF5xRVXdAsuuKDFxIzXe/LJJ00I5z5L9hO+Y9EaXOfjbcNnfhdkDybGIW0QCkePHm3Zu3FfRuyEMfdhYIslJPEQEZK5h3MtCPpkNEYcpCCkhuRDqfrit8U1RFQM60pVL/UxrK8jgTD1eR0VAREQAREQgdIiIIGwtK6HZiMCIiACIjDECLS2IkC1e0sTbxXnxSc2w9kUNs5YprABxZ0XwSwS0AorFCJihviHkUUTVm9RIpHcN8ydK6Nttc/eTGKWJh9/kbUwFtaD1f7VVF4fN0K0hpFYQB1iFUaCZb5zoB0WUFj6YRGWLIgVJPLAigwBjzq4yKYqzBvXWfoiccMss8xi1wXro88++8yEOBI8ELMuWbAyQhTE6hAhhtiAb7/9djdBjnokzaAf3JqDYBL6w4INyy7EPlyVETQQQ7COwgX5gQce6GaRRh+4TtMnIteMM85obBHicHtG1CRBSHKsMGbyHV5YgdEGJukK15FYcyNGjLAYiKyf9VEQfZgva8S1GZacw1UbgfO5554z60KEVsQbriPnGZtzCEjJ+TIe7OD6xRdfdJsW7d99911HfD2uc5gLFbEOZB5YU+JqzDVkTO4PLPVgxOf4mIw3duxYs9677rrrzOKt26CJAwiwXHvuGdpnKoh+QbDlnkTIQ3TF6hMrUhjSDzH6OIeIyJrCb4XPrOv5558367zQV3xM6iDccT/j8osFH2tH1Lv//vtNdMRCEqZkHg5z5rqT1Rl3Zn7T6UpgyL0WCmOSoGTbbbc18RjhDhd4RG1+q1y7cT5BDQmBkkJ76KOnd8bgN8naw5wztWE+8AnsMtVNfS66P7N9rqfuQ0dFQAREQAREoG8IdP3TfN+MqVFEQAREQAREYNAS8CJD5t19bOVeZ/CCTI0Xbmq9MNhqcQez2bSGLti0Vk4S1Nj4sgltaUEojOK1hXqFeGcshDncobEgxOIvkwCQekzQ8J8eiIPVfuNf5/sgaUm97zPCNnz4ZH5DXumFiz9S9s8cYFbuhcX29lYTPqqrfXrjPApiBgJFKjGL9cIUcYAxU4koySERbhBmEJoQbrAuQ6RjrfSRrjAWsQKDpVQqIZI6iCQINMwFsSZ5r9Ce87RnDogb9IuwyxzSFeZMW9ogLOJ+TD98zmbdoV/6Yb2MFywVw7nkO8ypy7ihfnw9sGS9xPJDfGNO0bWvsnbce4hEYX6MTX044eYd74uxw9yYVyR0d86INtwHjMm55Hn6ggf3w9RTT23vWAyyBvrjeLLQFy/mnol9aBe/B8KxdO/UJXFMfI3wYI1ce5hx3RFQ043P3FhTOl5h7HCd6Id4igi1tGXdjAm3cP1ow5y4Dsylp8LYXMMkP/rg3uD4CC8isx5iZyI8ciwbnunGZkzWzRyzKYyX6n7Kpi3PNJ6TZKAPVtfZtMumjv9taw+XDSjVEQEREAERyImA/sclJ1yqLAIiIAIiIAKZCeQiECJyIcKwCa337sWIJTkX/7/kWOFVVuJ6W+WlNx/by2/gm5sbUwpfOfefaIDlHoJmlHm50cSCRBX7yppIohIKG3NeFNaN2GPCi7cebPNCA4Xv1V6gqZtkEZnMdmyV/D+IQoiIFNbcG8HAOinwP6wjlLDm8L0v3vMdP7Trjzmn41Jqcyq1+SS5hflxvNDXkb4L3Wdy/snvCJRhXJ4pA6kw9/r6KAN9/LoUYg0SCAtBUX2IgAiIgAgkCcjFOElE30VABERABESgDwggniFsIZZhzZKXOMg8vRZF2/Z2sh23dGQMRkQLbseF3JzSJ/1h/YeLMFoYVoDxwtiIiKxtkiY4SVjo/Lsk7ZqbO8VB2iM+tHpxs6yuzERAy9LsE5wkC+sNvMrLy8yCqZBrTI6X6/e+FlGS88t3/HzbJccv5PdSm1OpzSfJupjzK2bfyXWE7wNNFAzz5p1nElaWpfRsis9Pn0VABERABEQgSUACYZKIvouACIiACIhAHxAgMUmUrbfVW+Fl5+6Walph044oV+YtbMJmlO9Y+2HFgvtyIUuISYhIiBBIiYuEjImFH3OLxm/zOqb/P3+c76iauN+lcrvjPJtq2tfU1phgiBiIoGhqKG+xEtYbO6SPIiACItDvBHg2pXrG9fvENAEREAEREAERSENAAmEaMDosAiIgAiIgAsUigFUM4h0bSMTBXEUu2pPtl3es9EwcnGSqFwQ5xLRiWq9EIuFEy0KMUNjURAbaKO4Y65kw4XezMiR2WYtPxNLs43BNTGENmGSMqEjcLlyvq32sQV6IiVhHRpaDUTKTXJklx9F3ERABESg2AZ5T4Y84xR5L/YuACIiACIhAbwlIIOwtQbUXAREQAREQgRwJWPZebyEXEn1EYhcx+rLrCMtDRDnakQG51VsIYp2HgIZAiBDHuajf7PrMpxbJCijMhRcbYURCxmUexBDkOCIfsRFZbzZzwhpxwgSsECPxM4pZSKIPZ/1akhTv6tyWcG3OZw1qIwIiIAIiIAIiIAIiIAIi4JwEQt0FIiACIiACItCHBLD8I/YgIl6Zj59XPclFt9zHJAwCIYIY5xHUQqy9MEVEuApvlYdI1pmBt/hiYBg/+R6JhD4O4KTssMwvxCnsIhJ6i0lKtiIh6+OFBkkswpCNFddj4g5iHdk6sWvsw+Tc9F0EREAEREAEREAEREAERCA7AhIIs+OkWiIgAiIgAiLQawJYz9V6IY1iSUq8ZV3Soo5YfRgSlpV5czlfsMJDaIsXshYTVxABLdk+Xq+vPkdWg+3eLXi4q/TWjcGKkPEjkdC7DA+L3Ko5lxQ9M83TBNGOpCfltuZGn9Sl1ffDORUREAEREAEREAEREAEREIHeE5BA2HuG6kEEREAEREAEsibQ3NxV2ELgC7H5/EfSd5g7bpUXD6u8T21NzUQvEuKaG4mEiGLEHmxp6SoaZj2BIlWMREwWwHq6DoKOh5QXXKC7nk39zdZJohUvOFZWRhaXWCY2kUU5IZim7kFHRUAEREAEREAEREAEREAEsiUggTBbUqonAiIgAiIgAr0kgOiFi22yRIZwndZwiIYIbhzHtRahMFjlRe7H0flSsB4MayEuIlaRra2dYmY4FyVUqTBryGzmbNaV3iWZdcOMBCWIg60+2UmqTMZhHL2LgAiIgAiIgAiIgAiIgAjkR0ACYX7c1EoEREAEREAE8iKA4NVToY655noxscbHKKyu8Zl8vQUhbrXE4KPgXlwqhfkyL6wcSTASL1g7cq7Nzxe36GwKomiNXzP1m3z241YvEE70mYxVREAEREAEREAEREAEREAEikOgvDjdqlcREAEREAEREIHeEmj3WYmbyfzrxbHamjpztS2viOLwtZeQYEa2YYRAMipHrsadKw+ZiFtbWv357EVNdFQEQgTHTOJgNoJr52z0SQREQAREQAREQAREQAREIBUBWRCmoqJjIiACIiACIlAiBBDVmpoafHKTYT4JSJ2fFdaFpeNqi0CHKzACYfcMxZFlIW7BqawHaRsyNncVFiNrQYvJmAxoOOm6RONW+7GJT5i/dWEmgTHXfqP1kI26zObEmnLpA4a8aJNN2zBOKdyqzJv5ZDPv5HwDt7Du5Hl9FwEREAEREAEREAERKD4BCYTFZ6wRREAEREAERKBXBFpbI0u6ah+Xj4Irb1dBrVfd96pxJGrhXtxdBCwvRyCssLky3yCA4XJc7o9XVRJjEHdpZzEGW1qarC7rRQglFmFSBPNHfabkKi+Y1hmHfCfPfIcNG+ZWXHHFScJr1544/+WXX7pff/3Vff/99+6PP/6wuXStxbWY6Kqrq93888/v5p13Xrfooou6ueaay3388cfu1Vdftffx48dbPdYSL7Tl2Jxzzunmnntua7vAAgu433//3dq+9957jtfPP/9ssShDW5gutNBCbr755nOvvPKK++STT8KpPn+fffbZ3ayzzuoWXHBBW3eY8xdffOE+//zzLvOOTw7he6aZZnKzzDKLsWPdP/zwg3vjjTfct99+a+umfpJZvA99FgEREAEREAEREAERKByBrv+lWrh+1ZMIiIAIiIAIDEkCU045Zf7mbD0Qw4KQ7MZkNcaqsBTEE8QxrBvJztzY2OBX0Ll8LAvr6oZPEgjbzFoQcQthjBdWhQiHkRuyj1Povzf7OIutLS1ussmmtNiDjQ31VjegqWI8726NFWWLr4foOHz4sC51Qt1M7whUI0aMcLfddpubZppp0lb9+uuvTbQ67bTT3AcffGDWkqEya+CaHHTQQW633XZLeT3gcsEFF7iLL77Y1dfX21pDe67fZptt5g499FA33XTThcNd3u+++2531llnuffff9+ESE7W1ta6448/3m2++ebulFNOsb77+l7gum255ZbuwAMPNIGwy6T9F4TCM844w91zzz023/h5uCGkHn300W6ZZZaJn7LPv/zyizv77LPd1VdfbfdHX6+t24R0QATyIMAfOvgDQzHuX9+v9nB5XBM1EQEREAERyExAFoSZ+eisCIiACIiACJQMAYRBMvkSl68Ym85cF4qFX0VFlTWLkpN0ioPMD/EusgSMXIlN1PNzb/MbZz4HoZB6CI2In4iN7VVtdh5rwXihfvkkq0KyOiO+kcwk30J/EyZMMIFw3Lhx7qOPPuoQ8BA3sQRce+213TrrrOOwcNtrr73cO++801EHgfK6665zK6ywgmtoaHAXXXSRWfRhbTj55JO7VVdd1Y0aNcqNHj3a2u+7774dghdr3mmnndwRRxxhouONN97oHnroIffTTz8ZC6wRDzvsMLfBBhu42WabzUTEd999t2PspqYmWzZz6OvCmPvss487+OCDbe5XXHGFe/zxx83ycaqppnLbbrutW2uttdyZZ55pVoKIo8OHD++YJmu79NJL3QwzzODuu+8+E2mxHkRshdnuu+/ujjzySPenP/3JIcxyLVREQAREQAREQAREQASKS0ACYXH5qncREAEREAERKBgBBC2EsVIpwYW4dZIlYHxezBULmokTG0zsQxBM5xbN8Uj8bPXiWI0lYwlxCxEa6YvCZ+ryPbziY/bmM+Lc008/3UWMQsTD+u/CCy90iyyyiH1efvnlvXXjZN6Cs8lttdVWJg4ibiGWPfnkk13myveXXnrJ2q288spuo402cjfffLMJgAibhx9+uI131FFHuVtuucUEz7DWF1980d17773ugQcecIsttpjbcMMNzV05l0QvveGRri3zQ+xj7pSTTz7ZIRAyL85xjR577DF3zjnnuI033tgE0ttvv9399ttvHS7m66+/vomDl1xyiTv33HPNsjKsm2uA1RU8EWZpi3Abic3pZqXjIiACIiACIiACIiACvSWgLMa9Jaj2IiACIiACIjAECXgdyAt5xBAsM5dg4iImC6JRczNWjy1pxcF4GwTFBu9S3NRUb6Ii1ofJEglJ3pKwvCJ5qlff6RfxMf5iPohTWMBhIYgl37LLLmvCJ+dGjhxpY1IHYSsIZDChIGrddNNNFk+Qc1jOhf75jNUkcfpeeOEFExxpQ1te1P/xxx/d6aefzmGLUxi3wrODaf6hLa9iFK7pwgsvbHMkRuOzzz5rwiZjhXVT59prr7XhEVOJr8i6KbiTI/zhRnzXXXeZBSfHw7p5hxll6qmnNtfrYq3FBtE/IlCCBHh28McSWc+W4MXRlERABERgEBOQBeEgvrhamgiIgAiIgAgUj0CUoRjxJrgLF2Is+sM6r7WVTM0kMOkqPLZ7IRLtq9ACYbq5V1ZWurfffttEMDbrJNV47bXXrHoQxLB+JL5gKndnXI233377DqtD4gfG14TwyCtVCQIj7ru49eK6nKnADtERa0c+v/XWW9YuzDNT21zOsVYKc0o3dxKthBLcofmOeEj8RBKvIKymmhuu4xTcv7E8TFXHKugfERhkBLjXTRysqfXiYLVr9s/C/ggjMMiwajkiIAIiIAJZEpAFYZagVE0EREAEREAERKCTQJRYhAzFbSb6dJ7J51N3azcSlvDqVlAHfSIUNtF9VRAJ2bgjuiFaURALEe4oCHK4ACMUIm7FBUDaIaj973//M9dZ6jN3knhQj+zHJPtABKA9Alq80J6svsQmjPcbrxM+MzYxC3H5veyyy9yaa67ZYd0X6vT2HRbM/bPPPrMYjWussYbNi7GxqmQNzJnYixTqxWMnsoYnnnjCvfnmmx1Wk9SDLQxgtffee3PIXKrJBk1/KiIwuAlE7vnV1bU+Fucwn+G9epL9dPdn4+DmoNWJgAiIgAj0J4G++6/r/lylxhYBERABERABESgoAZKTINwg4iHu5FY6XWArKytcpbeUyVYEiqwVcUntdGnNbezcamMhhwg2bNgwa/jGG2941+pKEwgffPBBy2wckmkgzK277rpmSUgcPcQyBDEEQQTVuKiJGEZSEwrJT+644w7LhDz99NNbsg+EMgQ3SrKtHUzxD+Ii7rw+k7YlXhkxYkSPomKKbno8xJoQ8UjYQpKVk046yZK5zDPPPCaUElsQ0fO5555zY8aMsXXEry/iKgzhASNEV/rEdZmYhHvuuaf75ptv3LHHHmsWivG2PU5OFURggBHg+VleXmkJmrBCJvlTS0uTf652tZ4eYMvSdEVABERABAYgAbkYD8CLpimLgAiIgAiIQH8SQLBB5EHUaWlJYeWXYXKR5WGlF70qvUhUYZthNsjEKWxqigS1DM39ppmz/IPoVri/c7KW8Arjs06Erl133dUELeLqfffddx1iIVZzW2+9tbvhhhvcfPPNZ+IgWY8R6nCfvf/++y1DL1Z0cXGQ/hnr//7v/yzOHll/l1pqKbfEEku4sWPHmrUhiT7uvvtui20Is2xEMtyXyQ5M7D7ceq+66qqUbs9hffm+sxasArfYYgvLrrzDDjuYG3UkdJTbXI8++mjL8MwxxMBUBTdkskAHK0TWiaXlCSecYMcRZzmmIgIDkQC/We5ffuuZCmEBamvr7FnIHwXq6/8w92J+Nz21zdSvzomACIiACIhArgRS/xdbrr2ovgiIgAiIgAiIwJAhgDhIDEASkKSzcmFzHL0iIa/cb5SrzVKw3CwOEY5MGGxr8a50CI7VJhqSpRnhLV2/QEYk9N37gkCYq/Ui7boXrOCwZAtCHCLYCG+Bh+Ug83z++efdMccc0yEOhh6IpUdWXjL2IvTRpq6uzi2wwAL2Gj16tLkiH3rooSZ+xQUvrATJBnznnXe6nXbayURC2s4wwwxuu+22sxdJTLDSIxlImFsYO/nOnEn+gdUeBWukpDCZbMN3BIopppgi1Sk7xvrJ1BzG5zsi5N/+9je36aabmmsw7LCKpC8sGPfff3/7jHjKuVTzoD8sLb///ntjjCDC+nGTRighWQkiYRg37QR1QgRKkACWgMOGDbfnFZbWIVkTvx9enK/yvxeLXeofY03NTa7RJ2nifuepVpgnWwmC0ZREQAREQARKloD953XJzk4TEwEREAEREIEBRsCLIwXZ18VFETaTpVMm+oQbU9jmtrGxwYtCzR0CDiIQwmH0Hn0OghiCXxtWet66DquYNh+7cCLv/jv1yYhM1k6sChGaEAlTui97FlU+gH+Nr8v45eVljkQguTJi3DnmmMOy7ZKdmGQYjGmbcz8GfbJxRwC8+uqrzdovnE9eC8aOEqu0usUXX9wttNBCFpeQ2ITLLLOMWRFhcbfPPvuYZWFgEvphvQhhiIu0x9WW19JLL22uwkH0e9zHPGQsLAWPOuooExBJ+IFrc/x+Cf1m8861+Mtf/uJOPPHEtNZ6uAEvt9xyJiIyPpmJzznnHLf66qtbLMFx48a58ePHu6+//toyPTPv3XbbzT7ffvvtJnCG2ITxOdEXmZkjwbnc1krbHXfc0Rjed999JqAqUUmcmj4PFAJtbe3mQs/vPbKiLYueff7Zw/OQZyXneCYiDiIghsKzsNo/55q9VXWzP5csXljXHi4JRd9FQAREQAR6TUAWhL1GqA5EQAREQAREoHAEEHrYTCKYsYFkI9niN45t3qKqFNzNbFPr42W1TkoggsVYJApOirHnt61YBCL+MPfgNkzswHaOeUGKc0HQCoIcQiPrQyzCmrCurtLER0Q52nYU339oH/roONeLD6effrplJ4Y9/c8888zuggsusHk+/PDDHRv9VEMwD0Q7Cgk8yHp88803u2mnndbEt7PPPtusCbESPPLII7sJcdGaq8xKD7fke+65xwTKP//5z2a1yPvOO+/sXnnllY5EJ6nmke8x1otIme7+4lwoCKEInYiDrJXPn3zyib8HEITLTTBkns8884ytA2tArB9xzzZLqdCRf4cb1oWMT8FKkeQlCKH/+c9/zGWbzzfeeGPH/WIV9Y8IDAgC0e+KZxtCYBAEKyy0gt+C+fu+tbXZ/riQ+rfnn5eyIxwQV1qTFAEREIHBQkAC4WC5klqHCIiACIjAoCBgliPeegTRBAs63NBqa+pcW6W3MmlqMIu7/loocyLLJptWxKAab+FiAh9H2ieakIdlHpaCExEETQxktl0tINMJe6w3erV1CIVsqgnYj8tpJCR58dH3S2EOiJCFKB988IEJcIh1FISqe++916233npmDXfYYYfZRj6MxVwQLynBAo7PCAG8KFi+3XbbbWYNSFKPOeec00RDYu/Rlj4QJEN91oPgSmG9L730ksX4QzRcdNFFzYIPl9xCFsZkHGIpprsuzBOLSgoC4SabbGJzRwSEW0jgwnn6Y03we+ihh8xdmPiKuBpTuD8QHFkz3BgzPi59ffXVVyYuYoWINSbia2BtnegfERgABLivsYjGMjAS2X04BX+M3wghF/hd8Ycf3pMFy2j+z59MntJ3ERABERABESgaAQmERUOrjkVABERABEQgNwIIKwiEWMxheYeYgkCI5RVWdW3tVf0qELIaNq6UThdhLBu9QOiFukgQ7P2GFosbNtXE5yJuIQH8Ecyi42yoI1EwKS7ZxPL8xzbtbNz9i8Km/bzzzrPsvBtttJG78sorTUBkTNZJ5uLdd9/d6iJ+YUUXhD476P8JYgDZfim40xJj78cff7RMvbPOOqt79NFH3RNPPGGimlWK/cNcqIv7MTH/gngZq1KQj4hvP/30U8a+WAtMEOtmmmkmuw9xfeZ4qgILErpQpplmGnNLxlpw+eWXdyQ1QVy89dZbU97PrBvXbgqxEfldSCA0HPpnQBFAIKy252N7e2SFa6Igf0Txr8yF31v0HMpcT2dFQAREQAREoHAECpf+r3BzUk8iIAIiIAIiMCQJVHoxrNwLLiGeHZvJTrGw1YtlNf3KBTGIuH8TJvxuwfT5jHCDmMeGl/kWqtBXs7dWa/BB+xEHEUhrvCUlAmoYJxKnUgtUhZjHp59+6q6//nrrilh/QTxkXNxht99+e7fXXnuZhSHrjwukzDESeMvcZpttZn3QBgtAzo0YMcKSfNAeV+QkP/pi3cT+Q1QkEzJCYU+FvhETp5pqKptPT/VzOR9d/0YHF0S7kSNHmoAXnzvjM28sDrE0pCAUYjUJP9puuOGGbt9993VzzTVXl3UHZlhRYrlJIUkL8QtVRGCgEeB+5sVvJTw7cllDWVnhnqe5jKu6IiACIiACQ5eABMKhe+21chEQAREQgRIjUO6tBdsnWeLFp4ZYxAuBBrEIi8KKis5NJ5vQvirMIymGFXNsxsK1urGx3obBmpAX8yDaYfQqzgzIMoyVGwIXrq4IgljBcR0QcS+88EIbGAvD/fbbz5KeIAb88ccfJggggJGleNVVV7X5PvLII+Z2jCUgFokIaSuttJLVIc4g7rWMyXFEQ9x+SUZCwV0Xa8JMhXa4Ip955pmOmIpkUuZYIQv3HzEVKbgOH3vssW7BBRe0exI2nF9iiSXM+hLLQQRRYipS4MYaSD5CYphDDjnE+gjr5jzMyBZNkhayGz/uYxDGYyBaR/pHBAYAASydCZnA753ndW4lynLMH0X44wi/DRUREAEREAERKDaBXP/XqtjzUf8iIAIiIAIiMGQJtE9sc5VlxKTzQmEsMQebw7BBJAYgMf2CWy/iYDMJJix+X2TFF+qmA0kb9pvE90Noi76X7gaUtWKpiFjIZplXWENPa03HIJvjuMmScANhb5tttnGjR482cQvBECGM7MHUGTNmjIl8m2++ubnGYi1Hpl9EvrnnntuGQki78847LcYgc/7oo4/Miu6EE05wW221lVthhRVMiAziIhaAiJL0Tybgiy66yETJTOuFEdaKCJIUkoi89tprZsFkBwrwD9Z9uEXvv//+7qSTTrJMylgSBitBXIIR/6affnoTA2H23HPPmUjC8NxviJc+27f761//atmeiTlIvEbcl2eccUY3p4/ViIvx3//+d/fGG28YgwJMXV2IQJ8S4LdKiAj+fsPzKpfS1BTFKOV5X1s7zD/7Wsx6O/rfhdJ9VueyRtUVAREQAREoPQISCEvvmmhGIiACIiACQ5RAS3OLq/EbwirvShy3/Kr2FoNkNW72sfmavFsvbrbl3iKl0otHbELragl4j4WWm+Ty2+rbRwHxkxtTXN3YdMbj2RHbr7m5ycSbUkaPQNjW1mAZlM2qxiwIc9t4x9dn7LzQR4FLklWoSzZjhDcs4rDo23PPPc3aD0EO4Q4RCxfkeeedNzTpeMdF9qCDDnKvvvqq9R8EPt4ffPBBi1149NFHW7ZjhLV4QSS7/PLLLZtyJIh2CgMhmQkWi6FwTe+++2638cYb27XEci/UC3UK9U7fiJwHHnigzX322Wfv6Jp5M4/jjjvOrADDmkMF4jWStAWrS7IcY4kYChaHZI0eO3asJStJtg319C4CpU6AexeBP8ROzWW+WB+GUBNYEVb63/Yw/wed5uZGWdTmAlJ1RUAEREAEciLQ+V+aOTVTZREQAREQAREQgVQEvGVU3ooVG0oyA4c4e4h8CFe4p/GZeHwdIhZWgJPOcZ6NKHXpgxf1QkbgSGxkWmVmpUV9LFEi0SlKzNHqLRARHxHhBkYhG2iZCZ1Y63VwyWHytGETzjtu2/BLVeL14JwU3bCKox+s5xZbbDGzGsR6D+EQl2H65pqkKvSNCy3nsRjEtZbkHy+88IIlDkEAjIuAoQ/a8GIu8fPMhb645uGeCG0K/R7mzj1DwpV55pnHkZAFa0LGjovQqcZmjryIV7jIIou4b775xmItMn/apmOWqi8dE4FSIxCeC8H6Od/58VwKltP8rvhD0bfffJ36gZLvIGonAiIgAiIgAp6A/sdFt4EIiIAIiIAIFJBAbwRCpoEogkCIiMfG0GISegEmErKi7L3J6SLU0I7NIy5tvIfPQfQKwhHfsRZsacFiMIpzhRhT48ckM/GECX8kuy/p74hv+QqEhV4Y1wHBC9ad1yD7/9RCaKP9QBTIWDPzZ93hnsuWL9xoS7tc22Y7huqJQF8T4DcxYQIxRVvy+gMG8w0iOc91/hiAUEis2s+/+DT7B0tfL1zjiYAIiIAIDFgCnX4pA3YJmrgIiIAIiIAIDB4CiCVNTY2ThBL2gFEmTI6nK2ETicjiXJtZlhHHkL8DIrggNmJlxmfc3cg+HMpEH/ewqSkSZ3BtRixUUohAJ7f3IOzl1qqzdhAVO48MnE+9EffgFreCHDir1kxFID2B6A8GuYuD0W8pEtr5jDgYvfuxENP9M1tFBERABERABIpBQAJhMaiqTxEQAREQARHoJQGsT/ItXm8xKzba40qMBYsrq7NNJhZqqQrHiXNYXl7p96DNHZYrqerqmAiIgAiIQGYCCIQ8x8MfcDLXjs6SOKqubpg9qzlCH9ErstBt8/1N9JbfKiIgAiIgAiJQDAISCItBVX2KgAiIgAiIQKkRyGCBiJViKMT1UxEBERABEeg9gWBZW+afq96eu6PD1G7HEy0ZCZbEUdxCwhUgEEaZ5nlXEQEREAEREIFiEpBAWEy66lsEREAEREAESoRAZMnizJWz++Y0xC8s8+7FxMArkUlrGiIgAiIwQAkgDgZrQBJKeaVv0kp4zlb60A4NZh0YlsfpSh8OAiGwpbXZtaWx9g719S4CIiACIiAChSYggbDQRNWfCIiACIiACJQgAeIKktADN+LKSrLHtpj7G5tYjhF7EHfk9nZckKUQluAl1JREQAQGGAH+MBP9ccYnnLLM8dEfaaJM6FG8WVyIKVEszgqrP7EXISYGGCJNVwREQAREoIQISCAsoYuhqYiACIiACIhA8QhMdA0+OQkWLbza2qJsu5ELXAWpUFxDQ71tTos3B/UsAiIgAkODAMIgz1SEvyACsvKW1gpXW1vnqnzm+HYvDjY3NfmjZD5nWxbVpa2KCIiACIiACPQ1gc5gGH09ssYTAREQAREQARHoUwK4rNXXT7D4VmTGjKwJK82ypaG+3ouGyo7ZpxdEg4mACAwJAoiE4YV1YFNjo2v3z9saLxJWV1d5BmScrzAWPIfjguKQAKRFioAIiIAIlAQBWRCWxGXQJERABERABESgbwiwKW1si6xaEAhrampNGMT9TUUEREAERKD4BHjeNjU1mjV3dTXPYCwII4EQq0IVERABERABEegPArIg7A/qGlMEREAEREAE+pkAFirtk7Jikl9TRQREQAREoO8ItLW1WKISRqyqqvYW3ZHdBsexNlQRAREQAREQgb4mIAvCviau8URABERABESgRAjg6kbGzLJybUZL5JJoGiIgAkOEAIaCJI/CvbjaJ5Aq92EfKG2tsuY2EPpHBERABESgzwlIIOxz5BpQBERABERABEqDAFaEvDpiY7FjLXAhrpZZw3gN0gLvTxqzwMMUpDtYtPo4jbyYM5mdg9tfqgFCIoHAL1Wd+LFQn8Qw8RKOx4+Fz8m64Xgh3xkfoYLYZ1FW60pbt123HAfKtJZ4V32xrvh4+iwCpUiAZ05LS7P97shszCM4PJNLcb6akwiIgAiIwOAmIIFwcF9frU4EREAEREAE0hJgI8orEvEQrQqTOZM+cZmr9gH4sU40Ac1bySAeYbHY6AP0k0U5HwEq7WJ6eYI5TTnllG7ppZd2Sy65pPv+++/dCy+84N59990O0Sw+BGukPm6B9T7BS0NDg9WL14l/Zq3URwT45ZdfTIzjPELZFFNMkVaI/Prrr40T4wQXxHi/vf2MMDjVVFO51Vdf3c0zzzzuhx9+cC+99JJ755137HrlIuRRl754h0+6ghD566+/ltT1TzdXHReBYhPgt0I8Qgq/x1J6LhZ77epfBERABESgtAhIICyt66HZiIAIiIAIiECfEkC0q6jAirAwwyIOEXQf6zs2umx+Q1ZOrPEqKqrc8OGVPpNyo98UN/tB0wtJhZlRz71MPvnk7tprr3UrrLBCt8oIh4cffri79957zbIwVPj999/dLbfc4pZaaik3fvx4t+OOO7qff/457eZ+6qmndpdddplbfPHF3frrr98hwM0wwwzu6quvNnEu9B1/b25uds8995y7++67bQ6IkYUqXKtddtnFHX/88d26RBgdPXq0++CDDzKKffGG0003nXv66afTip2h7htvvOFWW201E0zDMb2LwFAmEETCTML6UOajtYuACIiACPQNAQmEfcNZo4iACIiACIhACRMoTyts5TJpBMG6umHe0q3KxLSmpgZznyPGVijVPmtyrY+3VVNT5w+VdVjOhPN9+Y61DgLfxRdf7BDqvv32W/fll1+6L774wv3pT39yCF5zzz23O/vss928885r74idFNZKe8rCCy/s9thjD3fGGWdEbtR2tPs/oX5SBAjHP//8c4fwGCzweB8+fLgbOXKkW3nllU1cPO2003ptfcf4WCOOGjXKHXHEEf4aNLkPP/zQIdxh5chaF1hgARMlWdcjjzzSo+jHaiMBuMKE0u+++y6tsMhYmVy3u5PTEREY/ASSz4XBv2KtUAREQAREoNQISCAstSui+YiACIiACIhAHxLAghDrwUK4tSEMlpdXmnDW2FjvxbI232/XeHstzU2u3bsXIyTibourMTH/+rqwbgTAf/3rXyYO/ve//3UnnXSSe/nll20+bNYRDbfddlu33377uX333deEQ6z9arzAmSxY4j3zzDNmQZcvy5NPWL08OwAAQABJREFUPtk99thjZn1J/4hozHG55Zaz8bfbbjsTDPfcc083bNiw5BSy/o4V4kEHHWSWkVgoImxeeeWVJjyy7tlmm83tv//+Zl146qmnulVWWcVcqHtaF67SlDvuuMOdf/75aa8r1xvhU0UEREAEREAEREAERKB0CHT9r/bSmZdmIgIiIAIiIAIi0AcEgtVKT+JPT1OhPcIZMQaxHESAi1sOxttjhddoMbdIBFJdEHEy3n82n5nDsssu66addlqrjpst4mBtba2bbLLJHG7Hf/zxh7vooovcU089ZXUQ1XA5TlVod+KJJ3rhE8vIzCUwT9YijiEWhIzLizh977//vhs3bpzNg7E33nhjN//883fEMEz20dN3rssss8zitt56a6t60003mQUlQiGiHWv/8ccfHWLls88+awLloYce6iZMmJCxa9Y044wzWh0sMemD+ad60Vdv77eMk9FJERABERABERABERCBnAlIIMwZmRqIgAiIgAiIwOAhgKCHuIOlX29EG6zdcInFIjC44Wai1OatyBiXNrzyKcy3oiI/ZwjGnmaaaSZZMbZ1iIPxeTAv1oXwt80227gDDjjAhMN4Hfq56667zA139tlnd2eddVaPYlo6zhxnTN7Di/F5EYcQsY2y0EILdbHOQ/RD4MvGEpO6JCNBAKUw93Ad7ID/hzn89ttvNiZ9brXVViYURqJvqNX9HYtLCrEYqRvWkOq9e2sdEQEREAEREAEREAER6E8C+f0XeX/OWGOLgAiIgAiIgAgUjADiEIlCyGTcm0J7uspGpArjICYmXZDDuZ7fI+vDykrGzT3RCSLYRx99ZJZ6CHBrrLGGzT3ZF/WwiEOge/7557uJmYhfX331lbvwwgvNam6dddZxO+20kwl2Pa8h+xpYFga2uGaHwrH11lvPvf7662b1hwVgpsL6SJgS+nj11VdTZkdmXWRbRugj4QyZncP4qfqn32BBiPUjBTdoYhqS2RjrRPpM8k3Vl46JgAiIgAiIgAiIgAj0PQEJhH3PXCOKgAiIgAiIQMkQQFtrb8eCkEQinclEcp1grhId9UObaOzcRiwvjwTCPLRBGwjh7+2333afffaZfb/gggvc5ptv7uaaay4TxHDnJXlIsISjPq9UBbHtgQcecNdff72dPvrooy1xSUg+kqpNLscQ5uabbz5z/6XdO++8Y1aFfCbBCK7PJFXZYIMN3JxzzplRhIM1lohhbosttljHZ/oLhfNLL720CYm0IVlLNhaEzAdrxnXXXdfcou+//3734IMPuksvvdTtsMMOZrmYjYVpmIfeRUAEREAEREAEREAE+oZA6v/S7ZuxNYoIiIAIiIAIDDoC5d4abWCViV5QajfxyzTCPCdPH8iLWONlU6yuF9yCi3M2beJ1KnwWXgqJUPIpiH1YyB111FHu448/Nis3EpZccskllrjkyCOPdBtttJElKiE2YE/iGLEHaU/cPpJ1HH744Wapl4vFHKIk1nfE6AsvLAfnmGMOt+uuu5o1HqLmu+++28EZcfKKK64wofO+++6zLMyZBNcgjIaYgrgPI9jF58l3BEdiFVLojzXF6ySZcw4XY8TMnXfe2cRBREWsK2G3/PLLu3/+85/ulFNOMctCiYRJgvouAiIgAiIgAiIgAv1LIL/APf07Z40uAiIgAiIgAiVLoK62zmd8JYMvSToGRkHciUSl/C0ILaagX26lF+5wG0b4y1Sog1sybsY5s/LzjVyaIztE5p5JvEo3D1xn33rrLbfjjju6TTbZxDIWI2rxoiDO8SLDMVaBCIXpxDeEN8SxAw880D3++ONutdVWc1tssYVlB852bqNGjXJrrrlmh6UifRLXEOvBmWee2cbHWpA5hHmwhltuucU98cQTHclN0q2X4/T5ww8/uBtuuMGRfGTDDTc0UfG0004zhswVMfC4446zcWnDWAiRPa0DgRBX4gUWWMDiNZL0BYtC2i666KLuvPPOM3do+oMTVophHYyjIgIiIAIiIAIiIAIi0H8EJBD2H3uNLAIiIAIiMAgJREklKr3o1eRXl7/g1ldoEH2CQFdRUe4/52eRRz8tLU0+k3GtF4RqLJNxujUgCmFxxzuiWk/CU7d+fLt2LyxWeTHSS4XeVzk4K3er2eMBBM1vvvnGYghefPHFbvHFFzeRbuTIkeYmTDIPXI9xxcWiMJNIyLVHfNt3333dOJ95+OCDD3ZPP/20+/DDD3ucBxUQB9OV8ePHuzFjxrgPPvigw3ow1MUajziJ2RYyLp999tkmBO61117moow4iciI5SDZnREeEUW32247y5qMW3ImMY9rONNMM7n6+np3yCGHuMcee6xD6GReX3zxhQmY1157rVtxxRXdqquu6rB4ZBwVERABERABERABERCB/icggbD/r4FmIAIiIAIiMKgIkFm3wsdhw/JqYCwsCISZBKBsVtLU1OzXXuVFwhpfHcGwuUN8DO1hg4BI9mHONzU1ZhSeQrvke2trmxeXJvp+vPVg8mSe3+Hw4osvmpswotuss87q9t57bxPJyPx70003udVXX70jFmCqYWCIxeHVV19tloknnXSSvWcjgpJR+JNPPjFhjblgPYhlI3ESR48eba7FhRLUEGhx+WWd2267rUM0JIYhbs7ff/+9xVMkpiIWi8wFd+xM9wdC6/zzz29iL33zPV6YN3EaEUthucQSS7h77rknXkWfRUAEMhDg9xdZXg+Q/2HJsBadEgEREAERKE0CXf/rrTTnqFmJgAiIgAiIwAAigEVeoSSrvlk24hWvci/aOdfiX/nNH7fi5uZGL9zVuJrqWi8SVU2yEGyP+vfurQhHHG9ubjL300yiU6bVM98mP9awumGZqmU8h/Ui4hdzwvWWElmARnEUsQb8xz/+4X777TdzmcV1Fis5rOkyFdxqiWW4zDLLWKIP3GnPP//8TE3sHIIcST2COy/zWmihhczVd+utt3a4ATPnQhT4IeSdeOKJ7rrrrnNLLbWUxTgkZiBWisQ5ZGx4UJc4jXxOV6iDCAjHdPUQjp966ikTCLHMZJ0qIiAC6QlEomCZPZur/HOT3xa/sR9//DF9I50RAREQAREQgTwJKElJnuDUTAREQAREQARSEWj3Qglx9fIVvlL1WcxjzJOMwCbw+A1oTW1k3Zfv/Ikr1+hjMCLeUaqrsSis9f3WegEJQajMYjQ2NpL4Iz93ZuvYi5jEPWxtzS+OHWIWrrSbbrqpxfdj/cnCZhxR6+GHHzbXWeogEvaUYIMN/KeffmpuvFjk7bHHHm7jjTc2F9vkGPHvjEUMv2HDhtk7cxw7dqxVIQMwlneFKKyDZCgIncwVUfA///mPJTt56KGH3Oeff25CxHLLLWeWhawBy8qkVWCYC/1NM800Zmm5qncdjixIw9nOd+pNPfXUdgChsyeOnS31SQSGFgF+l/z+sbau838EIbYtvz9+M/wRRkUEREAEREAEikFAAmExqKpPERABERCBIUsAyzgEwoFSsOZDwGNDSsH6b9iw4XYMd7Z8Sru3JMR1uKFhgndZbbB4hHznMwlcYIRYVIiCBWA+BSFzs802c+eee65lMkYwS1XYkJMkJFi7/fTTT1mJv2zu7777bnfrrbcaW7IlE3svl8I1ef311y1WHy7ABxxwgFk8JvuAZbP3ac9GcKMuAiQu0I8++qglKaEt60PYY96MSwZjMhxz7JFHHuli7ck4WEkG9ojJiI3HH3+8O+GEE9KKqAiNuGgzh5DdOLkWfReBoUvAW3H7xE38IQVRsLZ2mAmE/FGFcAyNjfX24renIgIiIAIiIALFIJDff/kXYybqUwREQAREQAQGAYEWgg8OkEIcwGovALEBDeId1n9Y9mG5gljUm4KAhBCHAAUXrP16ZzXYm9l0bcsm++2337a5rbfeepaAhPnGLSf5PNtss3XE6MOy7o033khrSdd1BMTWKnfEEUdYDEHcedNZ1iXbxb9PmDDBXXPNNf76NLp11lnH3JbjQiBi24wzzmgi5xprrNFl/vF+wmfWhOs0SUNIvIIL9XTTTddFsKUOCVmWXnppa4bwx/wpWP6RwIXYilg0hrlwnKQjc8wxhwmvk002WZe5cB9ccMEFlhjlyy+/NFfjdK7INpD+EYEhRCCyGKz1omCdvXg289viuRxe/Ib4vfNSEQEREAEREIFiEFAMwmJQVZ8iIAIiIAJDlsBA2bwhAlVV+dh73koQ8YkMxKEQSxALFgSuSNTLz0ov9FeK71jMYd23/PLLu3XXXdddfvnl7sEHH3S42H7q3YNx9V1kkUXclltuaaIXWYIPP/zwnEQ+GPPadddd3b333tthhZgLD4SDV155xeaGaEccwmCFR99kVSYjMe7AWETuvPPOFj+Qc+kKYh9i3VprrWWJUG6//XZ33nnnuY8++sjWh9C45557WnMsAklaEtwbZ5hhBkcmYsqiiy7qtthiCxMsmOe4cePcKqus4nbaaSeL1YjbMmIgAiau3AixWBoyFpaRQXS0zvSPCAxBAvxO+W1huc07//uBENja2mkRPFD+N2UIXj4tWQREQAQGHQEJhIPukmpBIiACIiACIpANgSgjJpvPtjYSk3QWLFewCKvwG9YyL/x4s7/Ok4PkExvz+vp6RwKR8ePHu1GjRplghmiWLE888YS5zr7zzjsdIh/ccNWlYBmYbhOPldz777/vjjvuOOuD+nHLOeaBGEkJAoF9if3z+++/WyKRtdde280555xuzJgxllwEgQ1h7ptvvrHaP//8s4m9saYpP9Lmu+++c7vttps75JBD3JprrunOOuusLnURBUm0ctlll9m8wknmi+hHhuevv/7a1sK9QkH023333d0xxxxjfdJvvFAfwfGWW27JmAk63kafRWCwEiC8A3+osOcsbsTewrrZWzZnClHBbxc3ZBUREAEREAERKAaB9H9eLsZo6lMEREAEREAEBjmBKaeccgD4f030lm0VZsGFWIVQltyU1tUN9+JPucUMDG6kpXjpEOdwZ00n0PU0Z9rhWrzwwgs7rOPmnntui6FHllAy+RIr78MPP3TEHmRzHgqi2JJLLtkl829c+Av1wjtCAJmCiSX4wgsvOFyHKRzHUpGsvrgvp4txyNiMhyhIVmWsChmP+ZMgBHdh5ooVYIgNGMZO98519fertcVdGAbEYqQPkpKQzTjpds26qYfr9VtvvWVjxtdNfcRDXI0XXHBBe3F/vfnmmyYg4tbdW9f1dOvRcREoJQL8VrCYRVSPF74TwoEXFtwIg8QYxFo71XOMY4iJVf5ZUel/8zwLvvji866dxgfQZxEQAREQARHIk4D+xyVPcGomAiIgAiIgAqkIDASBkPhWJCbBYo1CPD4yY7IRZfOK4IOLMQJSfX0kZKVaaykc661AGNYQNuasHS4IXaw/KZCF+ryHNnxOigAcS5ZQP1k33fF07Tme7INj9JPqOOcyFdqFdfOZdfNK11cYJ7wn++Y4Jd4nYkkmlsk+9F0EBjqBVAIh4h7JRyorK1ybf8aQvKl90nMmuV7qVvh65n7sn9lRwQW51X377dfawyWB6bsIiIAIiECvCYT/tel1R+pABERABERABESgtAmw4az0GTItWYbXcLBaIVMxVmzl5WVmwYL7GpYtiDxkGx4qJYhhiFgkVQklHA/f4++ZzsXrhc/p6qc7HtqF957q9XQ+9JN8p10+6043XjieS5/JOem7CAwmAvwmsJxF7EM4R+Rrbm4wIT65ThMGvSBIfSwHeRZHon2rPbP5rCICIiACIiACxSAggbAYVNWnCIiACIiACJQQATanWA0iBFZW+MQjbX6jOSmrMDEGqy1APpYq1WY1hrsxiUuwgFERAREQARHInwCCYJX/o0uw2G5sarDnb7C0jXrmGe3/gOOtlyv8M5p3kkXFE5ZEGeBlOJj/lVBLERABERCBnghIIOyJkM6LgAiIgAiIwAAmUO43nQiAWKPg+dnssxVjIRdtNr1bqrdGaWpv8MeizWmtj3GHhQrxsPqzYEWDBZqKCIiACAxUAoiDWGRjCdjiMxO3Wobirn94MctuYgz6P9BQv92EwSgmIc/izuegxMGBeh9o3iIgAiIwUAhIIBwoV0rzFAEREAEREIEcCHS6tLHp9FaDZMj0cQZTWQViyTJxInHn/AAWPo4Mx8S0y2HAAlYlqyeiZpO3tOncHBdwAHUlAiIgAkUmEIVvqLWsw03+2dvSTBKSrn/0CAIi4mAQBgn9gDDY1cKwc7LpjnfW0CcREAEREAERyI+ABML8uKmVCIiACIiACJQsAcTBap+EpNpvOimNjfUmEPYktoXzZT4eIf/nZcM+XyOb3zofxD+yIPTWjT6ByiTVss/nogFFQAREIF8CPId5jvGHGVyFk4WQD1gXIiTyhxtivhLeIZ0AiJhIqAjcj8lkriICIiACIiAChSYggbDQRNWfCIiACIiACPQjAVzZ6rybsPObTrJjkiWTmIPZmAOGjak5svWTCSGWNCRKQRRk81wK7s79eDk1tAiIwIAlQKKn1FbbZJHnxTMXi8EWH/qhra2rdWFYNsIgz0XCRPgHezisdxEQAREQAREoOAEJhAVHqg5FQAREQAREoO8JYKlCIPwa/8KNDWuUZi8OBtEv2xlRH8uX/iiMjXsx4iDCYLltjKsyWtX0xzw1pgiIgAj0RACL7FQhHfjDRxAHCaPQ7F2PU1tJR5mPqUss2XYvILb6OIYIiioiIAIiIAIiUAwCEgiLQVV9ioAIiIAIiEAfEUDLw2rQNpHe8o4NKZtOBLZ8iglz3sW4PyxVsBys8mtBKMQtmjVhOWPud35T3D+yZT4U1UYEREAEMNzu+gcXnme1tXWTnnE+m3EGsa/cP4cjq0HnmnxWedyUo+RSfR/6QddSBERABERgaBCQQDg0rrNWKQIiIAIiMAgJEI+qpqbaC4Q+wL23VmlsjDacbErzLVgflpVVWZKSfPvIr91Ei63FppiNMEIl8QcRDatramxjnK/omd981EoEREAECkcghH8IfwBJFZcwPhrP9IaGejsUf6aXWQiGeE19FgEREAEREIHCECgvTDfqRQREQAREQAREoK8IRBmKvSWKjzUYZShuNYs73IrjG8l85tOOuGgGhH1tr1dmAfgZPNo4T/SiIIH7m10FloXe8qa/XJ/z4ag2IiACIhAI2DPbJyXh+dbkn9MtLT4ubBaF53l4phNGgsQmJHFSEQEREAEREIFiEJAFYTGoqk8REAEREAERKBKBaJNYY4IZQ4QMmSEDcW+Hndg+0ZWTfdO/8nNSzm8GWApWVlaYJSSZPNlIo1USc6utrbLD1bi1tXs20PxGTN0KjmzI2dCHV+qaQ+toECqSTDiOaNHoXSBJplDKhWvLiyywvFLFhyvl+ffX3IJAlc343B8q3QkQW7XKvywhiRcIU8cc7N6OIzDFWpzfWYUPwWAPxtRVdVQEREAEREAEekVAAmGv8KmxCIiACIiACPQFAQQrn4TEMln6LL8+YD3iRou3rkNMy2UD3/NssVihVt9u9BGXED9xK46vB0EHK0LidkVZjf16EfGYYQHFiIaGBtuAzzLLLG7mmWd2EyZMcF9++aX74YcfPPcqE5R6Zjd4a8w///xuo402ci+++KJ76qmnTGhjtauuuqr761//6u655x73zDPPlKxIiFXqHHPM4ZZbbjl7r62tdffff7976aWXhvy17emuzVX45TerEifgwydUkIHYmUAIn56eXf7PE67MP+cr/XMRcZAXjzsExrYi/5EkPnN9FgEREAERGFoEJBAOreut1YqACIiACJQQgbgQxrTSbRpxI8Z6hFiDxAgkYD2WdMXZiJv0lnYuxcAXWchE1meprLpYa0srCUyiAP9tPpsnFji0wxIsyTGXOdIW67e///3vbuTIkW7KKad00047rY/91eB+/PFH99VXX7nzzz/fvf322yYU5tL3YKkL50UWWcTts88+7qabbnLPPvusxYiEE8eWWWYZY7fsssu64cOHl9yyucZzzjmnO/nkk91KK63UMT+u73PPPdenAiEsEcG55/g8xRRT9Or+7VhMET7AjdcVV1zhY53WZDUCv5MjjzzSDRsmN9gAjD/uEFvVozSeXPdUBdb8kYQX8Qp5YVnNM58/BEWxWQv9B6FUM9ExERABERCBoUpAAuFQvfJatwiIgAiIQL8SYBOIRWCwDEH0avHutK3e0ilsIHmnDpZzWPEgLERxBiM32GIsgEQg7F/T7GGLMeSkDTEun222GU4Owsa52a8dK5yqqhq/cY4slNg4s/HOt4QN+Q033OD+8pe/2DzoC6tBrM14Lbnkkm7llVd2++67r1nO5WpNle/cSq1dSBATEitwb/7888/uzTffNIHwrrvuKlkBlWu2xhprmDj4+eefu1NPPdVETkS6bIWvQl0Pxtxiiy3c3/72NxOhN954YzfZZJMVqvui9LPKKqt0PJN6GoDnWiqRv6d2g/k8z5lgkM3HyL2487kVPYd8MqZqnm8+1qqPEI+oiKU0FoNRmAWejdZ4MKPS2kRABERABPqZgATCfr4AGl4EREAERGDoEUDkIvsw1iGheA3DNohBBESAqanBrbbKW49M9GLCBLMgKfYmMfTPBjXa1RZ7U+rjHXoOjNfa2pTWKhJrycbG+mjjPJHoiFjkTDRRChfgMO/As6d36iNk3HrrrQ7Lt99//92de+657t///rcJN7RfaKGF3NixY01Yuuaaa9x6663nxo8fb2JtT/0PhfNcE/icdNJJdm9i5VqKhfuDa0m59NJL3b333tsheAUxvq/mzX2H5SUWmbixl7KYFtisu+66HeJ5Kk5Y2/LbWXTRRd0nn3ySsW6q9kPhWHNzi08uUmmWlU1NjWaBi3AN4/JyH5/QP+dxK6Zwj/AHEUIr8EcQFREQAREQARHoKwISCPuKtMYRAREQAREQAU+ATSFWS2wMsQZsIZ6U3xCWeZGs1h8n1h5WhcHVDIutsKHsK4Amtk2yIvRTK3iJNsWRGx1rxU0YsanNZy3OVJJiCvOkbT4FizgsA+edd15rjlskIiAuxsGq7N1333W77babGzdunMWuO+644xxiyeSTT25tgjUdc2BNzI918Jm5Ra6C3efH2LzC+fh32iatFMN5ztE/7ajDe7pCG+ratfSVaBvapWtDXdYQ2lCPcTIxpl8EomQd2NBPYBPmE8am3+Q6wznemXv8egcurCFwpu9MDMJ6EC5nnXVW6/755583MTPeXxg31I+vPzCjfroSb0c9vqdqx5r4A0BgTD1EIMvUnYIH9eEWnw/9B6bJ+QRmgW1gTvueWCX7Ct8Z75133ukyh3COd64zrvlY2wahsM5nV1fpSqDFP+stG7sXAuvqhtvvkRpcG0TA9knPBFyJo1fPcQq7jqBvIiACIiACItB7At3/q7X3faoHERABERABERCBFATYbGMVyDuiHwJhR/EbxHq/OayrG2ZWce3tbd5irsFvwLEiKYJK1zFw1w+MhdAQrFm6ns33m+/N6ytRpmIC7keB9+HAWJEbnY+p6BnkUmifb2Hc2WabzfOOxIzbb7/dxMF4n1ie/frrr+7yyy93H330kYk7wVqRNWyzzTZ2LZ944gmLVYjgiGXYNNNMY+63r7zyikOQQpwJBXFoqaWWcgsuuKD7+uuv3aOPPuqWWGIJt9hii1lyFL7/97//7XDXRTxafPHFzcpxuummsznQ7sknn7T28b7DGFim0R8WXSRdQawiluLHH39sSTn4Hl8n7RB6iBu3zjrrmGhKEo/vvvvOxkEgSlW4V7C+xDrv1VdfdW+88YaNRd+bbrqpuc4yT/pZfvnlbc2s4dtvv7VkJ7gnwzNZmMtMM83kVl99dRP2ELpY80MPPeT+97//uTXXXNPNPvvs5ib84Ycf2pjJPpgb13bDDTe0dc0444xWZYMNNnBLL720rZdrg8sxPBhzqqmmMtEYZnz+5ptv3Keffmpr++2337pcxzAe15Nx1lprLeOGuzDtsKSDB3EOwxoR0YiBSMxGxkS4RIBGcH7//fft2oTfOq7IM8wwg82HtRLbkevKernfmE/SYnOuueZyq/qkMW+99Zax4dosvPDCFn8RN3raUhApWS/XONX9E9YW3jMJuYjpO+ywg8VSxDqTMUrdZTqsqy/f+U2QcR534SisBEIyWbUnCYT+eWTP3UnPtOTvMz7XXjz24t3oswiIgAiIgAh0I9D5X6zdTumACIiACIiACIhAIQkgCrDZRvzrIg5OGoQNIoIQQhob+FR1CjmfTH1FLsaZavR8jk1utGZia2HtFblUszFu8cIK2Tjb2iKLtSCM9NxrZw36L/NM8ym0RbxBLEEoQbhCyApiTuiTc4888oiJMrThO9cJYeUf//iHre/77793O+64o9t55507rAtpT4y+O+64wx111FEdYg7XF4Frjz32cI899pi1JyYe41MQgcgSzDwQicaOHes222wzc0u1Cv4fBDOsG4844ogOUS6cQ7A66KCDbD6IYnFxB3Ht5ptvdmeddZaJzqyHwr02YsQIS+KBsBgsJDmHmHfJJZe4zz77jK9dChzWX399t8suu7h//etfDkGUeTPm6NGjTdw74IAD3AILLOD22msvYxc6YC6nn366Q5iln1Dgg+B42WWXmUgYvx4IUSeccILbfPPNTfg79NBDjUNSKKMv+kSowv05zoD5ULjuJKZBNKUg3B1zzDFunnnm6bAg5ThCHNmZuda//PJLF2EVbnPPPbe51yLOxYUx2iHUcY1gxxz+/Oc/23zol4Ige/bZZ9tnXN3hx7WFAZmhDz74YDfffPN14fbHH3/YnJkrAmcQuLmWXDuOX3jhhSYuHn/88SZ0MgB9I94xD+4n+r/44ouNn00gj3+YK2InQm59fb1xKMUkNXksrShNeMbx+4RbqhJ+j6nOhWM8T0leoiICIiACIiACxSAggbAYVNWnCIiACIiACKQgYGKW12TYJCYD1YfqiIecy2azGNoU+h0Br7eFjWxNTWShhNiIYEM24rBBjtbZu1EqvEhX5V/5iIsIJVjGIbjgVjzOuxEjQAWLrzh/+kcMShbEK8Qp2pHIAcHmtttus2OIWCQ42cWLZwgCiIRBzIk2+ZVmGYglIWISQhlCEsIf/TIv4rphpYiY9cADDzgSgWDdhpszVoUIbNtuu60JV8wNF0+EOMQ5LLvuuece9/DDD1v/yy23nNtzzz3dfvvtZ98R4CisDXHylFNOMZGM60Q7rPWwYCOhBuIYImmqEsS38B7qBDaIpqwRYRLryOmnn95tv/32JpYx5tNPP23CLO3gxPlrr73W5oSICJeXXnrJLBARIxFMw1hwTFc4B1fEUoQ4LPUQ/0477TSzRuQ+fO211+x3hpB63XXXmViL1R9jfvDBByb+7b333sab+wGuiHcU5jrzzDO7u+++24RBxGDuoccff9y4kYRkxRVXdLfccou1/+mnn0ykO/DAA+1eITkJ15U+EWQRKmHPC9HtjDPOMBZYTiIyv/7663Ycy0yExvPOO8+uNVaYwQow8MBac/fdd7d1IjySdIf7isK1RkTknXVvvfXWtm47meM/iIGbbLKJzR/hlns2/rvJsbtBVx0WQczj2vBb453nINc5l0K7Sv9cIJN7uP9zaa+6IiACIiACIpANAQmE2VBSHREQAREQAREoOIHIeqt7t+mOd69ZrCPe683Hy0ovvmQ7brkX4YIlIqIjWYrZHOcj6CXHrPLCXLXfLEeJVJJne/7Ohhu3YUSdMWPGmDvuyy+/7O68804TZBBUEHCwjEIcTCd8IBCSIRfhChdLNu+s78orr7Rju+66q+OFi+d7773XZWKINFdffbU79thjbSzmxIv29Il4gxUhQtr5559vQhfnmDNWgAhmCF6IX8xviimmsHhwiFhXXHGFI64i4hPn7r//fhPamCMuzjfeeKMlZmFCWDRiQUdB0KMuYiZjIVQh7q299tp2Ptd/cLnef//9LTFI6JP+sUpEtERADVZ+sLvoootMvMJFF3ESgQzG9913nzvnnHPc9ddfb4JjT/NgzXBA7MOyD0EOgRChM7hMMx7XljlgHcjxkF2Yc7jyYs3J+mHEPIJASDssP+mbOW633XYmwiHMwo1EKCS8wZ15q622chdccIHVQ4iceuqpzQKSvrgvcGcO1x7RjeuJUMp84I6YxHwQCrHUfNyLkLjHU+/www/vJl7jso4wiLiJUEvftOedeWPxyr2HK3RvCnEdEaixMmVu6X4jvRljILeFB/cD79FzEItqYnYSxiESmntaXwjLgNDINeTe6k/L8p7mq/MiIAIiIAIDm0Dv/+t/YK9fsxcBERABERCBPiNgMfa8+MZmj816qsI5NpOt3vW2XwrhDr2YF2328xcr2/1GttGLa01NDWY1yJqwKBw2bLjP2FmTdv3ZrNk23tW13s7SW2N6TtFcs2nZtQ6CFYLLySefbNmJsSrD/RJxD2tAhDgsvBDPMo2BYEOCEwQkrLkQZXideeaZHXHfEN4Q++IFEQzRC2s0hATaIAIg4uCyzJhY2GFJiBAVhJ7gzvnll1+aqyiWYAgHvJgvSSNOPPFEE6Loj36YG7ENEaWw6AtuxLyvttpqNi1ESKz8OBbWgXUlbrn5iknEIAwiHXOhX6zpgkUiLrQIYDDAcg6XXQruw4zJNaId8yceJJZqiHnZFsYLDGgT5sBxuNA/rrarrrqq22mnnYw914Fz1MXt/MUXX7TPzC3MFREuZEaGNWIeloqhf6wXsfDEEpN4ilwb+qTv+G+fefAKx8hwTLZs7hWuJf2xdt6ZKwxGjRplyyfG4Jxzzml9x3lgeYnozT0T7qvQPxayuC5j0YoLcjgeb5/NZ34rWENS+L1gQanSlQDXnN9y9IeRVv+52V/XBn+vZ362h3uPa8c9xXMTYZH2ZLNvaur6HOk6qr6JgAiIgAiIQP4EZEGYPzu1FAEREAEREIH/Z+88AOSqqv9/t7f0HtI2CSGhNyF0Qg2ggAgINkAUUbqA6F+Q8hMpIoiAKPL70UQUqQKKAlKkdwQCJEB6J6Rvb//zOXfu7MvszOxsmd3N5lyYee/dd+v3vX3wPnPOPW1SoKGBgBx1+sJfKJAMSxDASEi8CAIDyGtQN+Rwpgu3OUoItUNeSiPDa9sg5OW4oUnmUdMgYKROAEduDIARxbNE5sc8/Usz7sZSPOOENSKgRniLpPZDTGpjdYe7LS68uG4CXdgC0XDj5YNVGZZ+RDHm+kQToIQAHevWrdNAEuEc4AXXTlxWgWBYkvHiH01YcgH5gAAhARWARFi7kWbMmKHWXmgWEmUAfdTHiguAiUUgfXJ/8eEeYkxAIuaIZRqgivED/QBVJNolmAkJ12KgRGLCkpL1ErGSa2t67bXXtI/EekBC5oGbLluuJwAOOMncAKPROVOf+QFV50rgEK5LZySuCTrRP/PketJv0Az4ioUfKYBYtMUyMkBWXL+j15CyAD2ALBaI7Ae9OZcqocPkyZP1PuG+4fom3jO0wz2BfribYwmYaJn6yiuv6HVmLskSayPispwIK5OVTZZHuwBSLFi5FkBQ8toLG5P10RvyuJ5AvXANOU6WyKcM90lODkAYYOyhMT+ANNQR3ISo5BtGtE7WluWZAqaAKWAKmAIdUcAAYUfUs7qmgClgCpgCpkAbFIAPYVHHizSAkBd0oCEvfkS29C+IHiLl5Io7mYCI8HLZhm46WJT+Y2NIAFrtbdi7F3srMVFA511U7C3D0KCqqlIBQ+btEwW6SkBOqUZbTvXinWl7QDGsroCEuJUC1fgAawgmAtxjSx5r2kXBFWCECLTMIzEB41gjDlfZAJ2wLAsJK7FEiAOoAhAGUIflIfUT7wPuIaIlk4hySz0S6xDiQsw6hWyBSNxXWKkFuBnKUp5x486KVWJ0bJwLCX3DGnYhL9MtuiaCI+YSIGY4Rx+AS8YIcE12TakHNMMKrjMTehB8hvUb0QxQif5ohj7AQlIYE1u055qyViFgMVlwjmAdmOlYaZdrSWI9StpNltAMSLj33nurlWjivQHwDGNNVr+t40psg3sMS04ScBBAmez+T6y3KR6nuw6c41piNY5+XBfvisw6tT5IFYAxXRuboqY2Z1PAFDAFTIHsKWCAMHvaWsumgClgCpgCpkALBXjZw00MQFgobrL5+cA41pbykVd5MeRlsUxccevqCgQSVMfhT4vGspDB+LCQKigojL+sdlY3/kXXr6FVKy++xQIJC+P9YF3jwWQm/QF1gGsBemVSJ10ZIAsgDXCFuySf+fPnqyssbsBf+tKXHAEiiEobfWFnn+AMqVI4R/uMNVo3VR3KBXAGlASyMbZooh2gFMAMuEf7WN4RMAWX1wAYOUeZUI7AGdFEPe43XFej4DBaprU5Rstmuk+/0cQxQIy+gktu9Dz7nEOPRGu9xHJtOeZeLy8vVwtMLARJ6AiE5IMmgwcPbtEkMIcELEucS4vCbcgI1412GVuqBAQkca90Zv+p+gv5XCPc8Lfeemu1kMWyNtyroYxtmxXg2kSvD/vhhyD/o5C3FOTeJtXUVrs6uf9S/S02t2x7poApYAqYAqZA5ytggLDzNbUWTQFTwBQwBUyBtArwMgj4A0TkF/j/FDcJiAjWhHV1+QrPADe5YklIWdxxw0tk2sY786S8zGYzYVnY3oQWdXX1CjLb0wYv6sAmAAuwhWuRmCgDEGGNtWmyRh3wBtdWgpmEBCiaNGmSRgsOeWEL4AGkkACPrJ0XhQWhXHTLecqF8eDeTOCUAI6iZYEIlGcO3CtETSZoBWVZt5C19VhDjwTEwVUW99Mo0AGy4q6K1WLUMjLaD+WnTJkSzer0feYBxKyoqFBXXsbDfnSsXHPgYQB5HR0E7XGNCBxCm8/KWpKXXnqpricYtOUeISAM0XpDYqwAZK4R15fjZIn2A+hJBLzJytMOAT9IWBJyPcJ9EC1POVzgSQFiRnWKlu3MfebDvUbwE/rDJf2DDz6IW1h2Zl+9oS00KhYrZxLXLFfch/PzfaAR8vy9wbITfqkFfhzShVVT3E+0gYUhyzVYMgVMAVPAFDAFsqGA/RcmG6pam6aAKWAKmAKmQAYKAMjqBEDxAdRwzEsg0AK32+rqGj1WSzuxOORcVyRAAP+0waCv7cMCnoh7dWvJvxQnn3djo6zPJZ/26AKwIbowkWZZWw+LrWQJLQLcoR9e+skLCUBIsIrEMVCGsqxVR5ora7UBGxPLhXbClvNAvRD04cADD1TXQ0BV9IMVXfjgHgtswCUasEaAlcsuu0wBG+vk8aHs8OHD1SU1QCv6ZExEcyYx1mRWa5TH9TabCY0Br8BK0rnnnqt/EwAy+gewklj3rry8XPc7+sVcgapowz594jKMZSaaoTdr/I0bN26DrriurIWIdSjjpo1EkMeYsTwk+jFBYKKaR++BcG/RAflhPUHWrUwGhbmvGNf48eO1/7YEbAmTYK6MN3ofh3PptlyDI444Qu8z5k6AH8ZiKbkCPCaaGuU5oAshAAQb9MceApXwfK+qrlTr38rKCr3X9YEr90BiypH7jecMa9SWyL1aUlKWWMSOTQFTwBQwBUyBTlHAAGGnyGiNmAKmgClgCpgC7VSAF8IkL4UeitQIJKxUcIhLMqAwChTa2WOr1RQcyNutxitptXT2CvBSzJwDIOUYOOMBi4/ai+VlexJAEC2BYqwrCHDBkjAAMjQAotAnLpVAIyzaCB5BXkiM5YADDnD77LOPvuxz3WiDsscee2zcgvCBBx5ICnxCO2FLe6xNGKL8Tp8+XaMSMzbaZlxAPWDfL3/5S3f//fcrFOSc18UHyKBc+AB2mO/pp58euolvaZeAICSsD1mPkLK0B7TG9ZjovtkGhFzXBQsWOCIpk+gTyElkYyDUbrvtpu7dRHdOjAatFdr5Ff17Qr+gGdcQnek3MSAKdYCwIbLzz372M4WMjIv66M18TjvtNA2AAyQkP6QAo7mPygV2Ug+9SQStYX1BgrewJiL3Ee1Rn/uRukTdJr3zzjsKnsN118xWvmiHwDbcV8kAZKrq1AM+H3nkkWrZyHUCZDNPS8kV4AcfXIarZb1UrhvPcm85Lj8KyRILBKKK/t1u2Ip3RcZiE0tS1ltl2Qd+t6FNS6aAKWAKmAKmQDYUsP+qZ0NVa9MUMAVMAVPAFOgEBXgpB9JgbcILJW6kpaW4xWbXmpB+5V8BTt33vwm8DAMG2bKIP/tYzvCijCVNQUGRyxVQw1jbk4A8uJYCZLAWe+ihh9x5553nxowZo2AIeMN6fb///e/jQUKuvfZahTlRIANI4uX/V7/6lQKdgQMHKrw7//zz3U9/+lMFi0SMTeUmnGzsAAH6JVAFrq/XX3+9BkmhbawF999/f/eHP/zBHX/88Qo5iZbMfD755BNdF46gKtdcc41CTwAEEPSuu+5S0An0iibuL4Kz0BdQijXlAJtoghUbkO7CCy/U89F62djn/v7LX/6iWrKPezXjJnDMHXfc4U455RT35z//2b344oud0j2aYbUIoGP/5ptvdrvvvrsCXlx8zzrrLHf11Vfr+WiHXH/qXHXVVZpN5GuuB9cFYDZ16lR3ySWXuJNPPlnPM3baJ3F+0aJFet9ynS+66CK1QCRAC4lAMbiGk0466SS10qN99Nhrr73U4hW4xz1H5Oq2BmwhuAr3E5G7ua4BTGqHrXwBSpkj9xvXhXvRUnoF+AEDjYGF/rma/HnFOe4NnnX+eSfWgvKsKy4uVdfkOvk7BTBibVgj954lU8AUMAVMAVMgGwo0/wSejdatTVPAFDAFTAFTwBTosAK8YPp1CBsUDvJizsukWqEIoOrsxMsspipdtdaVB27NrnUFWEsKBCThjsf8c3OxqMlX6z3WZRReIiCnXvK81ZcWbsMX+gEHsYgCiuEmjAUdn8QERAMWBcgXhSoAN4KYfPWrX3WXyvp1fKIJ8AboAfCEFAWMIS+65Tx9AOqwPMS6kcAjfKLpo48+UnAIXABAvfbaa+7BBx/U/nCf5hMSIBPgBjgETIVEX++//77mE5mWtQZZvzCannnmGQV3gKvEsSceR+u1Zx8wS/8EZjnjjDN0zUEs3YBqALnHHntM14Rsa9vJxkkeOhN4hrkB9tA7JDT705/+pCCM6xtNWHZh5XnBBRcoRJw2bZrjE01Y/1188cXqjhzyuQ+eeuopjXzN+oXcf3zol3uPPlnbj3UtAaK4v/OJJu65G2+8Ua91MivAZHMN9Xl24IpOme233z5kt7rFgpb7mIRrcSJo1hP21WYFeA7lyT2fJ880/ob5UYZrw4d7wT//ZCkFWY6hvT+GtHlQVsEUMAVMAVNgk1XAAOEme+lt4qaAKWAKmAIbkwK8HHogWO+KxJoOK0JeKHlR18XtszKZZmiXleZjjQaggUVgoVgGFgh8aZSX4xpxzeMlufnFuC7+8pwvoCVXXqKBhu1N6IcFFhZZgB4s77CwwnoOXbHmWrx4sbv11lvdG2+8oXAysS/GzvqCJ554oq5hhysuAA4LMwKCALsARfE5ChAATGK5NmvWrKRt0gfgABdO3FNxNd17773V1RaghVvw008/7e4QyzT6oWyog0Ua6+MdfPDBan1Ivxxj/Ui/uK+G+0YryRew67777tNyBKCYMGGCliECMuCKdRpxo2Z9PoBnuB60zTGBKtApzJHz7733nkI+1lIM4wv9UQ7d0SBaj/PAWOrffffdOj8Cq+Biy5p3wC1AVXDxpmwmCc2AqVhgYnkXTcz9iSee0LX1zj77bA0OQvv0h77AunPOOUfXBmQuYY60wXgAiMwVmAd4oy7XG2tOtMN9OwrxqA8kPO644xSAsn5hv3793OzZs+O6Mt4rrrhCgS8u1aNGjdI6zJdrgDbPSkAV7tNoQtNwjaL50X2s/7gXWMuR4CvR+UTLJe4Hy1jg5pNPPhkfa2I5O95QgWbg5/MVCMZAIH+H/m8DKOiDlnDv8zznWndLYKoNh29HpoApYAqYApuYAl3zf/6bmKg2XVPAFDAFTIFNVwFxFUzuQ9aJknjIUOgKxbJKbE0UHGJhGMBNR7vipdUvhN+kLm2d1W7iuHClKy0tExjnozTjOkwea60BBwElraUAjToyRuoGcMTafqzRBoRjTbwApqIWgIyLfoGGvOQDhwB2vNQDBwlOAUyiTcpFARnXjvywviHAK93Y6QsISP+0CywD8tAmbScDPJRnLJSnbcYCpGKszIdEv9FxkUcd6gLlmAdRhUn0Q78AQ9rhOCTKA1PJi4Iw+mHsBAAJQC/UYUt76MAYooEuAJGAL6AbMBOAxxz5ML7y8nJ1j8X9+aijjlLImKz9aF9owNipT1/okJjC3OmbuQe3bfpnjlyvKJyM1qcu52mb+oBd5oce0fsmWidcV7aUY4z0FU20yQf3Y9oFWHNfUi5Zu6muUbRN+qFNxpyqnWj5sM846ZvrlezeCeVs26yAv8a1eu/y4wcvXVg/y62siWtRL1bQ/BjCDyEAQepkkmRtUHuHy0QoK2MKmAKmgCnQJgXsPy5tkssKmwKmgClgCpgC6RXoCkAYRoD1HGAGF7X6OuAOUK3jLsdYvQDucDNm/cNMX1rDuDLdMv6ysj76YkyfgBtgYVtgJ3AFMMPLdmck2mG+AUolA3CcR/coIGSdPKAN9fmE+p0xptBGdFwhL902aJJsDtmol67NTM4B4gi8cswxx6jFHsFjcH8mMXcs6S4VF27A4NKlS9WqErDSmam9mjGGcO0TwWtr4wv3S6pyod1s3FOp+rT8jivQKBGM6+S5zPIIPJ64jjyfuZe9ZTTrE/K8yAwKRkdkgDCqhu2bAqaAKWAKdJYC7ffL6awRWDumgClgCpgCpoAp0C4FsDgB4LFmX6EE8wjWeLio8TLa3tQMJNrbQtvqAQp5aa6sXK+WV22r3bmlgTDJLMwy7SWbEKet4KmtYDDMsb31Qv32bgGsrAV4+OGH6/p4jz/+uFu5cqW6MGMNOXHiRLWkI3rwSbIeXmfDQcbdkbm399q31md7223vdbB6naMAMLCiYl38nvKP5PY/lztnVNaKKWAKmAKmgCmQWgG/aE3q83bGFDAFTAFTwBQwBXqwAoC1GrEcxHqQBCTEVRdXtvYnXmKDFVw2/1fBW9sBOhk/LpIbU8Llkg/umpY6rgBgFrfuXXbZxT366KOqK+vzsf4iLsUAQSIYs37fzJkzO96htWAKZFmB8GOL/8HG4GCW5bbmTQFTwBQwBTqogLkYd1BAq24KmAKmgClgCkQV6EoX42i/7GOJR4APrAmBKbW1fi269lgTlpSUanvV1X7ttsS+OuMYyyjGjItde63BOtvFuC3zYq1CEmv14R7bmiVYW9relMtyv7I+4ZAhQ9RqENfihQsXKhQkEAdr4HXEynNT1tbm3nUK8MOBuAJn5blgLsZddx2tJ1PAFDAFNiUFDBBuSlfb5moKmAKmgCmQdQW6ExB6q79cWQuvSKwICwW8EQyiVj9YGrYlFUukZAKGVEuwkPoebNnXnYAwQE1cfw0OtuXuyqws92z4oHH4ZFbbSpkC3auAAcLu1d96NwVMAVPAFGi7ArYGYds1sxqmgClgCpgCpkAPVYDF8IlSWiNgpV5AoVgTyvqEWOmFSMGZDpx2iLZJlGRLyRUwK7bkunRWrgHBzlLS2jEFTAFTwBQwBUwBU6B1BbK5sFDrvVsJU8AUMAVMAVPAFMiCAk26fhtQEDdjQFZpaanCwkw7a49bcqZtWzlTwBQwBUwBU8AUMAVMAVPAFOhZChgg7FnXw0ZjCpgCpoApYAp0mgIawKSmxlVWVbhGsQjEbbi0tI+6arbWSaOsC5iT4906cV22ZAqYAqaAKWAKmAKmgClgCpgCvVcBA4S999razEwBU8AUMAVMAVWgQRbLr6pYr2sR5ufnuxKJdFxQUCDn0rgPC1AMVoSya8kUMAVMAVPAFDAFTAFTwBQwBXqxAgYIe/HFtamZAqaAKWAKmAJBASwIq6oq9ZPjcl1JSZkrKi52uWIlmCwFOEjwDQvAkUwhyzMFTAFTwBQwBUwBU8AUMAV6jwIWpKT3XEubiSlgCpgCpkAPUICAIE1NDRIkpGea3RHVuEnch0MAk3wZL+sU1tXVi3p+zD44RJ6qyX5eXq5raGhbFOQecClsCF2gQBQkd0F3G00X6GJgfaO5XDZQU8AUMAVMAVPAFBAFDBDabWAKmAKmgClgCnSiAmVlfTRASL249TZIJOHGhoa4q24ndtOhpnRsMq4C+RQVFcmnRGBGrYy7ViMeFxYWyjqF+ZLnYsfFAhFrBRICEXtfAuQE0JXt2aWCRl3Vf7r5MbbwoRxjYh3LVAl43KdPH3VXX7VqVdqyqdrobfloRkAgPtXV1a6ioqLTp4ju4Z6lv55w73T6JK1BU8AUMAVMAVPAFOhyBQwQdrnk1qEpYAqYAqZAb1agtrbGsc4f4K2pqUAs8+p07b90oKU79AAqYE3IuBhrYVGhgJ58AYN5ChyCpaG3IJR1C0vyBHhUKfzsjvF2dp8B5Oy6664Kc1599VW3YsWKjAK4tGcsRJLecsst3dixY1uANGDP0qVLHZBtzZo1umV85Gc70Q9jGzlypNtzzz3dVltt5UaPHq33wPz5892zzz7rPvroI7dkyRK9r8N4qDdq1Ch3++23uwkTJripU6e65cuXd8mYwxh64haQ/qMf/ciddtpp7rHHHtMtz4OOJv5O+/fv77hf99prLzdu3Di9T15++WX30ksvuQULFuh17Gg/Vt8UMAVMAVPAFDAFNl0FOv5/LJuudjZzU8AUMAVMAVOghQI1NdVibZejlne48RYUFglYARTWqBVeiwrdmAHkqa+vE2DV4EokwnGejBMQwVqF5HmX41wZf55aGRYVFYsVYUWPslgi0nJ7EvMcMmSIu+6669zAgQPdt771LffMM884rCezkWj3O9/5jjvyyCNTNg8gfP/9991dd93lnnzyyS6BbQDgE088Uce22WabtRjbt7/9bff666+7K6+80gFRgckhoeH69ev1kHvJklegRiKHk6qqqnxGB7/RmWtz0UUXucMOO0xbo+2SkhJ31FFHuZkzZ7rLLrtM71/yLJkCpoApYAqYAqaAKdAeBQwQtkc1q2MKmAKmgClgCqRQAFDCp7FRXHIFspVKMBBvQeQt9noiR2kQV+MGgRCsOsh6hBu6EjcKRMTKrE7hUHBtTDH9Ls1GVz7thVPUA3ABCNEgmxZ79IXLKemJJ55wr732Wrw/+h0xYoTbY4893N577+22224799Of/tT985//bPfcMrkQgKzLL7/cnXTSSToWrAXvvfdetUwDBI4fP95997vfdbvssov77W9/66644gq1isumTpmMe1Mrgxv3T37yE4WD8+bN0+uARSf5p556qtt3333dr371K3fKKae4d999NxahfFNTyeZrCpgCpoApYAqYAh1VwABhRxW0+qaAKWAKmAKmQBIFcNssFqs8LLTqZe0+LH56Ihxk6ACfYImHi2Ri8sCzUcfPvLBo6u7EmPPzWSuxfRaE3Tn+V155xd15551xQMhY0BXrL1xTv/e977lrr73WAew6ywotcb64vh900EEOC0HSNddco2OqrKyMQ8kXXnjBPfDAAwqfpk+frtASd+NPPvkksTk7zqIC2267rTviiCPc2rVr3cknn+zmzJkTv0ZYd+LKPHnyZHfmmWeqJWgWh2JNmwKmgClgCpgCpkAvVmDj+7/qXnwxbGqmgClgCpgCvUMBDwdL1c2YtfwqK9bHXHZ75vyiFmEp10uLL4cX3+nWyRQJfMX12btCd89QcBvGigsLxEGDBsUDdrRm0ch5LBYBreEDsGP9wbvvvltdRouLi90BBxzQYs1HrhUgkX7ps2/fvnrMPddav0ElyvHBvZoEYPr9738fD1NFKBYAAEAASURBVKjhgbEP3EKQjdNPP90tWrRI1yn84he/GLOIDa01b6nHuPv166fr5RGoo6CgIO24sFQsKyvT8gMGDND1IFPVYY7MO7g5c6/SB/VYn4/96L0cRgZEph5jI2VaL9Rny5ii15oxp/xbiVZM2A/aJ2SnPQQak373u985LAhJ4RphlXrhhRdq3g477KBrFHJvWTIFTAFTwBQwBUwBU6CtCpgFYVsVs/KmgClgCpgCpkAaBTwcxHIwz9XUVMnHr0eWpkq3n/KQigjFBQJCCltAKQBLfp535d3Q/bh7hl4o6zoWyHqJau2Y06TAKFM41tER0w96fOELX3Df+MY33KGHHhp36QSmAdvuuece984776hVYFv6A/oACYFAWIQRiCLMi2sEoMKdFFdSAp4AyoBB7733nnvqqafcHXfcoS7TrVlVAiOBj4BN+vvTn/6k92mq9RcZw9VXX+3OO+88N3ToUJ0XkbCjiTb3228/tYDceeed9dTs2bPd888/726++WYNwsLfBon2AG477rijusgCtoCdpE8//dRhYXnTTTe5hQsXxrXlHO2iLeO94YYbFFzuv//+GviF8/R3/fXXqws3f3foSV9o9fDDD7uHHnpILSVxmz7wwAPVhZp66H3jjTe6v//97+oGHoWM1J80aZKuUfmVr3xFYSZ1Vq5cqdaVt9xyi/vss88yutbMmbEA9WbNmkUzrSbq4HaOK/ybb76pf5vR68t5NCZAzPDhw7X9N954I6PxtNq5FTAFTAFTwBQwBUyBTUoBA4Sb1OW2yZoCpoApYApkW4HiYiwHfcRfIhpvDAkgAmwjmAqAsKmpUY7rZOg+ki5AjnMEYAFUdWcCiPhgKQ26XmIqqJWtMaLV4Ycf7n7xi18oLAJiAeiANjvttJM77rjj1HWXNQQfffTRuLVbpuOh/QCAAI4kIBWJdei++c1v6jEQjci1QEMgGZCNQBa//OUv1RVVK6T4AuYdcsghepbIzS+++OIGIC6xGv0DPinH9ad+YvrSl76kLsi4Hz/44INqzYdbMhGOWV+RABv0FeAbloisaYg15H//+1/33HPP6bxYhxHwOmXKFI0GDDAMYJFrjTZEgmbNPSAtazkSPAXwts022yg4JKAKwC9YDFKPNsaMGaN97rbbbg6IhnsuIHb77bfX9jh/1VVX6ZjC/HDvZf1Fzi1evNjhdk0imjCgdosttnDf//731RU8XLdQN7pl3lwnwCaw79hjj1UYGvSIlg37wF8gKmnZsmUKc5OVx5KRexDoO3HiRA20E+6Z0JZtu0cB7onma4blbjILbG/R2z0jtF5NAVPAFDAFTIFmBQwQNmthe6aAKWAKmAKmQIcVyMvLVZCGa/HGlAAKWDYBVQoKxEJPPuSFl1vm091zyhMrRuBgY2NTt8FKgBfwDxfT//3f/9V1+1gbDp1wcQUw7bPPPu6HP/yh+/jjjxUCpQNH0XsEIDRs2LA4FAJgAbaw1iN6LXCQxDp0WChiJcd5LA2xqjv66KPVqu2tt96KX7do+2Gf9gBJjJk1BVnnEFfl1hJWc6RwT0TLX3rppe7iiy/WwCrcR4zr1ltvdffdd58DFBL85Omnn9a6o0aNcmeffbaCuEsuuUTrAEO533BPvkMsIbEWJEIvIBZdSQF67bXXXqoroJYxAbe5b7kuxxxzjMI3ArxgGchYQz2CrcydO9dhCYjFHfphhYllJNpSF6jLdWP8wGj6Bw6yFiOWkEBOEtZ6WDli0YmrNpAw9KMFknwxb9rEcjMTvYGxBIohcY+FiNGJTXN/sS4hCUtMtMjW2pWJfdtxagW4LiUl3Lse+vsfV5JH++YeJqK8JVPAFDAFTAFToDsVsDUIu1N969sUMAVMAVOg1ymAdRWWg63Bgp44cdyHKysrFL7xssr6fsylurpKP91pPUgQFSwZc3LyZExVGmk5GajKpq688OOaCsTDkuzXv/61rs23bt06BThEliWqLJZmWKZhqZYsoSMwMPrhvgH0ESxk8ODBauGGGyp9AqsAggCxadOmuWcleAmuwYA4wBqQD4AF7AIotaYLFnWAONLSpUvjFovJxhrNo91Ubf/5z39WWLpq1SqFU8Cst99+2912223axOabbx5fsw+oR0CNgw8+WF2GcdElOApQa/78+e7222/XOltttVXcCjA6DvQgkAuwD3CGDvT7s5/9TIsB4IB6ifcrWp511lkKAIN+q1evdpdddpnWA9oBgMP1wZoRC0Jce4GAQDiuNZ+ZM2dqQBCu4Z577qlQONHtOjpmngePPPKI++tf/+p+85vfuA8//DCllqEe4+BeIDFe5poscU3QggS4BkJa6hkK+P8OYCHYKNfbw3X/d8TfNVHYC3TLvWnJFDAFTAFTwBTobgXMgrC7r4D1bwqYAqaAKdCrFACmdTccBBAEyNGauGGs+VhMiasin7CvQRgEbFCGT4MAi3oBInxq6+pdrUBE8nCaSwWOWus/0/NALeYFsEzm4pppOx0pB5gCapGwiEu00kID8v74xz+6H//4x27q1KkKhYKrcOgbuIUVG+WD/rgHs74fCddhYFeYJ/AAizfcTCkftGY8ASB+/vnnWhfIyHVLBauoj4UZdUmAvNCeZrTzC2iZDHLMmDFDW2QdP64hMI8PLrHJ5sLYmCuJ4CNYxAH/omOkzURYxnnKUZeAJUOGDIlrq43JF5aBwQoy5FEP+IarOFaBfBgX+mFRSMIFGpAaNCOPfcAsUBjLwN13313XgUymAeVJgNBzzjlHdUKLTFKwnkSzsK5iYj3mEOZFu9FxJpa1465TgGdwtSzLwPNRbuB4x+wFa2jutbq6GrMejKtjO6aAKWAKmALdqYABwu5U3/o2BUwBU8AU6HUK8MLXXYnAKFiRYZWCBWAqWNkIABHIVyZlR4iF0sjBQ9x2Yjk1cdRoN2bYUDke7Ab3G+AG9O2jwFAwlquSNQlXi+XUZ2JxtWTl527BsuXuw3lz3Udi8bVE4NSyVeLqKVZwwMUozOkMLVgXEetBLBy7c11H4E95eblOCTAUBVxhnsz9gw8+0MORI0cqFEsEhFi4BfBDG0AxjrFG+9e//uWuvfZax1p+iaAH4IBlIhCLdf0AiqxBiDUgbrek1u4/xocFHLCJBIBrrY4WbOULaJc4XqoA7Ujcl9H7grmMHj1aP8wHrZgLOoQgJ6nGheuwBqjRlpu/uD6AUqzukkUYBgImQl1qUw/XYSAt9eiX8bGuIQlLRiIJJ7aJhsBI5hXAolZI8UU5rnWmifJBP64x+iTCUtpivIBhEpaYASxrhn11qwKN8jcdve8ZDD908Dwj8Tzjk+pe10L2ZQqYAqaAKWAKdJECBgi7SGjrxhQwBUwBU8AUyKYC+QLRimV9PiBNeNkM29Avx1UCNYCCX5g8xe0nARC2HT9BgOAgN2TAQC2GKxxr/FEW65fKagEosQb6CNzou9lIt7lYTOVun+vqxMrqs9Wr3JIVn7s3P57lnnn7LffWzFluXVWlK87QQiqMLdWW+QCXSD0hSApAKLinJhszMAAQRcLdMxk0+8tf/qIRcwFTgCig0S233KJr8mGVhsVacAGmHa4FZVnnjnUGcdcNCagIgIyWD+dSbWkvWJyxFmEqa8NU9ZPlM45kib6SJVy1zzjjDIVvUWiGtmicLqXqK9Shz2T9onWqlAhxqA/IJeEqnsxdnDLUAxRyfZJd61T9ZZJP28EyFE1wgQ7AMFqfeeFaTuJeMEAYVadn7fNjR3Fxid43/IDDuq7J7tWeNWobjSlgCpgCpsCmooABwk3lSts8TQFTwBQwBXq0AuElUZiAJP3KaLxABKxRgkUKFlIAF0Ek+uIZwIdaDMqL6bHT9nNfP+BAN1rW0esjx3l5OQ6LwpqaWnlpBeZgL+i3HDKegHgAhznCWMTJWNrmXI4b3FfcOQVebDWu3H1l773duxJ19t5nnnH/fPUVrZwn4KS9ifZ5mcYdj7UROwNktXcsoR5r1mGhFoVa4RxbriOWcSTcd5PBLNbZIwAJUImE+ygBT3A/xfUYK0JAYQBOWMude+65ep72f/7zn7uXX35ZYRBwiA+Rf7FyyyRhwUT0373lepWXl6uLLC67YTzJ2gA6cW9hRResH5OVS8wL9180H8u83/3udwp+mfc//vEPBWHMA9jGmn6s79hVKfztRftj3FxrIOH111/vgLrolphw6eX6oE3YTyzT3mOuP+s4kgDAqQKboBvXkQScBhImWjvqSfvqNgW4x7g/iNotl0ueZzwb6rttPNaxKWAKmAKmgCmQTIH2/197stYszxQwBUwBU8AUMAXaoUCTvDiWuX79Bwg0AYh5N91kcCXauIc1faQOkX0bXYW8dDqFfFIqUD3Z5dx0ieD6fz/6kbvqlO+5KWPHCBwUl08p1FDf4JoAf1TAclC31G+M7cuWfSWCsuXtVv4VfqJ5TU1SX93oxGJOwOSe22zjfn/OD92NZ53jdpkyRV2Zo2POdJ/2C8VyEC2wHOzuCMqMGx2BeyTWnUsG1NCJwBYk1gxM5grLdaVu+ADcgFBYh5UL6CF6bwA8tMd6erjdogUQ8A9/+IMCRNYqXLRokfaTDF7pIJJ8Ufbxxx/X+eBi/KUvfSmt1RnjPfbYY3W9vbvvvjtu0Zmk6VazmDMAEKtQogBfffXVGoAlzIUAL2HurTaWxQKMc/bs2doD1weXcrRO/BC4hDwsMlv7e23rcBkDemBFSNAV3Mr17zDSEMdouaNYA+NejGu6pZ6lAPdFkTxvi4tL9fpVVVUYHOxZl8hGYwqYAqaAKRBTwACh3QqmgClgCpgCpkA3K6DsTYCYxIhVi7mysr7inurBH5aBWNDxkhkAhI/oW6wvnLm5OQrPsLBrEJdfEtAAyzXKj5P13S454UR33Q9Od7uK5VatuLRJAYV8CgNlNwBAZYoCCWMntZzm8RXqyL5iRMoBC/WY8x4cAhCrxaLqS7tPdTedebY748gvu6ESbCIRbEiNtCk/v9AVFRSJ1aCPpJy2cCecBP6l+wRNn3jiCe3tyCOPVBdi6nCODxaOWHoB+EivvvqqrvenB618UT9E4SU4xmRZazAkrNiInEx6//3342AyjAlXZlx2M00AOIKEvPTSS2oJifUhQUS4Z2gzpDAnwNQFF1ygFnRYPnbEkpN7Mqzt96lYm9JW6BMtOX/EEUeEIXTbFo0efPBB7X+HHXZQq9BwrckM9wrncD9m/ULy0iXmhqtwWywwae/hhx/WZg877DC1QAt6kYnF5cknn6zXButB3NMBi5Z6hgJyyRV4FxViOdgolqaVcs/X9YzB2ShMAVPAFDAFTIEEBez/IBIEsUNTwBQwBUwBU6CrFQAc4GYaAA0vkLjzYumFdWBJSanCQPY1T6xRsBoCFGBd54ORBDghb6SSwDz77bCju+I733UnHHSwKxTIiJsoHE9PYgaoMFCsB4FC+olZCsoprAoBh2pVKFuOZVBSOVYmgCS25MtGnJVjW8BFvRvUp68786ivuEu+dYLbXta6q40BTGkkbQJwqFWktF1bW60v1mkrdMJJANzYsWOTfggAgaUd1+epp55Si739999fXX4Ba8AkrssUsZi87rrrHOv6YckFgMs0YR0IfATAYTF4wgkn6PXl3iCCLlZqJNYhxIWZa4lOrEf4P//zP/E16DLtD0h1/vnnq+Xb1ltv7a688kq33377KTAMgS4Ak0RtvuGGG9R6bebMmbp2YkcAIZAEcEr68pe/7OibeWBpCYgM0Z8znUe2ynE9nnvuOY18vOuuu7ofifXtNmIdi4soY+UaHX/88QoR77nnHg0Swv2RLnGv3HjjjWo1mcpdOFl9rDYJLIP7+de+9jXVC/d14GC4D6n32GOP6X1ngDCZit2TR8AoLKEbGuvlOe0DyPA3bckUMAVMAVPAFOiJCtgahD3xqtiYTAFTwBQwBTY5BYBxRLMEQJCAfrxHYj0IrOClPze3UEBUoZ4HIgIqEtexypVKrDd4/L77uVMPO1TXBySYCByPNQa99R9NYK8osE9b40sJn2ykRHh/hfdJHbyWKQeQ9Pu0Qn2fz3dYuZCW1F1Ztg0Cg8SZ1u0voHILccm98s9/dv947VVXIi/MqRLzxBUPy0igaUdgVKo+kuUDy1i7LdnLO2uHPfLII7ouHlZvV1xxhbvmmmvUcmvatGnqfko9wB2QEcAGcAMStsVdlrmyNh/uxMCnP4teWIQxLqzIAHiAQ4AVLq+0DSDk/rjtttt0PMnmliwPnQGPP/jBD3Quu+++uwLOWbNmOdYjpE0AIdCTe/KNN95QC0dcXplr1IotWfup8qgHOMU1d99993Xl5eUO92JgF/uAWiDaeeedl6qJLsvnOl544YXut7/9rcLMnXbaSXUnn3Uot9tuOx3LRRdd5F544QWFxMwjWUJvYGuINs21pQ75rSX0wRX78ssv1/EABYnkDLSeOnWqrk2Iyziu56nWxmytDzufHQW4vjwDa+tq9AeGZM+X7PRsrZoCpoApYAqYAm1XwABh2zWzGqaAKWAKmAKmQFYUAPrV1Ys1mrjX5ufXKzDEKomXSj7e1ViN+hQM6nqACSMB1Z0yfbrAwcPktdQHIPF0UDAeBoBxqgfkIwnsEeqXCwSEDMq+wkROUrZB2pCTamUoxxgSkg0UpLgWU5AoB3oCC0Mt4EvJGoWk0UOGuWtO/Z7rU1riHhYwAoBKTMwRy0HAF7A02+sO0l9w9wTspUvl5eUyLz+xRx99VC36CByyxx57uAkTJsSrYgV47bXXOkBbFA76uXkwirVhqkTwkGckyMsBBxzgbr75ZgVAlCeQBxF+gZNAOz4kAppceumlDpdnUrq2tUDki2tAf0BHLBOBkgCnaMJS7dZbb9U5Ab+YR0jAjwC0o/nhPNtwnUMkavJwhT3llFPcJZdcooFSsNAkYaH49a9/PR49OLStJ+UrtJUOgnE90T2qQ4Bw6erRF+Wi9egXMPrNb37TnX322Q4X3+h9grXnL37xC3XXDmOjTmgDsBwSlpMAwTPPPNMtX77czZgxIyM4SH3qAhS5FgSoATIG0Mh5oPJvfvMbhaxhruRb6n4FGhr885BgTeZY3P3Xw0ZgCpgCpoApkF6B5v/LS1/OzpoCpoApYAqYAqZABgrIGmMRPJZBhYQiubl5Aq3KNLdKXNLCuoIJxVoc0ikg4cyjjnZnyxpuWBEq76MkJ+W/+AoA5QDbP6Ag+fyPAKdJsB+Fg3peMuTA/48CNoFhX4s2F9aKsXqxxrRkvP1IXemgQqwCf3bnHe7x1191uTnN1lMApsLCYnWdxpKuqmq9jiXWW8oN4KlPnz5SNswiZdEWJ6ijbtet1KUc0CkK/MhjnPQN4EL7uXPnqtUjsCgZMKM8HwBSFCglDowxAYaBPVHIFMaLe2p5ebn2FyLWUp56ieNMbDvZcWgXq7itttpK54NLK5GSgVmMNdl4Qz3mznVINmfOYelK/QDOGEPQj3zcjAnogkUjZThHnQDsQrup2orOiXrUR4cw5vbWC+2GsQIRAYS0jXUowJT9ML5QPlznxDkzDsqyDWMLdTLZco3RGUtGoDTBSwC8BEhpT3uZ9Gll2q8A9wF/R8Vy3xSIq/G6dWvb9ZxKNgL5scA/mpOdtDxTwBQwBUwBU6CdCth/XNopnFUzBUwBU8AUMAWSKdBRQEibQKHi4hIFPn59wfTwi7P8B/34afu5/3fc8Q5rlWbyxxkpIRuYHSmUjx36TC2GpaK3IAzltQznyBDwovnyBTDcoKFYfZ+pxbRd6kdP5eblus9Wr3E/+b//dS99MCMOVwAtuBYDUCoq1gtESb+emzYuXx0BhKGNjmyBRwAfEkArERZ1pO1UdUOfnd1fAGEBZHFN6CPbCZBCP13RV0fmEnSnjc7WPtNxddc1ynR8Vq5ZAe7rtWvXyBqEJa5YLKOrqqrUMloecR1OBgg7LKE1YAqYAqaAKZBEgez/X1+STi3LFDAFTAFTwBQwBVIrgCUYL5cscM+ntcT75n7bb+++f9gXXYEAOB9QBIAHxsP/N7bPcXxfwF1sX8/DuMQHuTHkaZASxYDerxgIpvVlI5ZMfl/alXI5sbLqwxxvn7rN/apvspxrlKjEIySq8flHH+OmjBmjcC1XrMgK5QUauEaUz0zhYGu6dMV5xoz1Fp+ugIPMKfTZ2f3RHhZ8QFcgdVcBu64CkR29H4LuXXmtE8fcXdcocRx2nJkCPA4bNOgUVrb8TXUCHcysaytlCpgCpoApYAq0WQEDhG2WzCqYAqaAKWAKmAJdowCWJjkRN9xUvY4ZMtSdfPAhblj//q5R4J3a98VAXQBzTQ0BDsL2AHcNzTBQjgmSovksMqjHspF/cmQNLT2OwT6hd+wJGPSAkTqhXDN8jLWBEaD2Fdpk26iWkVsKHDz10C+6fmV9XGFBkcsXwEZEZtZhtGQKmAKmQG9RANdwfvRg+Yg8scrlyWrJFDAFTAFTwBToiQoYIOyJV8XGZAqYAqaAKbBJK0CkYiwHsSJsDZgRKfjEAw90UydNknXr/IL4wD4P+QB/8jIK9FP/YlCerIOmloIxwKfWf768wjwFhBzLR2Ggb8NbCUodtSSk+RhQVJhIu8C/2EePZJ8oybFyatVIWe2vSdfYO+wLEq1332muXvLrxbKwtblu0jeFTd4UMAU2WgVq62p17IWxKPQb7URs4KaAKWAKmAK9WgEDhL368trkTAFTwBQwBTY2BbAyKSwsEjbXqEEQ0rnb1ollysE77uSO3mNPV1tXr1APRuddhz3jA9opvAPsARDVktDzQoWH6oIspopUjJWFEfpj3wblGgGGCvyoC0D05bUO5Rv9uoQKJ7E6BAQqbIy1RT8cYxZJP/KpEyh4wgH7u50k4EJFZYXOWUpbMgVMAVOgVygQ3PQJNsUzXa0I87AitGQKmAKmgClgCvQ8BQwQ9rxrYiMyBUwBU8AU2EQVYH2xEA22TixOGhoE+qVIrBXYr7TUnXTAQa5YrFIU4Cm0w3VYKokLscRLjYA82ZVsgpB4QBfOcch+sAj0+QoPpT3aiAJHoh/79j3koy0FhgEA0jxjJl8DnoRymindSHRlHafvZ0BJmfvyrrv6tRPJt2QKmAKmQC9QADhYJGur8oMP61Z6N+Nc2TdA2Asur03BFDAFTIFeqYABwl55WW1SpoApYAqYAhujAgRrwL0YMFhb613SUs2jWs4fuvPObqeJE3RNP4CcD04iNcRSxRv5Ae/Ij8FAIXvsK6DTMrE6wEEpQoLRheAllKPN5sAlUkiOcTPWNiPtUbY5WEmsH/qVMn48Pk87oF3J9qCwwe295ZZu+/HjXT3BTyyZAqaAKdBrFJDAP4UFrqSkNA4Gec7zY5AlU8AUMAVMAVOgpylggLCnXREbjylgCpgCpsAmqQAWJkVFJQrNgINq1ZdCCYDdZoMGua/ttXcMqiltk9Ky5cMmZtGncI8jYJ1SOdkA7bRQJA9oR4ATKdeoUI92KCcWhKEudTgf7yPWTqw8Z7ROrP0AKbUv7Zs25V857yEj0NC5gaViRTh1N9dXLCItmQKmgCnQGxTwy0RUueqqavnBp04enfJ8FTDI+rKZBJ/qDRrYHEwBU8AUMAU2LgXMxn3jul42WlPAFDAFTIFeqACWdLii4ZJWXV2VNFgH53i5JCImgUm2Hz/BjRw4yFsICnRjBUCSoDfdZ0tAktwm2eopgXFERQbeSTuaF8unpK8VE1dO4koM76Nl/Vf6jJcK7WmD9IkbMsVoVyphHaMbX8dbJ1KbJGVjezoIyZTe3LZjx7nhAwa4ucuXNZ/X8vZlCpgCpsDGqQCQkOc7cLC2Nkef8Xl5uf45uXFOyUZtCpgCpoAp0IsVMEDYiy+uTc0UMAVMAVNg41AAy0GsSkiAQm9hkqPrViXOoLqm2hWIC/I+W23t+paUqPsvgC/gN/YUE+oG0Kd8T3MBct6tV0oDCWlc1wn0veixfAEHc9lSOdaex3oe+JFH2QAgaddDRz8K7YMmFUayIwkQSLnQpu5KebaSN2H4cLfzxM3dgs8+0zn5Sq1/m6te6xpZCVPAFOheBfwzkejtjfLp3rFY76aAKWAKmAKmQCoFzMU4lTKWbwqYAqaAKWAKdJECYhwoFibioCumdrxI5pCBtaBYndTX18mnVj+UKZIF70cPGeq2GTPG5cn41CJQIJv66krdXIVwMRin2QLzpJ7COrYK5LBokR0+vKxKNvvaFhZ+Eum4USIMN+k6iIxHfk+Ut9omiZTcJNE4FQgyTm1CviThNtz88f01CvjTNQ+1HylHUfb5yFxz6JddaatQFu7fbYstXH4bFvDHqtIv+E/DlrpTAa6hhyDdOQrr2xQwBUwBU8AUMAVMAVOgvQqYBWF7lbN6poApYAqYAqZAJylQU1Oja1QFz1sFcLG2FboAX+QYIFZcXOZGDx0qaxAOFIBIrkDFxmDpJ7BNTfLUYE/qiDNvsNyjvdg5qJzaD2JFKG1r0oJyRkBgnlgx9pm0uSseNtTlFhUKIMxTMFi3Zq2rnD/PVS1Y6HJk4X0G5XumHwARrfpM3646HWsh7Ua/pEZsuFoHSCjHdQ114mY81pVIu7UCRVtLYS0v767XWunU54GuyRLtb0rWiVwv3NeTzZv7rrVUV1en91JBQYHep62V35jOo034O8lEizC3aL1kuoZyYcu96NcfFdAvmvdGLcNcbWsKmAKmgClgCpgCPU8BA4Q975rYiEwBU8AUMAU2MQU8SGjd7wyA0CDWhFNGjnJD+vR1NVjzKWCLQT7An+xy5HOwSJQDmBz5HOhOjq+m3xSWAkAQsVgsHT3aDdlvX5dbKGBQAqdEU4mU6bvlZLfuw4/c5y++7HLyBRwq7cP6kW7kCOio4JJ+PTT0o2EAkEEZsG45F2tdtg0COScOG+4mjxrtXpk10+UCLFOmJrEcLHCFMsZ4GynLpj4BhOnXr18LoMUc1q5d61avXi3u3kSWLtBt6pY27jPMt1QCxJSXl+ucKyoq4nCUc0uWLFEL16ADedGEVm+++aaWueKKK9zjjz+u1yZaZmPdD2Cwf//+6vK/Zs0a/3eUwYSKiopUV4pWV1e7qqqquK6J1Tk3cuRIN336dDdUfgBYsGCBe+6559zixYvjbSTWsWNTwBQwBUwBU8AUMAU6UwEDhJ2pprVlCpgCpoApYApkWwFxzR09aIBnbuIK3MRigUA6hW1yrMCOLNyNBQTCcqScZgMHyZAtMM+fpCIux42ur7j4DhU4GE9AwxiBUygkYChHgFm/bbdxBRJQZPnTz7rG2mqXK/+QaElJYRhTgJcwQfmHUqxi6EtiXSh7fjgyJu9evZUAwpdnfiTHnE2ecsWikbUa1U1afKQLxeowjDN5jZa5WMuNFhh67733KphpWUKsGsUqbsaMGe6OO+5wTz75pAKeZOXamwd8BFLWC+hNZcnY3rYzrYdugyQi9i233OJ23nnnpNUo8+6777rHHntM9Vq/fv0G5Tg/XNaQZA7FxcUbnGvvAfcbQJI20ae7EvO6+uqr3b77+r+LvfbaS+EdUcfTpVGjRrl77rnHjZGlAEh33nmn+/GPf5wU9jHHn//85+673/1uiya5/77+9a8rsE4Esy0KW4YpYAqYAqaAKWAKmAIdUMAAYQfEs6qmgClgCpgCpkBXK5AvQGn0gEFicSfrAQL6YtZ6ADhSwGpAG/gcJnYKFmRLnsI5oXK+nD9m7cOiQYM3gIONsv7g+pmzXOW8+a5BXKALBw9yfadMccUjhtOqKxkz2g3ceUf3+UuvKPTDXdgPIVgQAiFlX7Lpi08jiw6q9SAtcEI+Mfdo3JPrJfjKpJEjhDGKhSBFkiTmUlxcKmAtR62y2uLymaS5OHxatGiRq6ysjBcBTmFVt8MOO7jrr79erejOPvts98Ybb8TLdGQHOHjbbbc5gNOJJ57o/vOf/6S0LutIP5nWBZiSli1b5latWhUfC3qXSDCcbbbZxm2//fYKES+66CL3+eefx8tk2kem5bhPd9ppJ3f//ferFd0Pf/hDtWzMtH5Hy6EF1n977rmnwsFhw4bp3w5a+L+h9D1Q7vTTT1c4CNzkWgf37cSaAFXAIffAZxKg55NPPnGzZs1yAMatt95aPw8//LDCQ861BiYT27djU8AUMAVMAVPAFDAFMlXAAGGmSlk5U8AUMAVMAVOgByiQJ4Bw5ID+EkQE2IY9HuhNQFssxbCg5GIjCCIEavgYxL6IB3MaoViryrFE1hy029TQhDTb6Fa++ppb+977sXacq1my1FXMnuM2O/JwgYWDtWzZhPFu3QcfutqVq2LcL9anABLPC2P9U1oJYRin3xLEhBqxI5lTjisfMiQthCkoKFRIUldH4Jb6TnNlveyyy9zLL7+sVmsMt0+fPm6IjAVQdeyxx7rJkye7u+++251//vnuvvvuU2hGuY4kIBSpJ0EfYOiDDz4Y1wG4hQ7Tpk1zp5xyijvkkEPcBx98oNCUc9lKAfyiEcCtqxIgD6u/k08+WT+sCfjPf/7TTZ061Q0cOLDVYeBKfNRRR7njjz9e7ycA4I477pi0HvP64he/qHBw4cKFem/9+9//1vliVbjLLru43/72t27ChAkKEQHUrFdqyRQwBUwBU8AUMAVMgWwokL3/s8vGaK1NU8AUMAVMAVNgE1cAQDiorEyt7DxZw/ILzOYZHPKwD3YLkNAb6nkMp6hFdvU8W7FAxHqwQIKehFQxe7asM/ihNCil5cM/siiga6yucp8985wbuIu4omK5KHkYBNJyjlh9YV1F+xoohcb8CfbkHGVkR780S8pKHbqgrhxhyTi8/4CUgBAgBTBqEHhSW1uTspxvvW3frKO3cuXKOBhjf+7cue71119X19obbrjB7brrru7cc891M2fOdB999FELsAccAloCmQBcACAsEQMIDCPCRRcoiAszCcvFdevWaXms9aLgDU2BQpSlPdqmLusv8unshPUgaxAybhL9k4dVG2M777zz3JFHHul+9atfbTDO1sYBaGMejJ+2A9wFoAUAyJYy6BisOZk3eqEPmgJuSeQB0dIlxk75ABvTlQ3naPOcc85xxxxzjK7/x/VmTFhQtgYImRuWf5dffrm6owP3aCcVIOS+OPzww7XrG2+80b3yyiuub9++YSjunXfecTfddJO77rrr3Oabb+7GShAfrkPQK17QdkwBU8AUMAVMAVPAFOgEBQwQdoKI1oQpYAqYAqaAKdBVCuTm5Lr+pWWuWgEZME7wnYAQwWxxMKdAD/gm/0DgdJ1CtdaTQx1oLJ8STbKG3/ChErnYW7MRxbharAWbagReCZADIOawPqCuIJjrapavcMv/9aS2Qz8ENpFGYtNnDJ4Bat9yXs+RKesSain2/Z6vo0aG5AlzlL4HC9AJrfkCzd/5+UTIzRNgU9EqHGquldkeECl8Qo0AlpYuXepOPfVUBTjl5eXusMMOUyu6YPkHVALasIbcNLG0wzWUPAAPgSb+9Kc/KRQDWFHn9ttv13X/KEe6+OKL3ZlnnqkQEBAJlASiUZ4xfP/733f777+/23LLLRWcvf3222rV9q9//UvLhPGypQ4wjvHQRlthEv1RJ9QLW4Dexx9/rGBu/PjxLfqNjiG6z3ho49BDD1WLvC1knUsAKIFPHnnkEXWzBsBRBjD4la98xR133HGOoCCk7bbbzv3xj39UbebPn6/wjjZ///vfuxEjRqQdR5mA9DPOOMPhPh7mER1bsn3KMb+///3varUHmMS1OpP6zIP1CgGJf/vb33R+WBKmSmgNJEQL7pVwv4XywNOnn35aD3F3B9AGPUMZ225cCvD3D0i2ZAqYAqaAKWAK9EQFDBD2xKtiYzIFTAFTwBQwBVIpICytQCz3qgSSAAVzxOoODgd0y5H1/ICBZAUrPk4B+XLlfABvmhc7ypF31VwJ+BEiFgMI6yR6r7YuDdENcMSf5wAIRb/SnlgDch5ooWOQDRlsyBB7N92So2Mjm8GRJGIJxoRyRrIAkHIsbRcJBEyWGEO+Wp7VxS3vkpXLRh7ghvXhbr75Zsd6eLgdsy4dlnWkzTbbzF177bVu9913V8s4QBGaHHzwwQrGyKdegDvbbrutRqoNloVYhwENqDdAgr9QDsBIEJVbb71VwSCWdJwHGuGWesQRR6h1GRZmAEESEA+I+Jvf/EY1AjrOmTOnhaWjFm7jF2Miui4WeayXmAizUjVHlOhLLrlEwR9tAAGZK3O+4IILFKriws36esyZoCBY3AUrSizqgITUBZIxRxJwFYu6ZCmAN84B1dqSsMoE2OJGnQkUDG1zfQCbXGvui5/85CctLEdD2bDFShIgytzoN1HTcA9QnjUfabctYwr92LZnKFBW5q1ZsdBt5IcVS6aAKWAKmAKmQA9TwABhD7sgNhxTwBQwBUwBUyCtAkA13Hv1X9YWlBSzylPMJpBQnHUVvgHpdB1CX5xDgRFaVUEDYAILwlyJAqx0jqYUEK7xQ6AfwJxYcw3ZZ2/XKBAkmnLy89za92e4qjlzlfuFvgB9tK39x12KPUwUA0gdA/FKfPOUk6TjkpELJEqWWHsQOEIgE9+2L9VVwARrPKzCAH3ALdblww0ZsPODH/xAwRCRfu+66y733nvvqaUfQS7OOussdcnFChHwBAT6zne+o/DoyiuvdMBCIthiNUjC2g04hg5/+MMfFPhhMXiHRFL+73//q7CPdk877TS1jnvzzTfds88+q9oACoFUUySYDAn3VtxdAWuZJgBcAJzUYX5Y4gHkiKYLCMMdFj1aS1wn5g8EI/gJaze++OKLClsBaVjX0S7BSKZPn+7QiIAcL7zwgrr04saMlldccYVG8QUuBhdj5s/YEhN90t/3vvc996zosmDBAtUmsVyqY3SnzwAoU5WL5tMnkBgLUoAkYBaX9UTgF60T9gMkDsfRLVp/+9vf1iwAKvp01f0eHYftd44C3A98SkpKBZRXCSjvvujcnTMja8UUMAVMAVOgtylggLC3XVGbjylgCpgCpkCvVgAYUSmWZGo5CFTzhFDn7HclU0Aa5ZS6yTdQjmjBPk9KqeWf2O5RXz5ELNYdyJ5QRLUWxHpQzPxAjHlitVYyepSca5mqFi5yFdqInJMGwZNK/qipUYs1m2Y1CY/0uxzHhsjG9yxry1VVhaK+gnzzUo17MWAUaBJNXQVM6AdAQ8L9FUs+EmNbvny5usriShzWJqT8jBkzFK797Gc/c3vssUfcko81DAFQYZ29efPmaVnqBLdl3FRfeukldVF+6KGHFA7SJ9eQ+pTDMm9/cT1+5plnFBwB7Z544gldKxHQh3tqJiBPJxL7+trXvqYBOZgXCbjIWAB5uBj/4he/UJgZzseqtdgA2iZOnKgwFIsp6j3wwAOqF/MEpgICAaoEBSEAB+sbrlixQmEiUJJEXTQN1nNBH4CZv5+bu+beADx+61vfUotEgGywrmwu1fpeW+AgrTEmYCyw995773W4fgP+grVj6z22LMG8AahHH320rr+IWzr3S1uvZ8uWLac7FPB/L/4ZzH6RWG3X1vo1S7tjPNanKWAKmAKmgCmQTAEDhMlUsTxTwBQwBUwBU6CHKkAgj1USoKF/bD0yHSaETVKMtyk81LUJySNTPX1xFxZ8BxXEdE8wnDc8bHL1a9epdWCuWGTl5AmMEzhTs/wzoV9STv6tl/7Wf/Kpa6oT6z0BP30mTnC5xX7Nwkax6tJO1B0Zv2H6kY2aCHoKyFjwLJZv+SeQQoaAVaEcy7/UyZVyn60V60XZRlNeXr5CGCIXRy0MAU2tgapoOx3dpz8AFtaDwXoNa7tbbrlFx4XrLGCIMQKv2CcyMmmwRH7Gyoz6ACg+tEcCMEWPyQcQsZ4dCfAFMAtzp+3Zs2crgPrCF76gfVEOeIQlItZzlAVcthUo7bfffo5PsoR1I+MAfIX5JytHHmAurL+HBk899ZTWCXPGEhDwd+edd7qLLrpI3YpxqQ76BBBI+aBXtK9wPuShPfWxumQfy0nWLOT+QK8qAc+JQDHUZRuAZDQv0336BXAuXrxYow63VfPEfrCUPPDAA92FF16op1hv8Y033mhV88R27LjnKBDue+5N/jaA/UVFuL9XdQgk95wZ2khMAVPAFDAFeoMCBgh7w1W0OZgCpoApYApsMgoQwXe5QLQBpRKwQECfWgGC3QSkANkCWtN8/fJQLkfhoIeEWlAU8+sICoCSQAxNrO0mgDBXIFPxqM0UCOYSpVjKsSbhsn/8U/akLem/31ZnxvWuW71W87RfzAObCHIh/eDqrACQMSoxjHULKYyNVbJZx1ANDaUB6c4tFLddtiHlCOAJ8AyXvETIEwBQKJ/tLWCLF/yoJSPAjHHxAcwBArG6oyzrEIYEVEscfziXuI3CQOowT4Jy0C4WjAcccIDqkuiiStlg6ZjYZibHBAR57LHHFCzSFu1jCbjDDjton8BQoN5Pf/pTPZeqTUAIazWSFi5c6FbLPRSsLkMdQNprr72mh8wJ3VjrMcCUUK61bdDnDnHDHjRokLv++uvVkjL0xzqGrMsYLDAT28Mt+IQTTmgXbGael156qcI7oha31aU5cSzMZautttI2WecSq0vmk3idE+vZcQ9XQJ55/hlNEKEaHWymkJC//fAjSX19nQHFHn6pbXimgClgCmzMChgg3Jivno3dFDAFTAFToAcqAN0Cq2Un1QuAWizBCiaPGCndAP+8wZ2uSyj7CtxitnqyFGGMGFIOGseY/Nh85GN/uk4CINRXVrk81qqTF9my8nK3bsaHrnbVShqMWRpKY2IGWCawiDKkRrGea6iulB0BgqBJ+TesQ6j9+K50ly9qaZZaMMqIeGkmI/bJyctxc8TqTXJpXlOeAsICWXuwTi3DQj5bXrgTLcmi5zt7H8DHSz0QC8vBkACBX/7yl/UToFg4194tgBBo9s1vftMdcsgh6r7a3rbaUu/55593fIIVHMAKt2VA2LRp0xS0nXjiiepufNttt7WAfqEv6gE0qQcgTAb9uHYEAyEBwAB5bU30w4d1CnGDxr33qquuiq9VSHvMBavIqBVmtB8ANG20NQGKCRaDLrhLE/mY6xbmytxDu2w55jzAJ1miDJox/kmTJmmk6nPOOad3wEGZWy6WsnIt+HsPkCyZDiEPnVh7lJRoPRzKpNtyXQFrxcUlEvW92jUKyA8wP7FeYaFYRDc/djY4zXWpFyvecC03OJnhQY6s86D3gFx/EvMhtYSEgET5sUTmzt9Hbi5zYO1C9mmj0QChKmdfpoApYAqYAtlQwABhNlS1Nk0BU8AUMAU2WQV40aypkXX0YhCts4WoF8iw4PMVLk8arpMXV3UTVhAob90csFHiJgXkUK3zpJya5TUX9iV4IZZT9RJQYfWbb7nh0w/S4RYOGewG772nW/nKq65OLPoaa2pdbkmxKxYoOXT/aVqGr2pZk69+zTppQxqhLX33lX1iJsesFzkR6TY+PkppEUaroLDJFch21tIlG2jHSzFa1ot7c9SqLkdemHnp5uWZ7rOdsBjcX9b7I+FKShAKxgXYItgIkYWxHgNQEXGW86ybt80227jDDz+8TcNjnliP/frXv3YEJMFV9vHHH4+3u04sPsePH++++tWvtqndTAp7qJKncCKxPKCQICNHHXWUfrAmBHCkSsAYD3lk/cgUFynU53y4vqnaS5VPYBYCqBDEhQAhie7CrN3HGoiAwmTjAPwyzrYkxgrQxJWZec6aNctNmDBhAz1wa8YdnYR15L777quQENdq3IijiTYoCxzEbZz76Nxzz42D2mjZjW0fzYvkPhk1eqwbMnS4avD2m6+q5XGquVBn1Jhx+uEHgw/ef8etWe2jhkfrUC7Zs3bgIHHpl/7KJHIw1wrYBtRfunihW75sSYt7bevtdlQYidX0hilH1n5c72Z++L6rkcAi/kG3YYlMjsIYww851NkQEkok+ZxaHSf3oofWsWc5j1d51gCYuU8smQKmgClgCpgC2VLAAGG2lLV2TQFTwBQwBTZJBXixixiXdboGAMIPZC24GrVAwT3XUz61zxPrEnmPjAEzea2WF0tlh4xCXpK1jJwnwImuRyhrDMr7tcuRMa99733XT6Lflowbo2MumzDeFYq7Ju7FDTXVLr+0zBUNG+pyBYhpcwLMVr/xpquT9QlZO1AhoJyQPfmWXqVh+tNjsuQIw0FySP7bjwlrRvLXiTXiuwLZaE/LyDZXLICAAI2NLKQYkpSWInkSRdm3pB2Ek52+pX9e2s844wxt+5133nFLlizRcRGYAjhIHkFDCL4BGOKFnpd5gpO0BghpP5qARwQLAQ4Ck0499VQ3Z84cdW0OoIA+jz322Gi1rO8D2BgHoAIY5iHGhmMPg0AvgOm4cePc2LFjkwI49EE/EprhhpyYErWJnuccVoOs1YdbNRGmsepLhH3oiet0qkQ7AVSmKpOYjwa4XuPSTAJQcs2iiXaDa/BBBx2k6woS6OX00093c+fO1XuE8ugAbMSVeJ999tGgM7hwAzYT5xJtf2PYRwNg3dhxsm6pwHyf9EmkT4pkc2AZgwEDB7nhIzZzlRXrXYk8e1KlPv36uYr1/EjRXKJvv/5u4qTJkl/hPv34I7VWzM8rEDg5zI0rn6j372fLfcAhxgcg5u9qzerP3YrlyySoUxinb5PrgwVheGo195T5XnjuYWHNsyskDwm5/0olunGZnmNM5HOPNchzr0ACNBXIGOvqfV6oa1tTwBQwBUwBU6CzFTBA2NmKWnumgClgCpgCm7QCVVUV8Rf/bAjRKC+Ps8XFdYnAlJH9BsjrZuzNGDgo//ByGVKwJGzOkVdcOYjnN8iBvK1ynnfWxY8+qpaDA7bfXpsoGNDf8WmRpI8Vzzzr1s+ZK9W961x4Q4/3pU3Tk+xAD2MvxfqCLMceKPrSlMHCZ8aiJW7pmtVx/XhpzxdAyItyo7ol+5GQz7gBVNlO6EnAkGuvvVaBEBDrySefjFvyAH5IWNYBBxkbkX9JWPqlCvjBeZ2HbFkDL+yTj8UT0XhJ//73vxUSYhUXne/kyZM3qKOFY19AMhLgozMT49p88831WgGvsKpk7MkSY8XicK+99lKYOHz4cLdSrFGj86SNQw89VKsTnAR4FoBYKAe4C3mJ/QDfWPePMQAHgZfJytJWAHWJbbT3mH6wEiVSNPthvNH2AEvbbbedGzp0qAJMIi8DMgGWoTyaMv4bbrhB4eDbb7/tzjrrLL13ks0l2n5P3+dvZ6hYwo7ffIqrlB8SPvrwPbfNtju2OmxckScI4MNib+mSxQr7EispoJUyAwcNcZ+vWO7mzv5ErwN9jthstFocz5vzifztro9XrZIfIIpLSt2w4SPVijBcg3xxY2Z/rTx7lgsgTKZ7KBtvrE07/vmmbcQfkM0N8HfU1FSpf1fBhZh58OG5mCd/S1ge1ooltyVTwBQwBUwBUyCbCmT//6yzOXpr2xQwBUwBU8AU6GEK8FKX1SQvsisEPBHMY6SsUYe1DcGG1ZAQCkf/UgYX31x5qYxGM27C31iSt9cL1ns+Ty0Nq2vc8iefdlVzF7ih0/ZxeX37xEGGVpR2K+fOcUv+/k/XWIGVHOxP+qFNAJ5kACAbpR94YGMwK5Qec2Vc5ApO9FBTzlGG0VBMHIbde2JxVicwMKQAXrAebCIAiiYp7Cu6whQuo6F+W7e8wAcQwJZrSVCQm266yR122GEK7v72t79pRF4gIJBi5syZ2g2RbLECWy8ghAT42V5A6zHHHKPHyb4AZiRcSp955hm1fgvl5s2b53bbbTe1kAtj4hz7WO+xDmBiYrwAtVNOOUXbuvvuuxVkRusn1kk8pmz4JJ7DQi4AT4JnhHUKE8txzLmHHnpIrSqnTp2qaykSjRdoxjiBIkcffbTDPZg8QBsgNgBH3LRJBOxAV7SK/m3hLkqwFCwUgWuA1GRgRxvJwhfghrUVTz755JStcy/cddddeu/gMoxVIPOLjhNwefHFF2sAGNyUcRvnvqL9xBSdf+K5nnpcUFjiVsu1/PQTb8nHjwH6ly/PiWSJuU+avKXA8AL3yayPYlA89gefUIEygGgPzpsbxOpwpUBD7qfovV8ngI21D/v02XCty/wCH1G8Rp5/WC9H6yR02abD6PWSZvX+ZX7xB1ikNR98BCvF5sQ4WIMxT5ZTqBYrbp6VlkwBU8AUMAVMgWwqYIAwm+pa26aAKWAKmAKmQCcrwKvy5/IC/Oa8OW770aP05VEQobgaC/CLAUChdfIuiWWg/CMwRveF4gHvSDmK6HhN5zwZ/qVdA5xI1XUffuDWiDVcQVmpKxTLr3wBhTUrPne18mkS67QcLNN445X6+A0Hh0HtyjdHJzImOa+dSo+xfmJYUqo2nwMerq6pcC+JhdWGgNBDEmCbjpO2edGWr3yx2oqCFjnVoQSYwWovgJkBAwa48vJydRGmYVxgH3nkEYU5AWJR9rnnnlPYdeSRRyr8oQxWYkAxIuOyDzxMTMyJAB3Tp09X91RAEVaIuCpjYYb1Ha7J06ZNcwQDefDBBzV/xx13VCiFJSNgLZqoh/UZ1nQkxhcs7KLl0u0TFAWX4GCtiMZYwLGWIpGMScA4oGk6t1zgBoDsggsuUOtLxgTse+qpp9yyZcsUNAIHmffrr7/ubrzxxg3aW7NmjVrRAQevu+46nf9cccsFpAIXcSvee++9dT3IDz/8UNtLBDvM4ZVXXtF2Es+l06At59Ldg9Fz9M9xNI/rwz3yjW98Q7t86aWXHEFJko0Va1Dg9Pvvv5/0fFvG3FVlmQegbuGCufKc4mcEnhmxxC7PhEjiWTVo8BD5DHWfLVvqVq1coW7GkSLxXbQDOvbvP9CtWbNKdPXPCvpcMG+OPiearZt9tRKxwsVdeaW0G0ZCn4X53oKwRuBhgawhyz3JU42/Lz4N8kl2TeKDaWWHsTEWnxImnaYu9YCgjY24ONf6Z3ma8nbKFDAFTAFTwBToqAIGCDuqoNU3BUwBU8AUMAW6WAHWIXzpk0/dsTt9wQ1gfa4csbBjDMA6eQ/FopBjhWr6JixH4k6sZeQ4Ry375DgQQ4WJQgY9V5QGJGJmUZ5rEBBTOX+Bb0hevHNYQ6ywQF+ucYXjhZ8mFCzSuIJGaVf3fT/aJw1zWswc6RobQk3UlZ0CgQefCjSaJTAtVpXS+tLPC3xDQwBhIE1tQC3UeGlXAOpba/M39UNAC6IQJyasfVhHD9dhLMD++te/KgSMwgICkQB1AGEHH3ywfkI799xzj0Kde++9V/uJ1gMQYoWHlSBgEjDHh3UOCUqCG/PVV1+tx1gv8gnp9ttvd2+++aZCujB+ztE+46FtPkC2KJAK9RO31AvQk7EE9+ZoOVyACQICHMRijzphPlyDAAuBcuGacB6oxRhPOukkhaEA0ZAY3/33368BRMgL7bHPuV/+8peqLWCSD9Gjt9hiC20/WO4R/ON3v/sdVZIm1mkEQEbbTlowTSYaBp3b2k7QVaGT/mE0d4RmXPOQ0ChdwqoUQLgxpWpxE/Zw0I9aH0cpJoDVKYFFasU6dP682QK45TXFP0CS1sBqeaUEbEq8x8MxEZNLZG0/1hRE60FDhrpqcWtftHA+N1u8zQJ5ppG4VuMnTHJlEpWcNiorK9xaAfEATtz223rt+RukHSAfwZRYJoG8TBJjLhRQSZ/V1bUZ18ukbStjCpgCpoApYAqkUqD5v46pSli+KWAKmAKmgClgCmSsQP/+/dO80mbcTNqC2oHAhp8f+WV3yFYS5CEO+qQa/2WPAUDdDy01kzctBC4M/xMAt9D98NIsxwEeatP+pH9Z17DIWMOEBgGNsfqhLz+I2BGVKRurEaqF3uW4VixkfvfcM+7uV18NufpiXSLrhQGbqqoqY9BJ2pIoo2Iv6fr169sCDGgnGX7RLkAAi7wAcaJVsRzG2qdnAAAni0lEQVRijTzWmcNyDXfFdC6148ePd3wmTZqkFmusNwdQA5hhTYh1H1Avuv4c/WGdR7CLwYMH63ywIgOEARawlMNNGQtEXGmBZp9++qm2i2Ud52jv5ZdfVpDAnHB93mWXXdTyKVl/0TmGfeZFsBDcqQPcC+fY0gfgkQ8WkZSJwhLGyVqM5GPNR5kAaULZ8vJyx7qJAD30JhL07NmztTzuwqF86Jd6jAsgyPqFjI12sdgkERE4QMlQJ3EbLAjRLTrexHLpjhlHPwmEgT5o+/zzz7e4hqnqA5i5RiNGjHDAPQLOYPkWEvvcf/LMSKp7KMeWssBBguNsrIm/qV1321OGn+Peeeu1FtBr2IiRrnz85u6jD97T9QDRfsiQYW7SlK3dhzP+mzSKcSotqIs1YvkE1szMV/3WSzCTeXM+detY51T+vkgsXzB23EQ3ctRojXK8fNliVyFLOLAOIoFSNhs11hHQZK6sZ+gDlaTqsWU+fzdAwTwBhHKBtf16CTSSScK1uLi4RJ4BtVrP/yDTXFPuaR6slkwBU8AUMAVMgU5VwP7j0qlyWmOmgClgCpgCm7oCXQEI0bhW4MNeEzd3v/3a13X9P7/WINZ78p92hXhsxcpLyvKyDPsDCWKDFwCicsRYXjjnwaGWokKowY5wyNhZbctbECr703N8MTJfhhdi5Y3SiYeNnKSX8O2DqnC0bF2FO+vee9wny5fHrY0AIsUS1RP3vmoJLqBJ3PRos0CgWx+x8umMhDatpUzgUmgHKBUs+EK9cC4cR/tLd45y4Tx6sE/boZ1wLhyHdlPlh/PJtqFOsnPRvMS+wrlQv7XzzIMywDPqpCqfrN1o+dBfKJdq21r7qeol5of+2tpeqEd7yepGzyf2mew4WRvJyvXEvHSAEBi83Y67aMCR+XNn632ONu0FhMyfNosIcpPDs6REoxiXlfVxcySgyQqiGMt9GAAh1oWfzPxArQaDdmg9asw4gYRj3MezPhR36c+SXsNQPnFbW8uaghJcRLZYQfv1BxNLJT8GDhaKu3ONrD3IJzEZIExUxI5NAVPAFDAFOkMBczHuDBWtDVPAFDAFTAFToIsVKBTQ8p+PZ7kH3n7LHbvjzg63Y1AXAE0hITAOl2OInGA5LFkIEBLHYeobLKe0kuTHQBnFPfqTE7QVakgmEJL1DfU8p2Pn/dKHviTNaD++KJ1Lkkz5V7+kEtYwwQaxXoDXva+/6j4Uy6hieaGPJmlCklbUPZbxwj26oBOj83YWcAntBAgQjhl4dF8nEvlKdy5aN7gmRstH9yNNpu0vWi66n6qtaJl0+63VD+fDPGgr5GXabrR8dD9d/c46197+WqvX2vnOGn9Pb2fU2HKFdSs+W6ZwMK4LDxmeAbIlLzynwnyS5YVzWLbyIbFOIdGON5+8lUZF5rhO3IZZ52/B/Dnq0pzMinX50sViYTheXJU3jDQe+ki1ZZzc61jH+mdC83MsVZ1oPuPGNRlLQuAicNWSKWAKmAKmgCmQbQW8fX22e7H2TQFTwBQwBUwBU6DTFSgQSPjXN95w8yVKaL4ugi/BPFjjio+8jzbKS6pa/ckxWwKEyBu2fPvzumahwDpeZr3NIKAQCAcC9GWVBpJJPW0X8MhUQl+6p21QJd6PAEna4J/Qjx5L2/TFP/nywj9z6RL3+IwZYhXY7HpJ6wEI6L7PkLbFvVjW8sKC0JIpYAr0DgVwAR652WgBYY1usLgUl4+f6MaVT3DjZDtk6DB5nDWJm/lIN1by+vbz7tg8s8rK+qqFH1aBARwC+bC8w0U4mgCJrCO4ZrWPhj1gwCAFeJThB4eiomLZ45m1YQLysSYi6wEmAsQNS254VFdXr4GN/PqpLdvdsHTLI+phOci4C4sk8nXCfFrWsBxTwBQwBUwBU6DjChgg7LiG1oIpYAqYAqaAKdAtCrD4/yyJ9nn3G6+5SlmrKuZQrPANSz+FdfJyrZBQRshWCaDkKezTUbMv2QA98uUAeKf75CsYJN+341+igYqxcwIK1VKRWrKeF+dDf00SGMXDSsnT85SREtKPOJq6FRXr3C0v/MctljXB8hRwNsvorQcjx/KiLFXUbbAtL+rNLdieKWAK9EQFgGBr5RlApN4+ffpJkBD/6dOnr67DxzMFl1uOsajjWaSuweXj3Zix4zWwibdMleeKwMZJU7YSoDhCyyTO10cUztG1/eiXtkaMHCWWhVsKjJPXIh5sscQ5+gMgVsl6pME6OJxPt62VuTDujqQ6Wa8QSJgvcLBYACbjtWQKmAKmgClgCmRTAfsJPpvqWtumgClgCpgCpkCWFeDF8aV58922s2a66ZOnxF13hdLJ+ykvlN5ej3dVtRyUl0x9zdRjwF9wCWbfv4DqOzK7spMj7TQRGllqg/m0QnROsXZivsxyWjLojLL+Xz0CDNIko2GnRlzo7pHosq9L8IaiNBaBvj3pn+Ak8gLPGn+WTAFToPcoUF9f5z7+aIY+JzaYlTxLCDQyfuIWGnkYiIhlHT8Q8KxatHCeuvAulx9J/I8GgL8aDUgyYuRot16CjaxevUqeYf6xhaXhYFlrkGfKGs1n6YVGDT7St29/N1YsFmd/MtMv4SoDKRAX3wmTthDLwxoNlLTB2NIc0CagMr9EIr5L3yF6MQFK2gIZEQRt6uulLRkLVo5EhbZkCpgCpoApYApkSwH7v+xsKWvtmgKmgClgCpgCWVZAA3nIIvzrxAXuzldfduMkGupWI0e4HAz5oHEezel3AHNYBmIjqJjQszr1ItZoxZLvMWDsjdrjPHmhxi2Y1rwloG+ZFmIgkE2ufPl/9aUYU0Fe4kN7OhwpJpzQFQjoe2LWR+7+t9+U4VA5fcKwB0SZX5Bv7sXppbKzpsBGqQDuv4kJkMfae1jOAcqI6BuStzpc49ZJlHHKNVvX5bhPPv7ITdlyGzdZIrxXSOTiivXrNUgJ7smAxFkfCoyMPXc4XrZ0kes/YIAbNmyE69e3n0DFlfKcKXT9JYoxz9hFC+bFgWLoP9WWdmtqPAgE6pFoo0CeXfmyjEJl5XrpO1XtlvnARqCgPObVmpG1ZrG0tGQKmAKmgClgCmRDgQ0X6MhGD9amKWAKmAKmgCmwCSlQXFx8aVdMN08s6XC7y5EXXNzQlqxe7easWOF2HVvu+haJG15sECA6rFiw8Asvxf6UZIZAJbHSFNOi1FH8J9+xt9nmczH2qCU8gtT2pEPti65inft+Y41SSMs49+bCBe6qp55wK8Vtr/nFngLNCQscv0B/o2toalDrwZISiUgq87VkCpgCG58CLGswVCBcg2yXE0U4PCjSTIXow337DdAAI6wFmEmi3KrPV+hahCWlpa5P377y40KBwsLZH890a9eubvHcwQoRV+KysjIp31+BItByyaIFbrF8Mn3uUKeqqkotHb31nw8wAiTkmQbw5AeXxIRlNECRMnxwhfZ18rRvnpOU4RxWlNLHZYlt2LEpYAqYAqaAKdBRBfj/fUumgClgCpgCpoAp0EkK9O/fP7C5TmqxZTNAQaJq8rJYLXCwXlzg6LRK3Hb3njDRXXjQwW7soIGurl6s+Dzx841E9oNtX8vWYzmRskL+IiTQA0JecckGMuaICzKWgvFyCeUpxvgKZdzvSLTiy//1uPv4s+WOICupEnCwpKRMXJFrZH61sl8sLnZFCZAzVW3LNwVMgZ6oQIjGm+lSAcA03HJ51qX6MSHZPPkxhHUKWVeQ5wYRi2mHYB+p2uE854CKDfUNrkYs93jWZgoHqV9RURG3emRcjIMPP+YEF+EQfCSMGxDIeeYYktbTp2bI4fEq/8j4qL98+TJ9/DaftT1TwBQwBUwBU6DjCth/XDquobVgCpgCpoApYArEFegKQIilS7FEtsRChZdFv0C/HwLWOduO3Mz9vwMPcluPGOFq5UU3uBSnIpfhfwbUHRizPyx7IIvhhL6oghTJUhSoL6v0qG3KlywR6F2V/TC0CbVQjL3UFol73cuy3uCvn3/efSQWOSy8ny5hTVMqa4bViDUQRoOl4mOnfaWrZOdMAVPAFEhQANiWCgomFNVDypPaUodncKVYRNfJjzShvjYS+9LnmYDHenke42YcEgCSdWSxcKyTH3pYrzBtkudsg1ghrly5Mv50TlveTpoCpoApYAqYAm1QwP7j0gaxrKgpYAqYAqaAKdCaAtkHhDniBtdHX0JranBlY8HB5sTLKQBx4pBh7rTd93C7jB4dg3r+P/l8K+KLAUB/3FxfvY7j/3fAy6ogQWkzV8BheHXVOrGKuvHFtGXvmuzZotaTF2Ag5RMSROW2t99yK9at9ZY5gMg0KV/WACuVF2qsgFi/qy0v62matVOmgClgCnS6ArgV80mVeH4RoRmLyMrKiviPOlg3FhYW6489rDWYDC4ma3PNmjXpH6DJKlmeKWAKmAKmgCnQigLpf75vpbKdNgVMAVPAFDAFTIENFcj2GoS8UBZgbSIL1WOtEk28hJaV9XWF4p67Tlzq/rt0icsTF7uJgwdrkA9FfEr5AurzFoB+KULWHZQUO6+WggIRyVM4F183iwLywcpGy/qNrgyo2bTTfGJVVYW7/fVX3d3vvO1qpQ4RQZOtwUXXzSnX5eXn6hpiBWJ5aHCwWRnbMwVMgZ6jAECvuro6LRwMo8VVOS+vQNcQ5IedwsIicS3mR5BGrZ8pHKQ9say+LLRrW1PAFDAFTAFToLMUaF7sorNatHZMAVPAFDAFTAFTIGsKFBQUqdVgbQIcpEPOsZ4VL581tdVuXsU6d9NLz7sPPlvmjt9mWze2/wCJzpmnVipEGFanYCV7AgKV6Xn3YeV/8qV4EJe3XB+ROAQs8SQRMChl4ixQdmQtQiIOyxL7Aihr3Aey8P/tr7/m3lq0UF+EC+VnSRbYT598G6wdxsqG3hYxfQ07awqYAqZAVyvAcxY4yDII/IjRGuCjvPy+o2sasgYjaxJSh2UiWv/RpKtnZ/2ZAqaAKWAKbIoKGCDcFK+6zdkUMAVMAVMgawpk8qLY3s5pGwBYVyeQDQu+SMI6BctC1rBijSusUihfIRZ8f/9whvv488/d1JEj3PRJW7gJgwbLGoA5Tjx/HYaBvKSqxaCUD5aDQEBZ5l/P5TbGYKL0p73KMTnQQT3G0hAwKG1WiOXizJUr3f3vvStrDs51i9eudaXi8sy4fQTPyKCT7NKOLtovkZhzWNjQkilgCpgCPUgBnpdYbwMGeaZl+sxnzViezzynCcJEPeAg+ZZMAVPAFDAFTIGeoIABwp5wFWwMpoApYAqYAr1GASJRZuuFL0TThA22sFYB7glQYwF7BX5yrEnKFgh1W7hmjZu9fJl7cuZMt++ECW7P8vFuewlm0ldAXI1EO26gUXl5VeAn3xwCC2lT+5IMMKKmnEaKOnH+VWsYrBJXVlS6N8VS8N+ffuzeXrTILZG1Blm3sFgsZXJz87RcrUQkjiFG307iN3OQT2lJics0ymliE3ZsCpgCpkC2FAAIAgZr5YeQ6DM4U0iIBTUBS0jAwTp9JmZrtNauKWAKmAKmgCnQNgUMELZNLyttCpgCpoApYAqkVUAhntK1zrd+w0WtUUz+cL/ls4FbGgBPrAaxvosmXlzz8mTtK7Ew5IV20do17r53/+v+9sEMN2nwELdXebnbefQYt/Ww4VqGkCdN0D+FgLJt8NCQdnLEYlC+ZV1DAX5YC8qL8ntLl7o3Fs53L8yf5xasXu1qY2PMl/5CQhPqNzaIuWLKRMsCI6XvxDmkrGInTAFTwBTIsgI8N3XZhhgYTNZdFBYmO08eZQCMWA+yhiw/JEmWJVPAFDAFTAFToMcoYICwx1wKG4gpYAqYAqZAb1BAXxQ7nw3GpakX17Z8cVHLE6u9+rpm4AYsxK2YiL/FxSX68skxlnhEBMZyhYjAWPVhLVgl7RDE5O3FixTejR0w0G05bKjbfNAQN27gADdcIm4OKStzRWIRyZyq5GV2RUWFAMa1bv6qVW7W5yvcB8uXuuXr12t9BYixUQL6QiIfQEgb9J82ASGlQIVEAy0pLlZgmap8/L2aN+xYPdU+VYVekI+WJOYZ9sOxnuhhXxvDGHuYZDqcoFvs1o5BpPgdnzBk+ZuR24Ky8p1wrvsPmUsmf5dhzmHEmdQJZdNtQ7uZtBfK8tzkAxSsl3UY0DdHfhTxGvu/v3R9pjvHc7hW1oetra3T9tOVtXOmgClgCpgCpkBXK+D/T7Ore7X+TAFTwBQwBUyBXqrAoEGDm1oPxNH+ybN+VWlpH40GXF1dtcHLt67dJ1ExsRhkrSv+yRVLQ6wOqwW6pRtXo7z91vNiLFvK+y3j9NABdMcLNICRTx4fAX/sp0vAwZKSMh1ndXWlvngnL+/bpw9de1BeyAskymdJSamA0Fpxx6uKVyPACusj8sbeKC/xwUIStz9e6sOLfrzCRr6Dhrhpc30BHcyRvHAcgAaQmPOZwJBsScK4sG7lmnhLV7EcFTDMmBlnd44tW3PunHaBvrkK9FmmwF/TJjn2f8tYm5GXmCjr1x5tjP8okFime47l2ZPrx4bVXMpnjz5H8nTe4e+WeyRY13E/cf8km3tr86JuWOuP9rgHU91/OVKW6O+c95HWmyE87RTqOqoFEpTEP8NStdPamDjPPDtSnzbWrFmT/sFLIUumgClgCpgCpkAbFTALwjYKZsVNAVPAFDAFTIF0CqR8EU5XqQ3n5P1VE3CIF1deekNinwAlvBSHNfzqGut1Qf2W46IhD+V4+Qb0FSa4J4d2O7JljLmyjmFtLRaMLQFHc9velVmhJkFRxJ25oU4AoFhENorVjX+5p37svVhgmLJLOcwTeCZv3frirYBR9tubwos7YxZSGesNK8jmNikTroOOWg98Xqifrv8oCElWLsyBLeuVoSH7aODBiegSgyZcZ+4FIBGCNIgbNzo3yHlczhPHE/pO1m9reYltUZ72/DX29yNgkGukgFp04b5jXUyAcyivOxvpVzINWptKOs1Dex6mEcyHv+n62HVmOQECWhSpxqxXx/UN7VGXsnni7h/K+LXxeCY036+tjS8b57nc/Blyb3CPcr8y3jD20KefA+fkGaTrncpSqCxxIPdyuK+bmgpcXb3Af7mPQv2gW2gnbDkf+qFvdOBvBktA2gz1Q3m2lOfvJ1/+jmok+nqoH9rSvyfRvaDg/7d3Jsqp40wUJkAg5M4/7/+Wf9XUhJ1k+uumY9kxxGxhydEtYjCylqOlrj66pagLexCeEnaV/ZQ09awUkAJSQApIgXMoIEB4DhWVhhSQAlJACkiBH1CABSvuw4RYeHNqcR0CsfjEAoY9rghti1Hujcw6L6BSxOFUTmBDW3xP6Mg/vleiLdI/PiqQuTMpKxfQz2rkUQBcWA+yyDezTAeFTh2KBNAELbgu47Gj60Dd04rLtbE0/R+s0N5nKDVy8OX58gdwB+Aw4ME/rDipE+/9yndVe6UFYKRrOQFTDBBhLZj1ou60S1v7cJ+8KLNbUZo12cCA4rMVdUM+9h1ghLzDBR1LrBCprE/Wa9c1y873AQBNb4M5A8u3b3kCdkiPlIG55Bn1rOqaaZdp5b17uVL2aJcShlZ7bZb1oP7v1uexcOU9YZfmQGAs1HBj5SAf+nzqRLvTH/jeIvTeG1bDpOunmvf6vfF4zEc/RIP2vnYIqB+nknv/8H4Y/a9eNsZNjJ3yPpaH9H/mqpfxpDd7f7OxUM0jMe6JYm3g4ysAOWmgHy9vh63+eZ9rGYjXN+1Jh3JkO2UbEPfzfTEPlGnovRSQAlJACkiBR1BAgPARWlF1kAJSQApIgYdXgAXqi7kPsyiOhbOdTmyWgmlV1hTgc0Hb/MIwzp8///u0MMyvSWs2e3MQlffOcQWCsXjH8umYwHPAEayQlga8voawGMLVEm0AZscEngfUAAYTEJBOAgZgDwTMsIPBBCBe7KvIlf0gd+udpQkwYlJ8hjprqAAkESgDlk9YjQGJdgXyBb5S74BJlOfZgMqLkRlcPKsns4zhbhkwOO9VservKEdoi4szIPYrEEMjdABMp3tmPZX7/4QGgKqhtTXQqmtAXzQM9/evbq5AvdHI2soCbvQrc5NvBjQlDfIn59lsWotCHhEnXGGBg6daudUyOOED2xUM+jamrH9YJz04pbSYHWwtZYc2Tz1b/y4teqv2YCxEFsyRq9W887xDH3YrQstnsagsFbPACcH3H7SUsXWVAlJACkgBKXCfCggQ3me7qdRSQApIASnwyxQYOUh4dtfRuQGCvoEKgCGAASBQWtbskyYgx9DTWZg1Es8BP8YGlNjb8J9//v+5yN6XTpfvgIMs7Fl8H2PRBPjYbIBjIwdQQJIm0Io4G4d7WLW1xfmurBz6Mh5NHDqQHqAtTxnlWcuWv/wpQgX8yBNAxpV4wJC8xz6Neb942N8mzHDyaHfQaWVgA8u/aE/yaObbTKX+mTTesSC1gxASetIOWQaKCAzm1T0EeEGbtAQNMB1u46RJ33mkgF7efx2yRv+r+l7ZLmH9FnWP+/SFDKYYPcIhd683dpCbgBbLQFyDreUN+s0+wX8+m1fyXSzm3oZhbTh24Jj9JuMBk4G4cSgR1qNY4F03YOXKnAPUw0X4kBBjKOYQ9geMPpzWhjH+6hrEWIk+DtD92+c5xvNmuwdhW/6ku7Z5ZvQx8rJS5nI+pR8wXmiHY3+AaMtX96SAFJACUkAK3JoCAoS31iIqjxSQAlJACkiBhgIO8NzK6Mmth3DjBDyw4MayDsiw2XCIRy6aGwlsP7IQBjAQD8joC3a7BwwLF9UAFgkj2lPpfhdrM+DI+t0OWKhoWPcELCYWhCzWKbcv9K3u9RBuhNzDEou4uCN3C+zdNjLQigUXYHBZyyOAxK6UKhhBDMDcZ9hEO2SVSad8VdCP/QIjbj5vUS1E2tX1M+UD3uSehaEX+QfExB0ZYBh7Q7YlGCAwvnliL0hrg7gXbcF7AmnynrbJ+sVT9/oXjcJiEmgM1Mo6BoTH6jJcZtHy3fb3XCw4PCT3yIzvAsDyrPUqe2Bj39OWWB+iPWM2A+0+M1D/HcwjHawCaTf6K+VqWmuSFv3/eRTtm3lc88o2AbhZ00f6/UV9nOwoGHVzKLcFi0RjT03mK+AqY4b2QJN8ESfBbB7oQxq8f8H12n4AYV6L57+6vpM2458fSjgYibkGPfvb9sJqeG7Pl+CQPBWkgBSQAlJACjySAtX/UB6pVqqLFJACUkAKSIEHUYDF8rO52LL4xQWRhSz3WLyy4O09vRjkYi/CjQOD76sdz/pC19IhcEkIlIvstnTIlwV51xAuqZGfPdj1sVq8BDNAFxb8WPc0A/c4xGBkoJTXvCMsBQaQLtotOAHZ4MMh9WuWo/pc6Zr3SpCR98or2l4ilOnSZ7BWwyqT5tjV1s2ylmlQxvJz+Z7vzqMfKf1soB70BeAdQD7rRd8Id9Vw8469AgPOAZRKYEQTel+yceoWaZYeaRKHE8dXqzhVl36c6VNLB6x2JZ99+mXavd7ET/gmLmWongkIDIys7v2sjs3c6HOUEehGPYGa+wJ9Es18z0WrB/HToo86kV6pHWnl56xzxI95ku/SknYMcLS02edxtWQMVFCfeOGmDeRlT0gss3EPp00NzppFbpv797666DspIAWkgBSQAvemgADhvbWYyisFpIAUkAK/SgG3ELSFNYts9jHLxTAisBBeGiQc2wb+uCATvluAYyn3ZFY1AdvS0s7AwhZacLhFE1WxaGeRjXVVADss375a4XgBtn8oJyezEh8LomMDi3TACXABLbDsKRf2pEsctAmXTXOf3oRe+/IEAPDiuTgd9vgy7svnNr/DonE/zCv7Wdc6BKABBDd7UNcUrhMPqzzfC9DgkZcecSxgtbY0qz3GHn1rMpmYboB6g0XeD3dDb0D+fGt5mX1tDjg0CB0ALE4mRmcsFXkxdlf22mdtC2xcGqzisCIAN0WNQ0rCepFxsrZ5AZh4KyGAXezxlxZ8bWVjfFMn5g2eWRv0b+p8SL+kP/J6f1+67htrX7QnD04+D/hY6UTc+Xxh8wKnGo96K3T0V3XQTFu5dU8KSAEpIAWkwKMoIED4KC2pekgBKSAFpMDDKZDWNLZudUgRAKZezXBNnLuFDgtfwi5IyPMrAxSxEJ9YmnNbQGNJZqek2oIY6IcVnVOHbTZ8BzzxU3234CesgjiQorRe2j6wvYTVztAX5ulGW4/R/VPAgrWXISDh14McgJDAlSfTIE96Buy0BSAK0AZYgVVmm65tz+nedwoAZGrd57sHrv49oJxxQ58AjlOBhOfpkhpuvexROXA4SL/vEgDZpMHzjB//bH2U8cl79hAFeDGeGOv0SfavBPpzry0Qv3zhVj8cclJ1AEKeI/1dz7eleel7lAUIzw8Zvidpi37oz7gFeAJAGbvnrANjHF2YL2M+C6vs+Ry34coqmfwpCz+GbOywEp8PLy2Q0pcCUkAKSAEpcCMKCBDeSEOoGFJACkgBKSAFmgpw2ABADCBRujI24wG6cGFkgZ37k7n7cTOifV7bwnthwAIYMRj8MbAQp6xync+ntUU5sCJOEI79/wK4xWmqQBWgxC4YCfAI+AG8sIgnBJ4PyysOHhj5Ir9pRUjyAUsBEeOADSzyDQiU2gF/sASjROzpdmrZTqjWwzzat4MxIoTl3b1UDIjNmKFPOJAyaAcoBxgFHAw3VfoT+wcuFmbFuwM676qzj6sFpw6bla/13QR4scfdv9v8GeMcMAKoNzhl4xNIFv25SpnxlBZwpAvcZpwF0IofEUi3BF7V09d9x/h1S0r2S7UxWcK/Cg7GHquU/1LjMt20SZ/2YL5k7sw5Aj15rddmNbgFh+hOiGnstLnsuq2g3KWAFJACUkAK7FdAgHC/PvpWCkgBKSAFpMBVFABejEbsLRh7eH23YAZwEGdsC17gXd8Wteyr13Q1ZJG7cAujOL0Y6yYWx+xLl4vkrDBpACkBFVjaJJTjUIbJ5C+3igoXwLq1EwtqYABlX7t78emLaqAB5eBAFhb2bQCU+qflkcNSs1h6f+ZkYNPBykF5xmOstsxN1KFAZTmUddb1cAUAWoTv+ujhKV/uCfpnWtwmIHJwbH0o4SC5O4DzPT6xzLM9PxlAB4YP9rAzGA0I4wUsoy8y3rg/meDyP7T3MweAQMB+f+IHEuWYzDGFxWBALizfYi/Jpycrl4Vb1p8y80PHywuwtdqLkB9AgHTAUdoBt+JLu6hj0RyWgxsHtMwV2QdC+3AjR09vM2t/DluizUxlpN4G3JfjwJS83nIbZKl1lQJSQApIASmwSwEBwl3K6L4UkAJSQApIgSspgL3K8Jk9/2LRnJDgu+I4eJhuDHzEnoTsKwiA4H4tOEhbGUxr3K9FCtdjXO2WS6wAKwjIYhhgh9skxjVNZkK53QrH4pyy/2BZHBben1ZWBkn4DMhJ654yLmWbzt56HErAAv/F9CA+L8rFc7ueLdPR++4KoC0Apa09uqdy+ZiUMy1MeT+z07yBV5PJHwfHAakqcDw0WMd+ddPpm/efY0sYgAzrVmDY0PIMN2XGJn0RSAW05H2A7DhN9+3tX893ZM/RnwPW1y19qcftB05LZ3+/2AeQrQ5gbakHulP3S8PBSid+TFj5fEAZeJE/gJD5ln0cCYBLdN8Xsu9zZZ7kRwra6T7aZV/N9J0UkAJSQAr8NgUECH9bi6u+UkAKSAEpcPMKAPY4jZeFKrDrkABcwBKJ1TfWdi8vuCuyOMfa6DCQEBYzgEKQJa/qeUDQruRivzWDiAYBDs1zX13RA8sfTkTF6oj8gQ5t4cN0ADr0+2G5leABoAk0vXWQ1VanW70HdC37xq2Wk3Jhsca4MJRj/WPqMAc4CAgCQAN3MrBf3tiAFrDn0HGYaZRXYCBjIyBU5WZLvrhpM+Zj/Ab4BhhSNsYQz1G20pK3TPse3lMP6uow1OuzMm05JRpI2j6OL1uvPNwoTk5mjmBe8LbeTm7NPlGWJ34I4Zk49Ak3dEOK/qMEaaRVYvmM3ksBKSAFpIAUuGUFBAhvuXVUNikgBaSAFPiVCuACC3DBGuUYwJaQgSswgsMQhs+xYD3Eoo+8gXKkkZCEBbTvlWbwgsVzs3wsmrHaC0uaw+Bml8bGBXFq/PPVICGWYICefSASDSinwuUUCFhMS1QA+XK5HZ8y4J2xkFakWLHRl4Fvbf2Ek4WBRum2fnzO8SR5MI4YT7m3aKa5tP0Nn82dHyjZX4WVK3ljcUcAogGcmuMtn7+XK1oyPwwG5mZsP1rEjxnXKz3zFPMD/YA2iX5QHb6E3rs0J24ZyrmR9IC7QGjaXEEKSAEpIAWkwD0okLtK30NZVUYpIAWkgBSQAr9CAfYWw+KPhTQw4ZjA4hWXublZE7JAHdqC9dUWrAAHFrJdQrpFAisnr69huWdg7vX1L7eyabNKHBpsCbfkSx2W8OQHreBCTB0n5j4cbopY73SrV5e6K043BYDZQGEMrthr71YD5Rybazpw0K3CgMZWXPb0YzwAroDhGbjH+KOPAefOEQBNjBkCmpXjMMba3N2ZA7Bj3cZpvhF/sznux4JzlPu8acSBQ/4jg81tpQbnzad7asyPbJsQgWu+754GMWlf0sIdfTbDijv6F22tIAWkgBSQAlLgHhQQILyHVlIZpYAUkAJS4FcpAGyJk4sra6NjBVgbYMCKxV34jJ+xPyEufoDHcA3dnzJwhMUu6bCY5x9pYc3UBCcshMO9uOcA8VKLf9LlJFQvg8FUgIrvu2hWjVqM72/Pc3/7ZO7n1hzOZv167gzOlB7WYbiAAtzC8jX2l+N+WpFV/TUOp+AzgJDXuQIgEPdT+mxYClcpr6xPAykDsg8sXw4xwWoQS2Cs7u7f8Ye5jXnD62kadJmDKoUu8w5dYxsF68YGks+hM3UEOmO1CgxVkAJSQApIASlwDwoIEN5DK6mMUkAKSAEp8OsUCIuipUM54Ncp4AvAARThQAYWrkAR9vBLUFiBka8yh1VMuDdOp1O3jgFatLnNkS4HOpAH5b90IA/2ZONUZuqAyzEn0bJ32yl6Xbrcj5R+AJ4Ax03gdSv1dGs16xNYibFnZbiMxgndfIelbdzLEocbPX0KyFP/LuMcf6XfotvA9h0sA+7/jB1OhWYsQV0Zu5QPgAUkvPcAREZXrKTRIEDpdS1/0ZX5gjmS8p2vTB+yab73DqvySwEpIAV+mQL1/5n8ssqrulJACkgBKSAFblkBrJ3cCsUW0rjR7gN539UDyJFWd1gErlZrXxQnKGRRvC/wPJZM8frqgscCG/fl9+2eXueGKrvKRnnWBnGwkmSBD1QBfHKQybHu2bvy0v2mAh8OhL1fXpfxNAtW+0w/AAQC33DVJQCCAHRYsjEWykBfxvKLgLXfKeOuTJf3jAsO5uDqlmoUpAiAd/p0AO74jnmAclKP++/TfRufr1bjODiJOSNgaCHCD76lXzD3oTnzB/pjaXpqm/M8bZjz5g9WSVlJASkgBaSAFJACUkAKSAEpIAWkgBSQAlJACkgBKSAFpIAUkAJSQApIgcMV+A+R4MZNIVisZAAAAABJRU5ErkJggg==;" vertex="1" parent="1">
          <mxGeometry x="320" y="460" width="1288" height="560" as="geometry" />
        </mxCell>
        <mxCell id="fTztNK8zsogFQmW7qKG--2" value="" style="endArrow=classic;html=1;rounded=0;" edge="1" parent="1">
          <mxGeometry width="50" height="50" relative="1" as="geometry">
            <mxPoint x="910" y="790" as="sourcePoint" />
            <mxPoint x="960" y="740" as="targetPoint" />
          </mxGeometry>
        </mxCell>
        <mxCell id="fTztNK8zsogFQmW7qKG--3" value="" style="endArrow=classic;html=1;rounded=0;exitX=0.365;exitY=0.214;exitDx=0;exitDy=0;exitPerimeter=0;entryX=0.474;entryY=0.214;entryDx=0;entryDy=0;entryPerimeter=0;strokeWidth=6;" edge="1" parent="1" source="fTztNK8zsogFQmW7qKG--1" target="fTztNK8zsogFQmW7qKG--1">
          <mxGeometry width="50" height="50" relative="1" as="geometry">
            <mxPoint x="910" y="790" as="sourcePoint" />
            <mxPoint x="960" y="740" as="targetPoint" />
          </mxGeometry>
        </mxCell>
        <mxCell id="fTztNK8zsogFQmW7qKG--4" value="" style="endArrow=classic;html=1;rounded=0;exitX=0.365;exitY=0.214;exitDx=0;exitDy=0;exitPerimeter=0;entryX=0.8;entryY=0.214;entryDx=0;entryDy=0;entryPerimeter=0;strokeWidth=6;" edge="1" parent="1" target="fTztNK8zsogFQmW7qKG--1">
          <mxGeometry width="50" height="50" relative="1" as="geometry">
            <mxPoint x="1060" y="583" as="sourcePoint" />
            <mxPoint x="1201" y="583" as="targetPoint" />
          </mxGeometry>
        </mxCell>
        <mxCell id="fTztNK8zsogFQmW7qKG--5" value="" style="endArrow=classic;html=1;rounded=0;exitX=0.87;exitY=0.482;exitDx=0;exitDy=0;exitPerimeter=0;entryX=0.691;entryY=0.732;entryDx=0;entryDy=0;entryPerimeter=0;strokeWidth=6;" edge="1" parent="1" source="fTztNK8zsogFQmW7qKG--1" target="fTztNK8zsogFQmW7qKG--1">
          <mxGeometry width="50" height="50" relative="1" as="geometry">
            <mxPoint x="1070" y="593" as="sourcePoint" />
            <mxPoint x="1360" y="590" as="targetPoint" />
          </mxGeometry>
        </mxCell>
        <mxCell id="fTztNK8zsogFQmW7qKG--6" value="&lt;font style=&quot;font-size: 32px;&quot;&gt;Script Python&lt;/font&gt;" style="text;html=1;strokeColor=none;fillColor=none;align=center;verticalAlign=middle;whiteSpace=wrap;rounded=0;" vertex="1" parent="1">
          <mxGeometry x="1150" y="620" width="60" height="30" as="geometry" />
        </mxCell>
      </root>
    </mxGraphModel>
  </diagram>
</mxfile>
